<?xml version="1.0" encoding="UTF-8" standalone="no"?>
<!-- Generator: Adobe Illustrator 24.0.1, SVG Export Plug-In . SVG Version: 6.00 Build 0)  -->

<svg
   version="1.1"
   id="Capa_1"
   x="0px"
   y="0px"
   viewBox="0 0 335936.17 358321.95"
   xml:space="preserve"
   width="335936.16"
   height="358321.94"
   xmlns="http://www.w3.org/2000/svg"
   xmlns:svg="http://www.w3.org/2000/svg"><defs
   id="defs99" />
<style
   type="text/css"
   id="style1">
	.st0{fill:none;stroke:url(#SVGID_1_);stroke-width:1.7896;stroke-miterlimit:10;}
	.st1{fill:none;stroke:url(#SVGID_2_);stroke-width:5.3687;stroke-miterlimit:10;}
	.st2{fill:none;stroke:url(#SVGID_3_);stroke-width:1.7896;stroke-miterlimit:10;}
	.st3{fill:#C6D7CF;}
	.st4{fill:#C7C38F;}
	.st5{fill:#CFD6BB;}
	.st6{fill:#79A28F;}
	.st7{fill:#809B96;}
	.st8{fill:#81948B;}
	.st9{fill:#81918F;}
	.st10{fill:#534351;}
	.st11{fill:#4A6360;}
	.st12{fill:#524351;}
	.st13{fill:#BCC497;}
	.st14{fill:#D8D5B3;}
	.st15{fill:#7A9080;}
	.st16{fill:#C8DAB9;}
	.st17{fill:#9BAE7F;}
</style>
<linearGradient
   id="SVGID_1_"
   gradientUnits="userSpaceOnUse"
   x1="-1098.1627"
   y1="1601.2797"
   x2="-527.85779"
   y2="1601.2797"
   gradientTransform="rotate(-90,-906,402)">
	<stop
   offset="0"
   style="stop-color:#D89D3B"
   id="stop1" />
	<stop
   offset="0.1023"
   style="stop-color:#DBA141"
   id="stop2" />
	<stop
   offset="0.2373"
   style="stop-color:#E4AB51"
   id="stop3" />
	<stop
   offset="0.3899"
   style="stop-color:#F2BD6D"
   id="stop4" />
	<stop
   offset="0.5"
   style="stop-color:#FFCC85"
   id="stop5" />
	<stop
   offset="0.5765"
   style="stop-color:#FCC880"
   id="stop6" />
	<stop
   offset="0.6708"
   style="stop-color:#F4BC71"
   id="stop7" />
	<stop
   offset="0.7744"
   style="stop-color:#E6A958"
   id="stop8" />
	<stop
   offset="0.8848"
   style="stop-color:#D38E35"
   id="stop9" />
	<stop
   offset="0.9993"
   style="stop-color:#BA6B08"
   id="stop10" />
	<stop
   offset="1"
   style="stop-color:#BA6B08"
   id="stop11" />
</linearGradient>

<linearGradient
   id="SVGID_2_"
   gradientUnits="userSpaceOnUse"
   x1="-1462.8831"
   y1="1618.7419"
   x2="-875.81921"
   y2="1618.7419"
   gradientTransform="matrix(-0.2707,-0.9627,0.9627,-0.2707,-1588.6099,-383.1355)">
	<stop
   offset="0"
   style="stop-color:#D89D3B"
   id="stop12" />
	<stop
   offset="0.1023"
   style="stop-color:#DBA141"
   id="stop13" />
	<stop
   offset="0.2373"
   style="stop-color:#E4AB51"
   id="stop14" />
	<stop
   offset="0.3899"
   style="stop-color:#F2BD6D"
   id="stop15" />
	<stop
   offset="0.5"
   style="stop-color:#FFCC85"
   id="stop16" />
	<stop
   offset="0.5765"
   style="stop-color:#FCC880"
   id="stop17" />
	<stop
   offset="0.6708"
   style="stop-color:#F4BC71"
   id="stop18" />
	<stop
   offset="0.7744"
   style="stop-color:#E6A958"
   id="stop19" />
	<stop
   offset="0.8848"
   style="stop-color:#D38E35"
   id="stop20" />
	<stop
   offset="0.9993"
   style="stop-color:#BA6B08"
   id="stop21" />
	<stop
   offset="1"
   style="stop-color:#BA6B08"
   id="stop22" />
</linearGradient>

<linearGradient
   id="SVGID_3_"
   gradientUnits="userSpaceOnUse"
   x1="-707.94629"
   y1="1449.2174"
   x2="-126.4161"
   y2="1449.2174"
   gradientTransform="matrix(0.3105,-0.9506,0.9506,0.3105,-961.4344,-541.2914)">
	<stop
   offset="0"
   style="stop-color:#D89D3B"
   id="stop23" />
	<stop
   offset="0.1023"
   style="stop-color:#DBA141"
   id="stop24" />
	<stop
   offset="0.2373"
   style="stop-color:#E4AB51"
   id="stop25" />
	<stop
   offset="0.3899"
   style="stop-color:#F2BD6D"
   id="stop26" />
	<stop
   offset="0.5"
   style="stop-color:#FFCC85"
   id="stop27" />
	<stop
   offset="0.5765"
   style="stop-color:#FCC880"
   id="stop28" />
	<stop
   offset="0.6708"
   style="stop-color:#F4BC71"
   id="stop29" />
	<stop
   offset="0.7744"
   style="stop-color:#E6A958"
   id="stop30" />
	<stop
   offset="0.8848"
   style="stop-color:#D38E35"
   id="stop31" />
	<stop
   offset="0.9993"
   style="stop-color:#BA6B08"
   id="stop32" />
	<stop
   offset="1"
   style="stop-color:#BA6B08"
   id="stop33" />
</linearGradient>















































<path
   class="st3"
   d="m 215.2,26.9 c 0,0 3.6,-12.7 -9.6,-14 0,0 -7.6,-4.4 -6.4,1.1 0,0 2,19.8 16,12.9 z"
   id="path33"
   style="fill:#c6d7cf" /><path
   class="st4"
   d="m 204.3,34.5 -11.1,-5.3 c 0,0 -3.6,-5.3 -12.7,-2 0,0 -3.3,5.3 8.7,10.7 0,-0.1 9.8,7.3 15.1,-3.4 z"
   id="path34"
   style="fill:#c7c38f" /><path
   class="st5"
   d="m 183.2,62.7 c 0,0 -2.2,-4.7 -0.2,-9.6 0,0 1.3,-7.6 -11.6,-5.1 0,0 -8.4,4.9 3.1,14.4 0,0.1 5.3,3.6 8.7,0.3 z"
   id="path35"
   style="fill:#cfd6bb" /><path
   class="st4"
   d="m 167.6,66.3 c 0,0 -14.7,-12.4 -27.1,-0.7 0,0 11.3,16.4 27.1,0.7 z"
   id="path36"
   style="fill:#c7c38f" /><path
   class="st3"
   d="m 145.6,82.7 c 0,0 -7.1,-12.2 -22.2,-4 0,0 10.2,15.3 22.2,4 z"
   id="path37"
   style="fill:#c6d7cf" /><path
   class="st4"
   d="m 134.5,92.9 c 0,0 -13.6,-11.6 -27.1,2.4 0,0 -1.1,2 1.6,2.4 0,0.1 18.6,7.9 25.5,-4.8 z"
   id="path38"
   style="fill:#c7c38f" /><path
   class="st6"
   d="m 150.7,99.6 c 0,0 -15.6,-2 -17.6,13.3 0.1,0 15.2,1.4 17.6,-13.3 z"
   id="path39"
   style="fill:#79a28f" /><path
   class="st6"
   d="m 181.2,93.8 c 0,0 -16.7,4 -19.3,17.6 0,0 0.2,4 6,1.1 -0.1,0 17.7,-6.7 13.3,-18.7 z"
   id="path40"
   style="fill:#79a28f" /><path
   class="st3"
   d="m 193.4,90.7 c 0,0 -9.1,7.8 -1.8,16 0,0 8.9,-7.5 1.8,-16 z"
   id="path41"
   style="fill:#c6d7cf" /><path
   class="st3"
   d="m 229.2,84 c 0,0 -19.1,-1.1 -23.3,13.3 0,0 -5.6,7.1 4.2,4.7 0,0 17.7,-0.6 19.1,-18 z"
   id="path42"
   style="fill:#c6d7cf" /><path
   class="st5"
   d="m 239.6,81.4 c 0,0 -12.7,8.9 -1.1,24 0,0 13.3,-12.5 1.1,-24 z"
   id="path43"
   style="fill:#cfd6bb" /><path
   class="st3"
   d="m 284.1,58.5 c 0,0 -11.6,-14 -17.8,-0.7 0,0 9.1,9.6 17.8,0.7 z"
   id="path44"
   style="fill:#c6d7cf" /><path
   class="st3"
   d="m 281,68 c 0,0 -16,-6.9 -24.7,8.2 0,0.1 18.7,8.1 24.7,-8.2 z"
   id="path45"
   style="fill:#c6d7cf" /><path
   class="st6"
   d="m 280.1,78.3 c 0,0 -14.1,1 -15.5,7.5 -0.1,0.4 -0.1,0.9 -0.1,1.4 0,0 1.1,4.2 -2.9,8.7 0,0 -4.4,5.3 3.3,2.4 0.1,0 17.6,-2 15.2,-20 z"
   id="path46"
   style="fill:#79a28f" /><path
   class="st7"
   d="m 310.7,42.3 c 0,0 -69.8,5.3 -87.8,-7.8 l -8.2,-8.4 -2.4,0.9 7.8,7.3 c 0,0 -11.8,2.7 -19.8,1.1 l -1.3,2 c 0,0 13.6,2.2 18.7,-0.7 0,0 5.1,-1.6 8.2,1.6 0,0 22.4,6.9 36.7,5.6 0,0 -15.8,3.6 -22.9,8.9 l -31.8,17.1 c 0,0 -19.3,4.2 -25.6,-8.9 l -1.6,1.1 7.6,7.1 -24.9,-3.6 -2.4,1.6 29.1,3.8 15.3,0.7 -1.1,1.3 -36.2,12.2 -3.6,0.9 -22.2,-4 v 1.3 l 17.1,3.1 -10.4,2.9 c 0,0 -6.7,4 -18.4,2.9 l -1.6,2.2 c 0,0 13.8,0.9 20.9,-3.3 l 11.8,-2.9 -14.4,13.1 0.7,2 L 165.6,87.2 198,77 178,97.7 h 1.6 L 193,84 l 0.2,13.1 1.1,-0.2 1.3,-15.3 14.4,-10.7 31,-17.5 c 0,0 11.8,-5.1 16.7,-6.2 0,0 -13.6,12.9 -17.8,21.3 0,0 -7.8,17.6 -16.9,19.8 l 1.3,1.3 c 0,0 12.2,-8.2 14.9,-16.9 l -0.2,16.2 2.2,-0.2 c 0,0 -3.3,-15.3 1.6,-21.3 0,0 8.2,-15.8 18,-19.3 l 8,-4.2 42.9,0.9 z"
   id="path47"
   style="fill:#809b96" /><path
   class="st7"
   d="m 310.7,42.9 c 0,0 -13,-2.7 -17.5,7.7 0,0 -1.7,7.2 -5.9,8 l -14.2,-3.3 14.6,4.6 -16.1,13.4 h 1 l 15.6,-12.8 c 0,0 -4.7,16.6 -15.1,23.4 0,0 13,-5.6 17.5,-23.1 4.4,-17.5 8.6,-19 21,-16.6 z"
   id="path48"
   style="fill:#809b96" /><path
   class="st8"
   d="m 467.8,85.4 c 0,0 -31.4,-7.6 -27.1,-34.9 0.1,-0.4 0.1,-0.7 0.2,-1.1 0,0 -10.6,-13.2 -7.4,-34.2 l 21,15.5 c 0,0 16.6,12.1 13.5,25 0,0 -3.8,20.6 -0.2,29.7 z"
   id="path49"
   style="fill:#81948b" /><path
   class="st4"
   d="m 418.6,48.8 c 0,0 3.3,-36.1 -23.1,-39.4 0,0 -9.5,-6.4 -25.6,-5.9 0,0 -3.1,3.5 6.7,7.9 0,0 10.2,6.7 9.7,13.1 0,0 0.2,17.2 15.4,21.3 0,0.1 10.4,3.5 16.9,3 z"
   id="path50"
   style="fill:#c7c38f" /><path
   class="st4"
   d="m 375.6,38.7 c 0,0 -4.2,-11.9 -12.3,-13.2 0,0 -6.3,-1.9 -11,-12 0,0 -6.6,-7.5 -27,-4.7 0,0 -12.9,-1.7 -8.4,2.1 0,0 9.6,15.9 20.5,20.6 0.1,0.1 16.1,13.2 38.2,7.2 z"
   id="path51"
   style="fill:#c7c38f" /><path
   class="st5"
   d="m 404.9,56.6 -29.6,-5.5 c 0,0 -8.9,-1.9 -25.3,5.3 l -11.9,1.8 c 0,0 -11,1.4 1.2,5.4 0,0.1 37.2,22.5 65.6,-7 z"
   id="path52"
   style="fill:#cfd6bb" /><path
   class="st8"
   d="m 342.2,49 c 0,0 -12.6,-3.1 -27.8,6.3 l -11.9,3.6 c 0,0 -4.6,2.8 0.4,2.5 0,0 8.4,4.4 13.2,2.7 0,0 7.3,-2.1 13,-9.3 0.1,-0.1 7.4,-4.9 13.1,-5.8 z"
   id="path53"
   style="fill:#81948b" /><polygon
   class="st9"
   points="390.8,23.3 400.3,38.1 404.7,42.9 410.1,46.4 414.5,49.4 420.7,55.9 428.1,66.9 416,59.2 403.2,54.7 385.8,46.4 360.6,32.5 380.7,46.4 347.5,44 331.8,43.2 324.4,44 319.7,47 333.3,45.5 344.9,46.4 336.6,50.3 347.8,46.7 378.4,48.2 392,51.8 401.5,56.2 394.7,57.4 410.4,58.9 423.4,66 445.9,84.3 436.4,83.2 423.1,79 393.8,81.1 423.4,81.4 436.4,85.8 446.5,86.7 454.8,90.9 471.4,107.8 484.4,122.9 467.8,118.1 454.2,115.5 469.6,120.2 485,124.3 498.4,143.3 498.7,140.6 485,119.9 472.3,104.5 467.2,88.5 463.4,81.7 457.5,73.7 453.6,68.3 457.2,76.3 461.3,82.9 467,92 468.1,99.8 441.2,75.8 431.1,67.8 419.5,51.8 413.6,46.7 407.1,42 402.7,38.7 395.2,27.2 "
   id="polygon53"
   style="fill:#81918f" /><g
   id="g60">
	<path
   class="st10"
   d="m 458.7,125.3 c 0,0 8.2,-20 42.2,-31.2 0,0 -18.2,2.9 -25.7,11.2 l 29.6,-31.6 -22.2,21.5 z"
   id="path54"
   style="fill:#534351" />
	<path
   class="st8"
   d="m 511.9,94.2 c 12.3,1.2 21.5,-2.5 28.1,-7.1 0.9,-0.9 1.4,-1.5 1.4,-1.5 -10.9,4.2 -19.3,1.1 -19.3,1.1 -25.5,-4.2 -46.8,19 -46.8,19 0.6,-0.2 1.4,-0.4 2.2,-0.5 13.6,-10.6 34.4,-11 34.4,-11 z"
   id="path55"
   style="fill:#81948b" />
	<path
   class="st11"
   d="m 540,87.1 c -6.5,4.6 -15.7,8.3 -28.1,7.1 0,0 -20.9,0.4 -34.3,11 9,-1.7 30.3,-2.8 30.3,-2.8 C 524.5,101 536.1,91 540,87.1 Z"
   id="path56"
   style="fill:#4a6360" />
	<path
   class="st8"
   d="m 543.9,62.3 c 0.1,-0.1 0.1,-0.1 0.1,-0.1 -11.6,-1 -34.8,4 -34.8,4 -15.8,2.7 -23.7,27 -23.7,27 l 0.2,-0.1 C 511,68.6 531.1,62.7 543.9,62.3 Z"
   id="path57"
   style="fill:#81948b" />
	<path
   class="st11"
   d="m 485.7,93.1 29.5,-11.2 c 14.9,-5.3 27.4,-18.2 28.7,-19.6 -12.8,0.4 -32.9,6.3 -58.2,30.8 z"
   id="path58"
   style="fill:#4a6360" />
	<path
   class="st11"
   d="m 472.6,108 c 0.1,0.5 0.1,0.7 0.1,0.7 17.4,-20.3 16.5,-34.2 16.5,-34.2 -0.8,-6.8 0.2,-12 0.8,-14.4 -4,5.4 -10.7,18.2 -17.4,47.9 z"
   id="path59"
   style="fill:#4a6360" />
	<path
   class="st8"
   d="M 472.6,108 C 479.4,78.3 486,65.5 490,60.1 c 0.2,-0.9 0.4,-1.3 0.4,-1.3 -4.1,3.3 -12.8,14.7 -12.8,14.7 -9.2,8.4 -5.8,30.3 -5,34.5 z"
   id="path60"
   style="fill:#81948b" />
</g><path
   class="st12"
   d="m 513.5,186.9 -6.2,-13.9 -5.9,-26.4 -5.3,-7.7 -1.2,13 -1.2,7.1 -1.5,6.5 -2.7,2.7 c 0,0 5.3,-20.4 5.3,-30.8 l -10.4,-14.2 13,5.6 -8.6,-2.1 15.4,21 4.1,3.9 11.3,3.9 -0.3,1.2 -8,-2.1 -6.8,-3.9 2.7,15.1 7.4,19.9 z"
   id="path61"
   style="fill:#524351" /><path
   class="st9"
   d="m 467.5,134.7 c 0,0 14.8,-8.9 15.7,-16 0,0 -1.7,14.2 -15.7,16 z"
   id="path62"
   style="fill:#81918f" /><path
   class="st8"
   d="m 523.4,216.7 c 0,0 4.8,12.4 6.8,30 3.4,-7 15.5,-35.1 2,-51.4 l -24.7,-28.1 c 0,0 -0.2,0.7 -0.5,1.9 6.8,8.5 15.7,24 16.4,47.6 z"
   id="path63"
   style="fill:#81948b" /><path
   class="st11"
   d="m 530.2,246.6 c -1.9,-17.6 -6.8,-30 -6.8,-30 -0.7,-23.5 -9.6,-39.1 -16.4,-47.6 -1.4,5.1 -5.4,19 -8.4,23.4 0,0 -5.8,18.3 10.4,29.8 0,0 19,12.4 20.5,26 -0.1,0 0.2,-0.5 0.7,-1.6 z"
   id="path64"
   style="fill:#4a6360" /><path
   class="st11"
   d="m 573.1,163.8 c -4.1,-1.5 -6.5,-7.7 -6.5,-7.7 -3,-7.6 -20.1,-14.2 -20.1,-14.2 -10.6,-8.4 -18.9,2.1 -18.9,2.1 -8.8,11 -19.9,6.6 -19.1,8.6 3.6,1.2 42.7,13.1 64.6,11.2 z"
   id="path65"
   style="fill:#4a6360" /><path
   class="st8"
   d="m 575.9,163.4 c -1.3,0.4 -2.5,0.2 -3.6,-0.3 -19.4,2.3 -54.3,-7.5 -63.8,-10.3 13.7,19.9 30.3,21.4 30.3,21.4 27.9,4.7 37.1,-10.8 37.1,-10.8 z"
   id="path66"
   style="fill:#81948b" /><path
   class="st11"
   d="m 494.7,146.7 c 0,0 -0.3,0.9 -1,2.3 0.2,7.8 -3.4,18.5 -15.5,32.7 0,0 -4.6,11.8 -7.1,26.9 l 10.2,-13 c 0,-0.1 26.2,-8.4 13.4,-48.9 z"
   id="path67"
   style="fill:#4a6360" /><path
   class="st8"
   d="m 493.6,149 c -2.2,4.2 -8,12.6 -20.7,15 0,0 -19.4,10.7 -8.4,30 0,0 -0.9,13.7 6,15.2 l 0.5,-0.7 c 2.6,-15 7.1,-26.9 7.1,-26.9 12.1,-14.1 15.7,-24.8 15.5,-32.6 z"
   id="path68"
   style="fill:#81948b" /><path
   class="st11"
   d="m 495.8,126.9 c -0.2,0.5 -0.3,0.9 -0.3,0.9 17.7,15.5 27.7,-3.2 29,-5.7 -9,4.7 -21.8,5.1 -28.7,4.8 z"
   id="path69"
   style="fill:#4a6360" /><path
   class="st8"
   d="m 513.6,120 c -11.1,-6.9 -16.5,3.7 -17.9,7 7,0.3 19.7,-0.1 28.7,-4.9 0.1,-0.2 0.1,-0.3 0.1,-0.3 -7.3,3.1 -10.9,-1.8 -10.9,-1.8 z"
   id="path70"
   style="fill:#81948b" /><path
   class="st13"
   d="m 417.9,136.7 c -0.9,-0.2 -1.8,-0.4 -2.7,-0.7 0,0 18,29.4 46.7,15 0,0 18,-11.6 10.2,-19 -22.5,20.8 -45.5,10.1 -54.2,4.7 z"
   id="path71"
   style="fill:#bcc497" /><path
   class="st14"
   d="m 417.9,136.7 c 8.7,5.4 31.6,16.1 54.1,-4.8 -0.9,-0.8 -2.1,-1.6 -3.7,-2.3 -8.6,-3.8 -29.2,12 -50.4,7.1 z"
   id="path72"
   style="fill:#d8d5b3" /><path
   class="st4"
   d="m 473,121.6 c 0.1,0 0.1,-0.1 0.2,-0.1 0,0 -34.5,-40.5 -78.1,-2.3 0,0 0.6,-0.1 1.6,-0.3 17.7,-5.9 49.5,-12.6 76.3,2.7 z"
   id="path73"
   style="fill:#c7c38f" /><path
   class="st5"
   d="m 473,121.6 c -26.8,-15.3 -58.6,-8.6 -76.3,-2.7 4.5,-0.7 17.3,-1.9 24.6,6.7 0,-0.1 21,12.4 51.7,-4 z"
   id="path74"
   style="fill:#cfd6bb" /><path
   class="st3"
   d="M 454.5,30.7 433.8,15.4 c 1.6,10.9 5,23 12.3,28.8 0,0 8.9,4.7 8.9,14.2 0,0 2.9,17.6 12.7,26.4 -3.3,-9.3 0.4,-29.1 0.4,-29.1 3,-12.9 -13.6,-25 -13.6,-25 z"
   id="path75"
   style="fill:#c6d7cf" /><path
   class="st6"
   d="m 406.3,82.7 c 13.2,0.3 21.1,1.2 25.9,2.1 0.5,-0.7 0.9,-1.5 1.4,-2.3 l -0.2,-0.3 c 0,0 -18.6,-17.5 -31.5,-10.5 0,0 -7.4,7.2 -14.3,5.5 0,0 -4.9,-4.7 -13,-0.1 l -15.5,3.3 c 0,0 -0.6,0.7 -0.6,1.5 19.6,2.7 47.8,0.8 47.8,0.8 z"
   id="path76"
   style="fill:#79a28f" /><path
   class="st5"
   d="m 432.2,84.8 c -4.8,-0.9 -12.7,-1.8 -25.9,-2.1 0,0 -28.2,1.8 -47.7,-0.8 0,0.9 0.8,1.9 4.1,2.4 0,0 15.6,10.5 26.5,8.8 0,0 12.6,-4.4 20,0.1 0,0 15,3.4 23,-8.4 z"
   id="path77"
   style="fill:#cfd6bb" /><path
   class="st11"
   d="m 314.5,31.2 c -11.8,-3 -20,-10.7 -25.6,-18.6 -0.1,0.1 -0.2,0.1 -0.2,0.2 0,0 -1.2,2.1 3.3,6.2 0,0 5.9,13 18.5,18.1 0,0 8.4,1 11.6,3.7 0,0 4.1,3 9.6,3.4 -9.6,-7.8 -17.2,-13 -17.2,-13 z"
   id="path78"
   style="fill:#4a6360" /><path
   class="st8"
   d="m 325.6,31.6 c 0,0 3.3,-6.5 -6.1,-8.4 0,0 -7.4,-6.2 -18.8,-5.5 0,0 -5.8,1 -8.2,-3.3 0,0 -2.5,-2.6 -3.8,-1.8 5.7,7.9 13.9,15.6 25.6,18.6 0,0 7.6,5.2 17.1,13 1.5,0.1 3,0 4.6,-0.4 0.1,0 -9.3,-3.5 -10.4,-12.2 z"
   id="path79"
   style="fill:#81948b" /><path
   class="st11"
   d="m 307.5,47.6 c -12,1.6 -23.4,-3.3 -31.3,-8.1 -0.2,0.3 -0.1,0.8 0.7,1.7 0,0 8,8.6 18.1,9.2 0,0 19.9,8.9 31.7,-5.2 -10.3,2.3 -19.2,2.4 -19.2,2.4 z"
   id="path80"
   style="fill:#4a6360" /><path
   class="st8"
   d="m 289.5,40 c 0,0 -6.3,3.3 -12.1,-0.6 0,0 -1,-0.2 -1.3,0.3 7.9,4.8 19.3,9.7 31.3,8.1 0,0 8.9,-0.1 19.2,-2.4 0.2,-0.2 0.3,-0.4 0.5,-0.5 L 311.8,42.2 C 311.6,42.1 296.6,36.6 289.5,40 Z"
   id="path81"
   style="fill:#81948b" /><g
   id="g88">
	<path
   class="st10"
   d="m 182.1,547.5 c 0,0 1.3,-0.5 -1,-0.3 -11.5,0.9 -20,21.5 -64.4,16.2 0,0 23,5.6 36,-0.5 l -50.7,22.7 36.9,-14.4 z"
   id="path82"
   style="fill:#534351" />
	<path
   class="st8"
   d="m 103,557.2 c -14,-7.5 -26.7,-7.8 -36.7,-5.5 -1.5,0.6 -2.4,1 -2.4,1 15,0.4 23.4,8.2 23.4,8.2 28,17.7 64.8,0.8 64.8,0.8 -0.8,-0.1 -1.8,-0.3 -2.9,-0.5 -21.4,5.9 -46.2,-4 -46.2,-4 z"
   id="path83"
   style="fill:#81948b" />
	<path
   class="st11"
   d="m 66.3,551.7 c 10,-2.2 22.7,-2 36.7,5.5 0,0 24.9,9.9 46.1,4.1 -11.5,-2.4 -37.2,-11.7 -37.2,-11.7 -20.4,-6.7 -39.2,-0.5 -45.6,2.1 z"
   id="path84"
   style="fill:#4a6360" />
	<path
   class="st8"
   d="m 50.1,579.7 c -0.1,0.1 -0.2,0.1 -0.2,0.1 13.2,6.9 43.1,12.6 43.1,12.6 20.1,4.6 41.4,-20.2 41.4,-20.2 h -0.2 c -42,16.4 -68.7,13.4 -84.1,7.5 z"
   id="path85"
   style="fill:#81948b" />
	<path
   class="st11"
   d="m 134.2,572.2 -40.4,-1.4 c -20.3,-1.2 -41.5,7.9 -43.7,8.9 15.4,5.9 42.1,8.9 84.1,-7.5 z"
   id="path86"
   style="fill:#4a6360" />
	<path
   class="st11"
   d="m 162.6,558.6 c 0.2,-0.5 0.3,-0.8 0.3,-0.8 -27.3,9.7 -33.9,23.3 -33.9,23.3 -2.9,6.8 -6.6,11.2 -8.5,13.1 6.6,-2.9 19.8,-11.4 42.1,-35.6 z"
   id="path87"
   style="fill:#4a6360" />
	<path
   class="st8"
   d="m 162.6,558.6 c -22.3,24.3 -35.5,32.7 -42.1,35.6 -0.7,0.7 -1.1,1.1 -1.1,1.1 5.7,-0.9 20,-6.9 20,-6.9 13.1,-3.1 21.6,-25.4 23.2,-29.8 z"
   id="path88"
   style="fill:#81948b" />
</g><g
   id="g99">
	<path
   class="st15"
   d="m 78.7,437.6 4.7,11.5 3.2,11.6 7.8,23.7 10.6,18.6 -7.3,-3.8 -8.7,-2.2 -6.6,2.2 9.7,0.3 6.2,2.1 9.2,4.9 11.8,14.3 19.1,13.7 14.7,7 -6.3,4.9 -7,2.6 6,-0.8 10.7,-6.5 18.4,5.3 3.9,1 3.6,1 -0.1,-2.1 -19.8,-4.6 -5.1,-2.3 c 0,0 -17.1,-13.7 -21.3,-29.4 l -2.3,1.7 c 0,0 11.8,21 21,27.5 L 140.5,533.2 121,520.7 110.6,508 98,486.8 l 0.5,-16.2 2.3,-7.6 -3.4,-0.6 -1.1,21.3 -8.8,-30.3 -7,-14.4 z"
   id="path89"
   style="fill:#7a9080" />
	<path
   class="st16"
   d="m 69.2,371.3 c -4.6,5.1 -12.9,16.4 -11.9,29.4 0,0 -11.7,9.8 1.1,20.1 0,0 6.3,24.4 26.9,34 0,0 0,-0.3 0,-0.8 C 71.9,426.4 69.5,390.6 69.2,371.3 Z"
   id="path90"
   style="fill:#c8dab9" />
	<path
   class="st17"
   d="m 85.3,454 c 0.1,-3.8 1,-19.8 7.6,-26.1 0,0 16.2,-20.9 -6.1,-37.8 0,0 -5.9,-22.7 -14.7,-21.8 0,0 -1.2,1.1 -2.9,3 0.3,19.3 2.7,55.1 16.1,82.7 z"
   id="path91"
   style="fill:#9bae7f" />
	<path
   class="st17"
   d="m 93.4,499.3 c -0.4,-1.4 -1.2,-2.9 -2.4,-4.6 0,0 -10.1,-29.7 -33.7,-12.8 0,0 -6.3,3.5 -13,1.3 0,0 -11.2,1.4 -18.1,15.3 0,0 0.2,0.2 0.5,0.5 16,-6 44.3,-13.2 66.7,0.3 z"
   id="path92"
   style="fill:#9bae7f" />
	<path
   class="st16"
   d="M 93.4,499.3 C 71,485.8 42.7,493 26.9,499 c 3.6,3.4 24.9,22.3 39.2,14.1 0,0 3,-1.8 9.1,-0.1 5.3,1.5 20.9,-3.8 18.2,-13.7 z"
   id="path93"
   style="fill:#c8dab9" />
	<path
   class="st16"
   d="m 131.6,476.4 c 2.5,-13.8 -1.8,-21.3 -6,-25.2 -6.7,9.3 -35,52.7 10.7,68.2 0,0 1,0 2.3,-0.5 -10.6,-17.7 -7,-42.5 -7,-42.5 z"
   id="path94"
   style="fill:#c8dab9" />
	<path
   class="st17"
   d="m 147.5,469.9 c 0,0 -6.4,-23.2 -20.5,-20.5 0,0 -0.5,0.6 -1.3,1.8 4.3,4 8.5,11.5 6,25.2 0,0 -3.6,24.8 7.1,42.5 2,-0.7 4.8,-2.2 5.7,-6 -0.1,0 14.3,-21.4 3,-43 z"
   id="path95"
   style="fill:#9bae7f" />
	<path
   class="st17"
   d="m 117.2,536.2 c 0,0 7.5,2.8 15.4,1.3 0,0 6.7,1.8 13,4.7 -2.8,-2.6 -6.8,-7.1 -9.7,-14.1 0,0 -3.6,-12.7 -22.7,-6.5 0,0 -3.5,3.8 -9.4,0.5 0,0 -0.1,0.4 -0.2,1.1 3.1,4.7 7.9,10.5 13.6,13 z"
   id="path96"
   style="fill:#9bae7f" />
	<path
   class="st16"
   d="m 132.6,537.5 c -7.9,1.5 -15.4,-1.3 -15.4,-1.3 -5.7,-2.5 -10.4,-8.3 -13.5,-12.9 -1,5.3 -4.1,29.6 17.9,34.8 0,0 17,4.8 27.4,-13.2 0,0 -1.4,-0.9 -3.4,-2.7 -6.4,-2.9 -13,-4.7 -13,-4.7 z"
   id="path97"
   style="fill:#c8dab9" />
	<path
   class="st17"
   d="m 123.7,423.1 c -3.7,11.4 -10.7,17.3 -10.7,17.3 -10.1,6.7 -13.2,18.3 -14.1,25 7.7,0.3 9.5,-8.8 9.5,-8.8 17.2,-3.3 13.9,-17.2 13.9,-17.2 5.4,-7.3 3.4,-13.1 1.4,-16.3 z"
   id="path98"
   style="fill:#9bae7f" />
	<path
   class="st16"
   d="m 121.4,420.4 c -3,7.7 -13.4,9.4 -13.4,9.4 -25.2,11.1 -10.3,35.5 -10.3,35.5 0.4,0.1 0.8,0.1 1.1,0.1 1,-6.6 4.1,-18.2 14.1,-25 0,0 7.1,-5.9 10.7,-17.3 -1,-1.8 -2.2,-2.7 -2.2,-2.7 z"
   id="path99"
   style="fill:#c8dab9" />
</g></svg>
