<?xml version="1.0" encoding="UTF-8" standalone="no"?>

<svg
   width="132.821mm"
   height="39.521mm"
   viewBox="0 0 132.821 39.521"
   version="1.1"
   id="svg1"
   xmlns="http://www.w3.org/2000/svg"
   xmlns:svg="http://www.w3.org/2000/svg">
  <defs
     id="defs1" />
  <g
     id="layer1">
    <path
       d="m 22.816545,39.377531 c -0.72102,-0.29462 -1.12063,-1.24559 -1.12063,-2.66681 0,-0.95653 -0.0457,-1.02594 -0.51177,-0.77653 -0.32772,0.17539 -4.22892,0.27389 -10.84792,0.27389 -10.15975043,0 -10.336140427246,-0.009 -10.336140427246,-0.52916 0,-0.52023 0.176389997246,-0.52917 10.435430427246,-0.52917 5.73948,0 10.49578,-0.0976 10.56954,-0.217 0.0738,-0.11935 -0.0369,-1.16115 -0.24585,-2.31511 -0.20898,-1.15395 -0.45767,-4.0031 -0.55265,-6.33143 -0.20061,-4.91792 0.14594,-8.6143 1.12409,-11.9897 1.16477,-4.01938 3.7337,-8.5155095 4.86546,-8.5155095 0.28946,0 1.3301,0.65479 2.31253,1.45509 2.02091,1.64625 6.29333,3.8654495 8.66541,4.5010195 2.54232,0.68118 7.0026,0.80542 9.65729,0.26899 5.42601,-1.09642 10.92957,-4.8847195 14.4541,-9.9492495 0.64676,-0.92936 1.35635,-1.79072004 1.57687,-1.91413004 0.96333,-0.5391 4.00761,0.52275 5.53257,1.92977004 0.50667,0.46748 1.19597,0.78239 1.90584,0.87068 1.47123,0.18299 2.67935,1.0813 3.27981,2.43872 0.40955,0.92587 0.67204,1.15851 1.62029,1.43604 0.62236,0.18215 1.48972,0.53813 1.92748,0.79108 0.43776,0.25294 1.37772,0.65814 2.0888,0.90043 2.69724,0.91904 5.73501,3.4966895 6.10475,5.1800695 0.16878,0.76844 0.4818,0.98488 3.66732,2.53564 5.30488,2.5825 8.45573,3.42425 14.431315,3.85533 11.38886,0.82157 13.6965,1.34193 16.2674,3.66815 1.006,0.91025 2.04044,2.55591 2.42668,3.8605 l 0.31332,1.05833 5.19652,0.0717 c 5.08898,0.0703 5.19651,0.0833 5.19651,0.63042 0,0.55585 -0.0259,0.55771 -5.12136,0.36763 l -5.12137,-0.19104 -0.15092,1.12522 c -0.083,0.61887 -0.37333,1.43318 -0.64515,1.80958 -2.2664,3.13837 -17.44168,5.88682 -32.749735,5.93141 -6.74328,0.0196 -10.54507,-0.22613 -17.89436,-1.1568 -6.18928,-0.78378 -15.6,-1.57087 -18.81871,-1.57397 l -2.84641,-0.003 0.0455,1.20392 c 0.0307,0.81254 -0.0958,1.34528 -0.38931,1.63876 -0.45443,0.45443 -0.21598,0.44314 -20.28946,0.96086 -3.07899,0.0794 -5.68299,0.034 -6.02312,-0.10493 z m 14.88667,-1.06558 c 5.38427,-0.1551 10.07017,-0.34019 10.41311,-0.41131 0.57378,-0.11899 0.6098,-0.22091 0.45139,-1.27727 -0.13532,-0.90238 -0.0725,-1.24758 0.29345,-1.61357 0.42134,-0.42134 0.894,-0.45035 4.97257,-0.30518 4.23098,0.1506 13.35972,1.00777 20.24968,1.90142 10.00823,1.29809 20.88849,1.19849 31.617705,-0.28942 7.96161,-1.1041 14.07198,-2.81841 15.21213,-4.26788 0.29908,-0.38021 0.53058,-1.07434 0.53058,-1.59086 v -0.91634 l -1.65365,0.17689 c -2.13932,0.22883 -6.62785,1.07189 -9.19071,1.72625 -4.101,1.04707 -11.241005,2.08225 -16.540015,2.398 -9.96402,0.59373 -23.29438,-0.28731 -38.23229,-2.52689 -1.84759,-0.27701 -6.52497,-0.41361 -17.6542,-0.51559 -15.11634,-0.13851 -15.14114,-0.13786 -15.43416,0.40966 -0.42362,0.79155 -0.22555,6.3755 0.24628,6.94284 0.44571,0.53593 1.31509,0.54534 14.71813,0.15925 z m 58.47645,-5.55395 c 3.978925,-0.3231 10.507225,-1.42089 16.284375,-2.73837 2.2644,-0.51639 4.81212,-1.02058 5.6616,-1.12042 1.42115,-0.16703 1.50439,-0.21235 1.04228,-0.56741 -1.05981,-0.81431 -3.76126,-1.8985 -5.71658,-2.29427 -2.53839,-0.51378 -4.71894,-0.51979 -9.53481,-0.0263 -6.667765,0.68331 -12.424595,1.18679 -15.545615,1.35957 -2.58813,0.14329 -3.39509,0.0839 -5.4014,-0.39733 -2.51442,-0.60315 -5.29662,-1.87986 -8.09235,-3.71349 l -1.71979,-1.12795 -3.83646,0.13141 c -4.48554,0.15365 -7.20416,0.82565 -10.70257,2.64552 -1.89574,0.98617 -6.19145,4.54742 -5.87136,4.86751 0.34156,0.34156 18.72058,2.59436 24.24685,2.97205 4.59927,0.31433 15.36586,0.31963 19.18583,0.009 z m -73.23086,-2.93683 c 0.2568,-0.0203 4.70426,-0.007 9.88324,0.0306 l 9.41634,0.0675 0.80339,-1.41965 c 1.62885,-2.8783 5.23315,-5.60664 9.69179,-7.33639 4.63446,-1.79795 6.91997,-2.2573 11.15339,-2.24165 3.29722,0.0122 3.95125,0.0936 5.95313,0.74129 1.23693,0.40017 2.54661,0.88396 2.91042,1.07507 1.33753,0.70266 9.39159,1.13967 9.98924,0.54202 0.0477,-0.0477 0.48606,-1.58502 0.97412,-3.41624 l 0.88737,-3.32949 -0.51044,-1.03168 c -0.63519,-1.28384 -1.26041,-1.87406 -3.25494,-3.0727 -1.93457,-1.1626095 -2.26452,-1.1828495 -2.26452,-0.1389 0,0.99853 -1.03659,2.10464 -1.97235,2.10464 -1.66244,0 -2.36098,-2.35259 -1.05729,-3.5608095 0.73551,-0.68165 0.67692,-0.78363 -0.6086,-1.05935 -0.69589,-0.14925 -0.89301,-0.092 -1.0324,0.29961 -0.5355,1.50463 -2.12893,1.9168 -2.89432,0.74868 -0.40242,-0.61418 -0.40143,-0.71025 0.0139,-1.34409 0.246,-0.37544 0.80735,-0.83402 1.24744,-1.01907 l 0.80017,-0.33644 -0.82689,-0.94178 c -0.45479,-0.51797 -1.18104,-1.06523 -1.61389,-1.21612 -0.43285,-0.15089 -0.7952,-0.25078 -0.80523,-0.22197 -0.01,0.0288 -0.0643,0.40957 -0.12063,0.84614 -0.0563,0.43656 -0.35896,1.00211 -0.67254,1.25677 -1.67314,1.35878 -3.25907,-0.78223 -1.71969,-2.32161 l 0.64391,-0.64391 -0.76085,-0.54178 c -1.02899,-0.7327 -2.48724,-1.32135 -3.27337,-1.32135 -0.49147,0 -0.93167,0.3993 -1.83357,1.6632 -5.03853,7.06087 -12.68916,11.1018095 -20.27022,10.7064095 -4.70908,-0.24561 -9.32249,-1.92782 -13.09609,-4.7752995 -1.00338,-0.75713 -1.97567,-1.48966 -2.16063,-1.62783 -0.46222,-0.34531 -1.15146,0.52947 -2.59628,3.2951795 -1.12885,2.16088 -2.25888,5.89262 -2.66187,8.79044 -0.23144,1.66418 -0.22797,8.13647 0.006,10.50711 l 0.18639,1.8916 0.48992,-0.80561 c 0.26946,-0.44309 0.70004,-0.82223 0.95684,-0.84253 z m 28.41851,-0.0292 c 0.22208,-0.1819 0.86353,-0.90731 1.42545,-1.61203 3.19547,-4.00748 10.18283,-7.05308 16.18155,-7.05308 0.78989,0 1.37231,-0.10331 1.29427,-0.22959 -0.078,-0.12627 -1.14984,-0.44111 -2.38177,-0.69964 -7.37258,-1.54718 -18.46756,1.94683 -22.8226,7.18726 -0.999,1.20209 -1.67246,2.24427 -1.67246,2.58812 0,0.0823 1.70365,0.14969 3.78589,0.14969 2.63697,0 3.90842,-0.10037 4.18967,-0.33073 z m 69.811245,-1.92003 c -0.87649,-2.30535 -2.02784,-3.64899 -3.9645,-4.62661 -2.00595,-1.0126 -4.65527,-1.46139 -12.43898,-2.10713 -8.349165,-0.69266 -11.734575,-1.58255 -17.506245,-4.60169 -1.79796,-0.94051 -2.07292,-0.96142 -2.07292,-0.15765 0,0.25051 -0.30095,1.51059 -0.66877,2.80018 -0.47776,1.67499 -0.87108,2.52441 -1.37706,2.97389 -0.67286,0.59773 -0.82793,0.62016 -3.10153,0.4487 -1.3163,-0.0993 -2.92904,-0.25326 -3.58389,-0.3422 -1.06551,-0.14473 -1.1543,-0.11763 -0.84493,0.25789 0.19013,0.23079 1.55935,1.02847 3.04271,1.77261 2.90019,1.45493 5.38923,2.11649 7.99131,2.12401 1.92377,0.006 10.34302,-0.64868 15.078615,-1.17171 5.86206,-0.64745 8.10397,-0.74169 10.31875,-0.43378 2.88789,0.40149 5.7958,1.42332 7.54063,2.64976 1.74881,1.22924 1.91316,1.27209 1.58681,0.41373 z M 77.205505,11.019781 c 0.4945,-0.4945 0.40408,-1.7991695 -0.12469,-1.7991695 -0.52012,0 -1.4099,0.74389 -1.4099,1.1787195 0,0.38522 0.54572,0.93795 0.92604,0.93795 0.16008,0 0.43392,-0.14287 0.60855,-0.3175 z m -4.27172,-3.0011995 c 0.0862,-0.22456 0.0767,-0.48824 -0.021,-0.58596 -0.21669,-0.21669 -1.00736,0.25217 -1.15077,0.68242 -0.15678,0.47032 0.99051,0.37588 1.17177,-0.0965 z m -4.18669,-3.52056 c 0.0678,-0.47702 -0.0218,-0.59529 -0.39688,-0.52376 -0.26916,0.0513 -0.52345,0.36624 -0.57214,0.70853 -0.0678,0.47703 0.0218,0.59529 0.39688,0.52376 0.26916,-0.0513 0.52345,-0.36624 0.57214,-0.70853 z"
       id="path5" />
  </g>
</svg>
