<?xml version="1.0" encoding="UTF-8" standalone="no"?>
<!-- Created with Inkscape (http://www.inkscape.org/) -->

<svg
   width="50mm"
   height="40mm"
   viewBox="0 0 50 40"
   version="1.1"
   id="svg1"
   xmlns="http://www.w3.org/2000/svg"
   xmlns:svg="http://www.w3.org/2000/svg">
  <defs
     id="defs1" />
  <g
     id="layer1">
    <g
       id="g3"
       transform="matrix(0.44887748,0,0,0.44887748,150.35963,-116.58038)">
      <g
         id="g1"
         transform="translate(-28.686953,-51.327581)">
        <g
           id="g2"
           transform="translate(-578.09319,213.58458)">
          <path
             id="path116"
             d="m 2403.01,3232.39 c -221.61,54.65 -336.7,218.8 -256.52,358.33 1.96,1.26 7.15,4.4 5.47,3.45 179.14,109.84 250.94,-29.02 376.69,-36.47 -20.11,-27.38 -38.75,-37.47 -67.02,-61.18 -61.56,-51.66 -60.55,-102.89 -25.58,-140.89 11.87,-12.92 26.44,-22.81 42.08,-30.58 16.11,-7.98 33.74,-13.09 51.51,-15.68 17.52,-2.52 35.82,-2.12 53.09,1.8 20.83,4.78 39.97,15.43 57.37,27.52 43.87,30.43 85.1,83.56 106.92,152.54 10.78,10.38 10.24,60.19 -20.85,56.39 1.79,5 3.1,10.14 3.86,15.41 40.55,4.03 81.43,15.65 113.95,40.65 9.09,-171.91 -168.8,-435.22 -440.97,-371.29 z m -297.91,278.28 c -13.8,11.52 -24.95,22.89 -32.6,40.01 9.13,0.18 15.57,0.76 27.74,5.06 3.86,1.35 5.53,5.82 4.85,9.63 11.36,9.57 -6.88,13.22 -15.23,36.09 12.07,-5 24.38,-9.29 37.02,-12.61 -12.22,-23.79 -19.91,-47.99 -21.78,-78.18 z m -17.59,104.13 c -0.05,1.19 -0.05,1.27 0,0 z m 460.77,212.74 c 21.84,-46.6 8.2,-71.01 10.35,-80.22 -2.51,-4.83 0.07,-10.04 4.38,-11.71 2.13,-0.82 4.53,-0.79 6.59,0.15 2.19,1 3.38,2.58 4.42,4.63 0.27,0.53 0.55,1.05 0.81,1.57 11.79,21 42.99,51.06 50.87,27.6 3.92,-15.09 0.11,-19.42 1.33,-28.63 -7.68,-10.73 6.8,-19.69 13.03,-10.85 7.88,11.33 17.67,21.35 28.04,12.63 3.54,-3.68 6.48,-7.98 9.38,-16.81 3.36,-11.97 3.67,-22.56 1.31,-33.45 -1.4,-4.9 -3.72,-8.49 -2.43,-12.68 -0.3,-0.48 -0.63,-0.95 -0.93,-1.42 -6.42,-10.04 7.96,-18.88 13.56,-10 4.01,6.34 13.26,20.11 20.72,21.1 1.85,-0.15 3.17,-2.03 4.21,-3.56 9.61,-17.25 7.09,-55.26 -4.11,-73.84 -0.59,-0.96 -1.02,-1.92 -1.33,-2.91 -9.6,2.81 -18.45,0.76 -27.01,-4.33 2.93,32.87 -23.71,41.81 -52.43,21.79 4.11,26.18 1.7,55.21 -16.75,73.52 -1.73,1.72 -3.39,2.95 -5.87,3.19 -0.31,0.04 -0.62,0.06 -0.94,0.06 -0.1,0 -0.21,-0.05 -0.32,-0.06 -0.2,0.02 -0.39,0.11 -0.6,0.11 -3.44,0 -6.97,-1.95 -8.05,-5.36 -15.69,-49.31 -34.8,-88.84 -56.89,-123.9 -34.57,-2.06 -98.71,26.72 -130.79,41.86 72.85,38.49 114.92,133.23 139.45,211.52 z m 160.46,-384.17 c 5.22,9.21 -26.26,-56.94 -88.04,-95.76 -10.85,-6.55 -22.3,-12.51 -34.39,-16.46 -9.97,-2.89 -20.23,-4.44 -30.59,-4.86 -13.38,-0.22 -26.7,1.36 -39.71,4.47 -12.47,3.26 -24.54,7.92 -35.96,13.96 -9.43,5.28 -18.29,11.49 -26.2,18.86 -5.4,5.32 -10.21,11.12 -14.3,17.53 -18.36,31.53 -7.83,60.19 17.59,86.79 14.45,14.56 31.04,26.63 46.93,39.56 49.75,40.4 82.44,109.18 103.29,169.49 2.69,-5.75 5.11,-12.42 5.6,-26.51 0.01,-9.23 -1.15,-20.14 -3.98,-32.23 0.56,2.47 -0.69,-3.66 -4.75,-14.93 -6.54,-9.88 10.76,-23.91 17.54,-5.05 12.31,13.41 34.63,28.88 41.42,19.66 0.36,-0.71 0.67,-1.43 0.96,-2.17 0.43,-1.74 0.66,-3.51 0.77,-5.32 -0.23,-11.67 -5.6,-25.9 -10.74,-33.67 -0.82,-1.24 -1.21,-2.61 -1.39,-3.98 -4.96,-9.51 3.46,-16.14 10.33,-13.06 3.73,1.71 5.62,7.02 7.51,10.91 36.18,50.83 59.13,6.67 28.29,-37.72 -3.8,-5.4 -0.96,-13.57 6.92,-13.68 5.03,-2.08 7.71,0.09 11.05,3.74 25.43,25.15 26.3,-16 -8.15,-79.57 z m 151.64,176.88 c -0.44,4.42 -5.26,8.34 -10.77,6.98 -2.61,0.22 -4.26,-0.35 -5.77,-1.74 -7.13,-6.61 -14.91,-12.4 -23.15,-17.57 -28.35,-16.86 -58.26,-24.34 -90.53,-27.8 -1.02,7.12 -3.56,14 -8.04,19.52 18.17,13.05 26.98,109.1 -13.96,106.73 -3.53,-0.17 -6.88,-1.51 -9.98,-3.3 1.57,41.37 -25.46,73.2 -53.34,55.63 -1.81,44.11 -35.28,47.81 -66.23,16.32 -0.46,27.89 -9.68,53.93 -24.62,77.48 -1.14,1.8 -3.74,2.92 -5.75,3.13 -0.28,0.03 -0.56,0.05 -0.84,0.05 -1.95,0 -3.88,-0.66 -5.42,-1.91 -0.54,-0.45 -0.91,-1.05 -1.32,-1.6 -1.83,-0.9 -3.36,-2.34 -3.97,-4.35 -59.85,-197.08 -133.99,-213.52 -146.94,-222.82 -93.95,44.01 -160.98,36.1 -251.82,-20.99 -0.34,-0.1 -0.66,-0.23 -0.99,-0.37 0,0 -24.63,6.2 -54.86,20.21 -0.94,0.44 -1.99,0.63 -3.05,0.63 -16.88,0 -8.46,-34.39 9.95,-54.15 -11.23,-3.06 -19.07,-3.23 -28.52,-2.04 -4.64,0.62 -8.93,-3.06 -9.43,-7.59 -0.26,-2.48 0.63,-4.75 2.16,-6.46 9.64,-31.41 42.43,-62.24 51.64,-64.33 3.48,-84.51 56.99,-159.79 131.14,-204.39 395.12,-237.08 645.47,118.86 624.41,334.73"
             style="fill:#000000;fill-opacity:1;fill-rule:nonzero;stroke:none"
             transform="matrix(0.13333333,0,0,-0.13333333,0,612.86667)" />
        </g>
        <path
           id="path117"
           d="m -216.92786,367.33526 c -0.0133,0.0213 -0.0253,0.044 -0.0373,0.0667 0.004,-0.009 0.032,-0.0587 0.0373,-0.0667"
           style="fill:#60422e;fill-opacity:1;fill-rule:nonzero;stroke:none;stroke-width:0.133333" />
        <path
           id="path118"
           d="m -230.18786,343.83793 c -0.003,0.0147 -0.007,0.0293 -0.009,0.0427 0.008,-0.036 0.009,-0.0427 0.009,-0.0427"
           style="fill:#60422e;fill-opacity:1;fill-rule:nonzero;stroke:none;stroke-width:0.133333" />
        <path
           id="path119"
           d="m -271.25719,361.10459 c -0.33467,0.508 -0.68934,0.99067 -1.092,1.43734 -1.60534,1.57066 -3.26267,1.97066 -5.16134,1.57066 -1.02533,-0.29333 -1.72933,-0.68533 -2.45466,-1.328 -3.208,-3.252 -0.20667,-6.33066 -2.664,-6.59599 -2.59867,-0.28 -2.37467,8.09999 3.688,10.53199 0.82533,0.33067 1.732,0.508 2.61866,0.532 1.02667,0.0347 1.976,-0.13866 2.94534,-0.46 2.66266,-0.87866 6.00533,-4.62266 4.13866,-5.99466 -0.60933,-0.44667 -1.588,-0.35067 -2.01866,0.30666"
           style="fill:#000000;fill-opacity:1;fill-rule:nonzero;stroke:none;stroke-width:0.133333" />
        <path
           id="path120"
           d="m -224.41453,361.19259 c 1.12134,-3.62666 -1.172,-6.90133 -4.96,-6.24399 0.21734,-4.124 -4.616,-4.44534 -7.416,-0.76667 -0.91066,1.192 0.92,2.65867 1.88934,1.39067 0.616,-0.836 1.56266,-1.52934 2.608,-1.632 0.21333,0.012 0.39866,0.0173 0.532,0.184 0.42933,0.86 -0.47734,2.29466 -0.16,2.99333 0.24,0.536 0.92666,0.82933 1.47333,0.556 3.89067,-1.94533 5.16267,1.64133 2.95867,4.47466 -0.20667,0.27334 -0.25067,0.61334 -0.17867,0.93067 -0.04,0.57867 0.276,0.99467 0.72133,1.168 0.74267,0.284 0.956,-0.20667 2.184,-0.63067 2.78534,-0.708 3.18267,2.76934 1.70534,5.02 -0.92667,1.408 1.09066,2.64667 1.928,1.41867 3.012,-4.43733 0.536,-9.288 -3.28534,-8.86267"
           style="fill:#000000;fill-opacity:1;fill-rule:nonzero;stroke:none;stroke-width:0.133333" />
        <path
           id="path121"
           d="m -242.85053,335.0326 c 0.11734,-0.13867 0.23334,-0.272 0.35467,-0.404 0.88267,-0.88667 1.90933,-1.65734 3.09467,-2.05734 0.396,-0.10133 0.87066,-0.20933 1.192,0.0413 0.48133,0.55733 0.396,1.84133 0.30933,2.57333 -0.16267,1.56267 2.204,1.82533 2.37867,0.25467 0.18,-1.72934 0,-2.544 -0.25867,-3.32534 -0.30667,-0.89866 -0.916,-1.43333 -1.64533,-1.77333 -1.968,-0.92667 -5.18934,0.812 -7.27467,3.324 -0.92,1.104 0.816,2.612 1.84933,1.36667"
           style="fill:#000000;fill-opacity:1;fill-rule:nonzero;stroke:none;stroke-width:0.133333" />
      </g>
    </g>
  </g>
</svg>
