<?xml version="1.0" encoding="UTF-8" standalone="no"?>
<!-- Created with Inkscape (http://www.inkscape.org/) -->

<svg
   width="62mm"
   height="14mm"
   viewBox="0 0 62 14"
   version="1.1"
   id="svg1"
   xmlns="http://www.w3.org/2000/svg"
   xmlns:svg="http://www.w3.org/2000/svg">
  <defs
     id="defs1" />
  <g
     id="layer1">
    <path
       id="path100"
       d="m 32.00884,8.7398462 c -0.09863,0.04022 -0.185597,0.106595 -0.235391,0.204809 -0.135144,0.273995 -0.281298,0.541706 -0.425298,0.809834 -2.689315,-3.018908 -3.252028,-4.647498 -3.516924,-6.496811 -0.07948,-0.652968 -0.144,-1.744041 0.500108,-1.870324 1.435214,-0.111263 1.84064,1.492549 2.391682,1.569217 0.282613,0.335761 0.748369,0.16411 0.84305,-0.182603 0.125744,-0.433916 0.396988,-0.77614 0.738731,-1.059292 0.309546,-0.221387 0.629865,-0.386695 0.990107,-0.26017 0.802414,0.418233 0.305834,1.673896 -0.05399,2.681056 -1.559162,-1.130575 -3.790681,0.386272 -1.232079,4.604284 z m 29.353117,-4.423535 c 0.208877,-0.178833 0.181347,-0.531893 0,-0.715151 -0.770273,-0.753518 -2.32698,1.92664 -4.316405,3.702996 -0.06763,0.06099 -0.102946,0.142384 -0.122697,0.227913 -0.535062,-0.03227 -1.070123,-0.06943 -1.605185,-0.09816 1.509426,-2.541064 4.389424,-3.664456 3.550324,-4.503017 -0.205886,-0.206484 -0.535062,-0.198763 -0.742744,0 -0.650572,0.620707 -3.677204,3.259927 -3.930371,4.451545 -0.637406,-0.03156 -1.274215,-0.06146 -1.911621,-0.08858 1.419054,-1.298693 2.648377,-2.79543 4.148826,-4.005065 0.463839,-0.374781 -0.122094,-1.241415 -0.736159,-0.736217 -1.697955,1.412586 -3.043389,3.188224 -4.742539,4.598417 -0.02752,0.02267 -0.04008,0.05494 -0.05925,0.08302 -5.364984,-0.194993 -9.809531,-0.196851 -14.422016,-0.07601 1.33963,-3.045064 -0.861724,-4.073294 -2.432795,-2.171907 -0.03717,-0.05913 -0.08302,-0.118504 -0.126705,-0.176499 0.197089,-0.137716 0.442535,-0.937256 0.520878,-1.174322 1.125484,-3.41685498 -2.025816,-4.23602998 -3.508485,-1.803949 -0.671225,-0.86172798 -1.585139,-1.57221098 -2.67202,-1.42419798 -2.477444,0.321872 -1.273196,4.64234898 -0.204329,6.53607298 -2.924705,-0.353055 -5.475586,0.161776 -17.462469,-0.0047 0.464499,-0.244728 0.928817,-0.490237 1.397086,-0.729637 0.236649,-0.122754 0.303262,-0.449357 0.174223,-0.671462 -0.350483,-0.599637 -0.88423,-0.0096 -3.3195967,1.213886 -0.08654,0.04345 -0.141908,0.118984 -0.181647,0.202655 -0.396749,0.01333 -0.799361,0.03066 -1.26715,0.05518 0.868964,-0.398123 1.75433,-0.763092 2.606959,-1.193956 0.4257737,-0.216718 0.2780037,-0.916904 -0.242631,-0.916904 -0.274713,0 -4.006981,1.821186 -4.2784,1.976197 -0.0975,0.05566 -0.160581,0.145917 -0.198943,0.245267 -0.731553,0.03411 -1.46352,0.05285 -2.194355,0.04134 5.220324,-2.125165 5.621742,-1.821904 5.43794,-2.49522 -0.207381,-0.750941 -0.96317,-0.322411 -7.55442401,2.305614 -0.160402,0.06452 -0.282434,0.138196 -0.369875,0.382983 -0.815701,0.965984 3.37453901,2.9894648 5.54668501,4.5037398 0.226054,0.159917 0.561756,0.04296 0.691092,-0.180749 0.128558,-0.216719 0.09654,-0.493766 -0.180988,-0.690612 -1.407855,-1.0205088 -3.269561,-1.9631518 -4.435686,-2.8938228 0.345519,0.01917 0.691751,0.02752 1.038464,0.03178 0.126045,0.33151 0.353298,0.300865 0.989685,0.559418 2.937096,1.269067 4.336337,3.0608058 4.844583,2.1871108 0.133469,-0.226293 0.05824,-0.540507 -0.176499,-0.669303 -1.272774,-0.7055768 -2.269884,-1.4518498 -3.571386,-2.1114028 0.537935,-0.02222 0.71635,-0.02945 1.261283,-0.05817 0.259752,0.43577 2.484268,1.58741 3.18374,1.9853578 C 10.372709,10.353012 10.857856,9.4660302 10.29227,9.1506172 9.5860333,8.7489622 8.8577753,8.3826192 8.1624953,7.9625282 c 0,0 2.1452167,0.04368 17.2597557,-0.115509 1.03547,-0.0088 2.068849,0.03578 3.095881,0.174164 0.06242,0 0.121556,-0.01495 0.178352,-0.03766 0.649257,0.946652 1.395053,1.830824 2.161673,2.6794978 0.114554,0.127423 0.288242,0.15735 0.447203,0.120838 0.585395,0.410575 0.884468,-0.41847 1.257813,-1.1581618 0.324512,0.5045378 0.601976,1.2161568 1.14488,0.9594618 0.317446,0.05871 0.444865,-0.146096 0.62675,-0.38436 l 8.98e-4,0.0013 c 0.541229,-0.6936678 1.180188,-1.4200678 1.70059,-2.2401988 0.0884,0.09654 0.211332,0.160397 0.348149,0.156389 4.768336,-0.131131 9.541219,-0.08696 14.308778,0.09026 0.350721,0.833233 3.328274,3.5311658 4.404386,5.1452708 0.161596,0.23545 0.458452,0.338755 0.717005,0.18799 1.094063,-0.641536 -2.000198,-3.119936 -3.777156,-5.2799348 0.725386,0.03106 1.449578,0.06637 2.174363,0.102883 0.02752,0.659491 3.266033,3.6043068 3.751422,4.0477978 0.518902,0.469705 1.160496,-0.270705 0.708028,-0.708571 -1.101846,-1.069164 -2.253962,-2.0889548 -3.23072,-3.2763838 0.489573,0.02761 0.97915,0.05871 1.468727,0.08864 -0.01558,0.146577 0.02393,0.298055 0.135261,0.407042 1.136557,1.1125608 2.252166,2.2478618 3.319897,3.4294238 0.432121,0.476951 1.210174,-0.186791 0.725386,-0.727778 -0.94025,-1.05229 -1.942741,-2.0463428 -2.950619,-3.0338728 0.559597,0.03596 1.119199,0.07481 1.676404,0.114791 0.569779,0.04089 0.740352,-0.933544 0,-0.992917 -0.550023,-0.03811 -1.101244,-0.06757 -1.651267,-0.103358 1.094659,-1.071444 2.021142,-2.304241 3.197803,-3.293145"
       style="fill:#000000;fill-opacity:1;fill-rule:nonzero;stroke:none;stroke-width:0.0598502" />
  </g>
</svg>
