<svg xmlns="http://www.w3.org/2000/svg" viewBox="0 0 300 560" width="300" height="560" preserveAspectRatio="xMidYMid meet" style="width: 100%; height: 100%; transform: translate3d(0px, 0px, 0px);"><defs><clipPath id="__lottie_element_184"><rect width="300" height="560" x="0" y="0"></rect></clipPath></defs><g clip-path="url(#__lottie_element_184)"><g transform="matrix(1,0,0,1,58,0)" opacity="1" style="display: block;"><g opacity="1" transform="matrix(1,0,0,1,284.4549865722656,281.0119934082031)"><path stroke-linecap="butt" stroke-linejoin="miter" fill-opacity="0" stroke-miterlimit="10" stroke="rgb(217,158,60)" stroke-opacity="1" stroke-width="1" d=" M-236.76499938964844,-136.69700622558594 C-236.76499938964844,-136.69700622558594 -236.76499938964844,136.69700622558594 -236.76499938964844,136.69700622558594 C-236.76499938964844,136.69700622558594 0,273.39300537109375 0,273.39300537109375 C0,273.39300537109375 236.76499938964844,136.69700622558594 236.76499938964844,136.69700622558594 C236.76499938964844,136.69700622558594 236.76499938964844,-136.69700622558594 236.76499938964844,-136.69700622558594 C236.76499938964844,-136.69700622558594 0,-273.39300537109375 0,-273.39300537109375 C0,-273.39300537109375 -236.76499938964844,-136.69700622558594 -236.76499938964844,-136.69700622558594z"></path></g><g opacity="1" transform="matrix(1,0,0,1,277.7349853515625,276.58099365234375)"><path stroke-linecap="butt" stroke-linejoin="miter" fill-opacity="0" stroke-miterlimit="10" stroke="rgb(255,204,133)" stroke-opacity="1" stroke-width="1" d=" M-270.8240051269531,-69.00599670410156 C-270.8240051269531,-69.00599670410156 -195.1719970703125,200.03799438476562 -195.1719970703125,200.03799438476562 C-195.1719970703125,200.03799438476562 75.6520004272461,269.04400634765625 75.6520004272461,269.04400634765625 C75.6520004272461,269.04400634765625 270.8240051269531,69.00499725341797 270.8240051269531,69.00499725341797 C270.8240051269531,69.00499725341797 195.17300415039062,-200.03900146484375 195.17300415039062,-200.03900146484375 C195.17300415039062,-200.03900146484375 -75.6510009765625,-269.04400634765625 -75.6510009765625,-269.04400634765625 C-75.6510009765625,-269.04400634765625 -270.8240051269531,-69.00599670410156 -270.8240051269531,-69.00599670410156z"></path></g><g opacity="1" transform="matrix(1,0,0,1,278.0820007324219,277.406005859375)"><path stroke-linecap="butt" stroke-linejoin="miter" fill-opacity="0" stroke-miterlimit="10" stroke="rgb(189,111,13)" stroke-opacity="1" stroke-width="0.5" d=" M-186.2259979248047,-207.48399353027344 C-186.2259979248047,-207.48399353027344 -272.79998779296875,57.53499984741211 -272.79998779296875,57.53499984741211 C-272.79998779296875,57.53499984741211 -86.5739974975586,265.01800537109375 -86.5739974975586,265.01800537109375 C-86.5739974975586,265.01800537109375 186.2259979248047,207.48399353027344 186.2259979248047,207.48399353027344 C186.2259979248047,207.48399353027344 272.79998779296875,-57.53300094604492 272.79998779296875,-57.53300094604492 C272.79998779296875,-57.53300094604492 86.572998046875,-265.01800537109375 86.572998046875,-265.01800537109375 C86.572998046875,-265.01800537109375 -186.2259979248047,-207.48399353027344 -186.2259979248047,-207.48399353027344z"></path></g></g><g transform="matrix(1,0,0,1,52,50)" opacity="1" style="display: block;"><g opacity="1" transform="matrix(1,0,0,1,131.3509979248047,202.9409942626953)"><path fill="rgb(198,215,207)" fill-opacity="1" d=" M15.619999885559082,5.413000106811523 C15.619999885559082,5.413000106811523 0.7160000205039978,16.614999771118164 -7.7779998779296875,-0.017999999225139618 C-7.7779998779296875,-0.017999999225139618 -17.52899932861328,-7.714000225067139 -9.621000289916992,-9.100000381469727 C-9.621000289916992,-9.100000381469727 17.52899932861328,-16.615999221801758 15.619999885559082,5.413000106811523z"></path></g><g opacity="1" transform="matrix(1,0,0,1,146.0850067138672,172.70199584960938)"><path fill="rgb(199,195,143)" fill-opacity="1" d=" M5.2729997634887695,17.389999389648438 C5.2729997634887695,17.389999389648438 -7.4770002365112305,5.453999996185303 -7.4770002365112305,5.453999996185303 C-7.4770002365112305,5.453999996185303 -16.347999572753906,3.496999979019165 -16.624000549316406,-10.248000144958496 C-16.624000549316406,-10.248000144958496 -11.291999816894531,-17.389999389648438 1.9149999618530273,-4.2789998054504395 C1.9149999618530273,-4.2789998054504395 16.62299919128418,4.868000030517578 5.2729997634887695,17.389999389648438z"></path></g><g opacity="1" transform="matrix(1,0,0,1,166.427001953125,141.9980010986328)"><path fill="rgb(207,214,187)" fill-opacity="1" d=" M11.364999771118164,5.716000080108643 C11.364999771118164,5.716000080108643 4.059999942779541,5.178999900817871 -1.3700000047683716,10.331000328063965 C-1.3700000047683716,10.331000328063965 -10.664999961853027,15.972000122070312 -14.055999755859375,-2.305999994277954 C-14.055999755859375,-2.305999994277954 -11.9350004196167,-15.970999717712402 6.619999885559082,-5.616000175476074 C6.619999885559082,-5.616000175476074 14.055999755859375,-0.39800000190734863 11.364999771118164,5.716000080108643z"></path></g><g opacity="1" transform="matrix(1,0,0,1,168.88299560546875,107.61000061035156)"><path fill="rgb(199,195,143)" fill-opacity="1" d=" M5.617000102996826,17.732999801635742 C5.617000102996826,17.732999801635742 -18.35300064086914,4.751999855041504 -9.187999725341797,-17.732999801635742 C-9.187999725341797,-17.732999801635742 18.35300064086914,-11.210000038146973 5.617000102996826,17.732999801635742z"></path></g><g opacity="1" transform="matrix(1,0,0,1,179.42599487304688,74.19100189208984)"><path fill="rgb(198,215,207)" fill-opacity="1" d=" M5.494999885559082,13.64799976348877 C5.494999885559082,13.64799976348877 -14.300000190734863,10.534000396728516 -11.201000213623047,-13.64799976348877 C-11.201000213623047,-13.64799976348877 14.300999641418457,-8.022000312805176 5.494999885559082,13.64799976348877z"></path></g><g opacity="1" transform="matrix(1,0,0,1,188.1999969482422,48.13399887084961)"><path fill="rgb(199,195,143)" fill-opacity="1" d=" M4.515999794006348,19.77899932861328 C4.515999794006348,19.77899932861328 -17.70800018310547,7.809999942779541 -6.178999900817871,-17.284000396728516 C-6.178999900817871,-17.284000396728516 -4.107999801635742,-19.77899932861328 -2.1510000228881836,-16.485000610351562 C-2.1510000228881836,-16.485000610351562 17.70800018310547,4.175000190734863 4.515999794006348,19.77899932861328z"></path></g><g opacity="1" transform="matrix(1,0,0,1,213.5959930419922,70.89900207519531)"><path fill="rgb(121,162,143)" fill-opacity="1" d=" M-3.743000030517578,15.017000198364258 C-3.743000030517578,15.017000198364258 -14.37399959564209,-4.500999927520752 4.85099983215332,-15.017000198364258 C4.85099983215332,-15.017000198364258 14.37399959564209,4.25600004196167 -3.743000030517578,15.017000198364258z"></path></g><g opacity="1" transform="matrix(1,0,0,1,225.5469970703125,110.93800354003906)"><path fill="rgb(121,162,143)" fill-opacity="1" d=" M-7.690000057220459,18.1560001373291 C-7.690000057220459,18.1560001373291 -10.965999603271484,-5.910999774932861 5.567999839782715,-16.395000457763672 C5.567999839782715,-16.395000457763672 10.965999603271484,-18.1560001373291 10.118000030517578,-9.039999961853027 C10.118000030517578,-9.039999961853027 10.442000389099121,17.86400032043457 -7.690000057220459,18.1560001373291z"></path></g><g opacity="1" transform="matrix(1,0,0,1,230.13499450683594,141.35000610351562)"><path fill="rgb(198,215,207)" fill-opacity="1" d=" M-10.109999656677246,5.486000061035156 C-10.109999656677246,5.486000061035156 -4.515999794006348,-10.541999816894531 10.109999656677246,-5.078999996185303 C10.109999656677246,-5.078999996185303 4.696000099182129,10.541999816894531 -10.109999656677246,5.486000061035156z"></path></g><g opacity="1" transform="matrix(1,0,0,1,235.0570068359375,173.18699645996094)"><path fill="rgb(198,215,207)" fill-opacity="1" d=" M-5.4629998207092285,24.327999114990234 C-5.4629998207092285,24.327999114990234 -16.746000289916992,-0.34299999475479126 0.164000004529953,-13.33899974822998 C0.164000004529953,-13.33899974822998 6.703999996185303,-24.327999114990234 8.496000289916992,-10.157999992370605 C8.496000289916992,-10.157999992370605 16.746000289916992,13.664999961853027 -5.4629998207092285,24.327999114990234z"></path></g><g opacity="1" transform="matrix(1,0,0,1,247.00100708007812,207.13699340820312)"><path fill="rgb(207,214,187)" fill-opacity="1" d=" M-15.564000129699707,5.543000221252441 C-15.564000129699707,5.543000221252441 -10.329999923706055,-15.751999855041504 15.564000129699707,-8.25 C15.564000129699707,-8.25 5.97599983215332,15.751999855041504 -15.564000129699707,5.543000221252441z"></path></g><g opacity="1" transform="matrix(1,0,0,1,193.70399475097656,193.1929931640625)"><path fill="rgb(128,155,150)" fill-opacity="1" d=" M21.950000762939453,130.52699279785156 C21.950000762939453,130.52699279785156 -6.197000026702881,38.595001220703125 -32.757999420166016,21.554000854492188 C-32.757999420166016,21.554000854492188 -48.1349983215332,15.031000137329102 -48.1349983215332,15.031000137329102 C-48.1349983215332,15.031000137329102 -48.215999603271484,11.345000267028809 -48.215999603271484,11.345000267028809 C-48.215999603271484,11.345000267028809 -34.5359992980957,17.851999282836914 -34.5359992980957,17.851999282836914 C-34.5359992980957,17.851999282836914 -37.0629997253418,0.9259999990463257 -43.22700119018555,-8.840999603271484 C-43.22700119018555,-8.840999603271484 -41.27000045776367,-11.628999710083008 -41.27000045776367,-11.628999710083008 C-41.27000045776367,-11.628999710083008 -31.371999740600586,5.133999824523926 -32.5629997253418,13.368000030517578 C-32.5629997253418,13.368000030517578 -31.992000579833984,20.917999267578125 -26.28499984741211,23.429000854492188 C-26.28499984741211,23.429000854492188 -5.659999847412109,49.5359992980957 -0.11699999868869781,69.00599670410156 C-0.11699999868869781,69.00599670410156 -3.5239999294281006,46.34000015258789 -0.13199999928474426,34.20899963378906 C-0.13199999928474426,34.20899963378906 6.1479997634887695,-16.552000045776367 6.1479997634887695,-16.552000045776367 C6.1479997634887695,-16.552000045776367 1.7970000505447388,-44.255001068115234 -18.715999603271484,-45.7400016784668 C-18.715999603271484,-45.7400016784668 -18.04800033569336,-48.36600112915039 -18.04800033569336,-48.36600112915039 C-18.04800033569336,-48.36600112915039 -4.775000095367432,-42.03799819946289 -4.775000095367432,-42.03799819946289 C-4.775000095367432,-42.03799819946289 -22.253000259399414,-73.08499908447266 -22.253000259399414,-73.08499908447266 C-22.253000259399414,-73.08499908447266 -21.45400047302246,-77.11299896240234 -21.45400047302246,-77.11299896240234 C-21.45400047302246,-77.11299896240234 -1.5140000581741333,-40.60300064086914 -1.5140000581741333,-40.60300064086914 C-1.5140000581741333,-40.60300064086914 7.242000102996826,-20.69300079345703 7.242000102996826,-20.69300079345703 C7.242000102996826,-20.69300079345703 8.432000160217285,-22.84600067138672 8.432000160217285,-22.84600067138672 C8.432000160217285,-22.84600067138672 5.9710001945495605,-76.96499633789062 5.9710001945495605,-76.96499633789062 C5.9710001945495605,-76.96499633789062 5.320000171661377,-82.11799621582031 5.320000171661377,-82.11799621582031 C5.320000171661377,-82.11799621582031 -11.37600040435791,-109.41500091552734 -11.37600040435791,-109.41500091552734 C-11.37600040435791,-109.41500091552734 -9.614999771118164,-110.0989990234375 -9.614999771118164,-110.0989990234375 C-9.614999771118164,-110.0989990234375 3.2829999923706055,-89.09700012207031 3.2829999923706055,-89.09700012207031 C3.2829999923706055,-89.09700012207031 1.7339999675750732,-104.375 1.7339999675750732,-104.375 C1.7339999675750732,-104.375 3.5940001010894775,-115.23500061035156 -3.9230000972747803,-130.2209930419922 C-3.9230000972747803,-130.2209930419922 -1.7860000133514404,-133.41600036621094 -1.7860000133514404,-133.41600036621094 C-1.7860000133514404,-133.41600036621094 6.4629998207092285,-115.67500305175781 4.538000106811523,-104.11499786376953 C4.538000106811523,-104.11499786376953 6.770999908447266,-87.07499694824219 6.770999908447266,-87.07499694824219 C6.770999908447266,-87.07499694824219 16.67099952697754,-112.88700103759766 16.67099952697754,-112.88700103759766 C16.67099952697754,-112.88700103759766 19.65399932861328,-113.03299713134766 19.65399932861328,-113.03299713134766 C19.65399932861328,-113.03299713134766 7.244999885559082,-81.51399993896484 7.244999885559082,-81.51399993896484 C7.244999885559082,-81.51399993896484 10.406000137329102,-33.4109992980957 10.406000137329102,-33.4109992980957 C10.406000137329102,-33.4109992980957 27.43000030517578,-70.44200134277344 27.43000030517578,-70.44200134277344 C27.43000030517578,-70.44200134277344 28.229999542236328,-68.38700103759766 28.229999542236328,-68.38700103759766 C28.229999542236328,-68.38700103759766 17.285999298095703,-43.520999908447266 17.285999298095703,-43.520999908447266 C17.285999298095703,-43.520999908447266 34.71900177001953,-49.96099853515625 34.71900177001953,-49.96099853515625 C34.71900177001953,-49.96099853515625 34.994998931884766,-48.37900161743164 34.994998931884766,-48.37900161743164 C34.994998931884766,-48.37900161743164 15.428000450134277,-38.74300003051758 15.428000450134277,-38.74300003051758 C15.428000450134277,-38.74300003051758 8.758000373840332,-14.187000274658203 8.758000373840332,-14.187000274658203 C8.758000373840332,-14.187000274658203 1.434000015258789,35.62799835205078 1.434000015258789,35.62799835205078 C1.434000015258789,35.62799835205078 0.7310000061988831,53.808998107910156 1.774999976158142,60.83700180053711 C1.774999976158142,60.83700180053711 11.836999893188477,36.3129997253418 20.82200050354004,26.39900016784668 C20.82200050354004,26.39900016784668 40.01499938964844,7.110000133514404 38.270999908447266,-6.065000057220459 C38.270999908447266,-6.065000057220459 40.71699905395508,-4.988999843597412 40.71699905395508,-4.988999843597412 C40.71699905395508,-4.988999843597412 36.1349983215332,15.376999855041504 26.05699920654297,23.350000381469727 C26.05699920654297,23.350000381469727 47.36800003051758,14.725000381469727 47.36800003051758,14.725000381469727 C47.36800003051758,14.725000381469727 48.21699905395508,17.774999618530273 48.21699905395508,17.774999618530273 C48.21699905395508,17.774999618530273 26.253000259399414,21.246999740600586 20.839000701904297,30.78499984741211 C20.839000701904297,30.78499984741211 4.2220001220703125,49.749000549316406 4.547999858856201,64.48899841308594 C4.547999858856201,64.48899841308594 3.0789999961853027,77.2239990234375 3.0789999961853027,77.2239990234375 C3.0789999961853027,77.2239990234375 26.27899932861328,133.41600036621094 26.27899932861328,133.41600036621094 C26.27899932861328,133.41600036621094 21.950000762939453,130.52699279785156 21.950000762939453,130.52699279785156z"></path></g></g><g transform="matrix(1,0,0,1,58,22)" opacity="1" style="display: block;"><g opacity="1" transform="matrix(1,0,0,1,112.53500366210938,247.90699768066406)"><path fill="rgb(129,148,139)" fill-opacity="1" d=" M45.731998443603516,31.305999755859375 C45.731998443603516,31.305999755859375 41.38600158691406,-14.288000106811523 2.3010001182556152,-13.79800033569336 C1.7760000228881836,-13.791999816894531 1.2450000047683716,-13.777000427246094 0.7080000042915344,-13.753999710083008 C0.7080000042915344,-13.753999710083008 -15.718999862670898,-31.305999755859375 -45.731998443603516,-31.0310001373291 C-45.731998443603516,-31.0310001373291 -28.23900032043457,1.5740000009536743 -28.23900032043457,1.5740000009536743 C-28.23900032043457,1.5740000009536743 -14.682000160217285,27.275999069213867 4.083000183105469,25.54599952697754 C4.083000183105469,25.54599952697754 33.78499984741211,24.422000885009766 45.731998443603516,31.305999755859375z"></path></g><g opacity="1" transform="matrix(1,0,0,1,89.43699645996094,164.1510009765625)"><path fill="rgb(199,195,143)" fill-opacity="1" d=" M28.957000732421875,39.62300109863281 C28.957000732421875,39.62300109863281 -22.440000534057617,38.882999420166016 -23.1299991607666,1.2350000143051147 C-23.1299991607666,1.2350000143051147 -30.72599983215332,-13.086000442504883 -27.5939998626709,-35.76100158691406 C-27.5939998626709,-35.76100158691406 -22.216999053955078,-39.624000549316406 -17.399999618530273,-25.18600082397461 C-17.399999618530273,-25.18600082397461 -9.456999778747559,-9.857999801635742 -0.328000009059906,-9.60200023651123 C-0.328000009059906,-9.60200023651123 23.87299919128418,-6.771999835968018 27.39699935913086,15.270000457763672 C27.39699935913086,15.270000457763672 30.72599983215332,30.506000518798828 28.957000732421875,39.62300109863281z"></path></g><g opacity="1" transform="matrix(1,0,0,1,98.36599731445312,96.97899627685547)"><path fill="rgb(199,195,143)" fill-opacity="1" d=" M15.708000183105469,46.540000915527344 C15.708000183105469,46.540000915527344 -0.5460000038146973,39.14500045776367 -1.4299999475479126,27.60099983215332 C-1.4299999475479126,27.60099983215332 -3.371000051498413,18.493000030517578 -17.006999969482422,10.555999755859375 C-17.006999969482422,10.555999755859375 -26.83300018310547,0.32199999690055847 -20.246999740600586,-28.134000778198242 C-20.246999740600586,-28.134000778198242 -21.016000747680664,-46.54100036621094 -16.27199935913086,-39.67100143432617 C-16.27199935913086,-39.67100143432617 5.000999927520752,-24.187999725341797 10.33899974822998,-8.12600040435791 C10.33899974822998,-8.12600040435791 26.83300018310547,16.14699935913086 15.708000183105469,46.540000915527344z"></path></g><g opacity="1" transform="matrix(1,0,0,1,152.9550018310547,134.8939971923828)"><path fill="rgb(207,214,187)" fill-opacity="1" d=" M-22.284000396728516,54.2859992980957 C-22.284000396728516,54.2859992980957 -23.95800018310547,11.616999626159668 -23.95800018310547,11.616999626159668 C-23.95800018310547,11.616999626159668 -24.836999893188477,-1.2300000190734863 -11.430999755859375,-22.84000015258789 C-11.430999755859375,-22.84000015258789 -6.436999797821045,-39.09299850463867 -6.436999797821045,-39.09299850463867 C-6.436999797821045,-39.09299850463867 -2.299999952316284,-54.2859992980957 0.9269999861717224,-36.37699890136719 C0.9269999861717224,-36.37699890136719 24.83799934387207,20.375999450683594 -22.284000396728516,54.2859992980957z"></path></g><g opacity="1" transform="matrix(1,0,0,1,146.83599853515625,69.87300109863281)"><path fill="rgb(129,148,139)" fill-opacity="1" d=" M-14.461999893188477,29.55500030517578 C-14.461999893188477,29.55500030517578 -15.927000045776367,11.303000450134277 0.5440000295639038,-7.966000080108643 C0.5440000295639038,-7.966000080108643 8.168999671936035,-23.756999969482422 8.168999671936035,-23.756999969482422 C8.168999671936035,-23.756999969482422 13.133999824523926,-29.55500030517578 11.593999862670898,-22.57200050354004 C11.593999862670898,-22.57200050354004 15.925999641418457,-9.76099967956543 12.378000259399414,-3.5250000953674316 C12.378000259399414,-3.5250000953674316 7.854000091552734,6.171000003814697 -3.5959999561309814,12.633999824523926 C-3.5959999561309814,12.633999824523926 -12.03499984741211,21.809999465942383 -14.461999893188477,29.55500030517578z"></path></g><g opacity="1" transform="matrix(1,0,0,1,158.7449951171875,202.70899963378906)"><path fill="rgb(129,145,143)" fill-opacity="1" d=" M70.76399993896484,135.0030059814453 C70.76399993896484,135.0030059814453 45.909000396728516,112.01200103759766 45.909000396728516,112.01200103759766 C45.909000396728516,112.01200103759766 25.41699981689453,90.68099975585938 25.41699981689453,90.68099975585938 C25.41699981689453,90.68099975585938 3.999000072479248,80.36799621582031 3.999000072479248,80.36799621582031 C3.999000072479248,80.36799621582031 -4.7769999504089355,73.58300018310547 -4.7769999504089355,73.58300018310547 C-4.7769999504089355,73.58300018310547 -14.795000076293945,63.64799880981445 -14.795000076293945,63.64799880981445 C-14.795000076293945,63.64799880981445 -21.493000030517578,57.16299819946289 -21.493000030517578,57.16299819946289 C-21.493000030517578,57.16299819946289 -10.994000434875488,63.77399826049805 -10.994000434875488,63.77399826049805 C-10.994000434875488,63.77399826049805 -2.694000005722046,70.91400146484375 -2.694000005722046,70.91400146484375 C-2.694000005722046,70.91400146484375 9.045999526977539,80.67500305175781 9.045999526977539,80.67500305175781 C9.045999526977539,80.67500305175781 19.610000610351562,83.9000015258789 19.610000610351562,83.9000015258789 C19.610000610351562,83.9000015258789 -8.57800006866455,41.21200180053711 -8.57800006866455,41.21200180053711 C-8.57800006866455,41.21200180053711 -17.753999710083008,25.459999084472656 -17.753999710083008,25.459999084472656 C-17.753999710083008,25.459999084472656 -37.8489990234375,6.005000114440918 -37.8489990234375,6.005000114440918 C-37.8489990234375,6.005000114440918 -43.71099853515625,-3.3289999961853027 -43.71099853515625,-3.3289999961853027 C-43.71099853515625,-3.3289999961853027 -49.0359992980957,-13.434000015258789 -49.0359992980957,-13.434000015258789 C-49.0359992980957,-13.434000015258789 -52.70600128173828,-20.327999114990234 -52.70600128173828,-20.327999114990234 C-52.70600128173828,-20.327999114990234 -67.40899658203125,-33.0620002746582 -67.40899658203125,-33.0620002746582 C-67.40899658203125,-33.0620002746582 -71.90899658203125,-40.077999114990234 -71.90899658203125,-40.077999114990234 C-71.90899658203125,-40.077999114990234 -53.05500030517578,-23.773000717163086 -53.05500030517578,-23.773000717163086 C-53.05500030517578,-23.773000717163086 -47.308998107910156,-16.57699966430664 -47.308998107910156,-16.57699966430664 C-47.308998107910156,-16.57699966430664 -43.40399932861328,-8.375 -43.40399932861328,-8.375 C-43.40399932861328,-8.375 -40.1510009765625,-1.5399999618530273 -40.1510009765625,-1.5399999618530273 C-40.1510009765625,-1.5399999618530273 -32.270999908447266,8.508999824523926 -32.270999908447266,8.508999824523926 C-32.270999908447266,8.508999824523926 -18.39900016784668,21.124000549316406 -18.39900016784668,21.124000549316406 C-18.39900016784668,21.124000549316406 -26.738000869750977,2.5220000743865967 -26.738000869750977,2.5220000743865967 C-26.738000869750977,2.5220000743865967 -30.385000228881836,-16.249000549316406 -30.385000228881836,-16.249000549316406 C-30.385000228881836,-16.249000549316406 -38.472999572753906,-42.45199966430664 -38.472999572753906,-42.45199966430664 C-38.472999572753906,-42.45199966430664 -52.893001556396484,-80.60199737548828 -52.893001556396484,-80.60199737548828 C-52.893001556396484,-80.60199737548828 -37.45100021362305,-49.516998291015625 -37.45100021362305,-49.516998291015625 C-37.45100021362305,-49.516998291015625 -34.040000915527344,-96.54199981689453 -34.040000915527344,-96.54199981689453 C-34.040000915527344,-96.54199981689453 -32.0989990234375,-118.74600219726562 -32.0989990234375,-118.74600219726562 C-32.0989990234375,-118.74600219726562 -29.349000930786133,-128.95599365234375 -29.349000930786133,-128.95599365234375 C-29.349000930786133,-128.95599365234375 -24.231000900268555,-135.0030059814453 -24.231000900268555,-135.0030059814453 C-24.231000900268555,-135.0030059814453 -29.075000762939453,-116.18800354003906 -29.075000762939453,-116.18800354003906 C-29.075000762939453,-116.18800354003906 -30.173999786376953,-99.80000305175781 -30.173999786376953,-99.80000305175781 C-30.173999786376953,-99.80000305175781 -23.08799934387207,-110.65399932861328 -23.08799934387207,-110.65399932861328 C-23.08799934387207,-110.65399932861328 -30.360000610351562,-95.58499908447266 -30.360000610351562,-95.58499908447266 C-30.360000610351562,-95.58499908447266 -34.47600173950195,-52.47999954223633 -34.47600173950195,-52.47999954223633 C-34.47600173950195,-52.47999954223633 -32.25600051879883,-32.641998291015625 -32.25600051879883,-32.641998291015625 C-32.25600051879883,-32.641998291015625 -27.945999145507812,-18.44300079345703 -27.945999145507812,-18.44300079345703 C-27.945999145507812,-18.44300079345703 -24.900999069213867,-27.760000228881836 -24.900999069213867,-27.760000228881836 C-24.900999069213867,-27.760000228881836 -26.01099967956543,-5.434000015258789 -26.01099967956543,-5.434000015258789 C-26.01099967956543,-5.434000015258789 -18.683000564575195,14.293999671936035 -18.683000564575195,14.293999671936035 C-18.683000564575195,14.293999671936035 2.510999917984009,49.60499954223633 2.510999917984009,49.60499954223633 C2.510999917984009,49.60499954223633 2.7730000019073486,36.06700134277344 2.7730000019073486,36.06700134277344 C2.7730000019073486,36.06700134277344 -0.33799999952316284,16.52400016784668 -0.33799999952316284,16.52400016784668 C-0.33799999952316284,16.52400016784668 8.52400016784668,-24.19499969482422 8.52400016784668,-24.19499969482422 C8.52400016784668,-24.19499969482422 2.9260001182556152,17.42099952697754 2.9260001182556152,17.42099952697754 C2.9260001182556152,17.42099952697754 6.513999938964844,36.608001708984375 6.513999938964844,36.608001708984375 C6.513999938964844,36.608001708984375 5.716000080108643,50.917999267578125 5.716000080108643,50.917999267578125 C5.716000080108643,50.917999267578125 9.848999977111816,63.395999908447266 9.848999977111816,63.395999908447266 C9.848999977111816,63.395999908447266 30.16900062561035,90.09500122070312 30.16900062561035,90.09500122070312 C30.16900062561035,90.09500122070312 48.71699905395508,111.4469985961914 48.71699905395508,111.4469985961914 C48.71699905395508,111.4469985961914 45.435001373291016,87.21299743652344 45.435001373291016,87.21299743652344 C45.435001373291016,87.21299743652344 44.46200180053711,67.55599975585938 44.46200180053711,67.55599975585938 C44.46200180053711,67.55599975585938 47.98400115966797,90.12799835205078 47.98400115966797,90.12799835205078 C47.98400115966797,90.12799835205078 50.67399978637695,112.5780029296875 50.67399978637695,112.5780029296875 C50.67399978637695,112.5780029296875 71.90899658203125,134.01199340820312 71.90899658203125,134.01199340820312 C71.90899658203125,134.01199340820312 70.76399993896484,135.0030059814453 70.76399993896484,135.0030059814453z"></path></g><g opacity="1" transform="matrix(1,0,0,1,185.2259979248047,315.6499938964844)"><path fill="rgb(83,67,81)" fill-opacity="1" d=" M40.8489990234375,-27.073999404907227 C40.8489990234375,-27.073999404907227 40.74399948120117,-25.142000198364258 38.428001403808594,-23.929000854492188 C17.42799949645996,-12.928999900817871 6.203000068664551,-9.788999557495117 -11.484000205993652,25.833999633789062 C-11.484000205993652,25.833999633789062 -3.6640000343322754,0.8569999933242798 9.51099967956543,-7.953999996185303 C9.51099967956543,-7.953999996185303 -40.8489990234375,27.073999404907227 -40.8489990234375,27.073999404907227 C-40.8489990234375,27.073999404907227 -6.190000057220459,0.32600000500679016 -6.190000057220459,0.32600000500679016 C-6.190000057220459,0.32600000500679016 40.8489990234375,-27.073999404907227 40.8489990234375,-27.073999404907227z"></path></g><g opacity="1" transform="matrix(1,0,0,1,175.54200744628906,352.2090148925781)"><path fill="rgb(129,148,139)" fill-opacity="1" d=" M-2.7880001068115234,4.688000202178955 C-3.6440000534057617,22.222999572753906 -10.649999618530273,34.39400100708008 -18.46299934387207,42.625 C-19.929000854492188,43.731998443603516 -20.812000274658203,44.297000885009766 -20.812000274658203,44.297000885009766 C-12.635000228881836,29.809999465942383 -15.3100004196167,17.481000900268555 -15.3100004196167,17.481000900268555 C-16.089000701904297,-19.156999588012695 20.812000274658203,-44.297000885009766 20.812000274658203,-44.297000885009766 C20.43199920654297,-43.48400115966797 20.027999877929688,-42.44900131225586 19.611000061035156,-41.255001068115234 C1.9800000190734863,-24.493000030517578 -2.7880001068115234,4.688000202178955 -2.7880001068115234,4.688000202178955z"></path></g><g opacity="1" transform="matrix(1,0,0,1,176.11700439453125,352.8940124511719)"><path fill="rgb(74,99,96)" fill-opacity="1" d=" M-19.03700065612793,41.941001892089844 C-11.223999977111816,33.709999084472656 -4.21999979019165,21.538000106811523 -3.36299991607666,4.002999782562256 C-3.36299991607666,4.002999782562256 1.4049999713897705,-25.17799949645996 19.03700065612793,-41.941001892089844 C14.770999908447266,-29.729999542236328 8.95300006866455,0.017000000923871994 8.95300006866455,0.017000000923871994 C3.619999885559082,23.020999908447266 -12.883999824523926,37.29800033569336 -19.03700065612793,41.941001892089844z"></path></g><g opacity="1" transform="matrix(1,0,0,1,148.8939971923828,356.5740051269531)"><path fill="rgb(129,148,139)" fill-opacity="1" d=" M-27.452999114990234,37.74800109863281 C-27.582000732421875,37.8390007019043 -27.660999298095703,37.89500045776367 -27.660999298095703,37.89500045776367 C-26.665000915527344,21.493999481201172 -15.024999618530273,-10.130000114440918 -15.024999618530273,-10.130000114440918 C-7.999000072479248,-31.773000717163086 27.660999298095703,-37.89500045776367 27.660999298095703,-37.89500045776367 C27.660999298095703,-37.89500045776367 27.527000427246094,-37.65299987792969 27.527000427246094,-37.65299987792969 C-11.911999702453613,-7.238999843597412 -24.261999130249023,19.759000778198242 -27.452999114990234,37.74800109863281z"></path></g><g opacity="1" transform="matrix(1,0,0,1,148.9320068359375,356.6210021972656)"><path fill="rgb(74,99,96)" fill-opacity="1" d=" M27.489999771118164,-37.70100021362305 C27.489999771118164,-37.70100021362305 5.840000152587891,1.3700000047683716 5.840000152587891,1.3700000047683716 C-4.5879998207092285,21.267000198364258 -25.257999420166016,36.132999420166016 -27.489999771118164,37.70100021362305 C-24.299999237060547,19.711999893188477 -11.949000358581543,-7.2870001792907715 27.489999771118164,-37.70100021362305z"></path></g><g opacity="1" transform="matrix(1,0,0,1,164.218994140625,314.7959899902344)"><path fill="rgb(74,99,96)" fill-opacity="1" d=" M34.834999084472656,-10.303000450134277 C35.472999572753906,-10.09000015258789 35.83100128173828,-9.961999893188477 35.83100128173828,-9.961999893188477 C3.8989999294281006,10.303000450134277 -15.515000343322754,6.186999797821045 -15.515000343322754,6.186999797821045 C-24.868999481201172,3.63100004196167 -32.42100143432617,3.990000009536743 -35.83000183105469,4.369999885559082 C-27.45199966430664,-0.13199999928474426 -8.166999816894531,-6.854000091552734 34.834999084472656,-10.303000450134277z"></path></g><g opacity="1" transform="matrix(1,0,0,1,162.73399353027344,306.406005859375)"><path fill="rgb(129,148,139)" fill-opacity="1" d=" M36.31999969482422,-1.9140000343322754 C-6.682000160217285,1.534999966621399 -25.968000411987305,8.258000373840332 -34.34600067138672,12.760000228881836 C-35.608001708984375,12.901000022888184 -36.31999969482422,13.043999671936035 -36.31999969482422,13.043999671936035 C-30.83099937438965,7.953999996185303 -13.138999938964844,-1.9570000171661377 -13.138999938964844,-1.9570000171661377 C0.5569999814033508,-13.043999671936035 30.516000747680664,-3.8459999561309814 36.31999969482422,-1.9140000343322754z"></path></g><g opacity="1" transform="matrix(1,0,0,1,249.60400390625,342.2200012207031)"><path fill="rgb(82,67,81)" fill-opacity="1" d=" M41.72700119018555,25.650999069213867 C41.72700119018555,25.650999069213867 23.457000732421875,14.097999572753906 23.457000732421875,14.097999572753906 C23.457000732421875,14.097999572753906 -12.324999809265137,0.4339999854564667 -12.324999809265137,0.4339999854564667 C-12.324999809265137,0.4339999854564667 -22.047000885009766,-8.609999656677246 -22.047000885009766,-8.609999656677246 C-22.047000885009766,-8.609999656677246 -3.5209999084472656,-7.625 -3.5209999084472656,-7.625 C-3.5209999084472656,-7.625 6.691999912261963,-7.84499979019165 6.691999912261963,-7.84499979019165 C6.691999912261963,-7.84499979019165 16.135000228881836,-8.598999977111816 16.135000228881836,-8.598999977111816 C16.135000228881836,-8.598999977111816 20.416000366210938,-11.79800033569336 20.416000366210938,-11.79800033569336 C20.416000366210938,-11.79800033569336 -9.34000015258789,-8.468000411987305 -23.885000228881836,-10.572999954223633 C-23.885000228881836,-10.572999954223633 -41.72700119018555,-28.003999710083008 -41.72700119018555,-28.003999710083008 C-41.72700119018555,-28.003999710083008 -36.47700119018555,-8.57699966430664 -36.47700119018555,-8.57699966430664 C-36.47700119018555,-8.57699966430664 -37.64099884033203,-21.048999786376953 -37.64099884033203,-21.048999786376953 C-37.64099884033203,-21.048999786376953 -11.263999938964844,4.830999851226807 -11.263999938964844,4.830999851226807 C-11.263999938964844,4.830999851226807 -6.703999996185303,11.430000305175781 -6.703999996185303,11.430000305175781 C-6.703999996185303,11.430000305175781 -3.5869998931884766,28.003999710083008 -3.5869998931884766,28.003999710083008 C-3.5869998931884766,28.003999710083008 -1.8639999628067017,27.82900047302246 -1.8639999628067017,27.82900047302246 C-1.8639999628067017,27.82900047302246 -3.1500000953674316,16.187000274658203 -3.1500000953674316,16.187000274658203 C-3.1500000953674316,16.187000274658203 -7.169000148773193,5.8470001220703125 -7.169000148773193,5.8470001220703125 C-7.169000148773193,5.8470001220703125 13.484000205993652,12.654999732971191 13.484000205993652,12.654999732971191 C13.484000205993652,12.654999732971191 39.823001861572266,27.072999954223633 39.823001861572266,27.072999954223633 C39.823001861572266,27.072999954223633 41.72700119018555,25.650999069213867 41.72700119018555,25.650999069213867z"></path></g><g opacity="1" transform="matrix(1,0,0,1,221.58299255371094,307.2969970703125)"><path fill="rgb(129,145,143)" fill-opacity="1" d=" M5.929999828338623,-14.42300033569336 C5.929999828338623,-14.42300033569336 3.069999933242798,7.422999858856201 -5.929999828338623,14.42300033569336 C-5.929999828338623,14.42300033569336 0.6100000143051147,4.748000144958496 5.929999828338623,-14.42300033569336z"></path></g><g opacity="1" transform="matrix(1,0,0,1,318.2829895019531,386.6449890136719)"><path fill="rgb(129,148,139)" fill-opacity="1" d=" M12.829000473022461,1.225000023841858 C12.829000473022461,1.225000023841858 29.194000244140625,10.526000022888184 53.470001220703125,16.823999404907227 C43.00600051879883,20.1200008392334 1.0420000553131104,31.493999481201172 -19.066999435424805,9.187999725341797 C-19.066999435424805,9.187999725341797 -53.470001220703125,-31.155000686645508 -53.470001220703125,-31.155000686645508 C-53.470001220703125,-31.155000686645508 -52.40399932861328,-31.273000717163086 -50.630001068115234,-31.493000030517578 C-40.013999938964844,-20.19099998474121 -20.007999420166016,-4.563000202178955 12.829000473022461,1.225000023841858z"></path></g><g opacity="1" transform="matrix(1,0,0,1,320.9100036621094,373.59100341796875)"><path fill="rgb(74,99,96)" fill-opacity="1" d=" M50.84299850463867,29.878000259399414 C26.56800079345703,23.579999923706055 10.20199966430664,14.279000282287598 10.20199966430664,14.279000282287598 C-22.635000228881836,8.491000175476074 -42.63999938964844,-7.138000011444092 -53.25699996948242,-18.43899917602539 C-45.7599983215332,-19.3700008392334 -25.523000717163086,-22.1200008392334 -18.77400016784668,-25.451000213623047 C-18.77400016784668,-25.451000213623047 8.041000366210938,-29.878000259399414 20.985000610351562,-4.876999855041504 C20.985000610351562,-4.876999855041504 34.48899841308594,24.24799919128418 53.257999420166016,29.07900047302246 C53.257999420166016,29.07900047302246 52.38800048828125,29.39299964904785 50.84299850463867,29.878000259399414z"></path></g><g opacity="1" transform="matrix(1,0,0,1,233.00999450683594,399.58599853515625)"><path fill="rgb(74,99,96)" fill-opacity="1" d=" M13.928000450134277,47.268001556396484 C12.597000122070312,41.189998626708984 4.4770002365112305,36.52399826049805 4.4770002365112305,36.52399826049805 C-5.51800012588501,30.812999725341797 -11.354000091552734,5.507999897003174 -11.354000091552734,5.507999897003174 C-21.006000518798828,-11.057000160217285 -4.5960001945495605,-20.625 -4.5960001945495605,-20.625 C12.677000045776367,-30.680999755859375 8.656999588012695,-47.266998291015625 11.406000137329102,-45.624000549316406 C12.251999855041504,-40.27399826049805 21.006000518798828,16.865999221801758 13.928000450134277,47.268001556396484z"></path></g><g opacity="1" transform="matrix(1,0,0,1,257.1080017089844,402.3389892578125)"><path fill="rgb(129,148,139)" fill-opacity="1" d=" M-11.342000007629395,48.380001068115234 C-10.576000213623047,46.599998474121094 -10.574999809265137,44.8650016784668 -11.039999961853027,43.242000579833984 C-3.8889999389648438,16.433000564575195 -10.53499984741211,-34.388999938964844 -12.583000183105469,-48.380001068115234 C12.581999778747559,-25.1200008392334 11.230999946594238,-1.5390000343322754 11.230999946594238,-1.5390000343322754 C12.284000396728516,38.58100128173828 -11.342000007629395,48.380001068115234 -11.342000007629395,48.380001068115234z"></path></g><g opacity="1" transform="matrix(1,0,0,1,284.6059875488281,336.20098876953125)"><path fill="rgb(74,99,96)" fill-opacity="1" d=" M-45.76599884033203,-2.867000102996826 C-45.76599884033203,-2.867000102996826 -44.417999267578125,-3.111999988555908 -42.28499984741211,-3.8550000190734863 C-31.389999389648438,-1.996999979019165 -15.708000183105469,-4.929999828338623 6.656000137329102,-18.90399932861328 C6.656000137329102,-18.90399932861328 24.14699935913086,-22.891000747680664 45.76599884033203,-23.417999267578125 C45.76599884033203,-23.417999267578125 25.422000885009766,-11.73799991607666 25.422000885009766,-11.73799991607666 C25.422000885009766,-11.73799991607666 8.342000007629395,23.41900062561035 -45.76599884033203,-2.867000102996826z"></path></g><g opacity="1" transform="matrix(1,0,0,1,286.87701416015625,307.81201171875)"><path fill="rgb(129,148,139)" fill-opacity="1" d=" M-44.55500030517578,24.533000946044922 C-38.29499816894531,22.354000091552734 -25.240999221801758,15.876999855041504 -19.37700080871582,-1.3980000019073486 C-19.37700080871582,-1.3980000019073486 -0.49300000071525574,-26.391000747680664 24.424999237060547,-7.070000171661377 C24.424999237060547,-7.070000171661377 43.86800003051758,-5.4770002365112305 44.55500030517578,4.361999988555908 C44.55500030517578,4.361999988555908 43.49599838256836,4.9710001945495605 43.49599838256836,4.9710001945495605 C21.87700080871582,5.497000217437744 4.385000228881836,9.484000205993652 4.385000228881836,9.484000205993652 C-17.97800064086914,23.458999633789062 -33.65999984741211,26.391000747680664 -44.55500030517578,24.533000946044922z"></path></g><g opacity="1" transform="matrix(1,0,0,1,214.29400634765625,350.3550109863281)"><path fill="rgb(74,99,96)" fill-opacity="1" d=" M-3.434999942779541,-19.461000442504883 C-2.628000020980835,-19.663999557495117 -2.130000114440918,-19.75200080871582 -2.130000114440918,-19.75200080871582 C16.055999755859375,8.277999877929688 -12.185999870300293,18.506000518798828 -16.05500030517578,19.75200080871582 C-7.539000034332275,8.142000198364258 -4.497000217437744,-9.644000053405762 -3.434999942779541,-19.461000442504883z"></path></g><g opacity="1" transform="matrix(1,0,0,1,200.44500732421875,350.5679931640625)"><path fill="rgb(129,148,139)" fill-opacity="1" d=" M-2.9739999771118164,3.9519999027252197 C-10.413000106811523,-13.081000328063965 5.625,-18.47100067138672 10.413000106811523,-19.67300033569336 C9.35200023651123,-9.855999946594238 6.309999942779541,7.929999828338623 -2.2060000896453857,19.540000915527344 C-2.4839999675750732,19.628999710083008 -2.6410000324249268,19.67300033569336 -2.6410000324249268,19.67300033569336 C3.171999931335449,9.902000427246094 -2.9739999771118164,3.9519999027252197 -2.9739999771118164,3.9519999027252197z"></path></g><g opacity="1" transform="matrix(1,0,0,1,250.03199768066406,265.41400146484375)"><path fill="rgb(188,196,151)" fill-opacity="1" d=" M-9.682000160217285,-41.70399856567383 C-9.793999671936035,-43.03099822998047 -9.939000129699707,-44.36399841308594 -10.163000106811523,-45.70899963378906 C-10.163000106811523,-45.70899963378906 27.400999069213867,-14.569999694824219 1.3459999561309814,22.760000228881836 C1.3459999561309814,22.760000228881836 -18.63599967956543,45.709999084472656 -27.402000427246094,33.249000549316406 C6.46999979019165,5.943999767303467 -3.818000078201294,-28.402999877929688 -9.682000160217285,-41.70399856567383z"></path></g><g opacity="1" transform="matrix(1,0,0,1,236.5469970703125,261.1860046386719)"><path fill="rgb(216,213,179)" fill-opacity="1" d=" M3.802999973297119,-37.47700119018555 C9.666999816894531,-24.176000595092773 19.954999923706055,10.17199993133545 -13.916999816894531,37.47700119018555 C-14.913000106811523,36.0620002746582 -15.772000312805176,34.2130012512207 -16.43199920654297,31.797000885009766 C-19.95599937438965,18.905000686645508 6.373000144958496,-6.820000171661377 3.802999973297119,-37.47700119018555z"></path></g><g opacity="1" transform="matrix(1,0,0,1,189.17599487304688,243.11300659179688)"><path fill="rgb(199,195,143)" fill-opacity="1" d=" M18.804000854492188,54.75899887084961 C18.743999481201172,54.840999603271484 18.69099998474121,54.922000885009766 18.631000518798828,55.00299835205078 C18.631000518798828,55.00299835205078 -31.224000930786133,-1.6729999780654907 31.224000930786133,-55.00299835205078 C31.224000930786133,-55.00299835205078 30.89699935913086,-54.18299865722656 30.450000762939453,-52.757999420166016 C18.621000289916992,-29.16699981689453 2.7730000019073486,14.095999717712402 18.804000854492188,54.75899887084961z"></path></g><g opacity="1" transform="matrix(1,0,0,1,214.57400512695312,244.11399841308594)"><path fill="rgb(207,214,187)" fill-opacity="1" d=" M-6.593999862670898,53.757999420166016 C-22.625,13.095000267028809 -6.7779998779296875,-30.16699981689453 5.051000118255615,-53.757999420166016 C3.1070001125335693,-47.551998138427734 -1.1130000352859497,-29.82900047302246 9.425999641418457,-17.94499969482422 C9.425999641418457,-17.94499969482422 22.625999450683594,14.043000221252441 -6.593999862670898,53.757999420166016z"></path></g><g opacity="1" transform="matrix(1,0,0,1,112.27899932861328,248.0489959716797)"><path fill="rgb(198,215,207)" fill-opacity="1" d=" M-27.983999252319336,1.430999994277954 C-27.983999252319336,1.430999994277954 -45.26599884033203,-30.7810001373291 -45.26599884033203,-30.7810001373291 C-30.288000106811523,-26.31399917602539 -13.960000038146973,-19.062000274658203 -7.314000129699707,-7.744999885559082 C-7.314000129699707,-7.744999885559082 -2.4690001010894775,5.683000087738037 10.829000473022461,7.60699987411499 C10.829000473022461,7.60699987411499 34.95600128173828,15.3100004196167 45.26599884033203,30.7810001373291 C32.89400100708008,24.32900047302246 4.339000225067139,25.402999877929688 4.339000225067139,25.402999877929688 C-14.425999641418457,27.132999420166016 -27.983999252319336,1.430999994277954 -27.983999252319336,1.430999994277954z"></path></g><g opacity="1" transform="matrix(1,0,0,1,157.81100463867188,181.85000610351562)"><path fill="rgb(121,162,143)" fill-opacity="1" d=" M9.234999656677246,14.586000442504883 C6.948999881744385,33.095001220703125 6.609000205993652,44.43299865722656 6.9019999504089355,51.28200149536133 C5.794000148773193,51.81700134277344 4.619999885559082,52.310001373291016 3.3589999675750732,52.73899841308594 C3.3589999675750732,52.73899841308594 3.013000011444092,52.46200180053711 3.013000011444092,52.46200180053711 C3.013000011444092,52.46200180053711 -17.7450008392334,22.868000030517578 -5.324999809265137,6.201000213623047 C-5.324999809265137,6.201000213623047 6.26800012588501,-2.7850000858306885 5.23799991607666,-12.77400016784668 C5.23799991607666,-12.77400016784668 -0.3529999852180481,-20.53499984741211 7.735000133514404,-30.990999221801758 C7.735000133514404,-30.990999221801758 15.553999900817871,-52.04100036621094 15.553999900817871,-52.04100036621094 C15.553999900817871,-52.04100036621094 16.62299919128418,-52.73899841308594 17.7450008392334,-52.527000427246094 C17.520999908447266,-24.56999969482422 9.234999656677246,14.586000442504883 9.234999656677246,14.586000442504883z"></path></g><g opacity="1" transform="matrix(1,0,0,1,177.06100463867188,181.22799682617188)"><path fill="rgb(207,214,187)" fill-opacity="1" d=" M-12.347000122070312,51.90399932861328 C-12.640000343322754,45.05400085449219 -12.300000190734863,33.71799850463867 -10.013999938964844,15.208999633789062 C-10.013999938964844,15.208999633789062 -1.7289999723434448,-23.947999954223633 -1.5049999952316284,-51.90399932861328 C-0.2669999897480011,-51.66999816894531 1.0369999408721924,-50.32600021362305 1.0509999990463257,-45.66600036621094 C1.0509999990463257,-45.66600036621094 12.640999794006348,-21.607999801635742 8.065999984741211,-6.744999885559082 C8.065999984741211,-6.744999885559082 -0.6100000143051147,10.069000244140625 4.119999885559082,21.361000061035156 C4.119999885559082,21.361000061035156 5.758999824523926,43.1609992980957 -12.347000122070312,51.90399932861328z"></path></g><g opacity="1" transform="matrix(1,0,0,1,110.62799835205078,49.79800033569336)"><path fill="rgb(74,99,96)" fill-opacity="1" d=" M2.753999948501587,7.3480000495910645 C0.9259999990463257,-9.791000366210938 -8.1850004196167,-22.804000854492188 -18.111000061035156,-32.391998291015625 C-18.02400016784668,-32.494998931884766 -17.92099952697754,-32.59000015258789 -17.79599952697754,-32.672000885009766 C-17.79599952697754,-32.672000885009766 -14.647000312805176,-33.91400146484375 -9.730999946594238,-26.83799934387207 C-9.730999946594238,-26.83799934387207 7.35099983215332,-15.880999565124512 11.859999656677246,2.802999973297119 C11.859999656677246,2.802999973297119 11.600000381469727,14.857000350952148 14.708999633789062,19.761999130249023 C14.708999633789062,19.761999130249023 18.111000061035156,26.194000244140625 17.485000610351562,33.91400146484375 C8.53499984741211,19.082000732421875 2.753999948501587,7.3480000495910645 2.753999948501587,7.3480000495910645z"></path></g><g opacity="1" transform="matrix(1,0,0,1,109.6240005493164,53.75699996948242)"><path fill="rgb(129,148,139)" fill-opacity="1" d=" M2.0220000743865967,19.134000778198242 C2.0220000743865967,19.134000778198242 -7.72599983215332,22.381000518798828 -8.531999588012695,8.899999618530273 C-8.531999588012695,8.899999618530273 -15.73799991607666,-2.703000068664551 -12.392999649047852,-18.576000213623047 C-12.392999649047852,-18.576000213623047 -9.774999618530273,-26.493999481201172 -15.319999694824219,-30.69099998474121 C-15.319999694824219,-30.69099998474121 -18.48900032043457,-34.71500015258789 -17.10700035095215,-36.35100173950195 C-7.182000160217285,-26.76300048828125 1.9299999475479126,-13.75 3.757999897003174,3.3889999389648438 C3.757999897003174,3.3889999389648438 9.538000106811523,15.123000144958496 18.488000869750977,29.954999923706055 C18.31999969482422,32.02899932861328 17.878000259399414,34.189998626708984 16.98200035095215,36.35100173950195 C16.98200035095215,36.35100173950195 14.015000343322754,22.363000869750977 2.0220000743865967,19.134000778198242z"></path></g><g opacity="1" transform="matrix(1,0,0,1,141.67100524902344,41.01900100708008)"><path fill="rgb(74,99,96)" fill-opacity="1" d=" M-3.812999963760376,9.699000358581543 C0.8809999823570251,-6.745999813079834 -3.681999921798706,-23.760000228881836 -8.798999786376953,-35.84199905395508 C-8.383000373840332,-36.06700134277344 -7.699999809265137,-35.854000091552734 -6.571000099182129,-34.53499984741211 C-6.571000099182129,-34.53499984741211 3.8570001125335693,-21.56999969482422 2.6440000534057617,-7.321000099182129 C2.6440000534057617,-7.321000099182129 11.133999824523926,22.434999465942383 -11.133999824523926,36.066001892089844 C-5.794000148773193,22.20199966430664 -3.812999963760376,9.699000358581543 -3.812999963760376,9.699000358581543z"></path></g><g opacity="1" transform="matrix(1,0,0,1,133.72500610351562,41.21900177001953)"><path fill="rgb(129,148,139)" fill-opacity="1" d=" M-2.8420000076293945,-17.312999725341797 C-2.8420000076293945,-17.312999725341797 3.121999979019165,-25.458999633789062 -1.2619999647140503,-34.42300033569336 C-1.2619999647140503,-34.42300033569336 -1.2690000534057617,-35.8650016784668 -0.6150000095367432,-36.21799850463867 C4.501999855041504,-24.136999130249023 9.0649995803833,-7.122000217437744 4.370999813079834,9.321999549865723 C4.370999813079834,9.321999549865723 2.3910000324249268,21.825000762939453 -2.9489998817443848,35.68899917602539 C-3.2360000610351562,35.86399841308594 -3.503999948501587,36.04800033569336 -3.799999952316284,36.21799850463867 C-3.799999952316284,36.21799850463867 -4.514999866485596,14.166000366210938 -4.514999866485596,14.166000366210938 C-4.514999866485596,14.166000366210938 -9.0649995803833,-8.031000137329102 -2.8420000076293945,-17.312999725341797z"></path></g></g></g></svg>