<?xml version="1.0" encoding="UTF-8" standalone="no"?>
<!-- Created with Inkscape (http://www.inkscape.org/) -->

<svg
   width="138mm"
   height="45mm"
   viewBox="0 0 138 45"
   version="1.1"
   id="svg1"
   xml:space="preserve"
   xmlns="http://www.w3.org/2000/svg"
   xmlns:svg="http://www.w3.org/2000/svg"><defs
     id="defs1" /><g
     id="layer1"><path
       style="fill:#000000;stroke-width:0.274364"
       d="m 12.07698,42.836824 c -1.69376,-1.92909 -2.3074527,-3.66917 -2.2661997,-6.42564 0.01989,-1.32904 0.129218,-2.56699 0.2429467,-2.75101 0.128831,-0.20845 0.600982,0.0115 1.252498,0.58358 0.575147,0.50498 1.899057,1.37297 2.942025,1.92887 1.042967,0.5559 2.590456,1.74468 3.438863,2.64175 1.510426,1.59705 3.388476,4.75598 3.03668,5.10778 -0.207917,0.20792 -0.132552,0.31751 -1.089621,-1.5845 -1.146789,-2.27906 -2.980422,-4.16142 -5.460318,-5.60543 -1.23239,-0.7176 -2.533044,-1.56281 -2.890343,-1.87823 -0.874092,-0.77165 -1.072965,-0.47119 -1.072965,1.62103 0,2.5673 0.792605,4.5821 2.427713,6.17124 0.804019,0.78142 1.192034,1.34915 0.922072,1.34915 -0.256352,0 -0.923861,-0.52137 -1.483351,-1.15859 z m 2.554693,0.29729 c -0.04301,-1.20514 0.02412,-1.22352 1.225298,-0.33545 1.857346,1.3732 1.239814,0.23043 -1.330475,-2.46211 -2.446273,-2.56261 -4.00275,-4.47739 -4.00275,-4.92418 0,-0.52996 0.561995,-0.0401 1.31364,1.14511 0.464112,0.73179 1.761393,2.22413 2.882846,3.31631 1.121453,1.09218 2.315936,2.45514 2.654405,3.02881 l 0.6154,1.04302 -1.384142,-0.0534 c -0.761278,-0.0294 -1.384144,-0.16742 -1.384148,-0.30678 -3e-6,-0.13937 0.16271,-0.15283 0.361586,-0.0299 0.224031,0.13845 0.276575,0.0859 0.138115,-0.13812 -0.326332,-0.52802 -0.745954,-0.44203 -0.91021,0.18651 -0.07878,0.30145 -0.159582,0.09 -0.179565,-0.4698 z m 7.233886,0.18408 c -0.520257,-0.3294 -1.161246,-1.05267 -1.424418,-1.60727 -0.633414,-1.33482 -1.834442,-7.02173 -2.064122,-9.7737 -0.100638,-1.20582 -0.299303,-2.37343 -0.441478,-2.59468 -0.142174,-0.22126 -0.388846,-1.3227 -0.54816,-2.44766 -0.183837,-1.29813 -0.689554,-2.79893 -1.38425,-4.10801 -0.982499,-1.85142 -1.09459,-2.31439 -1.09459,-4.52104 0,-1.35212 0.12492,-2.4584 0.277601,-2.4584 0.15268,0 0.998319,0.67664 1.879198,1.50366 1.889287,1.77376 2.005937,1.49337 0.790908,-1.90104 -0.557268,-1.55684 -0.838128,-3.04807 -0.898462,-4.77042 -0.04827,-1.3780798 -0.263907,-2.9719598 -0.479185,-3.5419598 -0.227556,-0.60251 -0.309468,-1.54883 -0.195666,-2.26051 0.210436,-1.31599 0.799608,-2.81052 1.107963,-2.81052 0.104177,0 0.428558,0.66946 0.720846,1.4877 0.292289,0.81823 1.244166,2.61371 2.115282,3.98994 1.790916,2.8293698 2.183118,3.9631898 2.222111,6.4239498 l 0.0273,1.7226 0.472089,-1.08393 c 0.33251,-0.76344 0.411904,-1.56563 0.268528,-2.71317 -0.173506,-1.3887 -0.0801,-1.8728797 0.632622,-3.2793698 1.015858,-2.0047 1.264222,-1.74541 1.712149,1.7874698 0.168809,1.33144 0.470032,2.87185 0.669384,3.42315 l 0.362458,1.00236 1.87667,-2.00617 c 2.316615,-2.47646 9.263402,-7.1389198 9.814893,-6.5874298 0.320408,0.32041 -2.268968,5.1085598 -3.531255,6.5298298 -0.75264,0.84743 -2.014345,2.52121 -2.803788,3.71951 -0.789443,1.1983 -1.848831,2.47315 -2.354196,2.833 -0.901423,0.64187 -0.914854,0.69322 -0.708398,2.70836 0.177074,1.72834 0.107488,2.25819 -0.438806,3.34123 -0.357089,0.70793 -0.889183,1.97144 -1.182431,2.80778 -0.293249,0.83634 -0.919474,1.96386 -1.391612,2.5056 -0.61393,0.70442 -0.794584,1.16338 -0.634263,1.61137 0.209904,0.58654 0.239857,0.57657 0.470661,-0.1566 0.422058,-1.34071 2.342412,-4.1542 4.027102,-5.90007 2.366807,-2.45276 7.118513,-5.68832 8.353794,-5.68832 0.435383,0 0.125919,2.35953 -0.595627,4.54139 -0.773098,2.33776 -4.3505,8.18954 -5.726678,9.3675 l -1.2052,1.03161 0.274659,2.00404 c 0.151063,1.10222 0.234183,2.14498 0.184711,2.31724 -0.04947,0.17226 -0.174595,0.94743 -0.278054,1.7226 l -0.188108,1.4094 1.075644,-1.2528 1.075644,-1.2528 0.29257,0.783 c 0.474939,1.27107 0.70393,2.8188 0.41705,2.8188 -0.146421,0 -0.370786,-0.45806 -0.498589,-1.0179 l -0.232369,-1.0179 -0.321888,1.0179 c -0.177039,0.55984 -0.432601,1.0179 -0.567917,1.0179 -0.135316,0 -0.12078,-0.45806 0.0323,-1.0179 l 0.278331,-1.0179 -0.871102,1.0179 c -0.479107,0.55984 -1.111103,1.0179 -1.404436,1.0179 -0.50186,0 -0.50173,-0.0601 0.0022,-1.0179 0.677283,-1.28732 0.749052,-5.12235 0.135419,-7.2362 -0.427973,-1.47428 -0.453416,-1.49798 -0.840552,-0.783 -0.219571,0.40552 -0.851871,2.56952 -1.40511,4.8089 -1.051349,4.25561 -1.115571,4.44503 -1.407929,4.15267 -0.249652,-0.24965 2.000845,-8.67191 2.574196,-9.63366 0.297907,-0.49972 0.117788,-0.38641 -0.497855,0.3132 -1.252563,1.42339 -3.367446,5.66627 -3.844353,7.71254 -0.426956,1.83195 -1.025075,2.05623 -2.683433,1.00623 z m 0.557795,-0.96708 c -0.0013,-0.45384 -0.335757,-0.89463 -0.939599,-1.23823 -1.152354,-0.65572 -1.19905,-0.29502 -0.126778,0.9793 0.968535,1.15104 1.068952,1.17542 1.066377,0.25893 z m 1.575731,-0.0987 c 0.167996,-0.44186 0.305448,-1.03019 0.305448,-1.30739 0,-0.40774 -0.142868,-0.36979 -0.748,0.1987 -0.471406,0.44286 -0.689526,0.92631 -0.58987,1.30739 0.219968,0.84116 0.669998,0.75455 1.032422,-0.1987 z m 0.618647,-3.35062 c 0,-0.54905 -0.06638,-0.53919 -0.92227,0.13689 -0.552433,0.43638 -0.929219,1.03461 -0.939599,1.49182 l -0.01733,0.7633 0.939599,-0.9002 c 0.51678,-0.4951 0.939599,-1.16642 0.9396,-1.49181 z m -2.315489,1.4662 c -0.104559,-0.27248 -0.190108,-0.55436 -0.190108,-0.6264 0,-0.072 -0.167091,-0.13099 -0.371314,-0.13099 -0.204222,0 -0.715444,-0.31711 -1.136048,-0.7047 l -0.764734,-0.7047 0.509642,1.00234 c 0.676342,1.33018 2.413771,2.36633 1.952562,1.16445 z m -0.908173,-2.4378 c -0.43689,-0.36772 -1.021432,-1.12663 -1.298982,-1.68647 -0.611478,-1.23341 -0.888962,-1.31783 -0.604356,-0.18387 0.334426,1.33246 2.333321,3.63201 2.561668,2.94697 0.07481,-0.22443 -0.22144,-0.70891 -0.65833,-1.07663 z m 3.294452,-0.35538 c 0.692238,-0.93123 0.08469,-0.99915 -0.975526,-0.10905 -0.687275,0.57701 -1.147454,1.2062 -1.05617,1.44408 0.122035,0.31802 0.362805,0.2443 0.980321,-0.30014 0.450206,-0.39693 0.923324,-0.86263 1.051375,-1.03489 z m 2.694341,-2.49218 c 0.287906,-0.33714 -0.07553,-0.14912 -0.807633,0.41782 -1.071513,0.82978 -1.330363,1.22417 -1.327326,2.02238 l 0.0038,0.99158 0.803859,-1.4094 c 0.442123,-0.77517 1.03942,-1.68524 1.327327,-2.02238 z m -3.13482,1.4117 c 0.478103,-0.40883 0.69228,-0.88639 0.626399,-1.39672 -0.09922,-0.76855 -0.111914,-0.76443 -1.420773,0.46094 -0.81689,0.76478 -1.252966,1.41284 -1.143191,1.69891 0.195696,0.50997 0.664827,0.3252 1.937565,-0.76313 z m -2.449108,0.67715 c 0,-0.1357 -0.432306,-0.73469 -0.96068,-1.3311 l -0.96068,-1.08436 0.705153,1.3311 c 0.638775,1.20579 1.216207,1.72063 1.216207,1.08436 z m 1.984419,-2.59759 c 1.022835,-1.13937 1.556367,-2.39196 0.90073,-2.11467 -0.351354,0.1486 -2.885149,2.95286 -2.885149,3.19312 0,0.57759 0.971957,0.0494 1.984419,-1.07845 z m 8.700761,-6.36533 c 0.669025,-1.0172 1.222763,-2.07425 1.230529,-2.34899 0.01743,-0.61668 3.353609,-4.28321 3.638273,-3.99855 0.113174,0.11318 -0.591846,1.04199 -1.566711,2.06404 -0.974866,1.02204 -1.772483,2.08293 -1.772483,2.35754 0,0.78907 -1.492998,3.00135 -3.234869,4.79332 -0.879081,0.90436 -1.426968,1.6443 -1.217528,1.6443 0.212614,0 0.380801,0.40682 0.380801,0.92111 0,0.50662 0.129006,1.00085 0.286681,1.0983 0.804914,0.49746 3.659417,-3.39135 6.262325,-8.53143 0.688405,-1.35942 1.462108,-4.68645 1.160076,-4.98848 -0.227078,-0.22708 -2.812218,1.30893 -4.940777,2.93566 -3.76342,2.87615 -7.153101,7.76972 -7.153101,10.32671 v 1.20047 l 2.855188,-2.81227 c 1.570353,-1.54675 3.402572,-3.64452 4.071596,-4.66173 z m -11.59666,6.1302 c -0.340496,-0.63622 -1.280918,-1.49967 -1.280918,-1.17607 0,0.11328 0.227619,0.55336 0.505821,0.97795 0.587895,0.89724 1.238217,1.06346 0.775097,0.19812 z m 3.462321,-3.09257 c -0.190443,-0.3403 -0.522163,-0.11329 -1.400204,0.95825 -1.710917,2.08795 -1.504945,2.92384 0.249567,1.01281 0.958849,-1.04438 1.321539,-1.66568 1.150637,-1.97106 z m -4.743239,2.90191 c 0,-0.076 -0.14094,-0.22522 -0.3132,-0.33168 -0.17226,-0.10646 -0.3132,-0.0443 -0.3132,0.13811 0,0.18243 0.14094,0.33169 0.3132,0.33169 0.17226,0 0.3132,-0.0622 0.3132,-0.13812 z m 0.883517,-1.34958 c -0.439822,-0.47372 -0.955194,-1.14318 -1.145272,-1.4877 -0.290067,-0.52575 -0.347127,-0.54088 -0.355121,-0.0942 -0.0052,0.29273 0.448531,0.96154 1.008376,1.48625 1.268667,1.18906 1.55974,1.24563 0.492017,0.0956 z m 2.895811,-1.97163 c 0.358744,-0.36372 0.404819,-0.63373 0.171309,-1.00392 -0.272288,-0.43167 -0.424135,-0.33615 -1.029056,0.64733 -0.390298,0.63454 -0.70664,1.4356 -0.70298,1.78012 0.006,0.56908 0.0553,0.55537 0.538324,-0.1498 0.29242,-0.42691 0.752501,-1.00009 1.022403,-1.27373 z m -2.21333,1.2607 c 0,-0.57999 -1.582785,-2.83916 -1.866352,-2.66391 -0.322298,0.19919 1.152142,2.98334 1.57993,2.98334 0.157532,0 0.286422,-0.14374 0.286422,-0.31943 z m 1.088156,-2.17062 c 0.262814,-0.50822 0.474709,-1.03675 0.470879,-1.1745 -0.01124,-0.40414 -1.231218,1.27687 -1.238871,1.70705 -0.01136,0.6388 0.259334,0.45109 0.767992,-0.53255 z m 3.738649,-0.25045 c 0.420252,-0.64597 0.927031,-1.79599 1.126174,-2.55558 0.199144,-0.7596 0.581915,-1.7166 0.850603,-2.12667 0.586914,-0.89574 0.41185,-4.62701 -0.298698,-6.36639 l -0.444397,-1.08785 -0.05468,1.3843 c -0.03155,0.79889 -0.446671,2.18961 -0.981614,3.2886 -0.509815,1.04736 -1.082632,2.67946 -1.272927,3.62689 -0.190294,0.94743 -0.497677,2.11654 -0.683074,2.59802 -0.243277,0.63179 -0.239591,1.08938 0.01324,1.64429 0.480261,1.05406 0.851937,0.96769 1.745365,-0.40561 z m -6.56439,-2.6715 c 0.741063,-2.03187 0.79485,-2.44383 0.494222,-3.78529 -0.473043,-2.11081 -1.384936,-3.76661 -2.919528,-5.3012 l -1.318103,-1.3181 -0.09321,2.14064 c -0.08335,1.91402 0.01108,2.32546 0.891936,3.88624 0.632343,1.12046 1.087621,2.48497 1.27128,3.81015 0.294854,2.12752 0.473675,2.84756 0.707191,2.84756 0.07406,0 0.508857,-1.026 0.966217,-2.28 z m 2.322561,1.731 c 0.217744,-0.40686 0.104076,-0.78695 -0.43903,-1.46807 l -0.732844,-0.91907 0.285977,1.23317 c 0.157288,0.67824 0.28934,1.33887 0.29345,1.46807 0.01282,0.40316 0.286133,0.25826 0.592447,-0.3141 z m -1.750274,-0.40302 c -0.09188,-0.35135 -0.237037,-0.56884 -0.32257,-0.48331 -0.169439,0.16944 0.12985,1.12213 0.352518,1.12213 0.07541,0 0.06193,-0.28747 -0.02995,-0.63882 z m 4.314908,-2.1759 c 0.35755,-1.43661 0.989619,-3.28203 1.404598,-4.10096 0.414979,-0.81892 0.84997,-2.08594 0.966646,-2.81559 0.242017,-1.5135 0.188692,-1.50678 -2.002216,0.2522 -1.577461,1.26647 -1.996075,2.02371 -2.698427,4.88125 l -0.524999,2.13597 0.98635,1.24537 c 0.542493,0.68495 1.038462,1.19325 1.102154,1.12956 0.06369,-0.0637 0.408344,-1.2912 0.765894,-2.7278 z m -3.272551,-1.87578 -0.346858,-0.77551 -0.101657,0.88026 c -0.05591,0.48415 -0.0055,1.11501 0.111918,1.40191 0.188514,0.46044 0.24114,0.44814 0.448514,-0.10476 0.129218,-0.34452 0.07885,-0.97537 -0.111917,-1.4019 z m 0.749341,-0.75134 c 0,-0.23686 0.079,-0.90633 0.175564,-1.4877 l 0.175563,-1.05705 -0.477665,0.783 c -0.543968,0.89168 -0.654712,2.1924 -0.186662,2.1924 0.17226,0 0.3132,-0.1938 0.3132,-0.43065 z m 0.0081,-6.36973 c 0.260158,-4.74777 -0.0099,-6.11883 -1.759915,-8.9341098 -0.670538,-1.07871 -1.593531,-2.73647 -2.051097,-3.6839 l -0.831937,-1.7226 -0.222661,1.17256 c -0.122464,0.64491 -0.134333,1.70196 -0.02638,2.349 0.107957,0.64704 0.312756,2.58583 0.455109,4.3084298 0.151699,1.8357 0.475133,3.54978 0.78145,4.14139 0.287444,0.55517 0.725716,2.07085 0.973937,3.36818 0.248221,1.29733 0.609572,2.60486 0.803004,2.90561 0.314348,0.48875 0.328878,0.4803 0.136834,-0.0796 -0.118172,-0.34452 -0.271766,-1.78528 -0.34132,-3.20168 -0.06955,-1.4164 -0.265389,-2.94067 -0.435189,-3.38728 -0.382724,-1.00664 -0.393571,-2.97106 -0.01967,-3.5617 0.18732,-0.2959 0.331898,0.22045 0.438481,1.566 0.336238,4.24482 0.800324,8.29505 1.012979,8.84061 0.485375,1.2452 0.874647,-0.21709 1.086369,-4.08093 z m 1.239911,2.19227 c 0.0026,-0.38121 0.286676,-1.40824 0.631196,-2.28229 0.618794,-1.5699 0.847123,-3.76053 0.391499,-3.75613 -0.451033,0.004 -1.427586,3.61581 -1.523566,5.63441 -0.06506,1.36827 3.56e-4,1.88128 0.19966,1.566 0.163028,-0.25788 0.298573,-0.78078 0.301211,-1.16199 z m 2.510385,-1.91138 c 4e-6,-0.39891 0.156875,-1.0184 0.3486,-1.37664 0.266751,-0.49843 0.231487,-1.02669 -0.150209,-2.25011 -0.274339,-0.87932 -0.588513,-2.30346 -0.698163,-3.16476 -0.174826,-1.3732398 -0.234289,-1.4735998 -0.483107,-0.8153197 -0.166917,0.4415997 -0.170825,1.5934597 -0.0095,2.7976097 0.265153,1.97904 0.148777,3.10565 -0.490817,4.75151 -0.167354,0.43065 -0.400631,1.18077 -0.518393,1.66695 l -0.214112,0.88394 1.107842,-0.88394 c 0.694905,-0.55447 1.107845,-1.1543 1.10785,-1.60924 z m 3.98678,1.00586 c -0.104074,-0.10407 -0.374208,-0.1152 -0.600299,-0.0247 -0.24985,0.1 -0.175635,0.1742 0.189224,0.18923 0.330165,0.0136 0.515149,-0.0604 0.411075,-0.1645 z m -1.197957,-1.95455 c -0.193272,-0.55442 -0.291094,-1.41896 -0.217382,-1.92119 0.07371,-0.50223 0.01859,-0.8418 -0.122506,-0.75461 -0.306038,0.18915 -0.335113,1.84275 -0.05686,3.234 0.114203,0.57102 0.31705,0.88094 0.473911,0.72408 0.156861,-0.15686 0.123835,-0.70571 -0.07716,-1.28228 z m -1.442191,0.81268 c 0.416512,-0.30957 0.467446,-0.58814 0.243382,-1.3311 -0.155851,-0.51678 -0.29548,-0.85111 -0.310286,-0.74295 -0.01481,0.10816 -0.240222,0.70715 -0.500923,1.3311 -0.494386,1.18323 -0.324183,1.40593 0.567827,0.74295 z m 3.414012,0.0157 c -0.29232,-0.29233 -0.459359,-0.29233 -0.751679,0 -0.29232,0.29231 -0.2088,0.37583 0.37584,0.37583 0.584639,0 0.668159,-0.0835 0.375839,-0.37583 z m -1.140948,-1.98062 c -0.750362,-1.39333 -0.940254,-1.20344 -0.485475,0.48548 0.26783,0.99465 0.445844,1.23499 0.715202,0.96564 0.269359,-0.26936 0.212179,-0.63054 -0.229727,-1.45112 z m 1.861307,1.10365 c -0.106462,-0.17226 -0.326189,-0.31319 -0.488283,-0.31319 -0.162094,0 -0.294716,0.14093 -0.294716,0.31319 0,0.17227 0.219728,0.3132 0.488284,0.3132 0.268556,0 0.401178,-0.14093 0.294715,-0.3132 z M 30.015,15.110344 c -0.181278,-0.21949 -0.470531,-0.89236 -0.642783,-1.49527 -0.241494,-0.84527 -0.319653,-0.92802 -0.341434,-0.36153 -0.02833,0.73695 0.912951,2.65673 1.17442,2.39526 0.07667,-0.0767 -0.0089,-0.31898 -0.190203,-0.53846 z m 1.962934,0.38392 c 0.106462,-0.17226 -0.01784,-0.31319 -0.276232,-0.31319 -0.25839,0 -0.556905,0.14093 -0.663368,0.31319 -0.106462,0.17226 0.01784,0.3132 0.276232,0.3132 0.25839,0 0.556905,-0.14094 0.663368,-0.3132 z m -1.500758,-1.55404 c -0.192581,-0.5102 -0.408674,-0.86912 -0.480208,-0.79758 -0.223503,0.2235 0.25553,1.72523 0.550328,1.72523 0.154015,0 0.122461,-0.41744 -0.07012,-0.92765 z m 2.106874,0.64726 c 0.09531,-0.1542 -0.02565,-0.35672 -0.268795,-0.45002 -0.243145,-0.0933 -0.519792,0.0329 -0.614771,0.28038 -0.187583,0.48883 0.5936,0.63882 0.883566,0.16964 z m -1.08064,-0.89414 c -0.0091,-0.45168 -0.907819,-2.73763 -0.954324,-2.4273 -0.07965,0.5315 0.07346,2.17936 0.225536,2.4273 0.07924,0.12919 0.276695,0.2349 0.438788,0.2349 0.162094,0 0.292594,-0.10571 0.29,-0.2349 z m 2.023521,-0.36401 c 0.09712,-0.15714 -0.03143,-0.25518 -0.28565,-0.21787 -0.670631,0.0984 -0.987975,0.50358 -0.394441,0.50358 0.276934,0 0.582975,-0.12857 0.680091,-0.28571 z m -1.254815,-3.11255 c -0.05275,-0.0603 -0.246233,-0.0168 -0.429953,0.0968 -0.384436,0.23759 -0.439704,1.41881 -0.105646,2.25796 0.166576,0.41844 0.282944,0.19226 0.429953,-0.83568 0.110859,-0.77517 0.1584,-1.45875 0.105646,-1.51906 z m 2.524606,1.76185 c 0.2088,-0.2088 0.0522,-0.23753 -0.469799,-0.0862 -0.43065,0.12485 -0.923939,0.36794 -1.096199,0.5402 -0.2088,0.2088 -0.0522,0.23753 0.4698,0.0862 0.430649,-0.12485 0.923939,-0.36795 1.096198,-0.54021 z M 24.432342,8.7604442 c 0.144894,-0.39693 0.0527,-0.33957 -0.251678,0.1566 -0.264184,0.43065 -0.465484,1.4172298 -0.447335,2.1923998 l 0.033,1.4094 0.218678,-1.566 c 0.120274,-0.8613 0.321574,-1.8478798 0.447335,-2.1923998 z m 8.976038,1.7753998 c 0.161452,-1.1865198 -0.185572,-1.8563398 -0.473583,-0.9140997 -0.409445,1.3395197 -0.454043,2.4685297 -0.09278,2.3486697 0.213786,-0.0709 0.468648,-0.71648 0.566359,-1.43457 z m 1.348265,-1.2654898 c 0.163558,-0.87997 0.12348,-0.99566 -0.24033,-0.69372 -0.240142,0.19929 -0.493886,0.85286 -0.563874,1.4523698 -0.09881,0.84637 -0.04509,1.00143 0.240329,0.69372 0.202169,-0.21796 0.455913,-0.8715197 0.563875,-1.4523698 z m 0.823077,1.5258898 c 0.25839,-0.16698 0.328859,-0.30361 0.1566,-0.30361 -0.17226,0 -0.52461,0.13663 -0.783,0.30361 -0.258389,0.16698 -0.328859,0.3036 -0.1566,0.3036 0.17226,0 0.52461,-0.13662 0.783,-0.3036 z m 1.195811,-2.0357998 c 0.196217,-0.43065 0.305519,-0.783 0.242894,-0.783 -0.06262,0 -0.344733,0.35235 -0.626905,0.783 -0.282173,0.43065 -0.391475,0.7830001 -0.242894,0.7830001 0.14858,0 0.430688,-0.3523501 0.626905,-0.7830001 z m -0.618935,-0.4698 c 0.382071,-0.51678 0.553136,-0.9396 0.380142,-0.9396 -0.172993,0 -0.533181,0.42282 -0.800418,0.9396 -0.267237,0.51678 -0.438302,0.9396 -0.380143,0.9396 0.05816,0 0.418347,-0.42282 0.800419,-0.9396 z m 6.327265,35.0537598 c -0.01439,-0.84549 1.706076,-3.73379 2.224104,-3.73379 0.164793,0 -0.07641,0.49301 -0.536002,1.09556 -0.459595,0.60257 -1.024341,1.62438 -1.254991,2.2707 -0.361576,1.0132 -0.421259,1.06385 -0.433111,0.36753 z m 1.769083,-0.94748 c 0.483652,-0.87917 1.200481,-1.74926 1.592954,-1.93352 0.525261,-0.24661 0.607919,-0.40209 0.3132,-0.58911 -0.592004,-0.37568 2.058912,-0.32532 3.067857,0.0583 1.348775,0.51281 1.256081,0.0973 -0.13682,-0.61331 -1.504672,-0.76762 -2.179283,-0.80918 -3.065001,-0.1888 -0.461246,0.32307 -0.923525,0.38305 -1.557387,0.20208 -0.495789,-0.14156 -1.870648,-0.1402 -3.055242,0.003 -2.547446,0.30797 -4.413427,-0.0369 -5.331515,-0.98547 l -0.65787,-0.67969 2.112196,0.12354 2.112196,0.12354 -1.551301,-0.7373 c -1.679983,-0.79848 -3.028781,-2.17365 -3.337196,-3.40248 -0.266606,-1.06224 -0.103891,-1.13482 1.551504,-0.69207 0.792806,0.21204 1.541688,0.28531 1.664184,0.16281 0.122495,-0.12249 -0.0968,-0.65488 -0.487312,-1.18308 -0.390517,-0.52821 -0.629436,-1.04097 -0.53093,-1.13947 0.09851,-0.0985 1.626019,-0.24275 3.394476,-0.32054 1.768456,-0.0778 3.224652,-0.16229 3.235991,-0.18778 0.01134,-0.0255 -0.06914,-1.17386 -0.17885,-2.55194 -0.11365,-1.42763 -0.07233,-2.67403 0.09603,-2.8971 0.47865,-0.63415 2.502907,-0.44988 4.135045,0.37641 0.834245,0.42235 1.6333,0.69591 1.775679,0.60792 1.069047,-0.66071 -1.340556,-3.88387 -4.766286,-6.37554 -2.304567,-1.6762 -3.46027,-3.02293 -4.014381,-4.67792 -0.489155,-1.46098 -0.468738,-3.2549 0.03505,-3.07928 0.215325,0.0751 0.603934,-0.30078 0.863576,-0.8352 0.373373,-0.76851 0.782053,-1.0482997 1.954609,-1.3381697 0.815393,-0.2015701 1.855189,-0.6596301 2.310658,-1.0179001 0.930707,-0.73209 2.514121,-0.84452 4.053644,-0.28782 0.954269,0.34507 1.056731,0.3052 2.01218,-0.783 0.591736,-0.67395 1.293592,-1.14658 1.702671,-1.14658 0.717522,0 1.714721,0.89492 2.331322,2.09222 0.193409,0.37556 0.669076,0.72791 1.057038,0.783 0.614498,0.0873 0.717567,0.3115801 0.799929,1.7408798 0.116981,2.03011 -0.587209,3.73284 -2.418427,5.84773 -1.136336,1.31237 -1.904312,2.60362 -1.904312,3.20185 0,0.0865 0.281879,0.0678 0.626399,-0.0415 1.19991,-0.38084 0.699473,1.05295 -0.939599,2.69203 -0.861299,0.86129 -1.565998,1.75297 -1.565998,1.9815 0,0.22853 -0.204423,0.9949 -0.454272,1.70305 -0.430404,1.2199 -0.41437,1.35773 0.305178,2.62328 0.417697,0.73465 0.850609,1.94191 0.962026,2.68279 l 0.202577,1.34705 1.097852,-2.75645 c 1.593897,-4.00191 2.02123,-4.37898 2.585943,-2.2818 0.440091,1.63437 0.09015,2.88019 -1.613404,5.74389 -1.254582,2.10898 -1.343504,2.4182 -1.54417,5.36984 -0.228088,3.355 -0.514571,4.8546 -0.92742,4.8546 -0.141561,0 -0.126283,-0.45713 0.03395,-1.01583 0.160235,-0.55871 0.291337,-1.42619 0.291337,-1.92774 0,-0.89207 -0.01363,-0.89958 -0.6264,-0.34503 -0.44331,0.40119 -0.6264,0.96465 -0.6264,1.92774 0,0.74847 -0.123627,1.36086 -0.274727,1.36086 -0.1511,0 -0.207212,-0.599 -0.124692,-1.3311 0.144794,-1.28461 0.118838,-1.33218 -0.743172,-1.36191 -0.491264,-0.0169 -1.326405,-0.21464 -1.855871,-0.43932 -1.527032,-0.64799 -2.483499,-0.21379 -3.453029,1.56756 -0.46841,0.86062 -0.978325,1.56477 -1.133145,1.56477 -0.154819,0 0.114225,-0.71932 0.597876,-1.59849 z m 5.577362,-1.84671 c -0.344519,-0.14804 -0.837809,-0.27692 -1.096199,-0.28639 -0.417599,-0.0153 -0.417599,0.0165 0,0.28639 0.25839,0.16699 0.75168,0.29586 1.096199,0.28639 l 0.6264,-0.0172 z m 2.047198,-2.1141 c -0.131266,-1.30438 -0.163208,-1.3586 -0.259224,-0.43998 -0.09719,0.92988 0.06769,1.92768 0.318551,1.92768 0.04971,0 0.02302,-0.66946 -0.05933,-1.4877 z m 0.852291,0.3132 c -0.192217,-1.56299 0.349198,-3.22293 1.913785,-5.86752 1.023577,-1.73013 1.294121,-2.49562 1.294121,-3.66162 0,-0.8108 -0.127726,-1.55312 -0.283834,-1.6496 -0.313781,-0.19393 -2.275199,4.22178 -2.426549,5.46285 -0.05252,0.43065 -0.315855,1.55817 -0.585191,2.5056 -0.302192,1.063 -0.417245,2.23228 -0.300473,3.05369 0.233246,1.64072 0.588274,1.78396 0.388141,0.1566 z m -6.54531,-0.24307 c 0.398821,-0.39882 -0.519394,-0.61281 -2.408893,-0.56139 -4.236023,0.11529 -7.255476,0.25875 -7.255869,0.34476 -2.22e-4,0.0486 0.316711,0.21853 0.704295,0.37759 0.683767,0.2806 8.662219,0.13729 8.960467,-0.16096 z m 2.079823,-0.92584 c -1.883244,-1.6727 -1.617792,-1.88433 0.345569,-0.2755 0.910401,0.746 1.315793,0.94457 1.173985,0.57502 -0.148975,-0.38822 -0.102197,-0.49375 0.149819,-0.338 0.545685,0.33725 0.46102,0.0458 -0.593681,-2.04353 -0.528059,-1.04608 -0.882068,-1.98 -0.786689,-2.07538 0.09538,-0.0954 0.734959,1.01117 1.421287,2.45899 0.686328,1.44783 1.249546,2.35053 1.251596,2.00601 0.0067,-1.12319 -0.825802,-4.18509 -1.359188,-4.99914 -0.295131,-0.45042 -0.375411,-0.79505 -0.185207,-0.79505 0.390217,0 1.54091,2.3954 1.551027,3.22878 0.0038,0.31162 0.147819,0.47948 0.320079,0.37301 0.47098,-0.29108 0.37634,-2.8844 -0.14183,-3.88643 -0.542976,-1.05 -2.026716,-1.74298 -3.045379,-1.42235 -0.89673,0.28225 -4.180286,2.45109 -5.347483,3.53209 -1.678776,1.5548 -0.667155,2.92466 2.431008,3.29189 0.514738,0.061 1.640588,0.47843 2.501887,0.92759 0.861299,0.44915 1.636469,0.82031 1.722598,0.82479 0.08613,0.004 -0.548099,-0.61778 -1.409398,-1.38279 z m -0.107517,-1.74244 c -0.735149,-0.85346 -1.197312,-1.55174 -1.027027,-1.55174 0.363634,0 2.695531,2.77161 2.498049,2.96909 -0.07391,0.0739 -0.735872,-0.5639 -1.471022,-1.41735 z m -5.569345,1.11494 c -0.0216,-0.16979 -0.651873,-0.63266 -1.400613,-1.02861 -0.74874,-0.39594 -1.647179,-0.97831 -1.996531,-1.29415 -0.349352,-0.31584 -1.128475,-0.65788 -1.731384,-0.7601 -0.602909,-0.10221 -1.427329,-0.2819 -1.832043,-0.39931 -0.72098,-0.20915 -0.726372,-0.19514 -0.266965,0.69325 0.624696,1.20803 1.358693,1.83765 3.044239,2.61134 1.444138,0.66288 4.260231,0.78242 4.183297,0.17758 z m -1.569744,-2.88571 c -0.992377,-0.79411 -0.646819,-0.99644 0.422563,-0.24742 0.387042,0.2711 0.753127,0.34761 0.857236,0.17915 0.09994,-0.1617 -0.102218,-0.38412 -0.449239,-0.49426 -0.347021,-0.11014 -0.630948,-0.3317 -0.630948,-0.49235 0,-0.39862 0.425784,-0.36743 0.855907,0.0627 0.195133,0.19514 0.610906,0.25542 0.923939,0.13396 0.514527,-0.19964 0.494003,-0.26547 -0.213847,-0.68586 l -0.782999,-0.46502 0.887934,0.18712 c 1.060989,0.22359 2.1734,-0.0721 1.904987,-0.50645 -0.427919,-0.69239 -1.921786,-0.92715 -4.577664,-0.71938 l -2.744541,0.2147 0.753186,1.29117 c 0.414252,0.71015 1.362871,1.76811 2.108042,2.35102 1.19302,0.93325 1.368424,0.99108 1.468444,0.48412 0.06906,-0.35006 -0.237852,-0.85696 -0.783,-1.29319 z m 5.222328,-3.08345 c 0.335554,-0.40432 0.290455,-0.56141 -0.27485,-0.95736 -0.371948,-0.26052 -0.676269,-0.61085 -0.676269,-0.77849 0,-0.16765 0.398767,-0.01 0.886148,0.35034 0.633547,0.4684 1.123638,0.59555 1.719279,0.44605 l 0.833129,-0.2091 -0.632383,-0.80395 c -0.444592,-0.5652 -0.525445,-0.87003 -0.272273,-1.0265 0.469079,-0.28991 -3.108747,-1.63531 -3.72248,-1.3998 -0.721941,0.27704 -0.259612,3.59664 0.600876,4.31439 0.806049,0.67234 1.026628,0.68157 1.538823,0.0644 z m 0.30168,-1.86532 c -0.404575,-0.43065 -0.59465,-0.783 -0.42239,-0.783 0.172259,0 0.644214,0.35235 1.048789,0.783 0.404574,0.43065 0.59465,0.783 0.42239,0.783 -0.17226,0 -0.644215,-0.35235 -1.048789,-0.783 z m 4.836643,0.72593 c -1.434063,-2.83413 -3.746231,-4.62579 -6.111953,-4.73604 -2.116025,-0.0986 -1.854794,0.59853 0.487612,1.30126 2.524726,0.75744 3.949597,1.8007 5.069612,3.71186 0.938565,1.60154 1.390965,1.37557 0.554729,-0.27708 z m -1.945569,-0.95481 c -0.54549,-0.54548 -1.101925,-0.88167 -1.236522,-0.74707 -0.134597,0.13459 0.22669,0.66593 0.80286,1.18073 1.363042,1.21788 1.724121,0.8568 0.433662,-0.43366 z m 1.477324,-3.31574 c 0.287163,-1.00128 0.166773,-1.18371 -0.499634,-0.75708 -0.319725,0.20468 -0.553748,1.27392 -0.458236,2.09364 0.06207,0.53269 0.661763,-0.3041 0.95787,-1.33656 z m -0.442666,-2.17127 c -0.224164,-0.90318 -1.321389,-2.2707 -1.821883,-2.2707 -0.468121,0 0.07268,1.65585 0.79276,2.42729 0.88686,0.95013 1.288633,0.88899 1.029123,-0.15659 z m 3.121978,-1.77401 c 1.102829,-1.44588 0.974771,-1.61435 -0.452503,-0.59531 -1.065773,0.76095 -1.526221,1.34242 -2.165606,2.73485 -0.272436,0.5933 1.867572,-1.15553 2.618109,-2.13954 z m -7.273856,-2.77596 c -1.05252,-1.07191 -2.12051,-2.44222 -2.37331,-3.04513 -0.499,-1.19007 -2.900238,-3.6875 -3.229192,-3.35854 -0.362278,0.36227 0.530642,3.17475 1.349006,4.24903 0.766666,1.00641 4.579174,3.96411 5.10979,3.96411 0.141488,0 0.362955,0.1057 0.49215,0.2349 0.129195,0.12919 0.309224,0.16057 0.400064,0.0697 0.09084,-0.0908 -0.695988,-1.04219 -1.748508,-2.1141 z m -1.67257,-0.47316 c -1.231094,-1.20455 -2.172373,-2.39236 -2.17171,-2.7405 8.78e-4,-0.45766 0.168269,-0.33473 0.655965,0.48173 0.360137,0.60291 1.451894,1.82966 2.426127,2.72611 0.974233,0.89645 1.656845,1.63639 1.516916,1.6443 -0.139929,0.008 -1.232213,-0.94233 -2.427298,-2.11164 z m 7.853468,-1.07255 c 0.417032,-2.42276 0.0395,-5.76304 -0.795383,-7.03723 -0.582279,-0.8886698 -2.727888,-1.9618998 -3.942633,-1.9721098 -1.068437,-0.009 -2.434248,1.08497 -2.977288,2.3846498 -0.237516,0.56845 -0.431846,2.03514 -0.431846,3.2593 v 2.22574 l 1.611614,1.62101 c 0.886388,0.89156 1.453162,1.3988 1.259496,1.12719 -0.58237,-0.81673 -1.331917,-2.79477 -1.059034,-2.79477 0.139967,0 0.42054,0.45805 0.623496,1.0179 0.509208,1.40462 2.268449,3.48615 2.635861,3.11874 0.180311,-0.18031 -0.202635,-1.92916 -1.002102,-4.57643 -0.711665,-2.35653 -1.235548,-4.45484 -1.164185,-4.6629 0.07136,-0.20807 0.372085,0.46733 0.668271,1.50089 0.296186,1.03356 1.008517,3.35907 1.582958,5.1678 0.973595,3.06554 1.045655,3.193 1.062388,1.8792 0.0099,-0.77517 -0.09793,-2.0084 -0.239555,-2.7405 -0.141628,-0.73211 -0.144125,-1.3311 -0.0055,-1.3311 0.227565,0 0.362744,0.68501 0.710769,3.6018 0.06166,0.51678 0.133228,-0.0118 0.159038,-1.1745 0.02997,-1.35022 0.176346,-2.1141 0.405103,-2.1141 0.346954,0 0.201792,3.45684 -0.206042,4.90661 -0.08887,0.31591 0.04189,0.15157 0.290581,-0.36521 0.248689,-0.51679 0.615008,-1.88567 0.814043,-3.04198 z m -4.375681,0.67407 c -0.560591,-1.21622 -0.948269,-2.2823 -0.861507,-2.36906 0.153688,-0.15369 1.521421,2.62054 1.936093,3.92706 0.419583,1.32199 -0.08294,0.5934 -1.074586,-1.558 z m 6.999773,-1.55054 c 1.509976,-1.67136 2.09279,-2.91138 2.296629,-4.88639 0.227082,-2.2002098 -0.22406,-2.2161098 -2.550441,-0.0899 -1.692611,1.54695 -1.747579,1.64839 -1.739626,3.2103 l 0.0082,1.61287 0.622011,-1.2528 c 0.577319,-1.16278 0.659944,-0.82785 0.154527,0.6264 -0.203503,0.58555 -0.188249,0.59065 0.233894,0.0783 0.933136,-1.13254 0.78738,-0.47477 -0.381708,1.7226 -0.664458,1.24888 -1.295105,2.62304 -1.401439,3.0537 -0.106334,0.43065 0.224348,-0.0374 0.734848,-1.04006 0.5105,-1.00268 1.420891,-2.36842 2.023091,-3.03499 z m -12.172598,-3.42619 c -0.745112,-1.44089 -0.533626,-1.89251 0.227282,-0.48536 l 0.677441,1.2528 0.210247,-1.61261 c 0.115636,-0.88693 0.31548,-1.78288 0.444099,-1.99099 0.279418,-0.4521097 -1.634393,-0.12397 -2.271811,0.38952 -0.609728,0.49118 -0.461438,1.84646 0.289495,2.64579 0.901778,0.9599 0.99897,0.91417 0.423247,-0.19915 z M 53.477643,9.5434343 c 0.204222,0 0.244654,0.4887597 0.110111,1.3310997 l -0.21261,1.3311 1.320624,-1.29675 1.320625,-1.2967497 -0.721501,-1.2837401 c -1.027016,-1.82732 -1.737652,-1.94942 -3.044752,-0.52313 -0.978579,1.06782 -1.024164,1.20388 -0.571065,1.7045501 0.270822,0.29925 0.67034,1.0282397 0.887817,1.6199597 l 0.395413,1.07586 0.09631,-1.3311 c 0.05297,-0.7321 0.241532,-1.3310997 0.419028,-1.3310997 z m 5.98035,33.0877697 c -0.691615,-0.75032 -1.428655,-1.68405 -1.637865,-2.07496 -0.34149,-0.63808 -1.882425,-4.93959 -1.882425,-5.25478 0,-0.51527 0.890869,0.42941 2.149416,2.27926 l 1.487587,2.18649 3.270995,1.05827 c 4.091141,1.32361 4.460991,1.49389 4.951781,2.27976 0.59601,0.95437 0.17615,1.07301 -0.64683,0.18277 -0.47971,-0.51892 -1.778832,-1.10597 -3.884482,-1.75532 -3.549255,-1.09455 -4.56019,-1.74534 -5.464373,-3.51768 -0.343214,-0.67276 -0.68239,-1.22319 -0.753724,-1.22319 -0.07133,0 0.156331,0.84697 0.505921,1.88216 0.451998,1.33844 1.105385,2.37894 2.261769,3.6018 0.894384,0.94579 1.462704,1.71963 1.262933,1.71963 -0.199771,0 -0.929087,-0.6139 -1.620703,-1.36421 z m 3.602807,0.43712 c -2.315081,-0.96588 -3.822041,-1.85197 -3.573063,-2.10095 0.08755,-0.0875 0.769245,0.1897 1.514873,0.61611 0.745628,0.42641 2.093964,1.01337 2.996302,1.30436 0.902338,0.29099 1.721058,0.65923 1.81938,0.81832 0.29806,0.48227 -0.534152,0.28977 -2.757492,-0.63784 z m 5.744042,-0.65433 c -0.18653,-0.86978 -0.33915,-1.93338 -0.33915,-2.36356 0,-0.5562 -0.28561,-0.93628 -0.98865,-1.31568 -0.54376,-0.29345 -1.24096,-0.77269 -1.54934,-1.06498 -0.308382,-0.29229 -0.993012,-0.755 -1.521402,-1.02824 -1.264354,-0.65383 -4.605092,-4.87595 -5.5809,-7.05331 -0.573209,-1.27903 -0.782288,-2.31592 -0.81195,-4.02673 -0.03706,-2.13776 0.01659,-2.33991 0.74305,-2.79948 0.539686,-0.34142 0.661342,-0.36023 0.391499,-0.0605 -0.789319,0.87667 -0.450815,2.12494 0.965948,3.56205 0.746595,0.75732 1.592235,1.88565 1.879198,2.50741 0.286963,0.62177 0.751502,1.62858 1.032305,2.23736 0.320356,0.69453 1.037084,1.41545 1.92392,1.93517 1.132402,0.66363 1.586292,1.2063 2.283232,2.72981 l 0.86986,1.90153 -0.13718,-5.32439 c -0.0754,-2.92842 -0.13466,-5.62397 -0.13158,-5.99011 0.003,-0.3813 -0.84289,-1.61196 -1.98041,-2.88055 -2.045481,-2.28117 -3.199568,-4.59197 -3.541998,-7.09205 -0.133027,-0.97122 0.02704,-1.69773 0.692361,-3.14248 0.475967,-1.03356 0.963386,-2.30202 1.083157,-2.8188 l 0.217768,-0.9395998 0.37723,0.9323998 c 0.27904,0.68968 0.29069,1.27611 0.0448,2.25279 -0.18286,0.72622 -0.33247,1.81652 -0.33247,2.42291 0,1.39454 1.0503,4.09043 2.138812,5.48982 0.46012,0.59154 1.07167,1.50765 1.35899,2.0358 l 0.5224,0.96028 0.3389,-0.88169 c 0.63497,-1.65199 0.39872,-2.70853 -1.72881,-7.73131 -0.75036,-1.77149 -0.87148,-2.50342 -0.93295,-5.6375998 -0.0663,-3.37981 0.12776,-4.38479 0.8466,-4.38479 0.15117,0 0.27485,0.50255 0.27485,1.11679 0,1.39106 0.35947,2.0791 2.10622,4.0313801 2.01918,2.2567697 2.36666,3.1038797 2.40326,5.8588097 0.0294,2.20896 -0.0466,2.51402 -0.94413,3.79063 -0.99774,1.41919 -1.78472,3.49982 -2.15524,5.69805 -0.1913,1.13498 -0.1654,1.19854 0.32317,0.79306 0.29213,-0.24245 0.83205,-1.10269 1.19983,-1.91165 1.02889,-2.26313 6.77608,-7.32163 6.77608,-5.9641 0,0.16544 -0.19306,0.37488 -0.42904,0.46544 -0.23597,0.0905 -1.1571,1.5152 -2.04696,3.16589 -1.46713,2.72151 -1.76391,3.07522 -3.18405,3.79487 -2.50426,1.269 -2.8002,2.02325 -2.76054,7.03561 0.0326,4.11382 0.0443,4.18378 0.4344,2.58636 0.68668,-2.81195 2.57958,-5.24314 6.54251,-8.40302 l 1.53171,-1.22132 -0.6307,1.24829 c -0.34689,0.68656 -0.87101,2.09393 -1.16473,3.12749 -0.70814,2.49194 -1.04086,2.95574 -3.5653,4.96995 -2.71412,2.16555 -3.05623,2.92837 -2.57758,5.7472 0.19837,1.16822 0.43452,2.37069 0.52478,2.67214 0.0903,0.30145 0.0254,0.5481 -0.14423,0.5481 -0.1696,0 -0.46097,-0.71164 -0.64751,-1.58142 z m -1.44323,-5.07408 c -0.58446,-1.99261 -1.45412,-3.25211 -2.808552,-4.06754 -1.185581,-0.71378 -1.599767,-1.23797 -2.474769,-3.132 -0.64486,-1.39587 -1.565772,-2.75878 -2.383548,-3.52755 l -1.332668,-1.2528 0.190955,1.48577 c 0.105026,0.81717 0.554333,2.20285 0.998461,3.0793 1.016579,2.00612 4.426031,6.24032 5.024819,6.24032 0.24743,0 0.89233,0.42282 1.433092,0.9396 1.17047,1.11857 1.63507,1.19928 1.35221,0.2349 z m 6.27669,-4.71703 c 0.55129,-0.78185 1.80278,-4.62006 1.57929,-4.84355 -0.21783,-0.21783 -3.64291,3.33212 -4.616,4.78429 -0.46173,0.68904 -0.93782,1.79384 -1.05798,2.45511 l -0.21847,1.20232 1.91485,-1.45625 c 1.05316,-0.80095 2.13241,-1.76481 2.39831,-2.14192 z m -1.10101,-8.37302 c 0,-0.1165 0.37326,-0.76002 0.82947,-1.43003 0.4562,-0.67001 1.03308,-1.70312 1.28194,-2.2958 l 0.45248,-1.07761 -1.49015,1.46911 c -0.81958,0.808 -1.60549,1.4691 -1.74647,1.4691 -0.23628,0 -1.83287,2.87303 -1.83287,3.29822 0,0.10288 0.56376,-0.1298 1.2528,-0.51706 0.68904,-0.38726 1.2528,-0.79943 1.2528,-0.91593 z m -4.66415,-0.47798 c -0.17875,-0.64739 -0.76211,-1.721 -1.29635,-2.38579 -2.197202,-2.73413 -3.042064,-5.77467 -2.420382,-8.71066 0.21082,-0.99563 0.15929,-0.95253 -0.561684,0.4698 -1.002888,1.97848 -0.91831,3.9401 0.283004,6.56375 0.70589,1.54164 3.866032,5.51153 4.219292,5.30042 0.0556,-0.0332 -0.0451,-0.59012 -0.22388,-1.23752 z m 2.23685,-7.54733 c 0.12919,0.31554 0.23989,1.16118 0.246,1.87919 0.011,1.28964 0.0165,1.29599 0.4587,0.52249 0.46539,-0.81412 0.60739,-3.30532 0.28134,-4.93558 -0.10365,-0.51826 -1.07708,-2.00687 -2.16318,-3.30803 -1.0861,-1.3011698 -2.07176,-2.8075198 -2.19035,-3.3474598 -0.11859,-0.53994 -0.25068,-0.9364 -0.29354,-0.88102 -0.0429,0.0554 0.0215,1.7215 0.14299,3.7024901 0.20254,3.3022197 0.32873,3.8439297 1.51713,6.5129497 0.71292,1.60113 1.3216,3.15147 1.35263,3.44519 0.031,0.29373 0.13674,-0.52299 0.2349,-1.81494 0.11329,-1.49104 0.26427,-2.13945 0.41338,-1.77528 z m 2.93333,26.59636 c -0.47079,-1.04586 -0.48234,-1.37821 -0.10548,-3.03439 0.23276,-1.02294 0.59021,-1.91556 0.79433,-1.9836 0.46442,-0.15481 0.49383,1.06848 0.0325,1.35358 -0.18828,0.11636 -0.25223,0.55331 -0.14405,0.98432 0.12514,0.4986 0.0783,0.70326 -0.13122,0.57375 -0.49821,-0.30791 -0.39445,1.2999 0.15209,2.35679 0.26281,0.50823 0.35469,0.92405 0.20416,0.92405 -0.15051,0 -0.51158,-0.52853 -0.80237,-1.1745 z m 1.47835,0.68364 c -0.21501,-0.5603 0.0585,-4.16197 0.33716,-4.44068 0.4324,-0.4324 0.55057,0.28829 0.19,1.15878 -0.24681,0.59585 -0.31319,1.46797 -0.17956,2.35904 0.20851,1.39047 0.0219,1.88584 -0.3476,0.92286 z m 1.51744,-0.47655 c 0.18548,-0.53207 0.25526,-1.65959 0.15506,-2.50559 -0.20582,-1.73788 0.237,-2.11387 0.54652,-0.46403 0.21347,1.1379 -0.34045,3.93703 -0.77909,3.93703 -0.14286,0 -0.10797,-0.43533 0.0775,-0.96741 z m 1.6805,0.41931 c 0.13099,-0.30145 0.32224,-1.15168 0.42501,-1.88938 0.10278,-0.73771 0.3278,-1.3302 0.50006,-1.31666 0.5773,0.0454 -0.36825,3.75414 -0.95712,3.75414 -0.11336,0 -0.0989,-0.24665 0.032,-0.5481 z m 4.03299,-1.06506 c -1.93707,-3.82182 -3.30648,-9.28726 -3.90648,-15.59107 -0.38456,-4.04042 -0.16416,-6.17175 0.85083,-8.2277 0.54198,-1.09783 0.52399,-2.80153 -0.0523,-4.94845 -0.63797,-2.37683 -0.5945,-4.6315898 0.11482,-5.9556798 0.87755,-1.63811 1.47829,-1.57146 1.71984,0.19081 0.11063,0.80713 0.20114,2.2699798 0.20114,3.2507798 0,2.15918 0.23751,2.48705 0.90515,1.24953 0.74244,-1.37618 2.80965,-3.3956498 4.25243,-4.1542598 1.68797,-0.88751 5.49959,-0.969 6.33439,-0.13541 0.45961,0.45894 0.48833,0.65827 0.16859,1.17025 -0.21195,0.3393901 -0.38537,0.8350898 -0.38537,1.1015498 0,0.26645 -0.35473,1.18447 -0.78828,2.04004 -0.43355,0.85558 -0.64192,1.55559 -0.46305,1.55559 0.36637,0 6.020799,2.17101 6.260516,2.40372 0.085,0.0825 -0.337787,0.56027 -0.939594,1.06163 -0.910532,0.75855 -1.015342,0.96399 -0.624387,1.22391 0.25838,0.17179 1.068784,0.3145 1.800881,0.31714 1.525781,0.005 1.725351,0.4761 0.626397,1.47706 -1.046744,0.95341 -2.074838,1.41949 -3.993283,1.81031 l -1.7226,0.35092 1.9575,0.41845 c 1.965542,0.42017 2.382779,0.72904 1.462085,1.08235 -1.213255,0.46556 -3.478185,0.16189 -5.331345,-0.71481 -1.05146,-0.49743 -2.35308,-1.00135 -2.89247,-1.11982 l -0.98071,-0.2154 0.61489,1.35497 c 0.72496,1.59751 0.81321,3.96059 0.17994,4.8186 -0.63993,0.86703 -0.95789,0.35566 -1.40642,-2.26194 -0.51017,-2.97728 -0.97871,-3.3941 -3.81532,-3.3941 -1.18697,0 -2.15926,0.0705 -2.16065,0.15661 -0.001,0.0861 -0.14111,1.00224 -0.31051,2.03579 -0.73856,4.50634 1.35213,13.45551 4.19585,17.96026 0.45189,0.71584 0.67026,1.30153 0.48527,1.30153 -0.53116,0 -3.32379,-6.16287 -4.04479,-8.92619 -1.12214,-4.30066 -1.44542,-7.87954 -0.974,-10.78245 0.33361,-2.05428 0.33568,-2.62146 0.011,-3.01271 -0.72688,-0.87582 -1.048,0.0572 -0.98753,2.86912 0.0693,3.22128 0.75475,8.05538 1.65144,11.64623 0.66379,2.65818 2.20323,6.71213 2.8404,7.47987 0.1954,0.23544 0.27419,0.50914 0.17509,0.60824 -0.0991,0.0991 -0.56231,-0.57377 -1.02936,-1.49527 z m 5.50028,-16.11419 c 0.007,-1.31535 -0.55311,-2.89163 -1.46059,-4.11413 -1.04754,-1.41118 -1.78722,-1.73711 -3.33436,-1.46921 -1.19373,0.2067 -1.23944,0.24745 -0.52465,0.46772 0.43065,0.13271 1.31152,0.32969 1.9575,0.43773 0.64597,0.10804 1.1745,0.32657 1.1745,0.48562 0,0.15905 -0.24665,0.19654 -0.5481,0.0833 -0.31592,-0.11865 -0.18234,0.1177 0.31533,0.55793 0.64229,0.56817 0.95061,1.2451 1.20378,2.64299 0.49447,2.73027 0.56313,2.90489 0.92024,2.34023 0.16035,-0.25357 0.29371,-0.89805 0.29635,-1.43219 z m 7.52799,-2.62005 c -0.25486,-0.16116 -0.98381,-0.38094 -1.61988,-0.48841 -0.63607,-0.10746 -1.79188,-0.59833 -2.56846,-1.09083 -1.47245,-0.93379 -3.28715,-1.55861 -4.53545,-1.56159 -1.33839,-0.003 -0.52376,0.76479 1.53769,1.44965 1.10655,0.36762 2.64613,0.96352 3.4213,1.32422 1.39715,0.65012 4.725675,0.97456 3.7648,0.36696 z m -11.30769,-1.77731 c 0.0718,-0.0619 -0.77387,-0.11032 -1.8792,-0.10768 -1.3686,0.003 -1.86207,0.0982 -1.54692,0.29744 0.40687,0.25728 3.07916,0.10928 3.42612,-0.18976 z m 12.329252,-0.54191 c 0.554307,-0.23619 1.349514,-0.79995 1.767121,-1.2528 l 0.759287,-0.82336 -1.385684,-0.005 c -0.762124,-0.003 -1.588261,-0.13297 -1.835856,-0.28963 -0.2984,-0.18882 -0.84302,-0.0844 -1.61555,0.3097 -0.64097,0.32699 -1.77733,0.68049 -2.52524,0.78554 -2.27086,0.31898 -2.408,0.44322 -1.20324,1.09002 1.33055,0.71433 4.56471,0.81359 6.039162,0.18534 z m -15.356852,-0.0912 c -0.21533,-0.0869 -0.56768,-0.0869 -0.783,0 -0.21533,0.0869 -0.0392,0.15798 0.3915,0.15798 0.43065,0 0.60682,-0.0711 0.3915,-0.15798 z m -0.38314,-1.85372 c 0.53621,-1.62473 0.21877,-1.59391 -0.36722,0.0357 -0.27391,0.76172 -0.38597,1.31569 -0.24903,1.23106 0.13695,-0.0846 0.41426,-0.65466 0.61625,-1.26671 z m -0.52316,-0.68304 c 0.57279,-1.79829 0.91184,-7.67189 0.59119,-10.2417498 l -0.23299,-1.86733 -0.59307,0.90704 c -0.83283,1.27376 -0.95556,3.1021598 -0.37505,5.5875698 0.61142,2.61774 0.62212,4.81466 0.0285,5.85306 -0.51,0.89216 -0.61119,1.69035 -0.18055,1.4242 0.15909,-0.0983 0.50197,-0.84658 0.76195,-1.66279 z m 4.92283,1.14394 c 1.2573,-0.26964 1.67378,-0.26053 1.85995,0.0407 0.17909,0.28977 0.70511,0.31829 2.07545,0.11255 1.7401,-0.26127 1.84037,-0.32463 1.9281,-1.21832 0.10862,-1.10666 -1.09045,-3.0688 -3.33895,-5.46374 -1.20631,-1.28489 -1.67844,-1.58014 -2.52676,-1.58014 -1.91819,0 -3.9083,2.97366 -3.36936,5.03456 0.0924,0.35327 -0.0474,1.162 -0.31056,1.79717 -0.26319,0.63518 -0.37474,1.05414 -0.24787,0.93102 0.12686,-0.12311 0.52538,-0.0174 0.8856,0.2349 0.78568,0.55031 0.96654,0.55693 3.0444,0.1113 z m -2.99578,-0.39474 c -0.55407,-0.40515 -0.49388,-0.53567 1.08331,-2.349 0.91849,-1.05601 1.81838,-1.92001 1.99977,-1.92001 0.18139,0 -0.15989,0.52852 -0.75838,1.1745 -2.73181,2.94853 -2.75695,3.02441 -0.50078,1.51148 1.17549,-0.78825 2.29918,-1.43318 2.49709,-1.43318 0.19792,0 -0.41211,0.50696 -1.35561,1.12658 -3.00935,1.97631 -3.27633,2.45085 -0.77585,1.37902 0.82393,-0.35318 1.56029,-0.57991 1.63635,-0.50385 0.13557,0.13557 -2.60596,1.44345 -3.0257,1.44345 -0.11744,0 -0.47753,-0.19305 -0.8002,-0.42899 z m -0.15945,-2.4943 c 0,-0.81273 2.00879,-3.347 2.64249,-3.33375 0.1831,0.004 0.035,0.25048 -0.32902,0.5481 -0.36406,0.29763 -1.03353,1.10238 -1.4877,1.78834 -0.45417,0.68596 -0.82577,1.13475 -0.82577,0.99731 z m 11.47965,2.27869 c 1.18296,-0.44976 3.662209,-2.51447 3.341942,-2.78315 -0.14179,-0.11895 -1.293982,-0.62255 -2.560412,-1.1191 -2.18797,-0.85788 -4.16032,-1.15282 -4.62198,-0.69116 -0.40225,0.40225 0.58406,1.16655 1.56024,1.20906 0.76728,0.0334 0.82293,0.0726 0.2568,0.18075 -0.98256,0.18774 -0.66832,0.88753 0.36545,0.81383 0.45491,-0.0324 0.8271,0.0733 0.8271,0.2349 0,0.16163 -0.28188,0.29387 -0.6264,0.29387 -0.34452,0 -0.6264,0.14733 -0.6264,0.32739 0,0.20013 0.45653,0.26045 1.1745,0.15519 l 1.1745,-0.17221 -1.0962,0.42064 c -1.23308,0.47316 -1.68599,1.46139 -0.66976,1.46139 0.34594,0 1.02122,-0.14913 1.50062,-0.3314 z m -3.50032,-5.30344 c 0.54328,-0.20655 1.07313,-0.86162 1.58333,-1.9575 1.10377,-2.3708297 1.07475,-2.4303297 -1.18457,-2.4283097 -2.33021,0.002 -3.98896,0.4174 -4.98613,1.2484297 -1.06666,0.88895 -0.13025,0.78788 1.59172,-0.17179 l 1.43691,-0.8008097 -1.08437,0.9574097 c -1.22486,1.08146 -0.77457,1.28451 1.10604,0.49875 0.60375,-0.25227 1.02507,-0.34109 0.93626,-0.19738 -0.0888,0.1437 -0.59517,0.44092 -1.12523,0.66048 -0.60202,0.24936 -0.85316,0.50978 -0.66911,0.69383 0.18405,0.18405 0.66081,0.10528 1.27023,-0.20986 0.53657,-0.27747 0.97558,-0.36262 0.97558,-0.18922 0,0.1734 -0.35235,0.40371 -0.783,0.5118 -0.84707,0.2126 -1.00424,0.72169 -0.40716,1.31877 0.45095,0.45095 0.33971,0.44552 1.3395,0.0654 z m -5.53786,-2.86074 c 1.66855,-1.4650097 2.86047,-1.8400198 5.84826,-1.8400198 2.57578,0 3.11338,-0.20225 2.28076,-0.85806 -1.93051,-1.52055 -6.87534,-0.0493 -8.93648,2.6589598 -0.97968,1.28725 -0.6332,1.30404 0.80746,0.0391 z m 2.32946,31.8993 c -0.53576,-0.55547 -1.1237,-1.4067 -1.30652,-1.89163 -0.42111,-1.11694 -0.43531,-4.2861 -0.0192,-4.2861 0.17226,0 0.3132,-0.29472 0.3132,-0.65492 0,-0.3602 0.49329,-1.23121 1.0962,-1.93557 0.60291,-0.70437 1.0962,-1.4667 1.0962,-1.69409 0,-0.22738 0.14094,-0.41342 0.3132,-0.41342 0.17226,0 0.3132,0.43443 0.3132,0.9654 0,0.53097 0.42282,1.92876 0.9396,3.10619 0.51678,1.17744 0.9396,2.5686 0.9396,3.09146 0,0.52287 0.15865,1.29886 0.35255,1.72444 0.37726,0.828 0.12555,3.0141 -0.34706,3.0141 -0.15362,0 -0.20104,-0.48233 -0.10537,-1.07185 0.0981,-0.60467 -0.009,-1.48558 -0.24622,-2.02106 -0.39156,-0.88458 -0.45805,-0.91492 -0.97663,-0.4456 -0.60488,0.5474 -0.71705,1.54684 -0.2555,2.27664 0.31714,0.50149 0.37542,0.47153 0.89611,-0.46073 l 0.34987,-0.6264 -5.5e-4,0.6264 c -0.001,1.80434 -1.90323,2.19959 -3.35277,0.69674 z m 1.63816,0.008 c -0.27881,-0.93417 -1.03497,-2.1141 -1.35484,-2.1141 -0.14064,0 -0.41625,-0.35235 -0.61247,-0.783 -0.44298,-0.97224 -0.19492,-1.0036 0.61934,-0.0783 l 0.62013,0.7047 -0.20283,-0.9396 c -0.11156,-0.51678 -0.40326,-1.1621 -0.64823,-1.43406 -0.24497,-0.27195 -0.4454,-0.67679 -0.4454,-0.89965 0,-0.32694 -0.0919,-0.32893 -0.47585,-0.0103 -0.45876,0.38074 -0.45347,1.00107 0.0286,3.35613 0.1583,0.77331 1.90426,2.90284 2.37997,2.90284 0.16656,0 0.20759,-0.31587 0.0915,-0.7047 z m 0.7945,-3.56185 c 0,-0.23729 0.14094,-0.43145 0.3132,-0.43145 0.55133,0 0.33801,-1.04271 -0.63341,-3.09612 -0.94077,-1.98863 -0.94977,-1.9966 -1.59476,-1.4129 -1.16109,1.05077 -1.27724,1.5763 -0.5955,2.69446 l 0.62893,1.03156 10e-4,-1.62581 c 5.5e-4,-0.8942 0.14211,-1.71292 0.31437,-1.81938 0.19336,-0.1195 0.31701,0.44268 0.32316,1.46921 0.009,1.52479 0.0479,1.6127 0.46657,1.05925 0.25113,-0.33195 0.54094,-0.5192 0.64401,-0.41612 0.10308,0.10308 -0.12499,0.60998 -0.50684,1.12644 -0.5043,0.68212 -0.63685,1.16771 -0.48447,1.77486 0.17308,0.68959 0.28972,0.76948 0.66668,0.45664 0.25129,-0.20855 0.45689,-0.57334 0.45689,-0.81064 z m 4.13394,3.42455 c -0.79158,-1.23978 -0.72639,-2.34468 0.098,-1.66052 0.25636,0.21275 0.4661,0.66071 0.4661,0.99546 0,0.33475 0.1459,0.88125 0.32422,1.21445 0.56802,1.06137 -0.13905,0.62404 -0.88828,-0.54939 z m 2.18064,0.49394 c -0.69145,-1.84656 -0.7507,-2.23431 -0.31948,-2.09057 0.23278,0.0776 0.51459,0.69326 0.62624,1.36815 0.238005,1.43857 0.091,1.78471 -0.30676,0.72242 z m 1.723529,0.21275 c -0.12103,-0.31538 -0.386817,-1.89383 -0.590647,-3.50766 -0.318427,-2.52115 -0.452757,-2.93423 -0.954222,-2.93423 -0.98498,0 -1.76617,-0.59395 -2.3824,-1.81137 -0.77362,-1.52838 -1.13433,-3.19982 -0.69053,-3.19982 0.18595,0 0.34856,0.1057 0.36136,0.2349 0.20794,2.09864 0.86086,3.47873 1.90004,4.01611 1.065145,0.5508 1.061205,0.5674 0.27596,-1.16311 -0.64592,-1.42348 -0.8455,-3.85937 -0.34172,-4.17073 0.45402,-0.28059 0.74241,0.43514 0.36067,0.89511 -0.39619,0.47738 -0.14875,2.11496 0.52033,3.44362 0.354315,0.70359 0.518755,0.80891 0.733485,0.4698 0.432487,-0.68303 0.330727,-2.53702 -0.19453,-3.54427 -0.28902,-0.55422 -0.363915,-1.0279 -0.19002,-1.20179 0.476447,-0.47645 0.739917,0.31898 0.946254,2.85678 l 0.19445,2.39178 0.582387,-1.21578 c 0.652397,-1.36197 0.542397,-3.05523 -0.255797,-3.93723 -0.616437,-0.68115 -0.624047,-1.58079 -0.0134,-1.58079 0.258387,0 0.481547,0.10571 0.495897,0.2349 0.131377,1.18241 0.234557,1.63717 0.594624,2.62084 0.37512,1.02474 0.34761,1.27192 -0.287507,2.5839 -0.386257,0.79791 -0.830664,1.45076 -0.987554,1.45076 -0.393107,0 -0.358707,3.38507 0.0539,5.30924 0.350987,1.6366 0.264947,2.79112 -0.1311,1.75904 z m 1.158794,-0.0996 c -0.0111,-0.30145 -0.13163,-0.95406 -0.26792,-1.45023 -0.191697,-0.69791 -0.150997,-0.86987 0.17981,-0.7596 0.466687,0.15556 0.822874,2.75793 0.377477,2.75793 -0.148087,0 -0.278307,-0.24665 -0.289367,-0.5481 z m 1.262741,-1.64668 c -0.0238,-1.60043 0.0766,-2.19002 0.37301,-2.19002 0.591807,0 0.882064,0.62533 0.477867,1.02953 -0.1917,0.1917 -0.34855,1.02506 -0.34855,1.85191 0,0.82685 -0.105697,1.50229 -0.234897,1.50098 -0.12919,-10e-4 -0.24954,-0.98789 -0.26743,-2.1924 z m 5.200324,0.99176 c 0,-0.66167 0.19409,-1.84796 0.43132,-2.63621 l 0.43133,-1.43318 -1.22415,-1.19534 c -1.45979,-1.42545 -4.789674,-7.96278 -5.240561,-10.28844 -0.597027,-3.07949 -0.644197,-3.915 -0.220987,-3.915 0.676274,0 4.232298,2.44674 6.037888,4.15438 2.1399,2.02383 3.54439,3.92748 4.93368,6.68709 0.61914,1.22984 1.09199,1.88478 1.10052,1.52433 0.008,-0.3476 -0.33715,-1.15015 -0.76748,-1.78345 -0.43034,-0.6333 -0.98378,-1.92445 -1.22986,-2.86923 -0.24608,-0.94477 -0.59869,-2.00041 -0.78356,-2.34585 -0.35847,-0.66981 -0.38987,-2.7441 -0.0642,-4.24049 0.16143,-0.7417 0.0207,-1.08761 -0.76475,-1.8792 -0.52943,-0.53359 -1.49418,-1.88628 -2.14388,-3.00597 -0.6497,-1.11969 -1.72913,-2.75027 -2.39872,-3.62351 -1.24038,-1.6176 -3.199574,-5.88946 -3.039494,-6.6273398 0.11753,-0.54174 4.592174,2.4656298 7.038524,4.7305298 1.0278,0.95156 2.26437,2.30103 2.74794,2.99881 0.48357,0.69779 0.97809,1.26871 1.09895,1.26871 0.27441,0 1.11495,-2.70579 1.57938,-5.08416 0.19284,-0.98755 0.48533,-1.87881 0.64997,-1.98056 0.16463,-0.10175 0.58231,0.4547 0.92817,1.23657 0.50663,1.14532 0.59113,1.80407 0.43485,3.38996 -0.10668,1.08261 -0.0631,2.31159 0.0968,2.73107 0.25274,0.66287 0.3175,0.53543 0.49488,-0.97379 0.26706,-2.27227 0.80224,-3.49429 2.54655,-5.81472 0.79058,-1.05171 1.84447,-2.8039898 2.34199,-3.8939798 l 0.90457,-1.98178 0.37537,0.9396 c 0.70539,1.76572 0.71181,3.3554398 0.0206,5.1010898 -0.3955,0.99882 -0.65578,2.3659 -0.65593,3.44519 -1.8e-4,1.31262 -0.23645,2.28995 -0.88685,3.66851 -0.48763,1.03355 -0.98051,2.35338 -1.09529,2.93295 l -0.20869,1.05374 1.22443,-1.10619 c 1.21883,-1.10115 2.50057,-1.92888 2.68101,-1.73138 0.0521,0.057 -0.009,1.26021 -0.13575,2.67375 -0.20148,2.24664 -0.37383,2.77872 -1.36962,4.22819 -0.71927,1.04698 -1.25556,2.29305 -1.45501,3.38073 -0.17374,0.94743 -0.51208,2.21589 -0.75187,2.8188 -0.23979,0.60291 -0.59022,2.01231 -0.77873,3.132 -0.63713,3.78437 -1.7743,7.35043 -2.38175,7.46899 -0.52149,0.10177 -0.52462,0.0619 -0.0486,-0.61779 0.81975,-1.17036 0.59628,-1.25805 -0.79259,-0.31103 l -1.30151,0.88745 -0.93257,-1.06213 c -1.09445,-1.24651 -1.42474,-1.16179 -0.74929,0.19218 0.45202,0.9061 0.44463,0.95912 -0.13375,0.95912 -0.33672,0 -0.69651,-0.24665 -0.79952,-0.5481 -0.52301,-1.53054 -2.3702,-5.04561 -3.08602,-5.8725 -0.66572,-0.76901 -0.73061,-0.79744 -0.35741,-0.1566 0.48567,0.83398 1.45799,4.82631 1.45799,5.98653 0,1.28479 -0.37812,0.33222 -0.8408,-2.11819 -0.25253,-1.33737 -0.61205,-2.7173 -0.79893,-3.06651 -0.30409,-0.56819 -0.40065,-0.45589 -0.9188,1.06849 -0.31846,0.93686 -0.60841,2.37918 -0.64435,3.20514 -0.0775,1.78072 -0.55552,2.03778 -0.55552,0.29872 z m 8.43378,-0.44128 c -0.0124,-0.21532 -0.50573,-0.79297 -1.0962,-1.28365 -0.84431,-0.70161 -1.07359,-0.78201 -1.07359,-0.37647 0,0.49249 1.46544,2.02099 1.9575,2.04172 0.12919,0.005 0.22472,-0.16627 0.21229,-0.3816 z m 2.02085,-0.6833 c 0.45088,-0.59114 0.9574,-1.47201 1.12559,-1.9575 0.26273,-0.75833 0.25175,-0.79444 -0.0779,-0.2563 -0.21105,0.34452 -0.91225,1.14928 -1.55822,1.78835 -1.28117,1.26749 -1.39627,1.50025 -0.74188,1.50025 0.23795,0 0.80153,-0.48366 1.25242,-1.0748 z m -4.79949,-1.22101 c -0.1884,-0.57087 -0.84288,-1.52107 -1.4544,-2.11156 l -1.11185,-1.07362 1.1303,1.87919 c 0.62167,1.03356 1.2239,2.23155 1.33829,2.6622 0.15968,0.60117 0.23494,0.65513 0.3241,0.23237 0.0639,-0.30285 -0.038,-1.01771 -0.22644,-1.58858 z m 2.02607,-1.29145 c -1.22381,-1.33353 -1.26358,-1.35081 -1.36206,-0.5916 -0.13605,1.04896 2.12507,3.38382 2.43136,2.51065 0.12948,-0.36911 -0.21615,-0.98941 -1.0693,-1.91905 z m 3.67228,-0.23542 c 1.38975,-1.49012 0.98767,-1.44297 -0.5481,0.0643 -0.77517,0.76077 -1.40313,1.60052 -1.39545,1.86611 0.01,0.33945 0.17262,0.26162 0.5481,-0.262 0.29378,-0.40968 0.92173,-1.16046 1.39545,-1.66839 z m -3.20989,-1.2645 c -1.41136,-1.86473 -1.36149,-2.55207 0.057,-0.78532 0.92393,1.15079 1.50861,1.4846 1.50861,0.8613 0,-0.17225 -0.24665,-0.58165 -0.5481,-0.90976 -0.30146,-0.32811 -0.82278,-0.99078 -1.1585,-1.4726 l -0.6104,-0.87605 -0.52853,1.19794 c -0.57179,1.296 -0.5325,1.39296 1.36925,3.37838 1.15588,1.20673 1.089,0.16293 -0.0893,-1.39389 z m -2.71658,-1.59314 c -0.85638,-2.5325 -2.52843,-5.11668 -4.80062,-7.41944 -1.98904,-2.0158 -5.458284,-4.69222 -6.082171,-4.69222 -0.384417,0 -0.15928,0.5856 0.262097,0.68173 0.656107,0.14967 3.627674,3.99809 3.627674,4.69813 0,1.24159 2.28661,4.54676 5.78745,8.36542 l 1.25954,1.3739 0.17579,-0.9041 c 0.0967,-0.49725 -0.007,-1.44379 -0.22976,-2.10342 z m 5.91654,1.53828 c 0.31609,-0.59342 0.29891,-0.61216 -0.1908,-0.20812 -0.29599,0.24423 -0.69449,0.73752 -0.88555,1.0962 -0.31609,0.59342 -0.2989,0.61217 0.1908,0.20812 0.296,-0.24422 0.6945,-0.73751 0.88555,-1.0962 z m -9.85523,-0.78408 c 0.29617,-1.16681 0.24962,-1.30328 -0.93254,-2.73386 -1.3024,-1.57608 -2.74819,-4.16122 -2.74819,-4.91388 0,-0.24216 -0.72468,-1.33913 -1.61041,-2.43771 l -1.610391,-1.99742 0.195017,1.7226 c 0.33983,3.00174 4.901334,11.58839 6.156124,11.58839 0.13126,0 0.37894,-0.55265 0.55039,-1.22812 z m 10.99872,-1.82742 c -0.0636,-0.1674 -0.44395,0.20497 -0.84518,0.82749 l -0.72952,1.13185 0.84519,-0.82748 c 0.46485,-0.45512 0.79313,-0.96446 0.72951,-1.13186 z m -3.48454,-0.63025 c -0.68255,-1.20164 -0.75734,-1.24743 -1.11141,-0.68047 -0.20879,0.33433 -0.24898,0.60787 -0.0893,0.60787 0.15967,0 0.61698,0.52852 1.01623,1.1745 0.98817,1.59879 1.15443,0.60572 0.18449,-1.1019 z m 2.46494,0.7887 c 0.28684,-0.55985 0.67687,-1.11774 0.86672,-1.23976 0.2493,-0.16024 0.24456,-0.32247 -0.017,-0.58409 -0.27418,-0.27418 -0.55905,-0.0505 -1.17188,0.92033 -0.44531,0.70541 -0.80965,1.42631 -0.80965,1.60199 0,0.668 0.63133,0.2784 1.13186,-0.69847 z m -3.93604,-2.71878 c -0.14303,-0.27034 -0.42177,-1.54075 -0.61943,-2.82314 -0.19766,-1.28239 -0.64319,-2.97323 -0.99007,-3.75741 -0.78046,-1.76437 -1.14442,-4.08996 -0.64009,-4.08996 0.19838,0 0.35577,0.48914 0.35577,1.10563 0,0.6081 0.33756,1.9118 0.75012,2.8971 0.41256,0.9853 0.91168,2.84259 1.10915,4.12731 0.19746,1.28471 0.42837,2.40519 0.51312,2.48994 0.0848,0.0847 0.62867,-0.33215 1.20872,-0.92645 l 1.05463,-1.08054 -0.42973,-2.43118 c -0.23635,-1.33715 -0.57078,-2.69473 -0.74317,-3.01685 -0.38552,-0.72035 -3.41904,-3.47816 -3.82589,-3.47816 -0.41983,0 -1.08073,1.71769 -1.51705,3.94282 -0.34036,1.73581 -0.31493,2.03656 0.28328,3.34972 0.36147,0.79348 0.65722,1.66635 0.65722,1.93973 0,0.70957 0.87258,2.70254 1.47443,3.36757 0.48848,0.53977 0.5353,0.52746 1.06499,-0.28001 0.35542,-0.5418 0.46082,-1.02082 0.294,-1.33612 z m 2.18194,0.92792 c -0.48221,-1.16416 -1.05279,-1.27719 -0.61341,-0.12152 0.42625,1.1211 0.64057,1.43735 0.83937,1.23856 0.0921,-0.0921 -0.01,-0.59474 -0.22596,-1.11704 z m 1.08583,-2.46965 c -0.0909,-0.0909 -0.38157,0.051 -0.64588,0.31527 -0.33726,0.33726 -0.41331,0.74861 -0.25501,1.37933 l 0.22557,0.89876 0.42031,-1.21403 c 0.23117,-0.66772 0.34592,-1.28841 0.25501,-1.37933 z m 3.00261,0.0961 c 0.20812,-1.15317 0.80546,-2.64762 1.56545,-3.91649 0.93177,-1.55568 1.27799,-2.52125 1.43185,-3.9933 0.12288,-1.17561 0.084,-1.9415 -0.0985,-1.9415 -0.1658,0 -0.88466,0.4992 -1.59747,1.10934 -1.57421,1.34747 -3.23248,4.55301 -3.25653,6.29505 -0.0205,1.48699 1.00704,4.92323 1.36515,4.56514 0.13944,-0.13945 0.40497,-1.09266 0.59006,-2.11824 z m -1.92335,1.60838 c 0.21642,-0.26077 0.24674,-0.51609 0.074,-0.62288 -0.16104,-0.0995 -0.3661,0.0993 -0.45569,0.44192 -0.19299,0.73801 -0.11232,0.77626 0.38173,0.18096 z m -0.60805,-4.03966 c -0.004,-0.76048 -0.0774,-0.8871 -0.3084,-0.52962 -0.40143,0.62116 -0.40143,1.97069 0,1.7226 0.17226,-0.10646 0.31104,-0.64331 0.3084,-1.19298 z m -0.76744,-2.6662 c -0.50718,-0.93402 -0.61099,-0.47306 -0.2735,1.2144 0.19321,0.96604 0.22452,0.98811 0.46802,0.32986 0.17257,-0.46649 0.10668,-0.98957 -0.19452,-1.54426 z m 1.6927,-4.79386 c 0.0105,-0.7972 0.23055,-1.95543 0.48894,-2.57384 0.25838,-0.61842 0.48418,-1.79838 0.50177,-2.62215 l 0.032,-1.49776 0.33914,1.06184 c 0.27548,0.86253 0.22891,1.36222 -0.2481,2.6622 -0.32297,0.88019 -0.68334,2.58694 -0.80081,3.79276 -0.11748,1.20582 -0.31108,2.47427 -0.43022,2.81879 -0.11915,0.34452 -5.5e-4,0.25582 0.26332,-0.19711 0.26396,-0.45294 0.62753,-1.50998 0.80793,-2.349 0.18039,-0.83902 0.68907,-2.25391 1.13039,-3.14421 0.55374,-1.11708 0.87624,-2.42877 1.04065,-4.23263 0.13104,-1.43765 0.40193,-2.91976 0.602,-3.29358 0.42216,-0.78882 0.47716,-3.1889698 0.0872,-3.8043098 -0.19865,-0.31344 -0.31676,-0.22292 -0.46148,0.35366 -0.10697,0.42621 -0.99283,1.8842401 -1.96858,3.2400598 -2.72581,3.78757 -2.88811,4.29887 -2.9763,9.37577 -0.0885,5.09487 0.22133,6.16925 1.03285,3.58155 0.29712,-0.94743 0.54883,-2.37485 0.55935,-3.17204 z m -3.05134,-2.46855 c -0.58842,-2.26539 -0.59268,-2.27125 -0.78587,-1.08078 -0.12412,0.76489 0.0281,2.04571 0.42166,3.54835 0.33874,1.29327 0.64349,2.71244 0.67723,3.15371 0.0337,0.44127 0.11023,-0.13051 0.16997,-1.27062 0.0704,-1.34438 -0.0993,-2.87347 -0.48299,-4.35066 z m -0.86118,2.52886 c -0.5084,-1.96015 -0.52603,-2.45879 -0.1655,-4.67885 0.2717,-1.67306 0.30258,-2.66527 0.0945,-3.03704 -0.24507,-0.43792 -0.35583,-0.20113 -0.53533,1.14443 -0.12448,0.93313 -0.50512,2.35322 -0.84587,3.15576 -0.48044,1.13153 -0.54333,1.60159 -0.28006,2.09351 0.18672,0.34889 0.33949,0.95301 0.33949,1.3425 0,0.67603 1.52194,2.61348 1.81936,2.31607 0.0783,-0.0783 -0.11365,-1.12971 -0.42662,-2.33638 z m -4.67288,0.61981 c -0.10181,-0.16473 -0.39201,-0.22012 -0.64489,-0.12309 -0.64742,0.24844 -0.57112,0.42262 0.18512,0.42262 0.35468,0 0.56158,-0.13479 0.45977,-0.29953 z m 0.94185,-1.90266 0.17905,-1.08641 -0.48638,1.05385 c -0.5605,1.21447 -0.64567,1.89292 -0.17905,1.4263 0.16903,-0.16903 0.3879,-0.79621 0.48638,-1.39374 z m 1.35932,-0.39845 -0.40804,-0.9851 -0.21947,1.07311 c -0.16739,0.81844 -0.0957,1.1646 0.302,1.45865 0.71417,0.528 0.87275,-0.22552 0.32551,-1.54666 z m -2.93603,1.34784 c -0.10646,-0.17226 -0.39665,-0.3132 -0.64488,-0.3132 -0.24822,0 -0.45131,0.14094 -0.45131,0.3132 0,0.17226 0.29019,0.3132 0.64488,0.3132 0.35468,0 0.55778,-0.14094 0.45131,-0.3132 z m 1.02163,-2.44539 c -0.0858,-0.40058 -0.23304,-0.30055 -0.60291,0.40959 -0.26915,0.51677 -0.41889,1.13858 -0.33275,1.38178 0.21284,0.60091 1.08885,-1.07626 0.93566,-1.79137 z m -1.80463,1.50579 c 0,-0.17226 -0.2114,-0.3132 -0.4698,-0.3132 -0.25838,0 -0.46979,0.14094 -0.46979,0.3132 0,0.17226 0.21141,0.31319 0.46979,0.31319 0.2584,0 0.4698,-0.14093 0.4698,-0.31319 z m -0.62639,-0.9396 c 0,-0.17226 -0.21973,-0.3132 -0.48829,-0.3132 -0.26855,0 -0.40118,0.14094 -0.29471,0.3132 0.10646,0.17226 0.32619,0.3132 0.48828,0.3132 0.16209,0 0.29472,-0.14094 0.29472,-0.3132 z m 2.16857,-2.2418 c -0.0207,-0.6371 -0.0722,-0.60266 -0.3915,0.26182 -0.20222,0.54748 -0.47338,1.0995 -0.60258,1.2267 -0.12919,0.1272 -0.2349,0.36773 -0.2349,0.53451 0,0.16678 0.28188,-0.0551 0.6264,-0.4931 0.34452,-0.43798 0.61568,-1.12645 0.60258,-1.52993 z m 1.17737,1.24347 c -0.1,-0.24985 -0.17419,-0.17563 -0.18922,0.18923 -0.0136,0.33016 0.0604,0.51515 0.1645,0.41107 0.10407,-0.10407 0.1152,-0.37421 0.0247,-0.6003 z m -2.10541,-1.33223 c -0.009,-0.47556 -0.13237,-0.36819 -0.4698,0.40902 -0.57643,1.32769 -0.5686,1.62491 0.0222,0.84378 0.25291,-0.33438 0.45432,-0.89814 0.44758,-1.2528 z m -1.86693,1.07776 c 0,-0.17226 -0.21141,-0.3132 -0.4698,-0.3132 -0.25839,0 -0.4698,0.14094 -0.4698,0.3132 0,0.17226 0.21141,0.3132 0.4698,0.3132 0.25839,0 0.4698,-0.14094 0.4698,-0.3132 z m 1.24454,-1.68598 c 0.14517,-0.64369 0.13462,-1.21132 -0.0243,-1.30957 -0.15433,-0.0954 -0.28059,0.10846 -0.28059,0.45298 0,0.34452 -0.14094,0.71351 -0.3132,0.81997 -0.17226,0.10646 -0.3132,0.56579 -0.3132,1.02072 0,1.13487 0.5953,0.50584 0.93134,-0.9841 z m -1.87094,0.74638 c 0,-0.17226 -0.31712,-0.30329 -0.7047,-0.29119 -0.67241,0.021 -0.676,0.0343 -0.0783,0.29119 0.34452,0.14804 0.66163,0.27908 0.7047,0.29118 0.0431,0.0121 0.0783,-0.11892 0.0783,-0.29118 z m 0.98715,-2.00847 c 0.0641,-0.53628 -0.0523,-0.96657 -0.28245,-1.044 -0.27817,-0.0936 -0.38875,0.30649 -0.38198,1.38207 0.0101,1.60708 0.45924,1.37856 0.66443,-0.33807 z m -2.23995,0.59907 c -1.0248,-0.58583 -1.58002,-0.57893 -0.80144,0.01 0.33438,0.25291 0.82767,0.45484 1.0962,0.44874 0.31295,-0.007 0.20712,-0.1718 -0.29476,-0.4587 z m 9.93022,-1.4877 c -0.0747,-0.38758 -0.13573,-0.0705 -0.13573,0.7047 0,0.77517 0.0611,1.09229 0.13573,0.7047 0.0747,-0.38758 0.0747,-1.02182 0,-1.4094 z m -8.83873,0.3132 c -0.119,-0.7321 -0.36082,-1.47204 -0.53737,-1.6443 -0.32449,-0.31659 -0.0892,2.1475 0.25881,2.71063 0.37268,0.60301 0.48193,0.18481 0.27856,-1.06633 z m -1.22469,-1.3165 c -0.11461,-0.61094 -0.34562,-1.1108 -0.51336,-1.1108 -0.27237,0 -0.18353,0.91206 0.21029,2.15893 0.27113,0.85842 0.50743,0.0412 0.30307,-1.04813 z m 9.63727,-0.34131 c -0.10201,-0.26582 -0.25264,-0.41613 -0.33473,-0.33403 -0.0821,0.0821 -0.0564,0.29958 0.0572,0.4833 0.30883,0.4997 0.48934,0.40262 0.27756,-0.14927 z m -11.76026,-0.44204 c -0.21026,-0.33669 -0.42619,-0.56827 -0.47983,-0.51463 -0.18565,0.18565 0.2986,1.12678 0.57978,1.12678 0.15529,0 0.11031,-0.27547 -0.0999,-0.61215 z m 0.53359,-0.64065 c -0.28379,-0.54879 -0.58047,-0.93333 -0.65927,-0.85452 -0.0788,0.0788 0.10511,0.57609 0.40871,1.10508 0.71775,1.25061 0.92149,1.04687 0.25056,-0.25056 z m 15.09632,32.12937 c 0.47503,-0.84098 2.75437,-2.428 4.94453,-3.4427 1.20798,-0.55965 2.38976,-1.25316 2.62618,-1.54112 0.23641,-0.28796 0.64167,-0.52357 0.90057,-0.52357 0.39297,0 0.44759,0.44089 0.33064,2.66905 -0.0771,1.46798 -0.28313,2.81209 -0.45795,2.98691 -0.21501,0.21501 -0.26995,-0.50962 -0.16981,-2.23954 0.0827,-1.42922 0.0256,-2.50384 -0.12943,-2.43598 -2.09138,0.91513 -5.72143,3.02909 -6.66441,3.88102 -1.26426,1.14218 -1.80304,1.3943 -1.38032,0.64593 z m 4.95896,-0.73109 c 0.69467,-0.64598 1.64439,-1.66779 2.11049,-2.2707 0.56122,-0.72594 0.84864,-0.92069 0.85093,-0.5766 0.004,0.65412 -3.14944,4.0218 -3.76639,4.0218 -0.25883,0 0.0913,-0.51083 0.80497,-1.1745 z m -125.7601557,-4.4631 c 0,-0.17226 0.149257,-0.3132 0.331682,-0.3132 0.182427,0 0.2445791,0.14094 0.138117,0.3132 -0.106464,0.17226 -0.255721,0.3132 -0.331684,0.3132 -0.07596,0 -0.138115,-0.14094 -0.138115,-0.3132 z M 130.94901,35.539034 c -0.10646,-0.17226 -0.0443,-0.3132 0.13812,-0.3132 0.18242,0 0.33168,0.14094 0.33168,0.3132 0,0.17226 -0.0622,0.3132 -0.13812,0.3132 -0.076,0 -0.22522,-0.14094 -0.33168,-0.3132 z m -9.86579,-0.95809 c 0,-0.18242 0.14094,-0.24458 0.3132,-0.13811 0.17226,0.10646 0.3132,0.25572 0.3132,0.33168 0,0.076 -0.14094,0.13811 -0.3132,0.13811 -0.17226,0 -0.3132,-0.14925 -0.3132,-0.33168 z M 5.5372807,34.103524 c 0.01503,-0.36486 0.08924,-0.43908 0.189224,-0.18923 0.09047,0.22609 0.07935,0.49623 -0.02472,0.6003 -0.104074,0.10408 -0.178098,-0.0809 -0.164497,-0.41107 z M 58.7565,33.346624 c 0,-0.17226 0.14094,-0.3132 0.3132,-0.3132 0.172259,0 0.313199,0.14094 0.313199,0.3132 0,0.17226 -0.14094,0.3132 -0.313199,0.3132 -0.17226,0 -0.3132,-0.14094 -0.3132,-0.3132 z m 69.21711,-0.64489 c 0,-0.18242 0.14094,-0.24457 0.3132,-0.13811 0.17226,0.10646 0.31321,0.25572 0.31321,0.33168 0,0.076 -0.14095,0.13812 -0.31321,0.13812 -0.17226,0 -0.3132,-0.14926 -0.3132,-0.33169 z M 13.499143,29.901424 c 0.106462,-0.17226 0.32619,-0.3132 0.488283,-0.3132 0.162094,0 0.294716,0.14094 0.294716,0.3132 0,0.17226 -0.219728,0.3132 -0.488284,0.3132 -0.268555,0 -0.401177,-0.14094 -0.294715,-0.3132 z m 118.716047,0.0217 c -0.0991,-0.16036 -0.037,-0.38008 0.13811,-0.48828 0.17507,-0.1082 0.31831,0.023 0.31831,0.29155 0,0.55015 -0.18794,0.63115 -0.45642,0.19673 z m -68.917296,-1.58764 c 0.106465,-0.17226 0.255722,-0.3132 0.331685,-0.3132 0.07596,0 0.138115,0.14094 0.138115,0.3132 0,0.17226 -0.149257,0.3132 -0.331682,0.3132 -0.182428,0 -0.244579,-0.14094 -0.138118,-0.3132 z m 60.604126,-0.93961 c 0,-0.17226 0.14094,-0.3132 0.3132,-0.3132 0.17226,0 0.3132,0.14094 0.3132,0.3132 0,0.17226 -0.14094,0.3132 -0.3132,0.3132 -0.17226,0 -0.3132,-0.14094 -0.3132,-0.3132 z m 2.8188,-5.96928 c 0,-0.18242 0.14094,-0.24458 0.31319,-0.13811 0.17226,0.10646 0.31321,0.25572 0.31321,0.33168 0,0.076 -0.14095,0.13812 -0.31321,0.13812 -0.17225,0 -0.31319,-0.14926 -0.31319,-0.33169 z M 4.5729542,20.818634 c 0,-0.17226 0.149259,-0.3132 0.331684,-0.3132 0.182428,0 0.244579,0.14094 0.138115,0.3132 -0.106462,0.17226 -0.255718,0.3132 -0.331682,0.3132 -0.07597,0 -0.138117,-0.14094 -0.138117,-0.3132 z m 27.5615708,-0.3132 c 0,-0.17226 0.149258,-0.31321 0.331684,-0.31321 0.182426,0 0.244578,0.14095 0.138115,0.31321 -0.106462,0.17226 -0.255719,0.3132 -0.331683,0.3132 -0.07596,0 -0.138116,-0.14094 -0.138116,-0.3132 z m 25.369176,-2.1924 c 0,-0.17226 0.14094,-0.3132 0.3132,-0.3132 0.17226,0 0.3132,0.14094 0.3132,0.3132 0,0.17226 -0.14094,0.3132 -0.3132,0.3132 -0.17226,0 -0.3132,-0.14094 -0.3132,-0.3132 z m -21.610779,-1.58449 c 0,-0.18242 0.140939,-0.24457 0.313199,-0.13811 0.17226,0.10646 0.3132,0.25572 0.3132,0.33168 0,0.076 -0.14094,0.13812 -0.3132,0.13812 -0.17226,0 -0.313199,-0.14926 -0.313199,-0.33169 z m -22.550378,-5.61911 c 0,-0.17226 0.140938,-0.3132 0.313199,-0.3132 0.17226,0 0.313199,0.14094 0.313199,0.3132 0,0.17226 -0.140939,0.3132 -0.313199,0.3132 -0.172261,0 -0.313199,-0.14094 -0.313199,-0.3132 z M 82.559682,7.0378442 c 0,-0.17226 0.14926,-0.3132 0.33168,-0.3132 0.18243,0 0.24458,0.14094 0.13812,0.3132 -0.10647,0.17226 -0.25572,0.3132 -0.33169,0.3132 -0.076,0 -0.13811,-0.14094 -0.13811,-0.3132 z m 9.86579,-0.3132 c 0.10646,-0.17226 0.25572,-0.3132 0.33168,-0.3132 0.076,0 0.13812,0.14094 0.13812,0.3132 0,0.17226 -0.14926,0.3132 -0.33169,0.3132 -0.18242,0 -0.24457,-0.14094 -0.13811,-0.3132 z m -79.23953,-1.2528 c -0.106462,-0.17226 -0.04431,-0.3132 0.138118,-0.3132 0.182425,0 0.331683,0.14094 0.331683,0.3132 0,0.17226 -0.06215,0.3132 -0.138117,0.3132 -0.07596,0 -0.22522,-0.14094 -0.331684,-0.3132 z m 38.053765,-0.6264 c 0,-0.17226 0.149258,-0.3132 0.331684,-0.3132 0.182426,0 0.244578,0.14094 0.138116,0.3132 -0.106463,0.17226 -0.255721,0.3132 -0.331684,0.3132 -0.07596,0 -0.138116,-0.14094 -0.138116,-0.3132 z m 21.297585,-1.566 c 0,-0.17226 0.14094,-0.3132 0.3132,-0.3132 0.17226,0 0.3132,0.14094 0.3132,0.3132 0,0.17226 -0.14094,0.3132 -0.3132,0.3132 -0.17226,0 -0.3132,-0.14094 -0.3132,-0.3132 z m -46.040361,-0.9396 c 0,-0.17226 0.149257,-0.3132 0.331683,-0.3132 0.182426,0 0.244578,0.14094 0.138116,0.3132 -0.106462,0.17226 -0.25572,0.3132 -0.331684,0.3132 -0.07596,0 -0.138115,-0.14094 -0.138115,-0.3132 z"
       id="path1" /></g></svg>
