<?xml version="1.0" encoding="UTF-8" standalone="no"?>
<!-- Created with Inkscape (http://www.inkscape.org/) -->

<svg
   width="46.937mm"
   height="52.333mm"
   viewBox="0 0 46.937 52.333"
   version="1.1"
   id="svg1"
   xmlns="http://www.w3.org/2000/svg"
   xmlns:svg="http://www.w3.org/2000/svg">
  <defs
     id="defs1" />
  <g
     id="layer1">
    <g
       id="g1"
       transform="matrix(0.90807362,0,0,0.90807362,-71.843167,-108.59549)">
      <path
         id="path35"
         d="m 104.14462,129.31971 c -0.15981,1.4531 -0.30057,2.90301 -0.51365,4.35046 -0.34501,2.34774 -0.80398,4.67395 -1.3088,6.99206 -0.82197,3.77507 -1.60832,7.94706 -4.377975,10.84192 -1.337028,1.39731 -3.422897,3.085 -5.364409,3.45831 -2.418433,0.46493 -4.1166,-1.61438 -4.731492,-3.70914 -0.615703,-2.09832 -0.298062,-4.55224 -0.05595,-6.69325 0.266241,-2.35197 0.519395,-4.70359 0.773924,-7.05732 0.251213,-2.32375 0.804756,-4.60163 1.14681,-6.91409 0.278483,-1.88454 0.490008,-3.95006 1.398975,-5.65962 0.869951,2.921 9.420827,3.18135 11.484227,2.88643 0.53093,-0.0759 1.23825,-0.20884 1.71591,-0.55986 0.12382,0.65793 -0.10831,1.52471 -0.16757,2.0641 z M 90.099334,165.1485 c -0.09056,0.81703 -0.498298,4.34689 -0.672077,4.35998 -0.0098,0.007 -0.01806,0.0167 -0.0284,0.0226 -0.227225,0.12457 -0.518548,0.0364 -0.54543,-0.13684 -0.130775,-0.10241 0.850829,-4.98299 1.226891,-6.80519 0.432964,-2.09652 0.561551,-5.4387 0.97924,-6.79055 0.0085,-0.0275 0.227365,-0.14291 0.438468,0.18796 -0.281517,3.11161 -1.055018,6.06295 -1.398694,9.16203 z m 4.276337,6.38101 c 1.513911,1.96261 -4.723659,1.75436 -5.893188,1.61188 -1.456443,-0.17777 -7.082579,-0.92947 -6.351658,-3.2928 0.664633,-1.36345 3.510139,-1.34898 6.308372,-0.77473 -0.0026,0.4258 0.0496,0.85587 0.27686,1.09428 0.592279,0.623 1.037661,0.0857 1.345636,-0.6984 2.030695,0.57535 3.787563,1.37721 4.313978,2.05977 z m -2.661567,-47.59389 c 1.295647,-2.65889 10.882876,-0.0843 12.244596,1.68063 0.16546,0.21485 0.2339,0.40182 0.23072,0.56762 0.12277,1.07174 -5.204177,1.15676 -6.123869,1.04458 -1.456267,-0.1778 -7.082473,-0.92957 -6.351447,-3.29283 z m 12.002946,0.74013 c -2.17099,-1.35961 -5.047191,-2.0567 -7.553254,-2.32199 -1.344013,-0.14181 -4.145562,-0.57538 -5.443396,2.04717 -0.894186,1.80693 -1.253879,3.85939 -1.545061,5.81943 -0.334716,2.25354 -0.866775,4.47675 -1.137568,6.7377 -0.356199,2.97321 -0.723723,5.97606 -0.970421,8.9602 -0.177059,2.14352 -0.323144,4.43163 0.557707,6.44949 0.653732,1.4975 2.937298,3.07728 2.937298,3.07728 0,0.77117 -1.137179,7.32084 -1.529221,9.14756 -0.251213,1.17009 -0.557424,3.79335 -0.569137,3.9412 -0.640221,-0.11465 -1.273986,-0.20214 -1.883198,-0.26667 -1.344154,-0.1422 -5.525664,-0.5468 -5.051919,2.57447 0.869562,2.92171 9.421107,3.18174 11.484187,2.88685 0.830404,-0.1185 2.099134,-0.36971 2.230755,-1.39072 0.101142,-0.7856 -0.521441,-1.35819 -1.109733,-1.74872 -1.134956,-0.75491 -2.492199,-1.28365 -3.890222,-1.65805 0.213748,-0.73438 1.426422,-9.29489 1.763642,-13.11409 0,0 1.559384,0.0807 4.815558,-2.57006 3.510143,-2.8575 4.853513,-6.92919 5.794373,-11.17417 0.68651,-3.09845 1.31551,-6.20536 1.73814,-9.35178 0.18944,-1.41147 0.3309,-2.82964 0.48472,-4.24498 0.0667,-0.61383 0.8449,-2.56787 -1.12325,-3.80012"
         />
      <path
         id="path36"
         d="m 98.83884,146.01563 c -0.431447,1.11266 -0.976136,2.19498 -1.580445,3.2233 -1.176725,2.0024 -3.405011,5.12766 -6.124857,3.88838 -2.184859,-0.99631 -2.392257,-4.1487 -2.455934,-6.23115 -0.04685,-1.53423 0.171027,-3.05611 0.325226,-4.5787 0.147708,-1.45909 0.793045,-5.02955 0.751558,-5.09023 0.2806,-0.35878 1.342355,-0.54822 1.592474,-0.69391 0.53139,-0.30869 0.81153,-0.84738 1.103807,-1.36208 0.09867,-0.19297 0.205458,-0.381 0.320675,-0.56409 0.717973,-1.03258 2.333025,-0.98072 1.636818,0.58632 -0.07274,0.30621 -0.423192,0.51823 -0.477484,0.85971 -0.05842,0.36795 0.04547,0.6403 0.307869,0.89147 0.825711,0.78917 2.612037,0.38347 3.607929,0.36901 1.017058,-0.0148 2.438404,0.0543 2.914654,1.08232 0.79974,1.72685 -1.630896,6.86717 -1.92229,7.61965 z m 0.884414,-9.04593 c -0.99695,-0.24553 -1.885598,-0.22966 -2.886781,-0.19403 -0.507189,0.018 -1.48971,0.14888 -1.914984,-0.14287 -0.744819,-0.51153 0.190853,-1.1744 0.280847,-1.784 0.116875,-0.79093 -0.479813,-1.46438 -1.252079,-1.52082 -0.879193,-0.0642 -1.445296,0.57608 -1.85346,1.25765 -0.376484,0.6283 -0.59697,1.17052 -1.2948,1.53352 -0.370275,0.19262 -0.826276,0.20532 -1.17602,0.44909 -0.680332,0.47519 -1.099009,4.68207 -1.290532,6.48864 -0.190853,1.79882 -0.333234,3.562 -0.142769,5.36748 0.236749,2.24123 0.961602,5.05256 3.547498,5.50827 2.587379,0.45657 4.524093,-1.98187 5.738707,-3.9201 0.758473,-1.20964 1.41605,-2.50677 1.928284,-3.83991 0.339019,-0.8816 4.085165,-8.27405 0.316089,-9.20292"
         />
      <path
         id="path37"
         d="m 100.56145,139.29839 c -1.636532,0.18626 -3.282946,0.3115 -4.929995,0.19685 -1.740606,-0.12136 -3.189606,-0.68122 -4.799295,-1.29223 -0.355248,-0.13511 -0.508918,0.43498 -0.15681,0.56868 1.456302,0.55316 2.834358,1.12395 4.401044,1.2693 1.833457,0.16968 3.660493,0.055 5.485056,-0.15276 0.37289,-0.0423 0.37712,-0.63288 0,-0.58984"
         />
      <path
         id="path38"
         d="m 97.640101,132.64712 c -0.472017,-0.14958 -1.215849,-0.12842 -1.416756,0.32208 -0.3036,0.68192 0.264936,1.16135 0.65652,1.29117 0.4572,0.15205 0.993775,-0.0303 1.218847,-0.46567 0.243417,-0.47025 0.04833,-0.98707 -0.458611,-1.14758"
         />
      <path
         id="path39"
         d="m 92.381348,141.09509 c -0.217029,-0.20603 -0.528743,-0.39229 -0.835907,-0.39653 -0.323003,-0.004 -1.161838,0.51083 -0.808355,1.28376 0.387914,0.84773 1.086873,0.67592 1.38617,0.53128 0.557001,-0.26916 0.719067,-0.98107 0.258092,-1.41851"
         />
      <path
         id="path40"
         d="m 92.981494,145.339 c -0.331435,-0.33161 -0.951936,-0.17462 -0.973985,0.0801 -0.02371,0.27058 0.1028,0.51365 0.366537,0.60607 0.203976,0.0716 0.546664,0.0565 0.705837,-0.11218 0.175578,-0.18556 0.05719,-0.41839 -0.09839,-0.57397"
         />
      <path
         id="path41"
         d="m 93.940203,140.96138 c -0.495971,-0.0875 -0.928547,0.95674 -0.439315,1.44604 0.303142,0.30303 0.782567,0.0875 0.914859,-0.30903 0.135043,-0.40499 0.01598,-1.05022 -0.475544,-1.13701"
         />
      <path
         id="path42"
         d="m 95.384792,143.31229 c -0.235902,0.21873 -0.270933,0.47167 -0.28014,0.77929 -0.01161,0.37747 0.554778,0.381 0.773218,-0.49213 0.06985,-0.2794 -0.265007,-0.49847 -0.493078,-0.28716"
         />
      <path
         id="path43"
         d="m 105.60829,128.00456 c 0.47766,0.35101 1.18498,0.48401 1.71591,0.55986 2.0634,0.29492 10.61438,0.0346 11.48398,-2.88643 0.90911,1.70956 1.12042,3.77472 1.39912,5.65961 0.34219,2.31246 0.8957,4.59035 1.14688,6.9141 0.25435,2.35408 0.50729,4.70535 0.77364,7.05767 0.24236,2.14065 0.55986,4.59458 -0.0557,6.69293 -0.61489,2.09476 -2.31316,4.17407 -4.73146,3.70911 -1.94133,-0.37359 -4.02731,-2.06125 -5.36433,-3.45832 -2.76966,-2.89486 -3.55601,-7.06719 -4.37798,-10.84192 -0.50482,-2.3181 -0.96379,-4.64432 -1.30916,-6.99205 -0.21272,-1.44745 -0.35348,-2.89737 -0.51329,-4.35046 -0.0593,-0.5394 -0.29139,-1.40617 -0.16757,-2.0641 z m 12.81395,28.73089 c 0.21131,-0.33087 0.43004,-0.21554 0.4385,-0.18799 0.41805,1.35188 0.54646,4.69402 0.97932,6.7903 0.37606,1.82245 1.35784,6.70306 1.22696,6.80544 -0.0272,0.17321 -0.31821,0.26141 -0.5454,0.13684 -0.0102,-0.006 -0.0187,-0.0158 -0.0286,-0.0226 -0.17357,-0.0131 -0.58138,-3.54292 -0.67204,-4.35995 -0.34361,-3.09922 -1.1169,-6.05056 -1.39877,-9.16203 z m 1.43651,13.48328 c 0.30798,0.78408 0.75318,1.3214 1.34585,0.69839 0.22719,-0.23841 0.27905,-0.66851 0.27658,-1.09432 2.79823,-0.57421 5.64374,-0.58868 6.30837,0.77474 0.73096,2.36319 -4.89514,3.11506 -6.35141,3.2924 -1.16981,0.14291 -7.40728,0.35074 -5.89315,-1.61148 0.52634,-0.68252 2.28317,-1.48442 4.31376,-2.05973 z m -8.00382,-42.24169 c -0.91969,0.11219 -6.24664,0.0275 -6.12387,-1.04422 -0.003,-0.16581 0.0653,-0.35278 0.23072,-0.56797 1.36137,-1.7646 10.94881,-4.33882 12.24456,-1.68028 0.73096,2.36326 -4.89514,3.11503 -6.35141,3.29247 z m -6.77475,1.24778 c 0.15346,1.41534 0.29493,2.83351 0.48472,4.24497 0.42263,3.14643 1.05163,6.2537 1.73814,9.35179 0.94086,4.24497 2.28423,8.31667 5.79437,11.17417 3.25614,2.6508 4.81577,2.57005 4.81577,2.57005 0.33691,3.81925 1.54976,12.37961 1.76354,13.11452 -1.39806,0.37401 -2.75555,0.90276 -3.89043,1.65763 -0.58809,0.39056 -1.21109,0.96312 -1.10949,1.74875 0.13159,1.02056 1.40017,1.27177 2.23061,1.39069 2.06305,0.29492 10.61473,0.0349 11.48433,-2.88643 0.47343,-3.12208 -3.70805,-2.71748 -5.05213,-2.57499 -0.60925,0.0642 -1.24284,0.15211 -1.88348,0.26677 -0.0113,-0.14785 -0.3175,-2.77107 -0.56868,-3.94131 -0.39229,-1.82661 -1.52929,-8.376 -1.52929,-9.14742 0,0 2.28353,-1.57977 2.93723,-3.07732 0.88088,-2.01785 0.73483,-4.30635 0.55774,-6.44983 -0.24659,-2.9838 -0.61419,-5.98699 -0.97049,-8.95985 -0.27093,-2.2606 -0.80292,-4.48416 -1.13771,-6.73806 -0.29104,-1.95968 -0.65052,-4.01214 -1.54481,-5.81907 -1.29787,-2.62255 -4.09963,-2.18934 -5.44337,-2.04717 -2.50613,0.26494 -5.38233,0.96238 -7.55332,2.32163 -1.96815,1.23261 -1.18992,3.187 -1.12325,3.80048"
         />
      <path
         id="path44"
         d="m 109.15935,139.14493 c 0.4759,-1.028 1.89724,-1.09679 2.91465,-1.08197 0.9959,0.0145 2.78201,0.41981 3.60786,-0.36971 0.26247,-0.25083 0.36619,-0.52352 0.30763,-0.89112 -0.054,-0.34149 -0.40464,-0.55351 -0.47731,-0.86007 -0.69603,-1.56669 0.91863,-1.61854 1.63689,-0.58596 0.115,0.18309 0.22189,0.37112 0.32067,0.56409 0.29245,0.5147 0.57221,1.05304 1.10384,1.36207 0.25012,0.14535 1.31198,0.33514 1.59244,0.69356 -0.0413,0.0607 0.60396,3.6315 0.75177,5.09059 0.15417,1.52294 0.37183,3.04447 0.32491,4.5787 -0.0635,2.08245 -0.27129,5.23487 -2.45569,6.23104 -2.71991,1.23942 -4.94806,-1.88584 -6.12492,-3.88828 -0.60431,-1.02827 -1.14935,-2.1106 -1.58045,-3.22329 -0.29139,-0.75248 -2.72239,-5.8928 -1.92229,-7.61965 z m 1.35361,7.77663 c 0.51259,1.33315 1.17017,2.62989 1.92864,3.83995 1.21461,1.93778 3.15136,4.37664 5.73864,3.92011 2.58586,-0.45615 3.31082,-3.26708 3.54753,-5.50831 0.1905,-1.80548 0.048,-3.56867 -0.14288,-5.36748 -0.19155,-1.80658 -0.60995,-6.0138 -1.29046,-6.48864 -0.34995,-0.24377 -0.80574,-0.25647 -1.17581,-0.44909 -0.69814,-0.36301 -0.91863,-0.90523 -1.29504,-1.53352 -0.40817,-0.68157 -0.97438,-1.32221 -1.8535,-1.25766 -0.77223,0.0565 -1.36878,0.7299 -1.25201,1.52083 0.09,0.6096 1.02588,1.27247 0.28082,1.784 -0.42545,0.29174 -1.40759,0.16086 -1.91488,0.14287 -1.00119,-0.0353 -1.88983,-0.0515 -2.88714,0.19403 -3.76907,0.92886 -0.0226,8.32132 0.31609,9.20291"
         />
      <path
         id="path45"
         d="m 109.35867,140.04734 c 1.63689,0.18626 3.28331,0.31115 4.93007,0.19649 1.74096,-0.121 3.18982,-0.68086 4.79955,-1.29222 0.35524,-0.13476 0.5087,0.43533 0.15663,0.56903 -1.45627,0.55315 -2.83422,1.12395 -4.4009,1.26929 -1.83339,0.16969 -3.66043,0.055 -5.48535,-0.15275 -0.37253,-0.0423 -0.37676,-0.63288 0,-0.58984"
         />
      <path
         id="path46"
         d="m 112.28038,133.39571 c 0.47202,-0.14923 1.21567,-0.12806 1.41676,0.32244 0.30374,0.68192 -0.26494,1.16134 -0.65652,1.29117 -0.4572,0.15169 -0.99378,-0.0303 -1.2192,-0.46567 -0.24342,-0.47025 -0.048,-0.98707 0.45896,-1.14794"
         />
      <path
         id="path47"
         d="m 117.53889,141.84403 c 0.21731,-0.20602 0.52881,-0.39229 0.83608,-0.39652 0.32314,-0.004 1.16205,0.51082 0.80857,1.28376 -0.38806,0.84772 -1.08727,0.67592 -1.38642,0.53128 -0.55704,-0.26917 -0.71896,-0.98107 -0.25823,-1.41852"
         />
      <path
         id="path48"
         d="m 116.93881,146.08795 c 0.33161,-0.33161 0.95215,-0.17463 0.97437,0.0801 0.0233,0.27058 -0.10301,0.51364 -0.36689,0.60607 -0.2039,0.0713 -0.5468,0.0564 -0.7059,-0.11218 -0.17534,-0.18556 -0.0571,-0.41875 0.0984,-0.57397"
         />
      <path
         id="path49"
         d="m 115.98031,141.71033 c 0.49601,-0.0875 0.92816,0.95673 0.43921,1.44604 -0.30303,0.30303 -0.78246,0.0875 -0.91475,-0.30904 -0.13512,-0.40499 -0.0162,-1.05022 0.47554,-1.137"
         />
      <path
         id="path50"
         d="m 114.53569,144.06124 c 0.23565,0.21908 0.27058,0.47131 0.2801,0.77929 0.0116,0.37747 -0.55492,0.381 -0.77329,-0.49213 -0.0699,-0.27975 0.26494,-0.49847 0.49319,-0.28716"
         />
    </g>
  </g>
</svg>
