<?xml version="1.0" encoding="UTF-8" standalone="no"?>
<!-- Created with Inkscape (http://www.inkscape.org/) -->

<svg
   width="145.065mm"
   height="149.065mm"
   viewBox="0 0 145.065 149.065"
   version="1.1"
   id="svg1"
   xml:space="preserve"
   xmlns="http://www.w3.org/2000/svg"
   xmlns:svg="http://www.w3.org/2000/svg"><defs
     id="defs1" /><g
     id="layer1"><path
       style="fill:#000000;stroke-width:0.979454"
       d="m 67.471327,146.85337 c -0.873114,-0.93006 -1.604281,-2.81256 -1.610449,-4.14635 -0.0061,-1.32016 -0.04403,-1.36737 -0.781396,-0.97274 -1.313778,0.70311 -2.161922,-0.8299 -2.1501,-3.88627 0.0229,-5.92077 2.594712,-12.3552 7.739867,-19.36438 0.401509,-0.54697 0.37776,-0.65873 -0.468113,-2.20275 -1.999061,-3.649 -5.734775,-4.13044 -20.413073,-2.63077 -3.060337,0.31267 -6.670271,0.43719 -12.698211,0.43801 l -8.422281,9.8e-4 -4.46796,-0.93325 c -7.653383,-1.59861 -18.1068087,-5.70314 -22.0298374,-8.65 -2.11821766,-1.59114 -0.6319544,-1.22695 3.3689126,0.82551 14.7767178,7.58049 25.9905228,9.32685 46.3225548,7.21398 5.135935,-0.53373 13.180479,-0.61108 14.732759,-0.14166 1.682748,0.50885 1.661458,0.40886 -1.056019,-4.96006 -4.747092,-9.378838 -8.830208,-15.490365 -8.211139,-12.290255 1.634716,8.450195 -5.661737,9.696145 -11.311599,1.931581 l -1.097469,-1.508241 -1.228803,1.596921 c -5.671454,7.370474 -15.461539,6.311434 -12.051623,-1.303682 0.873767,-1.951327 0.939634,-1.756474 -0.743846,-2.200569 -5.041279,-1.329863 -7.070133,-6.21718 -3.29297,-7.932449 1.93165,-0.877199 7.44157,-0.494213 11.667251,0.810968 2.216466,0.684599 2.292535,0.587438 0.970708,-1.239851 -3.804291,-5.25904 -4.748114,-8.43297 -3.021215,-10.159874 2.113189,-2.113181 7.172098,0.710319 10.588319,5.909593 1.435921,2.185387 1.540568,2.159627 1.955745,-0.481431 0.508418,-3.234186 2.155766,-6.204046 3.965848,-7.149679 3.176495,-1.659479 5.331224,4.417307 3.342597,9.426811 -0.738258,1.859728 -0.7944,1.794849 1.464495,1.692673 6.53846,-0.295756 7.387264,4.008933 1.386368,7.03094 -2.295157,1.155814 -2.261062,1.046096 -0.891489,2.86881 1.911225,2.543573 3.832419,5.797574 7.008546,11.870624 5.825935,11.13975 6.043447,10.38947 2.654037,-9.154755 -2.856703,-16.472503 -5.561709,-22.39049 -14.086143,-30.817485 -3.940115,-3.895082 -4.357514,-4.155352 -3.69539,-2.304312 1.024675,2.864599 0.743485,4.666676 -0.987994,6.331826 -4.132556,3.974242 -11.517306,-0.124087 -12.198066,-6.769592 -0.252854,-2.468322 -0.201447,-2.464218 -2.520029,-0.201288 -7.631397,7.448217 -17.869254,8.956311 -17.869254,2.632253 0,-2.735801 2.930922,-6.281267 7.12343,-8.617029 2.719058,-1.514862 2.713307,-1.485978 0.516303,-2.592369 -5.158869,-2.597962 -7.740359,-6.094612 -7.242092,-9.809465 0.662669,-4.940569 8.288021,-4.529571 17.009138,0.916769 2.318945,1.448181 2.400817,1.413469 1.219626,-0.517064 -4.708029,-7.694803 -4.12785,-17.67664 0.939188,-16.158518 3.262872,0.97758 7.445514,9.599935 7.445514,15.348637 0,0.563735 0.555297,-0.198486 1.666813,-2.287922 3.359216,-6.314671 6.635831,-9.682083 9.421018,-9.682083 3.946158,0 2.658043,8.089839 -2.413673,15.158754 -0.813444,1.133777 -1.529808,2.19384 -1.591921,2.355704 -0.0795,0.207174 0.984288,0.337402 3.59375,0.439932 7.157038,0.28122 11.996306,2.509752 12.854979,5.919848 1.381599,5.486831 -6.80785,7.913203 -15.724757,4.658928 -2.551897,-0.931323 -2.497934,-0.811957 1.159318,2.564494 11.200064,10.340113 14.083741,17.126024 17.559035,41.320207 0.326344,2.27193 0.666935,4.01171 0.756869,3.86619 0.08993,-0.14551 0.462356,-4.22048 0.827604,-9.055477 0.853662,-11.300415 1.60693,-20.044704 2.113415,-24.533501 l 0.40199,-3.562695 -1.059928,-1.20414 c -2.368643,-2.690922 -1.948946,-5.41921 1.021339,-6.639326 l 0.9135,-0.375238 1.616689,-10.774932 c 0.889179,-5.926215 1.897448,-11.744268 2.240599,-12.929012 0.756619,-2.612257 0.906152,-2.470074 -1.708041,-1.624106 -8.552932,2.767784 -16.333206,-1.079803 -13.664389,-6.757464 1.313064,-2.793425 8.066921,-6.654165 13.120483,-7.500125 1.521216,-0.254651 1.553213,-0.456397 0.363038,-2.288938 -5.39766,-8.310893 -5.797171,-17.300721 -0.869115,-19.5568595 5.120448,-2.34422077 10.691542,2.5526436 12.785398,11.2380885 0.703444,2.917938 0.716716,2.91993 2.707025,0.406321 5.494334,-6.9389138 14.250919,-10.2603356 18.035689,-6.8410321 5.46296,4.9354641 1.59133,13.6136161 -8.28225,18.5644121 -2.260689,1.13355 -2.299005,1.039358 1.18054,2.902152 9.25825,4.956442 11.77285,8.118244 9.69527,12.190625 -2.28716,4.48321 -12.4144,2.141522 -18.528879,-4.284362 -0.829647,-0.871899 -1.533727,-1.585272 -1.564629,-1.585272 -0.03095,0 -0.06876,1.603474 -0.08414,3.563274 -0.05504,7.01121 -1.735474,11.696212 -4.740605,13.2165 -2.966423,1.500719 -7.027209,0.02507 -8.284602,-3.010547 -0.275584,-0.665323 -0.791699,-1.124932 -0.791699,-0.70502 0,0.05877 -0.457273,3.178259 -1.016164,6.932191 -0.55889,3.753933 -1.05451,7.291799 -1.101375,7.861919 l -0.08521,1.036586 2.332324,0.454819 c 7.324078,1.42822 11.265184,4.40999 11.271462,8.527771 9.8e-4,0.914712 0.04124,0.955643 1.102816,1.132013 1.454646,0.2417 2.451671,0.772848 2.655358,1.414606 0.234188,0.737861 0.567702,0.655489 1.824762,-0.450667 0.607408,-0.534487 1.365662,-1.152493 1.685023,-1.373341 l 0.58064,-0.401546 -0.599994,-2.021093 c -0.688987,-2.320875 -0.864045,-2.456764 -2.225143,-1.727257 -4.242475,2.273821 -8.719391,-2.999147 -8.33092,-9.812276 0.548954,-9.627874 9.092377,-6.251001 9.971672,3.94141 0.168564,1.953893 0.456866,2.392727 0.865641,1.317581 2.616442,-6.881779 14.298872,-12.738913 17.186272,-8.616568 2.68703,3.836275 -10.24964,15.422929 -15.968468,14.302062 -0.391958,-0.07679 -0.712661,-0.06406 -0.712661,0.0284 0,0.294591 0.745884,1.965499 0.877385,1.965499 0.06954,0 1.095854,-0.232414 2.280754,-0.516485 7.94458,-1.904587 19.19042,1.357973 18.20564,5.281675 -0.84096,3.350633 -8.67141,3.613802 -16.24561,0.545987 -0.7127,-0.288675 -0.54857,0.22642 0.67913,2.131223 3.88559,6.028547 4.64453,11.230397 1.81122,12.414233 -3.58453,1.497713 -7.792705,-2.230314 -10.44151,-9.250137 -1.225072,-3.246674 -1.223867,-3.246067 -2.392698,-1.215101 -2.954983,5.134571 -5.734898,7.492488 -9.524169,8.078368 l -1.953648,0.302064 -0.962911,2.840494 c -1.950297,5.753155 -4.129856,16.186574 -3.381405,16.186574 0.111233,0 0.956018,-0.90378 1.877299,-2.00839 10.813902,-12.965855 20.150436,-16.367459 14.759348,-5.37731 -4.304357,8.77473 -13.866098,15.78463 -16.975825,12.4453 l -1.080173,-1.15992 -0.527293,0.57684 c -2.32746,2.54617 -1.893758,4.13951 2.837753,10.42538 13.65459,18.14025 27.712642,18.82878 59.871022,2.93231 4.93572,-2.43981 5.63645,-2.72047 5.63645,-2.2575 0,1.27016 -21.22808,10.78911 -27.93826,12.52789 -18.260598,4.73179 -28.524078,1.01481 -39.256081,-14.21682 -4.423032,-6.27749 -5.576724,-7.20701 -3.984976,-3.21065 3.782421,9.49643 3.490793,22.36633 -0.604362,26.67123 -1.205913,1.26768 -3.603402,1.48763 -4.603478,0.42233 z m 3.604156,-0.73925 c 3.282845,-2.3376 4.313175,-12.84102 2.117371,-21.585 -1.136875,-4.52718 -1.158449,-4.52323 -2.153251,0.39436 -0.694771,3.43443 -2.331066,9.33045 -3.616125,13.02989 -1.83191,5.2737 0.473054,10.42436 3.652005,8.16075 z m -5.87676,-5.99858 c 2.053178,-2.92339 6.599632,-19.63039 5.341992,-19.63039 -0.304787,0 -3.540732,5.14434 -4.356891,6.92636 -2.429389,5.30439 -3.253638,15.93406 -0.985101,12.70403 z m 8.382823,-25.62159 c 1.755049,-2.03834 2.639527,-3.63238 2.639527,-4.75708 0,-2.92258 1.817055,-11.155426 3.869511,-17.532229 1.027183,-3.191383 1.043726,-3.3002 0.665118,-4.3733 -1.129468,-3.201247 0.332916,-7.247302 3.94999,-10.928647 l 1.699989,-1.730195 -1.010737,-0.155293 c -3.404915,-0.523136 -5.609038,-1.034607 -7.317687,-1.698069 -2.222384,-0.862958 -2.276888,-0.852938 -2.479829,0.456102 -0.451095,2.909713 -3.263562,37.777801 -3.263562,40.460621 0,1.2762 0.314968,1.34136 1.24768,0.25809 z m 8.470336,-1.0118 c 7.884407,-4.50766 17.69765,-20.749054 10.259396,-16.979802 -2.880534,1.45967 -8.311018,6.495922 -12.870824,11.936442 l -2.469819,2.94686 0.279335,1.03737 c 0.593853,2.2054 2.183631,2.55605 4.801912,1.05913 z M 54.590878,101.25719 c 3.295237,-1.501414 2.583532,-8.030136 -0.818914,-7.512201 -3.273269,0.498268 -5.741956,0.158446 -7.393795,-1.01776 -2.548197,-1.814477 -1.160338,2.247582 1.91437,5.603083 2.261105,2.467588 4.758852,3.628318 6.298339,2.926878 z m -16.251621,-0.72431 c 4.567736,-2.160883 8.292541,-8.862864 4.041888,-7.272495 -1.289386,0.48242 -4.360703,0.931676 -7.622694,1.11499 -1.112694,0.06259 -1.203263,0.129249 -2.008391,1.479338 -2.394739,4.015629 0.994029,6.852047 5.589197,4.678167 z m -3.697251,-8.075579 c 2.422411,-1.544892 4.341285,-2.287857 6.69298,-2.591429 2.926447,-0.377765 3.339806,-1.488818 0.678663,-1.824144 -0.783921,-0.09878 -2.876721,-0.535272 -4.650667,-0.969973 -5.813482,-1.424596 -8.882758,-1.335407 -10.257232,0.298068 -2.3941,2.845225 4.137915,7.254774 7.536256,5.087478 z m 6.762805,0.188516 c 1.71441,-0.529806 2.722962,-1.319511 2.163721,-1.69421 -1.095909,-0.734258 -5.82966,0.366629 -7.42778,1.727404 l -0.735355,0.626155 2.332324,-0.123431 c 1.282778,-0.06788 2.932968,-0.309047 3.66709,-0.535918 z m 13.254846,0.01636 c 0.781407,-0.49008 -2.775735,-3.018226 -4.523942,-3.215273 -2.6103,-0.294218 -4.228232,2.076129 -2.096895,3.072047 1.148154,0.536506 5.832206,0.63783 6.620837,0.143226 z m 4.683216,-1.867887 c 5.246869,-2.624907 4.988269,-5.004989 -0.569948,-5.245641 l -2.547187,-0.110287 -0.907784,0.873193 c -1.46558,1.409738 -1.488008,1.566186 -0.446847,3.116916 1.750202,2.606797 1.899834,2.652498 4.471766,1.365819 z m 46.496847,0.403182 c 2.14007,-1.683387 1.0734,-5.843039 -3.11632,-12.152514 -3.367802,-5.0717 -5.276101,-5.875067 -6.810612,-2.867165 -2.489918,4.880648 6.166322,17.977767 9.926932,15.019679 z m -59.505239,-1.12565 c 1.214344,-1.013548 2.420382,-1.511229 4.011887,-1.655541 2.0208,-0.183236 2.346157,-0.60164 1.258162,-1.61798 -0.969985,-0.906102 -1.93388,-1.010482 -2.339113,-0.253296 -0.455193,0.850538 -2.260703,2.008282 -3.439047,2.205221 -1.283477,0.2145 -1.531971,0.499687 -1.155451,1.326062 0.349281,0.76658 0.741011,0.765532 1.663562,-0.0049 z m 7.599937,-0.425181 C 53.629945,89.219051 53.192029,88.8692 52.961272,88.8692 c -0.314362,0 -0.232805,0.194931 0.325278,0.777441 0.40966,0.427591 0.847576,0.777442 0.973146,0.777442 0.12557,0 -0.0208,-0.349851 -0.325278,-0.777442 z m 31.759994,-1.18891 c 3.892417,-1.626353 9.203721,-10.090284 7.88184,-12.560241 -1.868621,-3.491547 -4.071775,-1.368013 -9.219647,8.886437 -2.154837,4.292398 -1.889112,5.022101 1.337807,3.673804 z M 47.104495,87.291153 c 1.779786,-1.099966 1.598929,-2.305683 -0.208447,-1.389649 -1.126166,0.570777 -1.772633,1.14792 -1.772633,1.582552 0,0.518092 0.986007,0.422086 1.98108,-0.192903 z m 0.06522,-2.42981 c 1.534929,-0.509825 1.531842,-0.469746 0.208653,-2.70817 -3.590323,-6.073681 -10.58078,-9.231998 -9.930345,-4.486564 0.342682,2.500134 3.621976,8.044871 5.395995,9.12372 l 0.822161,0.499981 1.072962,-0.989023 c 0.595251,-0.54868 1.677405,-1.189781 2.430574,-1.439944 z m 37.797264,-3.222304 c 3.12146,-5.827319 3.219709,-6.117512 1.767395,-5.219931 -3.009411,1.859914 -5.9455,7.396639 -5.405488,10.193391 0.233913,1.211496 0.574401,0.74604 3.638093,-4.97346 z m -30.496924,3.463554 c 2.451737,-1.267844 3.225628,-8.794565 1.108728,-10.783297 l -0.637158,-0.598573 -0.93687,0.512479 c -1.678168,0.917974 -3.159658,4.484508 -3.837732,9.238923 -0.281248,1.972013 1.983271,2.830064 4.303032,1.630468 z m 61.895555,-6.618502 c 4.63781,-0.994626 2.8591,-3.923771 -3.46521,-5.706406 -4.31297,-1.215688 -12.12207,-0.76176 -12.69763,0.738097 -0.481105,1.253769 4.89779,4.106027 9.57786,5.07882 1.09117,0.226812 5.34497,0.15543 6.58498,-0.110511 z M 88.896364,73.470688 c 2.497969,-2.260628 -1.871178,-6.528167 -8.376035,-8.18125 -3.928919,-0.998455 -3.879459,-1.032599 -4.311145,2.976863 -0.339755,3.155624 -0.331648,3.176095 1.584067,4.000217 3.888309,1.672701 9.868697,2.321296 11.103113,1.20417 z m -40.668479,-3.06572 c 4.135095,-2.112936 1.269719,-11.875162 -3.522814,-12.002109 -0.95282,-0.02527 -2.139197,-0.288067 -3.158181,-0.699653 l -1.632076,-0.659221 -0.630609,0.95291 c -3.738191,5.648794 3.23604,15.324534 8.94368,12.408073 z m 27.127262,-2.596003 c 0.113019,-1.173395 0.208318,-2.248454 0.211774,-2.389035 0.01266,-0.5148 -0.964214,-0.422977 -1.571717,0.147741 -0.867362,0.814847 -0.851683,2.374627 0.03701,3.682462 0.8821,1.298129 1.079825,1.082738 1.322926,-1.441168 z m 28.409873,0.476436 c 5.20539,-2.573358 11.44027,-8.908465 10.87918,-11.054076 -0.88697,-3.39179 -7.23703,-1.874156 -12.0066,2.869515 -6.50511,6.469782 -5.797337,11.607899 1.12742,8.184561 z m -79.433412,0.519022 c 5.413757,-1.441168 13.05157,-7.524203 13.934155,-11.097671 l 0.176013,-0.712651 -3.461793,-0.02498 C 33.075996,56.955411 30.8768,56.804367 30.09288,56.63356 c -2.190242,-0.477249 -6.260473,1.67993 -9.40173,4.982824 -4.596219,4.832723 -2.566506,8.840364 3.640458,7.188045 z m 70.406649,-0.256627 c 1.407504,-0.588093 1.796524,-1.42199 1.616863,-3.465875 -0.959248,-10.912986 -8.090494,-15.420442 -8.080768,-5.107626 0.0059,6.33923 2.833971,10.090186 6.463905,8.573501 z m -31.31687,-7.271641 c 8.827265,-2.62142 2.027949,-9.666797 -9.463029,-9.805498 l -3.522426,-0.04251 -1.554883,0.849755 c -2.565459,1.402029 -2.59494,1.436212 -2.245301,2.603202 0.165933,0.553842 0.301696,1.246884 0.301696,1.540103 0,3.267252 10.960231,6.495326 16.483943,4.854956 z M 44.878432,57.020566 c -1.002231,-1.872686 -3.091918,-2.921652 -3.715925,-1.865301 -0.649055,1.09877 -0.581726,1.231614 0.915929,1.807219 1.850873,0.711368 3.164202,0.738606 2.799996,0.05808 z m -8.306873,-1.045587 c 0,-0.414358 -1.096194,-0.64449 -2.906575,-0.610219 -1.913469,0.03624 -2.696906,0.295599 -1.870446,0.61924 0.726283,0.284414 4.777021,0.276764 4.777021,-0.0088 z m 9.588444,0.0143 c 0,-0.331378 -0.76199,-0.910999 -0.950205,-0.722788 -0.188217,0.188212 0.391404,0.950208 0.722789,0.950208 0.12508,0 0.227416,-0.102334 0.227416,-0.22742 z m -7.974778,-1.917868 c -0.105832,-1.276189 -0.05516,-1.425311 0.75612,-2.225505 l 0.869553,-0.857669 -1.166163,-1.042403 C 34.138219,45.917576 26.8615,42.486167 22.83676,42.491422 c -7.533178,0.0099 -4.731898,8.67727 3.898851,12.063428 l 1.801522,0.706803 2.434226,-0.458198 c 2.593723,-0.488219 4.792039,-0.401175 6.248067,0.2474 0.427594,0.190464 0.845344,0.355777 0.928336,0.367354 0.08299,0.01156 0.09985,-0.59448 0.03746,-1.346798 z m 2.407967,0.218359 c 0.845491,-1.108496 0.551167,-2.045001 -0.600594,-1.911022 -0.880819,0.102461 -1.322249,1.175668 -0.881478,2.143055 0.398121,0.87378 0.671241,0.831017 1.482072,-0.232033 z m 3.493634,-0.146252 c 0,-0.14253 -0.116616,-0.259144 -0.259147,-0.259144 -0.142531,0 -0.259147,0.116614 -0.259147,0.259144 0,0.14253 0.116616,0.259154 0.259147,0.259154 0.142531,0 0.259147,-0.116624 0.259147,-0.259154 z m 2.015515,-1.180849 c 0.771156,-0.540139 0.725515,-0.797628 -0.173245,-0.977377 -0.412061,-0.08237 -1.077257,-0.482704 -1.478214,-0.88955 l -0.72901,-0.739703 -0.983685,0.64404 c -0.541027,0.354219 -0.983685,0.731613 -0.983685,0.838638 0,0.43378 0.857075,1.009317 1.508607,1.013039 0.381779,0.002 0.869068,0.117015 1.082864,0.255177 0.558866,0.361164 1.097982,0.316883 1.756368,-0.144264 z m 3.293758,-2.65812 C 53.658766,47.350184 58.294092,36.369362 56.311888,33.921443 53.789541,30.806478 43.151939,45.772 44.834153,50.068912 c 0.551456,1.408592 2.708783,1.520024 4.561946,0.235637 z m 37.805222,0.630328 c 4.401136,-1.838905 6.498852,-14.379472 3.367666,-20.132495 -0.861743,-1.583313 -0.942509,-1.567396 -2.720619,0.536191 -0.783103,0.92645 -2.232753,2.363435 -3.221434,3.193296 -6.612218,5.550029 -5.958886,16.523872 0.996546,16.738755 0.396541,0.01224 1.106567,-0.138828 1.577841,-0.335747 z M 42.385556,50.106533 c 3.257254,-3.257252 -1.455132,-19.109184 -5.93026,-19.948723 -3.706274,-0.695302 -3.85093,6.092931 -0.288265,13.527326 2.64031,5.509672 4.849249,7.790673 6.218525,6.421397 z m 67.344104,-8.419515 c 2.28316,-0.634017 3.58302,-3.34305 2.66189,-5.547642 -0.32747,-0.783753 -2.5757,-2.986774 -3.04806,-2.986774 -0.12903,0 -1.43496,-0.8127 -2.90208,-1.806001 -5.76018,-3.899874 -7.159369,-4.304763 -11.93547,-3.453811 -3.283501,0.585016 -3.288467,0.591124 -2.26291,2.782695 3.586074,7.663264 11.52999,12.665638 17.48663,11.011533 z M 74.630059,38.064127 c 1.791576,-0.290707 4.280446,-1.078771 5.773637,-1.828136 0.712386,-0.357514 1.201085,-0.943125 1.99647,-2.392351 0.579249,-1.055427 1.640869,-2.561971 2.359141,-3.347877 1.416604,-1.549996 1.414802,-1.567613 -0.245529,-2.395136 -0.498855,-0.248636 -1.761117,-1.153054 -2.805018,-2.009817 -2.455419,-2.015233 -4.870067,-1.756045 -10.895925,1.169568 -9.559904,4.641427 -6.775319,12.522536 3.817224,10.803749 z m 11.062932,-5.764939 c 1.612377,-1.573217 2.028204,-2.266655 1.347474,-2.247071 -0.472753,0.01361 -1.579976,0.989621 -2.635279,2.323005 -1.731234,2.187423 -0.986907,2.143534 1.287805,-0.07594 z m 3.109737,-4.350626 c 0.0952,-0.154113 -0.140327,-0.607431 -0.523499,-1.007372 -0.383162,-0.399943 -0.851292,-1.177625 -1.040287,-1.728185 L 86.89533,24.211987 84.149676,24.13843 c -3.012996,-0.08072 -3.137514,-0.0056 -1.903431,1.147761 2.303205,2.152607 5.955049,3.635501 6.556483,2.662368 z m 6.926217,-1.242852 c 0.331496,-0.331501 -2.133916,-0.833439 -2.673987,-0.544403 -1.431932,0.766347 -1.193856,1.119327 0.640171,0.949162 0.987612,-0.09163 1.902834,-0.273774 2.033816,-0.404759 z m -6.19241,-1.088182 c -0.804387,-1.373195 -1.928633,-1.77258 -1.539633,-0.546948 0.27459,0.865148 1.440796,1.965996 1.752497,1.654288 0.193648,-0.193647 0.130777,-0.520689 -0.212864,-1.10734 z m 2.322598,0.05868 C 92.433279,24.693132 92.3002,23.926139 91.36204,22.811194 l -0.667164,-0.792877 -1.017369,0.519023 c -1.230742,0.627877 -1.22654,0.575741 -0.134312,1.667974 0.485682,0.485683 0.962773,1.245979 1.0602,1.689545 0.212228,0.966291 0.60348,0.898166 1.255738,-0.218651 z M 100.48359,25.19831 C 109.02065,21.624628 113.9078,14.555033 111.28411,9.5746031 108.1811,3.6842808 98.945941,6.6088426 92.154086,15.632642 c -2.028341,2.694899 -2.052661,4.145443 -0.111257,6.635746 0.388902,0.498858 0.844221,1.340502 1.011825,1.870318 0.26172,0.827378 0.439403,0.986542 1.259225,1.127991 0.524978,0.09058 1.537596,0.317039 2.250246,0.503246 0.712651,0.186207 1.371539,0.349154 1.464195,0.362105 0.09266,0.01295 1.19752,-0.40723 2.45527,-0.933738 z m -15.7878,-2.31821 2.334802,-0.165728 0.67072,-1.461231 c 0.368902,-0.803676 0.963724,-1.892995 1.321842,-2.420709 L 89.674275,17.872953 89.2979,15.729956 C 87.888584,7.7056927 84.165416,2.702779 79.603076,2.702779 c -5.969606,0 -7.000632,8.537255 -2.029985,16.808976 2.269848,3.777278 2.151314,3.721225 7.122699,3.368345 z m 4.6603,-1.434326 c 0.619416,-0.581912 0.787157,-1.36332 0.350576,-1.633143 -0.207096,-0.127988 -1.305681,1.602513 -1.305681,2.056713 0,0.288109 0.374201,0.12216 0.955105,-0.42357 z"
       id="path7" /></g></svg>
