<?xml version="1.0" encoding="UTF-8" standalone="no"?>
<!-- Created with Inkscape (http://www.inkscape.org/) -->

<svg
   width="86.782997mm"
   height="68.367996mm"
   viewBox="0 0 86.782997 68.367996"
   version="1.1"
   id="svg1"
   xmlns="http://www.w3.org/2000/svg"
   xmlns:svg="http://www.w3.org/2000/svg">
  <defs
     id="defs1" />
  <g
     id="layer1">
    <path
       style="fill:#000000"
       d="m 38.761289,68.19968 c -8.60428,-0.76061 -17.41487,-2.89884 -22.44939,-5.4482 -3.54387,-1.79453 -4.16996,-2.31799 -9.1683204,-7.66538 -1.76604,-1.88936 -3.52535,-2.9513 -5.97467,-3.6064 -0.64299003,-0.17197 -1.16908003433,-0.46885 -1.16908003433,-0.65972 0,-0.43899 0.83178000433,-0.27402 3.30729003433,0.65594 1.73651,0.65234 2.10802,0.95387 5.95313,4.83186 4.0363604,4.07088 4.1490304,4.15969 7.1437504,5.63095 4.99856,2.45573 10.34548,3.94675 17.65943,4.92444 5.10195,0.68201 7.10946,0.89727 6.94682,0.7449 -0.0728,-0.0682 -2.21589,-0.98796 -4.7625,-2.044 -6.14349,-2.5476 -8.09823,-3.36319 -9.525,-3.97419 -0.65484,-0.28043 -2.32172,-0.97013 -3.70417,-1.53266 l -2.51354,-1.02279 -0.13229,-10.3751 -0.13229,-10.37509 -2.91042,-1.01661 c -3.90106,-1.36265 -4.36571,-1.55353 -4.36514,-1.79316 2.7e-4,-0.11274 1.40753,-1.87226 3.12725,-3.91005 l 3.12675,-3.70506 5.40557,-1.36688 c 5.73617,-1.45048 15.31918,-3.90066 16.98858,-4.34363 l 0.99968,-0.26526 -0.1683,-1.2687 c -0.19582,-1.4762 0.30496,-2.7191 1.47579,-3.66279 0.769,-0.61981 1.10921,-1.91159 1.45012,-5.50599 0.32851,-3.4637505 -0.74423,-7.1956505 -2.49087,-8.6653605 -1.61595,-1.35973 -3.55108,-1.89298 -6.8963,-1.90038 -2.7613,-0.006 -3.15188,0.0545 -4.2231,0.65474 -2.15162,1.20571 -2.95413,3.24248 -1.90467,4.83404 0.4436,0.67273 2.06244,2.04647 2.40886,2.04413 0.0809,-5.4e-4 0.36507,-0.53122 0.63156,-1.17927 0.94051,-2.28711 3.53255,-3.85542 5.70002,-3.4488 1.39895,0.26244 2.25317,0.78469 3.31773,2.02839 1.2277,1.4343 1.5613,2.72345 1.42613,5.5110905 -0.0968,1.99559 -0.22635,2.47159 -1.15014,4.22504 -0.57259,1.08685 -1.74068,2.72396 -2.59574,3.63802 -1.80744,1.93217 -2.09424,1.99008 -5.64261,1.13936 -5.53417,-1.32681 -8.81596,-4.18555 -8.81596,-7.6795 0,-2.37225 1.9727,-5.0270905 3.73542,-5.0270905 0.44363,0 0.76063,-0.0893 0.70445,-0.19843 -0.7783,-1.51198 -1.02283,-2.37659 -0.88298,-3.12206 0.58955,-3.14255 4.66596,-4.90536 9.50305,-4.10953 3.56787,0.58702 5.66602,1.93025 6.92284,4.43202 0.7413,1.47559 0.77533,1.6984 0.78104,5.11467 0.003,1.9645305 -0.0789,4.1216805 -0.18261,4.7936705 l -0.18858,1.22179 2.08677,-0.0134 c 1.82036,-0.0117 2.22029,0.0749 3.13256,0.67863 1.10049,0.72827 2.00927,1.97152 2.30375,3.15163 l 0.17572,0.70416 0.94016,-0.63801 c 2.27844,-1.54619 5.63456,0.0497 6.54387,3.11166 0.80828,2.72177 -0.60073,5.37709 -3.82546,7.20918 -0.65485,0.37204 -1.12181,0.67787 -1.0377,0.67963 0.0841,0.002 1.85245,-0.60159 3.92964,-1.34075 2.0772,-0.73917 4.1515,-1.39898 4.60957,-1.46625 0.73761,-0.10832 1.30146,0.24073 4.92991,3.05175 2.25338,1.74574 4.13245,3.28025 4.17571,3.41004 0.0433,0.12979 -1.50275,0.9459 -3.43559,1.81358 l -3.51425,1.5776 v 9.35999 9.36 l -1.5875,0.83309 c -0.87312,0.4582 -3.96875,2.06669 -6.87917,3.57444 -10.96464,5.68024 -12.69385,6.59575 -12.46819,6.60119 0.1275,0.003 1.31812,-0.1674 2.64584,-0.37883 1.32771,-0.21142 4.43808,-0.69659 6.91194,-1.07814 10.50344,-1.61999 30.62491,-5.37009 31.41927,-5.8557 0.10914,-0.0667 0.19844,0.062 0.19844,0.28614 0,0.22838 -0.31979,0.47947 -0.72761,0.57132 -0.40018,0.0901 -1.14432,0.26469 -1.65364,0.38792 -0.96869,0.23437 -8.20101,1.68664 -12.96459,2.60332 -1.52797,0.29404 -6.40953,1.12489 -10.84791,1.84634 -16.64659,2.70587 -17.44557,2.79396 -21.82813,2.40654 z m 4.09263,-16.1953 c -0.007,-12.16932 -0.0762,-15.3238 -0.33073,-14.99286 -0.17727,0.23052 -1.55595,2.04022 -3.06373,4.02155 l -2.74141,3.60242 -1.62421,-0.61762 c -2.08529,-0.79295 -6.27657,-2.41367 -10.5539,-4.08109 l -3.37344,-1.31505 v 9.89009 c 0,9.49788 0.0202,9.90092 0.51037,10.16323 0.2807,0.15023 4.12047,1.76597 8.53281,3.59054 8.405,3.47559 10.50057,4.34782 11.59432,4.82585 0.3638,0.15901 0.75075,0.29716 0.85989,0.30701 0.10915,0.01 0.19466,-6.91748 0.19003,-15.39407 z m 14.16362,8.53546 c 1.30969,-0.6839 3.8518,-2.00606 5.64914,-2.93815 l 3.26788,-1.69471 -0.18908,-8.86354 c -0.10399,-4.87495 -0.21857,-8.89664 -0.25463,-8.93709 -0.0361,-0.0404 -0.40948,0.0617 -0.82984,0.2271 -1.29892,0.51093 -4.79419,1.79822 -9.62784,3.54587 -2.54662,0.92075 -4.95719,1.80139 -5.35682,1.95697 -0.71626,0.27885 -0.76429,0.22962 -3.37344,-3.45815 l -2.64683,-3.74103 v 15.40876 15.40876 l 5.49011,-2.83568 c 3.01955,-1.55962 6.56166,-3.39522 7.87135,-4.07911 z M 39.570629,39.71828 c 1.97279,-2.57502 2.89057,-3.97477 2.68228,-4.09086 -0.28116,-0.15671 -6.87899,-2.18891 -18.44058,-5.67989 -2.11005,-0.63712 -3.97515,-1.15883 -4.14467,-1.15937 -0.32729,-0.001 -5.7355,6.34664 -5.5583,6.52383 0.0573,0.0573 1.75792,0.6831 3.77912,1.39061 3.3668,1.17854 6.55263,2.39512 15.31656,5.84896 1.74625,0.68819 3.21813,1.21298 3.27084,1.16618 0.0527,-0.0468 1.44535,-1.84654 3.09475,-3.99946 z m 18.03489,0.44622 c 7.04538,-2.53862 15.04753,-5.75763 14.83061,-5.96588 -0.04,-0.0384 -1.79244,-1.37736 -3.89427,-2.97542 l -3.82151,-2.90557 -1.07328,0.38969 c -0.5903,0.21433 -3.395,1.203 -6.23265,2.19703 -12.28409,4.30312 -13.35984,4.70984 -13.28654,5.02336 0.11664,0.4989 4.92423,7.12815 5.17662,7.13812 0.12345,0.005 3.85891,-1.30072 8.30102,-2.90133 z m -9.73205,-6.68095 4.64615,-1.65365 -1.76179,-0.0777 c -1.6163,-0.0713 -1.85666,-0.16143 -2.91042,-1.09171 -1.18698,-1.04789 -3.16164,-4.14047 -4.19485,-6.56967 -0.32494,-0.76399 -0.76292,-1.38907 -0.97328,-1.38907 -0.21036,0 -2.18999,0.46877 -4.39919,1.0417 -2.20919,0.57294 -6.87422,1.7701 -10.36672,2.66037 -3.4925,0.89027 -6.44777,1.71587 -6.56728,1.83465 -0.11951,0.11879 0.76141,0.48006 1.95759,0.80282 1.19619,0.32277 2.42506,0.6858 2.73083,0.80675 0.30577,0.12095 3.59204,1.134 7.30282,2.25122 3.71078,1.11723 7.40172,2.2484 8.20209,2.51373 0.80036,0.26532 1.50756,0.4918 1.57155,0.50329 0.064,0.0115 2.20711,-0.72325 4.7625,-1.63275 z m 5.02612,-2.74208 c 3.5798,-0.88011 6.54689,-3.1145 7.16016,-5.39202 0.74076,-2.75097 -1.21738,-5.55809 -3.87711,-5.55809 -0.85949,0 -1.38133,0.20791 -2.31983,0.92429 -0.66599,0.50836 -1.21938,0.89532 -1.22976,0.8599 -0.0104,-0.0354 -0.0748,-0.52631 -0.14322,-1.09086 -0.31174,-2.57309 -2.09794,-4.13292 -4.73271,-4.13292 -1.98806,0 -2.43967,0.31605 -2.91504,2.04 -0.23233,0.84254 -0.61429,1.98279 -0.84882,2.53389 -0.40749,0.95756 -0.39903,1.06907 0.19077,2.51354 1.44194,3.53149 3.25516,6.21006 4.89601,7.23261 0.97246,0.60602 1.59196,0.61732 3.81955,0.0697 z m -8.85694,-12.20688 c 0.10155,-0.47295 0.11871,-0.8599 0.0381,-0.8599 -0.30222,0 -0.95345,1.5893 -0.94326,2.30197 l 0.0106,0.74074 0.35495,-0.66146 c 0.19522,-0.3638 0.43804,-1.04841 0.5396,-1.52135 z m -5.26474,0.52916 c 1.30004,-1.33232 2.38943,-2.94275 3.22731,-4.77087 0.55942,-1.22055 0.69552,-1.9221 0.70416,-3.62965 0.009,-1.8254405 -0.0896,-2.2986805 -0.71838,-3.4395805 -2.46892,-4.47977 -8.07161,-3.19454 -9.06084,2.07852 l -0.18677,0.9955705 -0.56293,-0.5139105 c -0.8626,-0.7875 -2.16846,-1.36956 -3.07263,-1.36956 -2.5524,0 -4.10144,3.7688805 -2.68787,6.5396905 1.01853,1.99648 3.73823,3.70706 7.31425,4.60037 3.03854,0.75904 3.90678,0.67459 5.0437,-0.49058 z"
       id="path4" />
  </g>
</svg>
