<?xml version="1.0" encoding="UTF-8" standalone="no"?>
<!-- Created with Inkscape (http://www.inkscape.org/) -->

<svg
   width="30mm"
   height="26mm"
   viewBox="0 0 30 26"
   version="1.1"
   id="svg1"
   xmlns="http://www.w3.org/2000/svg"
   xmlns:svg="http://www.w3.org/2000/svg">
  <defs
     id="defs1" />
  <g
     id="layer1">
    <g
       id="g3"
       transform="matrix(0.44887748,0,0,0.44887748,150.35963,-116.58038)">
      <g
         id="g9"
         transform="translate(-658.957,157.58345)">
        <g
           id="g1"
           transform="translate(-129.54315,10.94004)">
          <path
             id="path22-8"
             d="m 3687.66,3752.86 c -5.19,-36.11 -23.32,-67.02 -34.75,-110.47 -17.89,20.84 -86.05,94.76 -74.44,136.47 9.76,-4.02 42.23,-40.42 48.73,-48.28 2.55,-3.11 8.66,-3.94 12.61,-0.16 1.04,0.7 1.94,1.58 2.55,2.74 5.08,9.6 30.32,52.32 41.23,52.32 5.33,-5.43 4.91,-25.09 4.07,-32.62 z m -54.96,-1.37 c -11.15,12.09 -23.79,25.92 -32.91,33.8 -23.57,20.25 -39.15,12.43 -39.56,-14.21 -0.08,-5.61 0.64,-11.26 1.65,-16.8 8.17,-45.94 56.42,-96.89 85.11,-130.71 2.02,-2.4 5.4,-2.82 8.32,-1.94 12.54,-4.54 7.65,5.95 33.06,72.55 40.88,107.95 -1.77,149.96 -55.67,57.31"
             
             transform="matrix(0.13333333,0,0,-0.13333333,0,612.86667)" />
          <path
             id="path23-4"
             d="m 3664.56,3768.15 c 0.06,0.08 0.1,0.15 0.16,0.21 -0.1,-0.11 -0.16,-0.21 -0.16,-0.21"
             
             transform="matrix(0.13333333,0,0,-0.13333333,0,612.86667)" />
          <path
             id="path24-5"
             d="m 3797.49,3532.8 c -1.24,0.64 -2.55,1.06 -4.09,1.19 -178.21,18.62 -324.91,-26.67 -339.69,56.74 0.49,1.06 0.8,2.21 0.79,3.44 -0.39,48.34 -20.39,142.82 -10.66,215.07 -0.03,-0.33 -0.06,-0.68 -0.11,-1.02 8.14,56.33 29.35,70.98 66.84,76.75 9.21,1.22 234.14,4.98 269.95,0.25 9.09,-1.37 18.09,-3.38 26.62,-6.81 33.17,-15.18 27.57,-51.48 30.54,-89.85 8.45,-111.58 8.24,-203.35 8.24,-203.35 -3.05,-5.39 0.56,-15.94 7.98,-45.69 2.76,-11.24 5.43,-22.49 7.35,-33.93 -11.45,4.36 -63.5,27.13 -63.76,27.21 z m -276.48,8.04 c 0.37,-0.04 0.74,-0.09 1.12,-0.14 -0.48,0.06 -0.34,0.04 -1.12,0.14 z m 342.14,38.33 c -0.29,2.39 -0.44,3.88 -1.64,6.04 6.04,22.88 -9.69,245.04 -10.99,254.25 -1.47,10.39 -4.38,20.61 -9.45,29.82 -5.08,9.17 -12.99,16.51 -22.13,21.51 -9.53,5.17 -20.24,8.02 -30.82,9.96 -48.91,8.94 -254,3.08 -263.23,2.41 -142.33,-10.4 -93.25,-162.39 -87.57,-301.34 -3.33,-5.34 1.53,-23.31 3.86,-29.16 31.82,-79.74 165.37,-38.75 350.73,-56 120.71,-51.4 86.78,-46.52 71.24,62.51"
             
             transform="matrix(0.13333333,0,0,-0.13333333,0,612.86667)" />
          <path
             id="path25-0"
             d="m 3834.85,3835.12 c 0.01,-0.1 0.02,-0.2 0.03,-0.29 -0.01,0.15 -0.03,0.29 -0.03,0.29"
             
             transform="matrix(0.13333333,0,0,-0.13333333,0,612.86667)" />
          <path
             id="path26-3"
             d="m 3443.58,3807.16 c 0.05,0.35 0.1,0.7 0.15,1.06 -0.12,-0.78 -0.15,-1.06 -0.15,-1.06"
             
             transform="matrix(0.13333333,0,0,-0.13333333,0,612.86667)" />
          <path
             id="path27-6"
             d="m 3453.16,3845.13 c 0.04,0.09 0.08,0.18 0.12,0.27 -0.08,-0.16 -0.12,-0.28 -0.12,-0.27"
             
             transform="matrix(0.13333333,0,0,-0.13333333,0,612.86667)" />
        </g>
      </g>
    </g>
  </g>
</svg>
