<?xml version="1.0" encoding="UTF-8" standalone="no"?>
<!-- Created with Inkscape (http://www.inkscape.org/) -->

<svg
   width="45mm"
   height="20mm"
   viewBox="0 0 45 20"
   version="1.1"
   id="svg1"
   xmlns="http://www.w3.org/2000/svg"
   xmlns:svg="http://www.w3.org/2000/svg">
  <defs
     id="defs1" />
  <g
     id="g2"
     transform="translate(-74.360787,-127.58482)">
    <path
       d="m 84.251176,146.19122 c -3.81266,-0.33935 -9.747683,-1.79547 -9.747683,-2.39153 0,-0.37395 2.144623,-1.28961 4.353593,-1.85881 l 1.84004,-0.47413 1.11482,0.91351 c 1.40565,1.15182 4.33464,2.56411 6.57614,3.17085 0.9492,0.25694 1.72583,0.56856 1.72583,0.69248 0,0.26208 -2.5898,0.23894 -5.86274,-0.0524 z m 19.551234,0.12362 c -0.11118,-0.11336 1.00593,-0.60136 2.48246,-1.08445 2.85148,-0.93294 3.91196,-1.47551 5.73522,-2.9343 l 1.13639,-0.90921 2.3032,0.71728 c 2.47717,0.77147 3.7584,1.34307 3.7584,1.67677 0,0.34974 -3.1531,1.3429 -5.95312,1.87512 -2.9032,0.55183 -9.1415,0.98614 -9.46255,0.65879 z m -13.291624,-9.7973 c -0.58208,-0.49834 -1.79911,-1.27581 -2.70451,-1.72771 -0.9054,-0.4519 -1.71268,-1.03118 -1.79397,-1.2873 -0.30063,-0.94719 0.80915,-4.76072 1.38543,-4.76072 0.60201,0 2.81568,1.22999 4.24015,2.35598 l 1.36036,1.0753 -0.52451,1.18575 c -0.28848,0.65217 -0.61004,1.83354 -0.71457,2.62527 l -0.19005,1.43951 z m 11.934424,0.76321 c -0.0883,-0.0883 -0.16046,-0.56109 -0.16046,-1.05075 0,-0.48966 -0.24324,-1.61232 -0.54052,-2.4948 -0.42027,-1.24755 -0.47139,-1.68781 -0.22979,-1.97892 0.4754,-0.57282 3.98614,-2.69084 4.78712,-2.88806 0.68199,-0.16791 0.73075,-0.10595 1.25677,1.59711 0.76776,2.48573 0.73482,3.511 -0.1197,3.72547 -0.74976,0.18818 -3.40019,1.86763 -4.26582,2.70305 -0.31193,0.30105 -0.63935,0.47515 -0.7276,0.3869 z"
       id="path1"
       style="fill:#1a1a1a" />
    <g
       id="g1"
       style="fill:#ff7f2a"
       transform="translate(-25.391724,30.681666)">
      <path
         d="m 115.63793,114.34058 c -4.64439,-1.01298 -7.91616,-3.28555 -9.63096,-6.68967 -0.80378,-1.5956 -1.46203,-4.29215 -1.12904,-4.62514 0.42512,-0.42512 5.6405,0.74218 7.67027,1.71675 1.95187,0.93717 4.47516,3.26561 5.30545,4.89575 0.61917,1.21565 1.35615,3.64871 1.35615,4.47719 0,0.53621 -0.1249,0.61079 -0.99219,0.5924 -0.5457,-0.0116 -1.70656,-0.17684 -2.57968,-0.36728 z"
         id="path1-0"
         style="fill:#ff7f2a" />
      <path
         d="m 125.69417,113.64152 c 0.72809,-4.37264 3.65968,-7.87347 7.93167,-9.47183 1.69034,-0.63243 6.15954,-1.49716 6.41541,-1.24129 0.0969,0.0969 0.0342,0.85692 -0.13939,1.68888 -1.1606,5.56253 -5.89641,9.34778 -12.51063,9.99953 l -1.89047,0.18628 z"
         id="path1-2"
         style="fill:#ff7f2a" />
      <path
         d="m 121.12749,113.28542 c -0.57074,-0.64839 -1.44406,-1.92831 -1.94072,-2.84427 -0.83737,-1.54433 -0.90301,-1.83846 -0.90301,-4.04663 0,-2.03477 0.10216,-2.59298 0.7021,-3.83646 0.85181,-1.76549 2.99559,-4.497912 3.52895,-4.497912 0.5168,0 2.3611,2.365602 3.3929,4.351892 0.72753,1.40056 0.83245,1.8665 0.83724,3.7179 0.005,1.82706 -0.1067,2.35197 -0.81443,3.83646 -0.93607,1.96345 -2.85025,4.49791 -3.39709,4.49791 -0.20253,0 -0.83521,-0.5305 -1.40594,-1.17889 z"
         id="path1-5"
         style="fill:#ff7f2a" />
    </g>
  </g>
</svg>
