<svg xmlns="http://www.w3.org/2000/svg" viewBox="0 0 367 240" width="367" height="240" preserveAspectRatio="xMidYMid meet" style="width: 100%; height: 100%; transform: translate3d(0px, 0px, 0px);"><defs><clipPath id="__lottie_element_204"><rect width="367" height="240" x="0" y="0"></rect></clipPath></defs><g clip-path="url(#__lottie_element_204)"><g transform="matrix(0.9945219159126282,-0.10452846437692642,0.10452846437692642,0.9945219159126282,157.14398193359375,18.395401000976562)" opacity="1" style="display: block;"><g opacity="1" transform="matrix(1,0,0,1,57.11199951171875,162.65699768066406)"><path fill="rgb(198,215,207)" fill-opacity="1" d=" M15.170000076293945,0.24199999868869781 C15.170000076293945,0.24199999868869781 10.855999946594238,16.20199966430664 -4.1539998054504395,9.20300006866455 C-4.1539998054504395,9.20300006866455 -15.170000076293945,9.138999938964844 -10.395000457763672,3.8570001125335693 C-10.395000457763672,3.8570001125335693 4.492000102996826,-16.202999114990234 15.170000076293945,0.24199999868869781z"></path></g><g opacity="1" transform="matrix(1,0,0,1,50.66999816894531,141.12899780273438)"><path fill="rgb(199,195,143)" fill-opacity="1" d=" M14.720999717712402,6.607999801635742 C14.720999717712402,6.607999801635742 -0.7039999961853027,5.2129998207092285 -0.7039999961853027,5.2129998207092285 C-0.7039999961853027,5.2129998207092285 -7.973999977111816,8.682000160217285 -15.663000106811523,-0.7799999713897705 C-15.663000106811523,-0.7799999713897705 -15.829000473022461,-8.680999755859375 0.5559999942779541,-6.715000152587891 C0.5559999942779541,-6.715000152587891 15.829000473022461,-8.336999893188477 14.720999717712402,6.607999801635742z"></path></g><g opacity="1" transform="matrix(1,0,0,1,46.70800018310547,110.40899658203125)"><path fill="rgb(207,214,187)" fill-opacity="1" d=" M14.0600004196167,-6.7210001945495605 C14.0600004196167,-6.7210001945495605 8.657999992370605,-3.114000082015991 7.670000076293945,3.450000047683716 C7.670000076293945,3.450000047683716 4.247000217437744,12.46399974822998 -8.092000007629395,1.5299999713897705 C-8.092000007629395,1.5299999713897705 -14.0600004196167,-9.182000160217285 4.561999797821045,-12.059000015258789 C4.561999797821045,-12.059000015258789 12.607000350952148,-12.46399974822998 14.0600004196167,-6.7210001945495605z"></path></g><g opacity="1" transform="matrix(1,0,0,1,31.420000076293945,78.24299621582031)"><path fill="rgb(199,195,143)" fill-opacity="1" d=" M14.845999717712402,11.595999717712402 C14.845999717712402,11.595999717712402 -8.994000434875488,15.58899974822998 -14.845999717712402,-5.132999897003174 C-14.845999717712402,-5.132999897003174 7.9710001945495605,-15.588000297546387 14.845999717712402,11.595999717712402z"></path></g><g opacity="1" transform="matrix(1,0,0,1,19.822999954223633,52.26100158691406)"><path fill="rgb(198,215,207)" fill-opacity="1" d=" M13.279999732971191,5.670000076293945 C13.279999732971191,5.670000076293945 -2.26200008392334,14.28600025177002 -13.279999732971191,-4.314000129699707 C-13.279999732971191,-4.314000129699707 7.622000217437744,-14.28600025177002 13.279999732971191,5.670000076293945z"></path></g><g opacity="1" transform="matrix(1,0,0,1,14.20300006866455,30.141000747680664)"><path fill="rgb(199,195,143)" fill-opacity="1" d=" M13.486000061035156,9.604999542236328 C13.486000061035156,9.604999542236328 -8.581999778747559,13.354000091552734 -14.20300006866455,-10.480999946594238 C-14.20300006866455,-10.480999946594238 -14.116000175476074,-13.354999542236328 -10.951000213623047,-12.119000434875488 C-10.951000213623047,-12.119000434875488 14.20300006866455,-8.5 13.486000061035156,9.604999542236328z"></path></g><g opacity="1" transform="matrix(1,0,0,1,43.85200119018555,30.145999908447266)"><path fill="rgb(121,162,143)" fill-opacity="1" d=" M5.638000011444092,12.845000267028809 C5.638000011444092,12.845000267028809 -12.439000129699707,4.992000102996826 -4.730000019073486,-12.845000267028809 C-4.730000019073486,-12.845000267028809 12.439000129699707,-4.559000015258789 5.638000011444092,12.845000267028809z"></path></g><g opacity="1" transform="matrix(1,0,0,1,77.18499755859375,51.03799819946289)"><path fill="rgb(121,162,143)" fill-opacity="1" d=" M1.4470000267028809,17.783000946044922 C1.4470000267028809,17.783000946044922 -13.968000411987305,2.739000082015991 -8.121999740600586,-13.609000205993652 C-8.121999740600586,-13.609000205993652 -5.308000087738037,-17.783000946044922 -0.9309999942779541,-10.946000099182129 C-0.9309999942779541,-10.946000099182129 13.968000411987305,7.690999984741211 1.4470000267028809,17.783000946044922z"></path></g><g opacity="1" transform="matrix(1,0,0,1,93.96299743652344,70.83799743652344)"><path fill="rgb(198,215,207)" fill-opacity="1" d=" M-4.140999794006348,9.206999778747559 C-4.140999794006348,9.206999778747559 -8.968999862670898,-5.052000045776367 4.23799991607666,-9.206999778747559 C4.23799991607666,-9.206999778747559 8.968999862670898,4.669000148773193 -4.140999794006348,9.206999778747559z"></path></g><g opacity="1" transform="matrix(1,0,0,1,118.33499908447266,89.93699645996094)"><path fill="rgb(198,215,207)" fill-opacity="1" d=" M5.814000129699707,20.329999923706055 C5.814000129699707,20.329999923706055 -15.529999732971191,9.229000091552734 -10.789999961853027,-9.079000473022461 C-10.789999961853027,-9.079000473022461 -12.210000038146973,-20.329999923706055 -3.2300000190734863,-11.39900016784668 C-3.2300000190734863,-11.39900016784668 15.529999732971191,0.7630000114440918 5.814000129699707,20.329999923706055z"></path></g><g opacity="1" transform="matrix(1,0,0,1,140.04400634765625,106.55699920654297)"><path fill="rgb(207,214,187)" fill-opacity="1" d=" M-6.339000225067139,13.3100004196167 C-6.339000225067139,13.3100004196167 -14.289999961853027,-4.435999870300293 7.9079999923706055,-13.3100004196167 C7.9079999923706055,-13.3100004196167 14.289999961853027,8.704000473022461 -6.339000225067139,13.3100004196167z"></path></g><g opacity="1" transform="matrix(1,0,0,1,156.2050018310547,169.427001953125)"><path fill="rgb(198,215,207)" fill-opacity="1" d=" M10.741999626159668,3.749000072479248 C10.741999626159668,3.749000072479248 -10.741999626159668,11.42300033569336 -8.876999855041504,-6.9730000495910645 C-8.876999855041504,-6.9730000495910645 7.107999801635742,-11.42300033569336 10.741999626159668,3.749000072479248z"></path></g><g opacity="1" transform="matrix(1,0,0,1,160.86900329589844,148.48500061035156)"><path fill="rgb(198,215,207)" fill-opacity="1" d=" M8.869000434875488,12.375 C8.869000434875488,12.375 -12.833999633789062,9.513999938964844 -12.463000297546387,-12.375 C-12.463000297546387,-12.375 12.833999633789062,-8.996000289916992 8.869000434875488,12.375z"></path></g><g opacity="1" transform="matrix(1,0,0,1,174.31399536132812,129.53599548339844)"><path fill="rgb(121,162,143)" fill-opacity="1" d=" M1.0429999828338623,19.7189998626709 C1.0429999828338623,19.7189998626709 -13.508000373840332,9.614999771118164 -10.807000160217285,1.6699999570846558 C-10.62600040435791,1.1399999856948853 -10.369000434875488,0.6200000047683716 -10.026000022888184,0.11400000005960464 C-10.026000022888184,0.11400000005960464 -6.110000133514404,-3.7290000915527344 -7.566999912261963,-11.100000381469727 C-7.566999912261963,-11.100000381469727 -8.932000160217285,-19.7189998626709 -2.3949999809265137,-11.593999862670898 C-2.3949999809265137,-11.593999862670898 15.265999794006348,1.8639999628067017 1.0429999828338623,19.7189998626709z"></path></g><g opacity="1" transform="matrix(1,0,0,1,105.25800323486328,121.16999816894531)"><path fill="rgb(128,155,150)" fill-opacity="1" d=" M80.03099822998047,86.6780014038086 C80.03099822998047,86.6780014038086 8.14799976348877,36.01300048828125 -19.7189998626709,38.58000183105469 C-19.7189998626709,38.58000183105469 -34.02899932861328,42.40399932861328 -34.02899932861328,42.40399932861328 C-34.02899932861328,42.40399932861328 -36.09400177001953,39.869998931884766 -36.09400177001953,39.869998931884766 C-36.09400177001953,39.869998931884766 -22.979999542236328,36.96099853515625 -22.979999542236328,36.96099853515625 C-22.979999542236328,36.96099853515625 -33.97700119018555,26.50200080871582 -43.612998962402344,23.033000946044922 C-43.612998962402344,23.033000946044922 -43.763999938964844,20.016000747680664 -43.763999938964844,20.016000747680664 C-43.763999938964844,20.016000747680664 -27.702999114990234,26.341999053955078 -24.04599952697754,32.749000549316406 C-24.04599952697754,32.749000549316406 -19.52899932861328,37.71799850463867 -14.168999671936035,36.36199951171875 C-14.168999671936035,36.36199951171875 14.489999771118164,43.37099838256836 28.98200035095215,53.9640007019043 C28.98200035095215,53.9640007019043 14.241999626159668,39.97200012207031 9.99899959564209,29.63800048828125 C9.99899959564209,29.63800048828125 -13.289999961853027,-9.281999588012695 -13.289999961853027,-9.281999588012695 C-13.289999961853027,-9.281999588012695 -31.440000534057617,-26.281999588012695 -46.59400177001953,-16.135000228881836 C-46.59400177001953,-16.135000228881836 -47.55699920654297,-18.336000442504883 -47.55699920654297,-18.336000442504883 C-47.55699920654297,-18.336000442504883 -34.82600021362305,-21.14900016784668 -34.82600021362305,-21.14900016784668 C-34.82600021362305,-21.14900016784668 -63.979000091552734,-33.32899856567383 -63.979000091552734,-33.32899856567383 C-63.979000091552734,-33.32899856567383 -65.61499786376953,-36.58100128173828 -65.61499786376953,-36.58100128173828 C-65.61499786376953,-36.58100128173828 -31.761999130249023,-21.92300033569336 -31.761999130249023,-21.92300033569336 C-31.761999130249023,-21.92300033569336 -14.784000396728516,-12.77400016784668 -14.784000396728516,-12.77400016784668 C-14.784000396728516,-12.77400016784668 -15.12399959564209,-14.928000450134277 -15.12399959564209,-14.928000450134277 C-15.12399959564209,-14.928000450134277 -46.35499954223633,-51.43299865722656 -46.35499954223633,-51.43299865722656 C-46.35499954223633,-51.43299865722656 -49.62099838256836,-54.680999755859375 -49.62099838256836,-54.680999755859375 C-49.62099838256836,-54.680999755859375 -76.18199920654297,-64.66500091552734 -76.18199920654297,-64.66500091552734 C-76.18199920654297,-64.66500091552734 -75.3239974975586,-66.10399627685547 -75.3239974975586,-66.10399627685547 C-75.3239974975586,-66.10399627685547 -54.85200119018555,-58.45000076293945 -54.85200119018555,-58.45000076293945 C-54.85200119018555,-58.45000076293945 -64.26599884033203,-68.29000091552734 -64.26599884033203,-68.29000091552734 C-64.26599884033203,-68.29000091552734 -68.88700103759766,-76.89800262451172 -82.31400299072266,-83.27899932861328 C-82.31400299072266,-83.27899932861328 -82.56300354003906,-86.6780014038086 -82.56300354003906,-86.6780014038086 C-82.56300354003906,-86.6780014038086 -67.12000274658203,-78.77100372314453 -62.1619987487793,-69.63700103759766 C-62.1619987487793,-69.63700103759766 -51.308998107910156,-58.93899917602539 -51.308998107910156,-58.93899917602539 C-51.308998107910156,-58.93899917602539 -58.46200180053711,-82.38600158691406 -58.46200180053711,-82.38600158691406 C-58.46200180053711,-82.38600158691406 -56.45399856567383,-84.11599731445312 -56.45399856567383,-84.11599731445312 C-56.45399856567383,-84.11599731445312 -47.946998596191406,-55.30799865722656 -47.946998596191406,-55.30799865722656 C-47.946998596191406,-55.30799865722656 -19.506999969482422,-23.393999099731445 -19.506999969482422,-23.393999099731445 C-19.506999969482422,-23.393999099731445 -27.79199981689453,-58.571998596191406 -27.79199981689453,-58.571998596191406 C-27.79199981689453,-58.571998596191406 -26.113000869750977,-57.57099914550781 -26.113000869750977,-57.57099914550781 C-26.113000869750977,-57.57099914550781 -20.20599937438965,-34.215999603271484 -20.20599937438965,-34.215999603271484 C-20.20599937438965,-34.215999603271484 -11.529000282287598,-48.2239990234375 -11.529000282287598,-48.2239990234375 C-11.529000282287598,-48.2239990234375 -10.470999717712402,-47.26900100708008 -10.470999717712402,-47.26900100708008 C-10.470999717712402,-47.26900100708008 -18.902000427246094,-29.861000061035156 -18.902000427246094,-29.861000061035156 C-18.902000427246094,-29.861000061035156 -10.175999641418457,-9.050999641418457 -10.175999641418457,-9.050999641418457 C-10.175999641418457,-9.050999641418457 11.866999626159668,29.777000427246094 11.866999626159668,29.777000427246094 C11.866999626159668,29.777000427246094 21.288999557495117,42.87300109863281 25.850000381469727,47.21900177001953 C25.850000381469727,47.21900177001953 19.514999389648438,24.58300018310547 20.39299964904785,12.75100040435791 C20.39299964904785,12.75100040435791 23.297000885009766,-11.20300006866455 14.892000198364258,-19.465999603271484 C14.892000198364258,-19.465999603271484 17.18899917602539,-20.047000885009766 17.18899917602539,-20.047000885009766 C17.18899917602539,-20.047000885009766 25.090999603271484,-3.305000066757202 22.389999389648438,7.764999866485596 C22.389999389648438,7.764999866485596 32.590999603271484,-9.88700008392334 32.590999603271484,-9.88700008392334 C32.590999603271484,-9.88700008392334 34.845001220703125,-8.218000411987305 34.845001220703125,-8.218000411987305 C34.845001220703125,-8.218000411987305 21.381000518798828,6.188000202178955 22.79599952697754,15.8100004196167 C22.79599952697754,15.8100004196167 21.516000747680664,38.13199996948242 29.781999588012695,48.262001037597656 C29.781999588012695,48.262001037597656 35.69900131225586,57.96799850463867 35.69900131225586,57.96799850463867 C35.69900131225586,57.96799850463867 82.56300354003906,84.61199951171875 82.56300354003906,84.61199951171875 C82.56300354003906,84.61199951171875 80.03099822998047,86.6780014038086 80.03099822998047,86.6780014038086z"></path></g><g opacity="1" transform="matrix(1,0,0,1,170.3470001220703,172.83299255371094)"><path fill="rgb(128,155,150)" fill-opacity="1" d=" M15.345999717712402,34.33599853515625 C15.345999717712402,34.33599853515625 -0.4410000145435333,28.823999404907227 1.4359999895095825,14.770000457763672 C1.4359999895095825,14.770000457763672 4.229000091552734,5.949999809265137 0.18799999356269836,2.321000099182129 C0.18799999356269836,2.321000099182129 -17.260000228881836,-3.313999891281128 -17.260000228881836,-3.313999891281128 C-17.260000228881836,-3.313999891281128 1.4609999656677246,1.0490000247955322 1.4609999656677246,1.0490000247955322 C1.4609999656677246,1.0490000247955322 -7.2270002365112305,-23.775999069213867 -7.2270002365112305,-23.775999069213867 C-7.2270002365112305,-23.775999069213867 -6.136000156402588,-23.152000427246094 -6.136000156402588,-23.152000427246094 C-6.136000156402588,-23.152000427246094 2.430000066757202,0.6499999761581421 2.430000066757202,0.6499999761581421 C2.430000066757202,0.6499999761581421 8.043999671936035,-20.305999755859375 1.2369999885559082,-34.33599853515625 C1.2369999885559082,-34.33599853515625 11.6850004196167,-19.868999481201172 5.23199987411499,1.8600000143051147 C-1.222000002861023,23.59000015258789 2.302000045776367,27.857999801635742 17.259000778198242,33.308998107910156 C17.259000778198242,33.308998107910156 15.345999717712402,34.33599853515625 15.345999717712402,34.33599853515625z"></path></g><g opacity="1" transform="matrix(1,0,0,1,85.0510025024414,81.5790023803711)"><path fill="rgb(83,67,81)" fill-opacity="1" d=" M12.442999839782715,36.805999755859375 C12.442999839782715,36.805999755859375 -2.5859999656677246,17.68000030517578 5.355000019073486,-21.764999389648438 C5.355000019073486,-21.764999389648438 -1.878999948501587,-2.315999984741211 2.0959999561309814,9.604000091552734 C2.0959999561309814,9.604000091552734 -12.442999839782715,-36.805999755859375 -12.442999839782715,-36.805999755859375 C-12.442999839782715,-36.805999755859375 -3.7190001010894775,-3.2109999656677246 -3.7190001010894775,-3.2109999656677246 C-3.7190001010894775,-3.2109999656677246 12.442999839782715,36.805999755859375 12.442999839782715,36.805999755859375z"></path></g><g opacity="1" transform="matrix(1,0,0,1,91.44000244140625,53.48500061035156)"><path fill="rgb(129,148,139)" fill-opacity="1" d=" M5.205999851226807,-4.291999816894531 C13.187000274658203,-15.694999694824219 14.711000442504883,-26.722999572753906 13.814000129699707,-35.67599868774414 C13.434000015258789,-37.08100128173828 13.154000282287598,-37.86399841308594 13.154000282287598,-37.86399841308594 C11.239999771118164,-24.815000534057617 3.5759999752044678,-18.389999389648438 3.5759999752044678,-18.389999389648438 C-14.710000038146973,4.186999797821045 -3.8010001182556152,37.86399841308594 -3.8010001182556152,37.86399841308594 C-3.6440000534057617,37.167999267578125 -3.3949999809265137,36.32500076293945 -3.0769999027252197,35.375 C-5.98199987411499,16.30699920654297 5.205999851226807,-4.291999816894531 5.205999851226807,-4.291999816894531z"></path></g><g opacity="1" transform="matrix(1,0,0,1,97.85900115966797,53.33399963378906)"><path fill="rgb(74,99,96)" fill-opacity="1" d=" M7.394999980926514,-35.525001525878906 C8.291000366210938,-26.57200050354004 6.76800012588501,-15.543999671936035 -1.2130000591278076,-4.140999794006348 C-1.2130000591278076,-4.140999794006348 -12.399999618530273,16.457000732421875 -9.494999885559082,35.525001525878906 C-6.236999988555908,25.802000045776367 4.567999839782715,4.339000225067139 4.567999839782715,4.339000225067139 C12.399999618530273,-12.664999961853027 8.996000289916992,-29.62700080871582 7.394999980926514,-35.525001525878906z"></path></g><g opacity="1" transform="matrix(1,0,0,1,72.37100219726562,37.17900085449219)"><path fill="rgb(129,148,139)" fill-opacity="1" d=" M10.791000366210938,-36.98699951171875 C10.753999710083008,-37.106998443603516 10.730999946594238,-37.17900085449219 10.730999946594238,-37.17900085449219 C3.388000011444092,-26.420000076293945 -4.679999828338623,-0.9520000219345093 -4.679999828338623,-0.9520000219345093 C-10.791000366210938,16.020999908447266 8.579000473022461,37.17900085449219 8.579000473022461,37.17900085449219 C8.579000473022461,37.17900085449219 8.612000465393066,36.9630012512207 8.612000465393066,36.9630012512207 C-1.3250000476837158,-1.2510000467300415 4.052000045776367,-24.166000366210938 10.791000366210938,-36.98699951171875z"></path></g><g opacity="1" transform="matrix(1,0,0,1,80.28700256347656,37.16699981689453)"><path fill="rgb(74,99,96)" fill-opacity="1" d=" M0.6959999799728394,36.974998474121094 C0.6959999799728394,36.974998474121094 6.109000205993652,1.9780000448226929 6.109000205993652,1.9780000448226929 C9.241000175476074,-15.553000450134277 3.510999917984009,-34.90800094604492 2.874000072479248,-36.974998474121094 C-3.865000009536743,-24.15399932861328 -9.241000175476074,-1.2389999628067017 0.6959999799728394,36.974998474121094z"></path></g><g opacity="1" transform="matrix(1,0,0,1,70.11699676513672,73.66300201416016)"><path fill="rgb(74,99,96)" fill-opacity="1" d=" M18.179000854492188,21.624000549316406 C18.68199920654297,21.801000595092773 18.9689998626709,21.895000457763672 18.9689998626709,21.895000457763672 C8.805999755859375,-6.313000202178955 -5.35699987411499,-13.166000366210938 -5.35699987411499,-13.166000366210938 C-12.460000038146973,-16.10700035095215 -17.017000198364258,-20.000999450683594 -18.968000411987305,-21.895000457763672 C-15.906000137329102,-15.003999710083008 -7.0879998207092285,-1.4259999990463257 18.179000854492188,21.624000549316406z"></path></g><g opacity="1" transform="matrix(1,0,0,1,69.1719970703125,72.95899963378906)"><path fill="rgb(129,148,139)" fill-opacity="1" d=" M19.12299919128418,22.327999114990234 C-6.144000053405762,-0.722000002861023 -14.961999893188477,-14.300000190734863 -18.02400016784668,-21.19099998474121 C-18.746999740600586,-21.892000198364258 -19.12299919128418,-22.327999114990234 -19.12299919128418,-22.327999114990234 C-18.1560001373291,-16.472999572753906 -11.88599967956543,-1.6679999828338623 -11.88599967956543,-1.6679999828338623 C-8.6899995803833,11.930999755859375 14.54800033569336,20.719999313354492 19.12299919128418,22.327999114990234z"></path></g></g><g transform="matrix(1,0,0,1,30,0)" opacity="1" style="display: block;"><g opacity="1" transform="matrix(1,0,0,1,276.0459899902344,93.24800109863281)"><path fill="rgb(82,67,81)" fill-opacity="1" d=" M-8.375,-28.415000915527344 C-8.375,-28.415000915527344 -3.3959999084472656,-15.996000289916992 -3.3959999084472656,-15.996000289916992 C-3.3959999084472656,-15.996000289916992 0.8970000147819519,7.321000099182129 0.8970000147819519,7.321000099182129 C0.8970000147819519,7.321000099182129 5.309000015258789,14.255000114440918 5.309000015258789,14.255000114440918 C5.309000015258789,14.255000114440918 6.793000221252441,2.86899995803833 6.793000221252441,2.86899995803833 C6.793000221252441,2.86899995803833 8.074000358581543,-3.3239998817443848 8.074000358581543,-3.3239998817443848 C8.074000358581543,-3.3239998817443848 9.595999717712402,-8.987000465393066 9.595999717712402,-8.987000465393066 C9.595999717712402,-8.987000465393066 12.02400016784668,-11.232999801635742 12.02400016784668,-11.232999801635742 C12.02400016784668,-11.232999801635742 6.651000022888184,6.504000186920166 6.296999931335449,15.595000267028809 C6.296999931335449,15.595000267028809 14.901000022888184,28.415000915527344 14.901000022888184,28.415000915527344 C14.901000022888184,28.415000915527344 3.6659998893737793,23.03499984741211 3.6659998893737793,23.03499984741211 C3.6659998893737793,23.03499984741211 11.126999855041504,25.14699935913086 11.126999855041504,25.14699935913086 C11.126999855041504,25.14699935913086 -1.659000039100647,6.181000232696533 -1.659000039100647,6.181000232696533 C-1.659000039100647,6.181000232696533 -5.164000034332275,2.6630001068115234 -5.164000034332275,2.6630001068115234 C-5.164000034332275,2.6630001068115234 -14.901000022888184,-1.0980000495910645 -14.901000022888184,-1.0980000495910645 C-14.901000022888184,-1.0980000495910645 -14.60200023651123,-2.125999927520752 -14.60200023651123,-2.125999927520752 C-14.60200023651123,-2.125999927520752 -7.659999847412109,-0.03500000014901161 -7.659999847412109,-0.03500000014901161 C-7.659999847412109,-0.03500000014901161 -1.8179999589920044,3.5739998817443848 -1.8179999589920044,3.5739998817443848 C-1.8179999589920044,3.5739998817443848 -3.640000104904175,-9.762999534606934 -3.640000104904175,-9.762999534606934 C-3.640000104904175,-9.762999534606934 -9.454000473022461,-27.416000366210938 -9.454000473022461,-27.416000366210938 C-9.454000473022461,-27.416000366210938 -8.375,-28.415000915527344 -8.375,-28.415000915527344z"></path></g><g opacity="1" transform="matrix(1,0,0,1,256.4859924316406,47.12300109863281)"><path fill="rgb(129,148,139)" fill-opacity="1" d=" M3.4839999675750732,-8.753000259399414 C3.4839999675750732,-8.753000259399414 -0.3370000123977661,-19.759000778198242 -1.440999984741211,-35.24300003051758 C-4.623000144958496,-29.2450008392334 -16.263999938964844,-4.980000019073486 -4.947999954223633,9.767999649047852 C-4.947999954223633,9.767999649047852 15.739999771118164,35.24300003051758 15.739999771118164,35.24300003051758 C15.739999771118164,35.24300003051758 15.930999755859375,34.608001708984375 16.263999938964844,33.553001403808594 C10.579000473022461,25.81999969482422 3.315999984741211,11.885000228881836 3.4839999675750732,-8.753000259399414z"></path></g><g opacity="1" transform="matrix(1,0,0,1,270.82501220703125,45.5880012512207)"><path fill="rgb(74,99,96)" fill-opacity="1" d=" M-15.781000137329102,-33.70899963378906 C-14.677000045776367,-18.225000381469727 -10.855999946594238,-7.2170000076293945 -10.855999946594238,-7.2170000076293945 C-11.02400016784668,13.420999526977539 -3.760999917984009,27.356000900268555 1.9249999523162842,35.0890007019043 C3.3340001106262207,30.6299991607666 7.2829999923706055,18.621999740600586 10.071000099182129,14.887999534606934 C10.071000099182129,14.887999534606934 15.779999732971191,-0.9380000233650208 2.0169999599456787,-11.626999855041504 C2.0169999599456787,-11.626999855041504 -14.192999839782715,-23.121999740600586 -15.02299976348877,-35.0890007019043 C-15.02299976348877,-35.0890007019043 -15.312000274658203,-34.595001220703125 -15.781000137329102,-33.70899963378906z"></path></g><g opacity="1" transform="matrix(1,0,0,1,240.447998046875,96.33799743652344)"><path fill="rgb(74,99,96)" fill-opacity="1" d=" M-28.475000381469727,-13.46500015258789 C-24.923999786376953,-11.970999717712402 -22.996000289916992,-6.505000114440918 -22.996000289916992,-6.505000114440918 C-20.645000457763672,0.22100000083446503 -5.8979997634887695,6.618000030517578 -5.8979997634887695,6.618000030517578 C3.0989999771118164,14.355999946594238 10.767999649047852,5.443999767303467 10.767999649047852,5.443999767303467 C18.832000732421875,-3.938999891281128 28.475000381469727,0.3720000088214874 27.78499984741211,-1.4859999418258667 C24.62299919128418,-2.6019999980926514 -9.17300033569336,-14.354999542236328 -28.475000381469727,-13.46500015258789z"></path></g><g opacity="1" transform="matrix(1,0,0,1,238.86700439453125,82.3290023803711)"><path fill="rgb(129,148,139)" fill-opacity="1" d=" M-29.378999710083008,0.8230000138282776 C-28.208999633789062,0.5569999814033508 -27.152000427246094,0.7509999871253967 -26.216999053955078,1.215999960899353 C-9.095000267028809,-0.12200000137090683 21.093000411987305,9.63700008392334 29.378999710083008,12.456999778747559 C18.049999237060547,-5.47599983215332 3.5460000038146973,-7.304999828338623 3.5460000038146973,-7.304999828338623 C-20.756999969482422,-12.456999778747559 -29.378999710083008,0.8230000138282776 -29.378999710083008,0.8230000138282776z"></path></g><g opacity="1" transform="matrix(1,0,0,1,289.2330017089844,73.96499633789062)"><path fill="rgb(74,99,96)" fill-opacity="1" d=" M-6.440999984741211,26.70199966430664 C-6.440999984741211,26.70199966430664 -6.139999866485596,25.90999984741211 -5.448999881744385,24.694000244140625 C-5.355000019073486,17.85300064086914 -1.805999994277954,8.637999534606934 9.21399974822998,-3.4030001163482666 C9.21399974822998,-3.4030001163482666 13.607999801635742,-13.60200023651123 16.358999252319336,-26.70199966430664 C16.358999252319336,-26.70199966430664 6.961999893188477,-15.630999565124512 6.961999893188477,-15.630999565124512 C6.961999893188477,-15.630999565124512 -16.357999801635742,-9.189000129699707 -6.440999984741211,26.70199966430664z"></path></g><g opacity="1" transform="matrix(1,0,0,1,301.760009765625,72.6719970703125)"><path fill="rgb(129,148,139)" fill-opacity="1" d=" M-17.97599983215332,25.986000061035156 C-15.946000099182129,22.42099952697754 -10.53499984741211,15.204000473022461 0.6389999985694885,13.57699966430664 C0.6389999985694885,13.57699966430664 17.97599983215332,4.892000198364258 9.017000198364258,-12.449000358581543 C9.017000198364258,-12.449000358581543 10.232999801635742,-24.461000442504883 4.321000099182129,-25.986000061035156 C4.321000099182129,-25.986000061035156 3.8320000171661377,-25.40999984741211 3.8320000171661377,-25.40999984741211 C1.0809999704360962,-12.3100004196167 -3.312999963760376,-2.1110000610351562 -3.312999963760376,-2.1110000610351562 C-14.333000183105469,9.930000305175781 -17.881999969482422,19.145000457763672 -17.97599983215332,25.986000061035156z"></path></g><g opacity="1" transform="matrix(1,0,0,1,232.85699462890625,122.64900207519531)"><path fill="rgb(122,144,128)" fill-opacity="1" d=" M-31.388999938964844,-33.76499938964844 C-31.388999938964844,-33.76499938964844 -28.52400016784668,-26.777000427246094 -28.52400016784668,-26.777000427246094 C-28.52400016784668,-26.777000427246094 -26.599000930786133,-19.753000259399414 -26.599000930786133,-19.753000259399414 C-26.599000930786133,-19.753000259399414 -21.840999603271484,-5.370999813079834 -21.840999603271484,-5.370999813079834 C-21.840999603271484,-5.370999813079834 -15.383000373840332,5.915999889373779 -15.383000373840332,5.915999889373779 C-15.383000373840332,5.915999889373779 -19.791000366210938,3.618000030517578 -19.791000366210938,3.618000030517578 C-19.791000366210938,3.618000030517578 -25.179000854492188,2.265000104904175 -25.179000854492188,2.265000104904175 C-25.179000854492188,2.265000104904175 -29.16900062561035,3.618000030517578 -29.16900062561035,3.618000030517578 C-29.16900062561035,3.618000030517578 -23.27899932861328,3.796999931335449 -23.27899932861328,3.796999931335449 C-23.27899932861328,3.796999931335449 -19.538999557495117,5.065000057220459 -19.538999557495117,5.065000057220459 C-19.538999557495117,5.065000057220459 -13.968000411987305,8.038999557495117 -13.968000411987305,8.038999557495117 C-13.968000411987305,8.038999557495117 -6.809000015258789,16.71299934387207 -6.809000015258789,16.71299934387207 C-6.809000015258789,16.71299934387207 4.802999973297119,25.020000457763672 4.802999973297119,25.020000457763672 C4.802999973297119,25.020000457763672 13.701000213623047,29.238000869750977 13.701000213623047,29.238000869750977 C13.701000213623047,29.238000869750977 9.855999946594238,32.194000244140625 9.855999946594238,32.194000244140625 C9.855999946594238,32.194000244140625 5.598999977111816,33.76499938964844 5.598999977111816,33.76499938964844 C5.598999977111816,33.76499938964844 9.258000373840332,33.27799987792969 9.258000373840332,33.27799987792969 C9.258000373840332,33.27799987792969 15.722000122070312,29.309999465942383 15.722000122070312,29.309999465942383 C15.722000122070312,29.309999465942383 26.875,32.51300048828125 26.875,32.51300048828125 C26.875,32.51300048828125 29.211999893188477,33.097999572753906 29.211999893188477,33.097999572753906 C29.211999893188477,33.097999572753906 31.388999938964844,33.72200012207031 31.388999938964844,33.72200012207031 C31.388999938964844,33.72200012207031 31.343000411987305,32.444000244140625 31.343000411987305,32.444000244140625 C31.343000411987305,32.444000244140625 19.325000762939453,29.68199920654297 19.325000762939453,29.68199920654297 C19.325000762939453,29.68199920654297 16.224000930786133,28.266000747680664 16.224000930786133,28.266000747680664 C16.224000930786133,28.266000747680664 5.8420000076293945,19.975000381469727 3.3259999752044678,10.447999954223633 C3.3259999752044678,10.447999954223633 1.940999984741211,11.45300006866455 1.940999984741211,11.45300006866455 C1.940999984741211,11.45300006866455 9.079000473022461,24.222000122070312 14.673999786376953,28.131000518798828 C14.673999786376953,28.131000518798828 6.021999835968018,24.110000610351562 6.021999835968018,24.110000610351562 C6.021999835968018,24.110000610351562 -5.820000171661377,16.53700065612793 -5.820000171661377,16.53700065612793 C-5.820000171661377,16.53700065612793 -12.133999824523926,8.829999923706055 -12.133999824523926,8.829999923706055 C-12.133999824523926,8.829999923706055 -19.763999938964844,-4.061999797821045 -19.763999938964844,-4.061999797821045 C-19.763999938964844,-4.061999797821045 -19.433000564575195,-13.894000053405762 -19.433000564575195,-13.894000053405762 C-19.433000564575195,-13.894000053405762 -18.06599998474121,-18.493999481201172 -18.06599998474121,-18.493999481201172 C-18.06599998474121,-18.493999481201172 -20.152999877929688,-18.843000411987305 -20.152999877929688,-18.843000411987305 C-20.152999877929688,-18.843000411987305 -20.844999313354492,-5.910999774932861 -20.844999313354492,-5.910999774932861 C-20.844999313354492,-5.910999774932861 -26.200000762939453,-24.273000717163086 -26.200000762939453,-24.273000717163086 C-26.200000762939453,-24.273000717163086 -30.288999557495117,-32.875 -30.288999557495117,-32.875 C-30.288999557495117,-32.875 -31.388999938964844,-33.76499938964844 -31.388999938964844,-33.76499938964844z"></path></g><g opacity="1" transform="matrix(1,0,0,1,193.4600067138672,74.01499938964844)"><path fill="rgb(200,218,185)" fill-opacity="1" d=" M2.244999885559082,-25.31800079345703 C-0.5239999890327454,-22.209999084472656 -5.564000129699707,-15.390999794006348 -4.947999954223633,-7.480999946594238 C-4.947999954223633,-7.480999946594238 -12.017999649047852,-1.524999976158142 -4.285999774932861,4.690000057220459 C-4.285999774932861,4.690000057220459 -0.4620000123977661,19.506000518798828 12.008000373840332,25.31800079345703 C12.008000373840332,25.31800079345703 12.010000228881836,25.142000198364258 12.017999649047852,24.832000732421875 C3.881999969482422,8.109999656677246 2.3949999809265137,-13.644000053405762 2.244999885559082,-25.31800079345703z"></path></g><g opacity="1" transform="matrix(1,0,0,1,207.81199645996094,72.60399627685547)"><path fill="rgb(155,174,127)" fill-opacity="1" d=" M-2.3340001106262207,26.243000030517578 C-2.2639999389648438,23.964000701904297 -1.7300000190734863,14.22700023651123 2.305999994277954,10.430000305175781 C2.305999994277954,10.430000305175781 12.107000350952148,-2.256999969482422 -1.4220000505447388,-12.496999740600586 C-1.4220000505447388,-12.496999740600586 -4.974999904632568,-26.243000030517578 -10.366999626159668,-25.70400047302246 C-10.366999626159668,-25.70400047302246 -11.083000183105469,-25.058000564575195 -12.107000350952148,-23.908000946044922 C-11.956999778747559,-12.234000205993652 -10.470999717712402,9.520999908447266 -2.3340001106262207,26.243000030517578z"></path></g><g opacity="1" transform="matrix(1,0,0,1,190.03700256347656,115.93399810791016)"><path fill="rgb(155,174,127)" fill-opacity="1" d=" M20.35300064086914,10.378999710083008 C20.118000030517578,9.513999938964844 19.65399932861328,8.590999603271484 18.91200065612793,7.61299991607666 C18.91200065612793,7.61299991607666 12.8100004196167,-10.378000259399414 -1.531000018119812,-0.16899999976158142 C-1.531000018119812,-0.16899999976158142 -5.355999946594238,1.9509999752044678 -9.399999618530273,0.6029999852180481 C-9.399999618530273,0.6029999852180481 -16.20400047302246,1.4279999732971191 -20.35300064086914,9.913000106811523 C-20.35300064086914,9.913000106811523 -20.236000061035156,10.026000022888184 -20.030000686645508,10.220000267028809 C-10.427000045776367,6.574999809265137 6.765999794006348,2.184000015258789 20.35300064086914,10.378999710083008z"></path></g><g opacity="1" transform="matrix(1,0,0,1,191.0240020751953,128.91099548339844)"><path fill="rgb(200,218,185)" fill-opacity="1" d=" M19.365999221801758,-2.5989999771118164 C5.7789998054504395,-10.793999671936035 -11.413999557495117,-6.4029998779296875 -21.017000198364258,-2.757999897003174 C-18.8439998626709,-0.7239999771118164 -5.933000087738037,10.793000221252441 2.753000020980835,5.7829999923706055 C2.753000020980835,5.7829999923706055 4.574999809265137,4.682000160217285 8.284000396728516,5.72599983215332 C11.529000282287598,6.638999938964844 21.017000198364258,3.450000047683716 19.365999221801758,-2.5989999771118164z"></path></g><g opacity="1" transform="matrix(1,0,0,1,223.2729949951172,117.80699920654297)"><path fill="rgb(200,218,185)" fill-opacity="1" d=" M10.303999900817871,-5.382999897003174 C11.79699993133545,-13.743000030517578 9.239999771118164,-18.29800033569336 6.658999919891357,-20.701000213623047 C2.5739998817443848,-15.059000015258789 -14.602999687194824,11.270000457763672 13.178999900817871,20.701000213623047 C13.178999900817871,20.701000213623047 13.79800033569336,20.67300033569336 14.602999687194824,20.408000946044922 C8.109999656677246,9.67300033569336 10.303999900817871,-5.382999897003174 10.303999900817871,-5.382999897003174z"></path></g><g opacity="1" transform="matrix(1,0,0,1,239.97900390625,116.29900360107422)"><path fill="rgb(155,174,127)" fill-opacity="1" d=" M3.2149999141693115,-7.829999923706055 C3.2149999141693115,-7.829999923706055 -0.6660000085830688,-21.91699981689453 -9.241000175476074,-20.267000198364258 C-9.241000175476074,-20.267000198364258 -9.545999526977539,-19.885000228881836 -10.04699993133545,-19.19300079345703 C-7.4670000076293945,-16.790000915527344 -4.908999919891357,-12.236000061035156 -6.4019999504089355,-3.875 C-6.4019999504089355,-3.875 -8.597000122070312,11.180999755859375 -2.1029999256134033,21.91699981689453 C-0.8759999871253967,21.511999130249023 0.7860000133514404,20.552000045776367 1.3619999885559082,18.257999420166016 C1.3619999885559082,18.257999420166016 10.045999526977539,5.293000221252441 3.2149999141693115,-7.829999923706055z"></path></g><g opacity="1" transform="matrix(1,0,0,1,229.33999633789062,144.25999450683594)"><path fill="rgb(155,174,127)" fill-opacity="1" d=" M-4.538000106811523,4.466000080108643 C-4.538000106811523,4.466000080108643 0.027000000700354576,6.135000228881836 4.809000015258789,5.255000114440918 C4.809000015258789,5.255000114440918 8.848999977111816,6.361000061035156 12.722000122070312,8.116000175476074 C11.02400016784668,6.543000221252441 8.609999656677246,3.7799999713897705 6.855999946594238,-0.4189999997615814 C6.855999946594238,-0.4189999997615814 4.671999931335449,-8.116000175476074 -6.923999786376953,-4.341000080108643 C-6.923999786376953,-4.341000080108643 -9.017999649047852,-2.0169999599456787 -12.597000122070312,-4.015999794006348 C-12.597000122070312,-4.015999794006348 -12.649999618530273,-3.7809998989105225 -12.722999572753906,-3.378000020980835 C-10.871999740600586,-0.5559999942779541 -8.005999565124512,2.9760000705718994 -4.538000106811523,4.466000080108643z"></path></g><g opacity="1" transform="matrix(1,0,0,1,229.12899780273438,152.89700317382812)"><path fill="rgb(200,218,185)" fill-opacity="1" d=" M5.019999980926514,-3.381999969482422 C0.23899999260902405,-2.502000093460083 -4.327000141143799,-4.171000003814697 -4.327000141143799,-4.171000003814697 C-7.794000148773193,-5.660999774932861 -10.66100025177002,-9.194000244140625 -12.51099967956543,-12.015000343322754 C-13.093999862670898,-8.779000282287598 -14.975000381469727,5.960000038146973 -1.6260000467300415,9.104999542236328 C-1.6260000467300415,9.104999542236328 8.670999526977539,12.015999794006348 14.973999977111816,1.1109999418258667 C14.973999977111816,1.1109999418258667 14.128999710083008,0.5870000123977661 12.932999610900879,-0.5210000276565552 C9.0600004196167,-2.2769999504089355 5.019999980926514,-3.381999969482422 5.019999980926514,-3.381999969482422z"></path></g><g opacity="1" transform="matrix(1,0,0,1,222.4250030517578,93.00399780273438)"><path fill="rgb(155,174,127)" fill-opacity="1" d=" M6.326000213623047,-12.90999984741211 C4.10699987411499,-5.97599983215332 -0.17299999296665192,-2.4210000038146973 -0.17299999296665192,-2.4210000038146973 C-6.284999847412109,1.6540000438690186 -8.164999961853027,8.706000328063965 -8.743000030517578,12.722000122070312 C-4.09499979019165,12.90999984741211 -2.9590001106262207,7.375999927520752 -2.9590001106262207,7.375999927520752 C7.4670000076293945,5.39900016784668 5.489999771118164,-3.049999952316284 5.489999771118164,-3.049999952316284 C8.743000030517578,-7.465000152587891 7.565000057220459,-10.97599983215332 6.326000213623047,-12.90999984741211z"></path></g><g opacity="1" transform="matrix(1,0,0,1,216.36300659179688,92.08799743652344)"><path fill="rgb(200,218,185)" fill-opacity="1" d=" M11.01200008392334,-13.638999938964844 C9.21500015258789,-8.96500015258789 2.9079999923706055,-7.955999851226807 2.9079999923706055,-7.955999851226807 C-12.38700008392334,-1.1950000524520874 -3.3610000610351562,13.57699966430664 -3.3610000610351562,13.57699966430664 C-3.125999927520752,13.61299991607666 -2.9019999504089355,13.630000114440918 -2.681999921798706,13.638999938964844 C-2.1040000915527344,9.623000144958496 -0.22300000488758087,2.569999933242798 5.888999938964844,-1.5049999952316284 C5.888999938964844,-1.5049999952316284 10.168000221252441,-5.059000015258789 12.38700008392334,-11.993000030517578 C11.708000183105469,-13.050999641418457 11.01200008392334,-13.638999938964844 11.01200008392334,-13.638999938964844z"></path></g></g><g transform="matrix(1,0,0,1,20,0)" opacity="1" style="display: block;"><g opacity="1" transform="matrix(1,0,0,1,106.35600280761719,77.43900299072266)"><path fill="rgb(83,67,81)" fill-opacity="1" d=" M23.27899932861328,29.402000427246094 C23.27899932861328,29.402000427246094 3.3989999294281006,16.909000396728516 -2.2139999866485596,-21.520999908447266 C-2.2139999866485596,-21.520999908447266 -2.4609999656677246,-1.49399995803833 5.0279998779296875,8.04699993133545 C5.0279998779296875,8.04699993133545 -23.27899932861328,-29.402000427246094 -23.27899932861328,-29.402000427246094 C-23.27899932861328,-29.402000427246094 -4.426000118255615,-1.7079999446868896 -4.426000118255615,-1.7079999446868896 C-4.426000118255615,-1.7079999446868896 23.27899932861328,29.402000427246094 23.27899932861328,29.402000427246094z"></path></g><g opacity="1" transform="matrix(1,0,0,1,101.4520034790039,48.30799865722656)"><path fill="rgb(129,148,139)" fill-opacity="1" d=" M4.9079999923706055,-4.072999954223633 C8.45199966430664,-17.031999588012695 6.25,-27.549999237060547 2.5239999294281006,-35.39500045776367 C1.7200000286102295,-36.54800033569336 1.2120000123977661,-37.167999267578125 1.2120000123977661,-37.167999267578125 C3.7170000076293945,-24.687000274658203 -1.1579999923706055,-16.354999542236328 -1.1579999923706055,-16.354999542236328 C-10.432999610900879,10.109999656677246 10.432999610900879,37.167999267578125 10.432999610900879,37.167999267578125 C10.350000381469727,36.48500061035156 10.303000450134277,35.637001037597656 10.282999992370605,34.66999816894531 C1.4420000314712524,18.285999298095703 4.9079999923706055,-4.072999954223633 4.9079999923706055,-4.072999954223633z"></path></g><g opacity="1" transform="matrix(1,0,0,1,109.4260025024414,47.94499969482422)"><path fill="rgb(74,99,96)" fill-opacity="1" d=" M-5.451000213623047,-35.03200149536133 C-1.7239999771118164,-27.187000274658203 0.4779999852180481,-16.66900062561035 -3.066999912261963,-3.7100000381469727 C-3.066999912261963,-3.7100000381469727 -6.5329999923706055,18.64900016784668 2.308000087738037,35.03200149536133 C2.1070001125335693,25.13599967956543 4.945000171661377,2.115999937057495 4.945000171661377,2.115999937057495 C6.5329999923706055,-15.883999824523926 -2.078000068664551,-30.191999435424805 -5.451000213623047,-35.03200149536133z"></path></g><g opacity="1" transform="matrix(1,0,0,1,87.5790023803711,38.073001861572266)"><path fill="rgb(129,148,139)" fill-opacity="1" d=" M-9.41100025177002,-33.983001708984375 C-9.482999801635742,-34.08000183105469 -9.527999877929688,-34.13800048828125 -9.527999877929688,-34.13800048828125 C-12.701000213623047,-21.972000122070312 -11.75,3.796999931335449 -11.75,3.796999931335449 C-11.782999992370605,21.208999633789062 12.701000213623047,34.13800048828125 12.701000213623047,34.13800048828125 C12.701000213623047,34.13800048828125 12.66100025177002,33.93000030517578 12.66100025177002,33.93000030517578 C-8.798999786376953,2.434000015258789 -11.364999771118164,-20.139999389648438 -9.41100025177002,-33.983001708984375z"></path></g><g opacity="1" transform="matrix(1,0,0,1,88.22699737548828,38.04600143432617)"><path fill="rgb(74,99,96)" fill-opacity="1" d=" M12.012999534606934,33.95600128173828 C12.012999534606934,33.95600128173828 5.551000118255615,0.3919999897480011 5.551000118255615,0.3919999897480011 C2.694999933242798,-16.55900001525879 -8.807999610900879,-32.28499984741211 -10.059000015258789,-33.95600128173828 C-12.012999534606934,-20.113000869750977 -9.446000099182129,2.4600000381469727 12.012999534606934,33.95600128173828z"></path></g><g opacity="1" transform="matrix(1,0,0,1,90.20899963378906,75.10700225830078)"><path fill="rgb(74,99,96)" fill-opacity="1" d=" M23.554000854492188,13.734000205993652 C24.069000244140625,13.732000350952148 24.360000610351562,13.722999572753906 24.360000610351562,13.722999572753906 C5.948999881744385,-8.607000350952148 -9.151000022888184,-10.227999687194824 -9.151000022888184,-10.227999687194824 C-16.562000274658203,-10.590999603271484 -21.969999313354492,-12.647000312805176 -24.360000610351562,-13.734000205993652 C-19.336000442504883,-8.468999862670898 -6.90500020980835,1.0049999952316284 23.554000854492188,13.734000205993652z"></path></g><g opacity="1" transform="matrix(1,0,0,1,89.12200164794922,74.78199768066406)"><path fill="rgb(129,148,139)" fill-opacity="1" d=" M24.641000747680664,14.059000015258789 C-5.817999839782715,1.3300000429153442 -18.249000549316406,-8.142999649047852 -23.273000717163086,-13.407999992370605 C-24.156999588012695,-13.810999870300293 -24.641000747680664,-14.085000038146973 -24.641000747680664,-14.085000038146973 C-21.857999801635742,-9.07800006866455 -11.343999862670898,2.3369998931884766 -11.343999862670898,2.3369998931884766 C-4.017000198364258,13.656000137329102 19.959999084472656,14.085000038146973 24.641000747680664,14.059000015258789z"></path></g><g opacity="1" transform="matrix(1,0,0,1,63.42900085449219,133.4600067138672)"><path fill="rgb(198,215,207)" fill-opacity="1" d=" M11.63700008392334,-0.42899999022483826 C11.63700008392334,-0.42899999022483826 9.543999671936035,12.560999870300293 -2.9149999618530273,8.263999938964844 C-2.9149999618530273,8.263999938964844 -11.637999534606934,9.12399959564209 -8.29699993133545,4.548999786376953 C-8.29699993133545,4.548999786376953 1.8250000476837158,-12.560999870300293 11.63700008392334,-0.42899999022483826z"></path></g><g opacity="1" transform="matrix(1,0,0,1,55.63600158691406,117.4020004272461)"><path fill="rgb(199,195,143)" fill-opacity="1" d=" M12.722000122070312,4.198999881744385 C12.722000122070312,4.198999881744385 0.39800000190734863,4.374000072479248 0.39800000190734863,4.374000072479248 C0.39800000190734863,4.374000072479248 -5.068999767303467,7.7210001945495605 -11.937000274658203,0.8679999709129333 C-11.937000274658203,0.8679999709129333 -12.722000122070312,-5.373000144958496 0.40799999237060547,-5.172999858856201 C0.40799999237060547,-5.172999858856201 12.362000465393066,-7.7210001945495605 12.722000122070312,4.198999881744385z"></path></g><g opacity="1" transform="matrix(1,0,0,1,49.823001861572266,92.90799713134766)"><path fill="rgb(207,214,187)" fill-opacity="1" d=" M11.229999542236328,-5.785999774932861 C11.229999542236328,-5.785999774932861 7.251999855041504,-2.4830000400543213 7.013999938964844,2.7939999103546143 C7.013999938964844,2.7939999103546143 5.051000118255615,10.211000442504883 -5.619999885559082,2.5789999961853027 C-5.619999885559082,2.5789999961853027 -11.229999542236328,-5.40500020980835 3.2709999084472656,-9.222999572753906 C3.2709999084472656,-9.222999572753906 9.604999542236328,-10.211000442504883 11.229999542236328,-5.785999774932861z"></path></g><g opacity="1" transform="matrix(1,0,0,1,35.986000061035156,69.45700073242188)"><path fill="rgb(199,195,143)" fill-opacity="1" d=" M12.442000389099121,7.906000137329102 C12.442000389099121,7.906000137329102 -6.09499979019165,13.038999557495117 -12.442000389099121,-2.875999927520752 C-12.442000389099121,-2.875999927520752 4.75,-13.038999557495117 12.442000389099121,7.906000137329102z"></path></g><g opacity="1" transform="matrix(1,0,0,1,24.445999145507812,49.5890007019043)"><path fill="rgb(198,215,207)" fill-opacity="1" d=" M10.923999786376953,3.609999895095825 C10.923999786376953,3.609999895095825 -0.6639999747276306,11.71500015258789 -10.923999786376953,-2.0929999351501465 C-10.923999786376953,-2.0929999351501465 4.794000148773193,-11.71500015258789 10.923999786376953,3.609999895095825z"></path></g><g opacity="1" transform="matrix(1,0,0,1,17.70599937438965,33.70899963378906)"><path fill="rgb(199,195,143)" fill-opacity="1" d=" M11.873000144958496,5.546999931335449 C11.873000144958496,5.546999931335449 -5.2820000648498535,10.34000015258789 -11.704000473022461,-8.057999610900879 C-11.704000473022461,-8.057999610900879 -11.873000144958496,-10.34000015258789 -9.265999794006348,-9.623000144958496 C-9.265999794006348,-9.623000144958496 10.940999984741211,-8.842000007629395 11.873000144958496,5.546999931335449z"></path></g><g opacity="1" transform="matrix(1,0,0,1,41.59400177001953,30.281999588012695)"><path fill="rgb(121,162,143)" fill-opacity="1" d=" M5.507999897003174,9.737000465393066 C5.507999897003174,9.737000465393066 -9.449000358581543,5.01800012588501 -4.824999809265137,-9.737000465393066 C-4.824999809265137,-9.737000465393066 9.449000358581543,-4.599999904632568 5.507999897003174,9.737000465393066z"></path></g><g opacity="1" transform="matrix(1,0,0,1,70.11799621582031,44.25400161743164)"><path fill="rgb(121,162,143)" fill-opacity="1" d=" M2.186000108718872,13.793999671936035 C2.186000108718872,13.793999671936035 -11.258999824523926,3.1649999618530273 -7.986000061035156,-10.256999969482422 C-7.986000061035156,-10.256999969482422 -6.105999946594238,-13.795000076293945 -2.075000047683716,-8.746999740600586 C-2.075000047683716,-8.746999740600586 11.260000228881836,4.770999908447266 2.186000108718872,13.793999671936035z"></path></g><g opacity="1" transform="matrix(1,0,0,1,84.58899688720703,58.37200164794922)"><path fill="rgb(198,215,207)" fill-opacity="1" d=" M-2.499000072479248,7.632999897003174 C-2.499000072479248,7.632999897003174 -7.500999927520752,-3.250999927520752 2.6070001125335693,-7.632999897003174 C2.6070001125335693,-7.632999897003174 7.500999927520752,2.9560000896453857 -2.499000072479248,7.632999897003174z"></path></g><g opacity="1" transform="matrix(1,0,0,1,105.88800048828125,71.73899841308594)"><path fill="rgb(198,215,207)" fill-opacity="1" d=" M5.869999885559082,15.343999862670898 C5.869999885559082,15.343999862670898 -11.940999984741211,8.324000358581543 -9.706000328063965,-6.557000160217285 C-9.706000328063965,-6.557000160217285 -11.76099967956543,-15.343999862670898 -3.9140000343322754,-9.019000053405762 C-3.9140000343322754,-9.019000053405762 11.9399995803833,-0.9470000267028809 5.869999885559082,15.343999862670898z"></path></g><g opacity="1" transform="matrix(1,0,0,1,124.20800018310547,82.76499938964844)"><path fill="rgb(207,214,187)" fill-opacity="1" d=" M-4.091000080108643,11.12399959564209 C-4.091000080108643,11.12399959564209 -11.854000091552734,-2.2639999389648438 4.980000019073486,-11.12399959564209 C4.980000019073486,-11.12399959564209 11.854000091552734,5.769999980926514 -4.091000080108643,11.12399959564209z"></path></g><g opacity="1" transform="matrix(1,0,0,1,119.86499786376953,115.14199829101562)"><path fill="rgb(198,215,207)" fill-opacity="1" d=" M8.432999610900879,2.624000072479248 C8.432999610900879,2.624000072479248 -8.432999610900879,9.338000297546387 -7.473999977111816,-5.343999862670898 C-7.473999977111816,-5.343999862670898 5.111000061035156,-9.338000297546387 8.432999610900879,2.624000072479248z"></path></g><g opacity="1" transform="matrix(1,0,0,1,122.60299682617188,98.3550033569336)"><path fill="rgb(198,215,207)" fill-opacity="1" d=" M7.564000129699707,9.536999702453613 C7.564000129699707,9.536999702453613 -9.777999877929688,7.880000114440918 -10.107000350952148,-9.536999702453613 C-10.107000350952148,-9.536999702453613 10.107000350952148,-7.571000099182129 7.564000129699707,9.536999702453613z"></path></g><g opacity="1" transform="matrix(1,0,0,1,133.7760009765625,82.96399688720703)"><path fill="rgb(121,162,143)" fill-opacity="1" d=" M0.5289999842643738,15.538999557495117 C0.5289999842643738,15.538999557495117 -11.331000328063965,7.918000221252441 -9.409000396728516,1.5230000019073486 C-9.281000137329102,1.097000002861023 -9.092000007629395,0.6759999990463257 -8.833000183105469,0.2630000114440918 C-8.833000183105469,0.2630000114440918 -5.828000068664551,-2.9040000438690186 -7.197000026702881,-8.725000381469727 C-7.197000026702881,-8.725000381469727 -8.527999877929688,-15.538999557495117 -3.0989999771118164,-9.263999938964844 C-3.0989999771118164,-9.263999938964844 11.331000328063965,0.9350000023841858 0.5289999842643738,15.538999557495117z"></path></g><g opacity="1" transform="matrix(1,0,0,1,97.625,97.31300354003906)"><path fill="rgb(128,155,150)" fill-opacity="1" d=" M70.60099792480469,61.9370002746582 C70.60099792480469,61.9370002746582 9.515000343322754,27.790000915527344 -12.32699966430664,32.12799835205078 C-12.32699966430664,32.12799835205078 -23.334999084472656,36.3380012512207 -23.334999084472656,36.3380012512207 C-23.334999084472656,36.3380012512207 -25.18000030517578,34.505001068115234 -25.18000030517578,34.505001068115234 C-25.18000030517578,34.505001068115234 -15.041999816894531,31.117000579833984 -15.041999816894531,31.117000579833984 C-15.041999816894531,31.117000579833984 -24.608999252319336,23.75 -32.52299880981445,21.802000045776367 C-32.52299880981445,21.802000045776367 -32.89400100708008,19.427000045776367 -32.89400100708008,19.427000045776367 C-32.89400100708008,19.427000045776367 -19.659000396728516,23.104000091552734 -16.233999252319336,27.871999740600586 C-16.233999252319336,27.871999740600586 -12.248000144958496,31.43000030517578 -8.118000030517578,29.913999557495117 C-8.118000030517578,29.913999557495117 15.144000053405762,33.0880012512207 27.492000579833984,40.27199935913086 C27.492000579833984,40.27199935913086 14.664999961853027,30.417999267578125 10.45199966430664,22.590999603271484 C10.45199966430664,22.590999603271484 -11.201000213623047,-6.283999919891357 -11.201000213623047,-6.283999919891357 C-11.201000213623047,-6.283999919891357 -26.972999572753906,-18.236000061035156 -38.125999450683594,-8.949999809265137 C-38.125999450683594,-8.949999809265137 -39.06999969482422,-10.612000465393066 -39.06999969482422,-10.612000465393066 C-39.06999969482422,-10.612000465393066 -29.22800064086914,-13.892000198364258 -29.22800064086914,-13.892000198364258 C-29.22800064086914,-13.892000198364258 -53.30699920654297,-21.118999481201172 -53.30699920654297,-21.118999481201172 C-53.30699920654297,-21.118999481201172 -54.874000549316406,-23.55699920654297 -54.874000549316406,-23.55699920654297 C-54.874000549316406,-23.55699920654297 -26.867000579833984,-14.758999824523926 -26.867000579833984,-14.758999824523926 C-26.867000579833984,-14.758999824523926 -12.67199993133545,-8.923999786376953 -12.67199993133545,-8.923999786376953 C-12.67199993133545,-8.923999786376953 -13.119999885559082,-10.60099983215332 -13.119999885559082,-10.60099983215332 C-13.119999885559082,-10.60099983215332 -40.85900115966797,-36.90599822998047 -40.85900115966797,-36.90599822998047 C-40.85900115966797,-36.90599822998047 -43.7130012512207,-39.20600128173828 -43.7130012512207,-39.20600128173828 C-43.7130012512207,-39.20600128173828 -65.56099700927734,-44.909000396728516 -65.56099700927734,-44.909000396728516 C-65.56099700927734,-44.909000396728516 -65.0009994506836,-46.11899948120117 -65.0009994506836,-46.11899948120117 C-65.0009994506836,-46.11899948120117 -48.165000915527344,-41.75600051879883 -48.165000915527344,-41.75600051879883 C-48.165000915527344,-41.75600051879883 -56.43000030517578,-48.76499938964844 -56.43000030517578,-48.76499938964844 C-56.43000030517578,-48.76499938964844 -60.79999923706055,-55.194000244140625 -71.95600128173828,-59.132999420166016 C-71.95600128173828,-59.132999420166016 -72.43399810791016,-61.803001403808594 -72.43399810791016,-61.803001403808594 C-72.43399810791016,-61.803001403808594 -59.555999755859375,-56.823001861572266 -54.875999450683594,-50.00400161743164 C-54.875999450683594,-50.00400161743164 -45.402000427246094,-42.43600082397461 -45.402000427246094,-42.43600082397461 C-45.402000427246094,-42.43600082397461 -53.00299835205078,-60.4010009765625 -53.00299835205078,-60.4010009765625 C-53.00299835205078,-60.4010009765625 -51.558998107910156,-61.9370002746582 -51.558998107910156,-61.9370002746582 C-51.558998107910156,-61.9370002746582 -42.43899917602539,-39.840999603271484 -42.43899917602539,-39.840999603271484 C-42.43899917602539,-39.840999603271484 -17.288000106811523,-16.937000274658203 -17.288000106811523,-16.937000274658203 C-17.288000106811523,-16.937000274658203 -26.760000228881836,-44.09299850463867 -26.760000228881836,-44.09299850463867 C-26.760000228881836,-44.09299850463867 -25.347999572753906,-43.43899917602539 -25.347999572753906,-43.43899917602539 C-25.347999572753906,-43.43899917602539 -18.738000869750977,-25.444000244140625 -18.738000869750977,-25.444000244140625 C-18.738000869750977,-25.444000244140625 -13.031000137329102,-37.25 -13.031000137329102,-37.25 C-13.031000137329102,-37.25 -12.116000175476074,-36.58100128173828 -12.116000175476074,-36.58100128173828 C-12.116000175476074,-36.58100128173828 -17.34600067138672,-22.106000900268555 -17.34600067138672,-22.106000900268555 C-17.34600067138672,-22.106000900268555 -8.717000007629395,-6.359000205993652 -8.717000007629395,-6.359000205993652 C-8.717000007629395,-6.359000205993652 11.942999839782715,22.54599952697754 11.942999839782715,22.54599952697754 C11.942999839782715,22.54599952697754 20.483999252319336,32.13100051879883 24.45400047302246,35.19300079345703 C24.45400047302246,35.19300079345703 17.56599998474121,17.80299949645996 17.2810001373291,8.366000175476074 C17.2810001373291,8.366000175476074 17.594999313354492,-10.833000183105469 10.260000228881836,-16.676000595092773 C10.260000228881836,-16.676000595092773 12.031000137329102,-17.326000213623047 12.031000137329102,-17.326000213623047 C12.031000137329102,-17.326000213623047 19.66900062561035,-4.730999946594238 18.450000762939453,4.254000186920166 C18.450000762939453,4.254000186920166 25.06100082397461,-10.560999870300293 25.06100082397461,-10.560999870300293 C25.06100082397461,-10.560999870300293 26.983999252319336,-9.425999641418457 26.983999252319336,-9.425999641418457 C26.983999252319336,-9.425999641418457 17.518999099731445,3.0889999866485596 19.43600082397461,10.588000297546387 C19.43600082397461,10.588000297546387 20.270999908447266,28.360000610351562 27.652000427246094,35.69300079345703 C27.652000427246094,35.69300079345703 33.138999938964844,42.8849983215332 33.138999938964844,42.8849983215332 C33.138999938964844,42.8849983215332 72.43399810791016,60.090999603271484 72.43399810791016,60.090999603271484 C72.43399810791016,60.090999603271484 70.60099792480469,61.9370002746582 70.60099792480469,61.9370002746582z"></path></g><g opacity="1" transform="matrix(1,0,0,1,131.41900634765625,117.16000366210938)"><path fill="rgb(128,155,150)" fill-opacity="1" d=" M12.755999565124512,27.104000091552734 C12.755999565124512,27.104000091552734 0.0430000014603138,23.170000076293945 1.1349999904632568,11.940999984741211 C1.1349999904632568,11.940999984741211 3.1050000190734863,4.8470001220703125 -0.21199999749660492,2.0769999027252197 C-0.21199999749660492,2.0769999027252197 -14.246999740600586,-1.906999945640564 -14.246999740600586,-1.906999945640564 C-14.246999740600586,-1.906999945640564 0.765999972820282,1.027999997138977 0.765999972820282,1.027999997138977 C0.765999972820282,1.027999997138977 -6.8520002365112305,-18.46500015258789 -6.8520002365112305,-18.46500015258789 C-6.8520002365112305,-18.46500015258789 -5.966000080108643,-18 -5.966000080108643,-18 C-5.966000080108643,-18 1.524999976158142,0.6850000023841858 1.524999976158142,0.6850000023841858 C1.524999976158142,0.6850000023841858 5.392000198364258,-16.141000747680664 -0.42100000381469727,-27.104000091552734 C-0.42100000381469727,-27.104000091552734 8.298999786376953,-15.897000312805176 3.7860000133514404,1.565999984741211 C-0.7269999980926514,19.0310001373291 2.196000099182129,22.325000762939453 14.246999740600586,26.232999801635742 C14.246999740600586,26.232999801635742 12.755999565124512,27.104000091552734 12.755999565124512,27.104000091552734z"></path></g><g opacity="1" transform="matrix(1,0,0,1,270.39801025390625,200.89100646972656)"><path fill="rgb(129,148,139)" fill-opacity="1" d=" M31.90999984741211,-18.31100082397461 C31.90999984741211,-18.31100082397461 0.703000009059906,-26.715999603271484 -8.642000198364258,-0.7649999856948853 C-8.767000198364258,-0.41600000858306885 -8.887999534606934,-0.06199999898672104 -9.005999565124512,0.29899999499320984 C-9.005999565124512,0.29899999499320984 -24.66900062561035,6.813000202178955 -31.910999298095703,26.715999603271484 C-31.910999298095703,26.715999603271484 -6.035999774932861,23.219999313354492 -6.035999774932861,23.219999313354492 C-6.035999774932861,23.219999313354492 14.303000450134277,20.618000030517578 17.801000595092773,7.789000034332275 C17.801000595092773,7.789000034332275 24.4060001373291,-12.118000030517578 31.90999984741211,-18.31100082397461z"></path></g><g opacity="1" transform="matrix(1,0,0,1,208.83799743652344,202.97900390625)"><path fill="rgb(199,195,143)" fill-opacity="1" d=" M32.768001556396484,-11.944000244140625 C32.768001556396484,-11.944000244140625 18.2549991607666,21.298999786376953 -6.431000232696533,11.470999717712402 C-6.431000232696533,11.470999717712402 -17.823999404907227,12.503000259399414 -31.722999572753906,4.276000022888184 C-31.722999572753906,4.276000022888184 -32.768001556396484,-0.2770000100135803 -22.058000564575195,0.531000018119812 C-22.058000564575195,0.531000018119812 -9.918000221252441,-0.45500001311302185 -7.256999969482422,-6.324999809265137 C-7.256999969482422,-6.324999809265137 1.190000057220459,-21.299999237060547 16.4950008392334,-17.57699966430664 C16.4950008392334,-17.57699966430664 27.31800079345703,-15.583000183105469 32.768001556396484,-11.944000244140625z"></path></g><g opacity="1" transform="matrix(1,0,0,1,163.74000549316406,178.35899353027344)"><path fill="rgb(199,195,143)" fill-opacity="1" d=" M35.27799987792969,0.7429999709129333 C35.27799987792969,0.7429999709129333 25.881999969482422,9.137999534606934 18.173999786376953,6.427999973297119 C18.173999786376953,6.427999973297119 11.73900032043457,5.0929999351501465 2.736999988555908,11.642999649047852 C2.736999988555908,11.642999649047852 -6.664999961853027,15.079999923706055 -23.172000885009766,2.73799991607666 C-23.172000885009766,2.73799991607666 -35.27799987792969,-1.9950000047683716 -29.493000030517578,-3.1070001125335693 C-29.493000030517578,-3.1070001125335693 -13.447999954223633,-12.444999694824219 -1.555999994277954,-11.32699966430664 C-1.555999994277954,-11.32699966430664 18.809999465942383,-15.081000328063965 35.27799987792969,0.7429999709129333z"></path></g><g opacity="1" transform="matrix(1,0,0,1,199.9340057373047,157.52699279785156)"><path fill="rgb(207,214,187)" fill-opacity="1" d=" M33.404998779296875,20.0310001373291 C33.404998779296875,20.0310001373291 4.791999816894531,10.583000183105469 4.791999816894531,10.583000183105469 C4.791999816894531,10.583000183105469 -3.9149999618530273,7.986000061035156 -14.881999969482422,-6.218999862670898 C-14.881999969482422,-6.218999862670898 -24.386999130249023,-13.538999557495117 -24.386999130249023,-13.538999557495117 C-24.386999130249023,-13.538999557495117 -33.404998779296875,-20.0310001373291 -20.770999908447266,-17.733999252319336 C-20.770999908447266,-17.733999252319336 22.649999618530273,-19.499000549316406 33.404998779296875,20.0310001373291z"></path></g><g opacity="1" transform="matrix(1,0,0,1,158.33099365234375,137.82899475097656)"><path fill="rgb(129,148,139)" fill-opacity="1" d=" M16.35700035095215,16.191999435424805 C16.35700035095215,16.191999435424805 3.881999969482422,12.82699966430664 -5.00600004196167,-2.696000099182129 C-5.00600004196167,-2.696000099182129 -13.685999870300293,-11.513999938964844 -13.685999870300293,-11.513999938964844 C-13.685999870300293,-11.513999938964844 -16.357999801635742,-16.191999435424805 -12.085000038146973,-13.508000373840332 C-12.085000038146973,-13.508000373840332 -2.5439999103546143,-13.343000411987305 0.7570000290870667,-9.503000259399414 C0.7570000290870667,-9.503000259399414 6.124000072479248,-4.192999839782715 7.697000026702881,4.949999809265137 C7.697000026702881,4.949999809265137 11.788000106811523,12.73900032043457 16.35700035095215,16.191999435424805z"></path></g><g opacity="1" transform="matrix(1,0,0,1,255.49000549316406,172.46600341796875)"><path fill="rgb(129,145,143)" fill-opacity="1" d=" M100.45700073242188,-23.48900032043457 C100.45700073242188,-23.48900032043457 78.52999877929688,-11.862000465393066 78.52999877929688,-11.862000465393066 C78.52999877929688,-11.862000465393066 59.948001861572266,-4.482999801635742 59.948001861572266,-4.482999801635742 C59.948001861572266,-4.482999801635742 47.83599853515625,7.119999885559082 47.83599853515625,7.119999885559082 C47.83599853515625,7.119999885559082 41.180999755859375,11.241999626159668 41.180999755859375,11.241999626159668 C41.180999755859375,11.241999626159668 32.13800048828125,15.404999732971191 32.13800048828125,15.404999732971191 C32.13800048828125,15.404999732971191 26.194000244140625,18.22800064086914 26.194000244140625,18.22800064086914 C26.194000244140625,18.22800064086914 33.15999984741211,12.925000190734863 33.15999984741211,12.925000190734863 C33.15999984741211,12.925000190734863 39.933998107910156,9.204999923706055 39.933998107910156,9.204999923706055 C39.933998107910156,9.204999923706055 49.2859992980957,3.8610000610351562 49.2859992980957,3.8610000610351562 C49.2859992980957,3.8610000610351562 54.03099822998047,-2.322999954223633 54.03099822998047,-2.322999954223633 C54.03099822998047,-2.322999954223633 18.849000930786133,5.747000217437744 18.849000930786133,5.747000217437744 C18.849000930786133,5.747000217437744 6.168000221252441,7.914000034332275 6.168000221252441,7.914000034332275 C6.168000221252441,7.914000034332275 -11.659000396728516,16.382999420166016 -11.659000396728516,16.382999420166016 C-11.659000396728516,16.382999420166016 -19.277000427246094,17.948999404907227 -19.277000427246094,17.948999404907227 C-19.277000427246094,17.948999404907227 -27.27199935913086,18.968000411987305 -27.27199935913086,18.968000411987305 C-27.27199935913086,18.968000411987305 -32.736000061035156,19.687999725341797 -32.736000061035156,19.687999725341797 C-32.736000061035156,19.687999725341797 -44.790000915527344,26.2549991607666 -44.790000915527344,26.2549991607666 C-44.790000915527344,26.2549991607666 -50.53900146484375,27.493999481201172 -50.53900146484375,27.493999481201172 C-50.53900146484375,27.493999481201172 -35.099998474121094,19.066999435424805 -35.099998474121094,19.066999435424805 C-35.099998474121094,19.066999435424805 -28.92300033569336,17.048999786376953 -28.92300033569336,17.048999786376953 C-28.92300033569336,17.048999786376953 -22.53700065612793,16.496999740600586 -22.53700065612793,16.496999740600586 C-22.53700065612793,16.496999740600586 -17.21500015258789,16.038000106811523 -17.21500015258789,16.038000106811523 C-17.21500015258789,16.038000106811523 -8.62399959564209,13.317000389099121 -8.62399959564209,13.317000389099121 C-8.62399959564209,13.317000389099121 3.1429998874664307,7.269000053405762 3.1429998874664307,7.269000053405762 C3.1429998874664307,7.269000053405762 -11.213000297546387,8.178000450134277 -11.213000297546387,8.178000450134277 C-11.213000297546387,8.178000450134277 -24.520999908447266,5.946000099182129 -24.520999908447266,5.946000099182129 C-24.520999908447266,5.946000099182129 -43.83700180053711,4.809999942779541 -43.83700180053711,4.809999942779541 C-43.83700180053711,4.809999942779541 -72.61599731445312,4.9029998779296875 -72.61599731445312,4.9029998779296875 C-72.61599731445312,4.9029998779296875 -48.25299835205078,2.38700008392334 -48.25299835205078,2.38700008392334 C-48.25299835205078,2.38700008392334 -78.48600006103516,-11.49899959564209 -78.48600006103516,-11.49899959564209 C-78.48600006103516,-11.49899959564209 -92.68199920654297,-18.273000717163086 -92.68199920654297,-18.273000717163086 C-92.68199920654297,-18.273000717163086 -98.74800109863281,-22.617000579833984 -98.74800109863281,-22.617000579833984 C-98.74800109863281,-22.617000579833984 -101.47899627685547,-27.4950008392334 -101.47899627685547,-27.4950008392334 C-101.47899627685547,-27.4950008392334 -90.24199676513672,-19.638999938964844 -90.24199676513672,-19.638999938964844 C-90.24199676513672,-19.638999938964844 -79.68399810791016,-14.859000205993652 -79.68399810791016,-14.859000205993652 C-79.68399810791016,-14.859000205993652 -85.1050033569336,-22.22800064086914 -85.1050033569336,-22.22800064086914 C-85.1050033569336,-22.22800064086914 -76.94400024414062,-13.694000244140625 -76.94400024414062,-13.694000244140625 C-76.94400024414062,-13.694000244140625 -49.47600173950195,-0.31200000643730164 -49.47600173950195,-0.31200000643730164 C-49.47600173950195,-0.31200000643730164 -35.816001892089844,3.128000020980835 -35.816001892089844,3.128000020980835 C-35.816001892089844,3.128000020980835 -25.365999221801758,3.7920000553131104 -25.365999221801758,3.7920000553131104 C-25.365999221801758,3.7920000553131104 -30.770999908447266,-0.5249999761581421 -30.770999908447266,-0.5249999761581421 C-30.770999908447266,-0.5249999761581421 -16.291000366210938,5.730000019073486 -16.291000366210938,5.730000019073486 C-16.291000366210938,5.730000019073486 -1.440000057220459,5.767000198364258 -1.440000057220459,5.767000198364258 C-1.440000057220459,5.767000198364258 27.13800048828125,0.49399998784065247 27.13800048828125,0.49399998784065247 C27.13800048828125,0.49399998784065247 18.2549991607666,-3.0269999504089355 18.2549991607666,-3.0269999504089355 C18.2549991607666,-3.0269999504089355 4.570000171661377,-5.802999973297119 4.570000171661377,-5.802999973297119 C4.570000171661377,-5.802999973297119 -20.14699935913086,-21.733999252319336 -20.14699935913086,-21.733999252319336 C-20.14699935913086,-21.733999252319336 5.9710001945495605,-7.739999771118164 5.9710001945495605,-7.739999771118164 C5.9710001945495605,-7.739999771118164 19.538999557495117,-5.364999771118164 19.538999557495117,-5.364999771118164 C19.538999557495117,-5.364999771118164 28.79800033569336,-1.2990000247955322 28.79800033569336,-1.2990000247955322 C28.79800033569336,-1.2990000247955322 38.066001892089844,-0.9440000057220459 38.066001892089844,-0.9440000057220459 C38.066001892089844,-0.9440000057220459 60.73699951171875,-7.76800012588501 60.73699951171875,-7.76800012588501 C60.73699951171875,-7.76800012588501 79.43499755859375,-14.744999885559082 79.43499755859375,-14.744999885559082 C79.43499755859375,-14.744999885559082 62.608001708984375,-18.56999969482422 62.608001708984375,-18.56999969482422 C62.608001708984375,-18.56999969482422 49.37799835205078,-22.788999557495117 49.37799835205078,-22.788999557495117 C49.37799835205078,-22.788999557495117 65.16500091552734,-19.534000396728516 65.16500091552734,-19.534000396728516 C65.16500091552734,-19.534000396728516 80.66799926757812,-15.758999824523926 80.66799926757812,-15.758999824523926 C80.66799926757812,-15.758999824523926 101.47899627685547,-25.966999053955078 101.47899627685547,-25.966999053955078 C101.47899627685547,-25.966999053955078 100.45700073242188,-23.48900032043457 100.45700073242188,-23.48900032043457z"></path></g><g opacity="1" transform="matrix(1,0,0,1,323.3340148925781,176.92300415039062)"><path fill="rgb(83,67,81)" fill-opacity="1" d=" M-9.791000366210938,-33.69300079345703 C-9.791000366210938,-33.69300079345703 -12.229000091552734,-12.180000305175781 12.229999542236328,13.979999542236328 C12.229999542236328,13.979999542236328 -2.3440001010894775,2.632999897003174 -4.9079999923706055,-8.253999710083008 C-4.9079999923706055,-8.253999710083008 5.785999774932861,33.69300079345703 5.785999774932861,33.69300079345703 C5.785999774932861,33.69300079345703 -3.318000078201294,4.171000003814697 -3.318000078201294,4.171000003814697 C-3.318000078201294,4.171000003814697 -9.791000366210938,-33.69300079345703 -9.791000366210938,-33.69300079345703z"></path></g><g opacity="1" transform="matrix(1,0,0,1,342.8489990234375,193.02499389648438)"><path fill="rgb(129,148,139)" fill-opacity="1" d=" M2.4070000648498535,3.003000020980835 C13.784000396728516,7.9070000648498535 20.094999313354492,15.545000076293945 23.60300064086914,22.7450008392334 C23.97100067138672,23.98699951171875 24.12700080871582,24.711999893188477 24.12700080871582,24.711999893188477 C16.575000762939453,15.725000381469727 7.764999866485596,14.442000389099121 7.764999866485596,14.442000389099121 C-16.641000747680664,5.894999980926514 -24.12700080871582,-24.711999893188477 -24.12700080871582,-24.711999893188477 C-23.68400001525879,-24.259000778198242 -23.100000381469727,-23.735000610351562 -22.413999557495117,-23.165000915527344 C-15.696999549865723,-7.366000175476074 2.4070000648498535,3.003000020980835 2.4070000648498535,3.003000020980835z"></path></g><g opacity="1" transform="matrix(1,0,0,1,343.4440002441406,192.81500244140625)"><path fill="rgb(74,99,96)" fill-opacity="1" d=" M23.009000778198242,22.954999923706055 C19.500999450683594,15.755000114440918 13.1899995803833,8.116000175476074 1.812999963760376,3.2119998931884766 C1.812999963760376,3.2119998931884766 -16.29199981689453,-7.1570000648498535 -23.009000778198242,-22.95599937438965 C-15.994000434875488,-17.114999771118164 2.2260000705718994,-5.913000106811523 2.2260000705718994,-5.913000106811523 C16.108999252319336,3.302000045776367 21.461999893188477,17.73900032043457 23.009000778198242,22.954999923706055z"></path></g><g opacity="1" transform="matrix(1,0,0,1,337.4150085449219,211.96299743652344)"><path fill="rgb(129,148,139)" fill-opacity="1" d=" M20.545000076293945,27.479999542236328 C20.57200050354004,27.58799934387207 20.589000701904297,27.65399932861328 20.589000701904297,27.65399932861328 C9.996999740600586,22.93899917602539 -8.022000312805176,7.423999786376953 -8.022000312805176,7.423999786376953 C-20.58799934387207,-2.572999954223633 -15.812999725341797,-27.65399932861328 -15.812999725341797,-27.65399932861328 C-15.812999725341797,-27.65399932861328 -15.685999870300293,-27.506000518798828 -15.685999870300293,-27.506000518798828 C-5.3420000076293945,6.081999778747559 9.444999694824219,20.92099952697754 20.545000076293945,27.479999542236328z"></path></g><g opacity="1" transform="matrix(1,0,0,1,339.843994140625,211.9499969482422)"><path fill="rgb(74,99,96)" fill-opacity="1" d=" M-18.114999771118164,-27.493000030517578 C-18.114999771118164,-27.493000030517578 2.3499999046325684,-3.5199999809265137 2.3499999046325684,-3.5199999809265137 C12.918999671936035,8.293000221252441 17.631999969482422,25.6299991607666 18.115999221801758,27.493000030517578 C7.017000198364258,20.934999465942383 -7.769999980926514,6.09499979019165 -18.114999771118164,-27.493000030517578z"></path></g><g opacity="1" transform="matrix(1,0,0,1,316.01800537109375,189.9029998779297)"><path fill="rgb(74,99,96)" fill-opacity="1" d=" M1.3600000143051147,-24.878000259399414 C1.659000039100647,-25.246999740600586 1.8320000171661377,-25.45199966430664 1.8320000171661377,-25.45199966430664 C7.326000213623047,0.6629999876022339 -0.19699999690055847,12.47599983215332 -0.19699999690055847,12.47599983215332 C-4.201000213623047,18.02400016784668 -5.829999923706055,23.104000091552734 -6.421999931335449,25.45199966430664 C-7.324999809265137,18.802000045776367 -6.995999813079834,4.39300012588501 1.3600000143051147,-24.878000259399414z"></path></g><g opacity="1" transform="matrix(1,0,0,1,309.2770080566406,190.8769989013672)"><path fill="rgb(129,148,139)" fill-opacity="1" d=" M8.10099983215332,-25.851999282836914 C-0.2549999952316284,3.4189999103546143 -0.5839999914169312,17.827999114990234 0.3190000057220459,24.47800064086914 C0.10000000149011612,25.34600067138672 0.01899999938905239,25.851999282836914 0.01899999938905239,25.851999282836914 C-1.9869999885559082,20.965999603271484 -4.1620001792907715,6.822000026702881 -4.1620001792907715,6.822000026702881 C-8.100000381469727,-4.9720001220703125 5.388999938964844,-22.4950008392334 8.10099983215332,-25.851999282836914z"></path></g><g opacity="1" transform="matrix(1,0,0,1,331.49798583984375,149.9980010986328)"><path fill="rgb(129,145,143)" fill-opacity="1" d=" M-5.677000045776367,-10.789999961853027 C-5.677000045776367,-10.789999961853027 3.0350000858306885,4.129000186920166 0.3930000066757202,10.789999961853027 C0.3930000066757202,10.789999961853027 5.677000045776367,-2.5320000648498535 -5.677000045776367,-10.789999961853027z"></path></g><g opacity="1" transform="matrix(1,0,0,1,309.6820068359375,119.84300231933594)"><path fill="rgb(188,196,151)" fill-opacity="1" d=" M-26.395000457763672,-6.2270002365112305 C-27.298999786376953,-6.48199987411499 -28.215999603271484,-6.716000080108643 -29.160999298095703,-6.900000095367432 C-29.160999298095703,-6.900000095367432 0.7099999785423279,-24.02199935913086 18.93600082397461,2.430000066757202 C18.93600082397461,2.430000066757202 29.160999298095703,21.312000274658203 18.756999969482422,24.023000717163086 C9.09000015258789,-5.116000175476074 -16.15399932861328,-6.813000202178955 -26.395000457763672,-6.2270002365112305z"></path></g><g opacity="1" transform="matrix(1,0,0,1,305.8630065917969,128.65699768066406)"><path fill="rgb(216,213,179)" fill-opacity="1" d=" M-22.576000213623047,-15.041000366210938 C-12.335000038146973,-15.626999855041504 12.909000396728516,-13.930999755859375 22.576000213623047,15.208000183105469 C21.395000457763672,15.517000198364258 19.959999084472656,15.626999855041504 18.200000762939453,15.465999603271484 C8.809000015258789,14.604999542236328 -1.6799999475479126,-9.156999588012695 -22.576000213623047,-15.041000366210938z"></path></g><g opacity="1" transform="matrix(1,0,0,1,289.6189880371094,145.2259979248047)"><path fill="rgb(199,195,143)" fill-opacity="1" d=" M34.67399978637695,8.126999855041504 C34.7130012512207,8.187000274658203 34.75299835205078,8.241000175476074 34.79199981689453,8.302000045776367 C34.79199981689453,8.302000045776367 -14.994000434875488,27.231000900268555 -34.79199981689453,-27.231000900268555 C-34.79199981689453,-27.231000900268555 -34.332000732421875,-26.812000274658203 -33.5,-26.165000915527344 C-20.836000442504883,-12.51200008392334 3.8359999656677246,8.663000106811523 34.67399978637695,8.126999855041504z"></path></g><g opacity="1" transform="matrix(1,0,0,1,290.20599365234375,136.47500610351562)"><path fill="rgb(207,214,187)" fill-opacity="1" d=" M34.08700180053711,16.878000259399414 C3.249000072479248,17.413999557495117 -21.42300033569336,-3.760999917984009 -34.08700180053711,-17.413999557495117 C-30.466999053955078,-14.593999862670898 -19.79800033569336,-7.421000003814697 -9.336999893188477,-11.446000099182129 C-9.336999893188477,-11.446000099182129 15.067999839782715,-12.256999969482422 34.08700180053711,16.878000259399414z"></path></g><g opacity="1" transform="matrix(1,0,0,1,270.3380126953125,205.26400756835938)"><path fill="rgb(198,215,207)" fill-opacity="1" d=" M-5.97599983215332,18.847999572753906 C-5.97599983215332,18.847999572753906 -31.538000106811523,22.301000595092773 -31.538000106811523,22.301000595092773 C-24.881999969482422,13.508000373840332 -16.051000595092773,4.511000156402588 -6.927999973297119,2.9179999828338623 C-6.927999973297119,2.9179999828338623 3.1449999809265137,3.0380001068115234 7.705999851226807,-5.27400016784668 C7.705999851226807,-5.27400016784668 18.76300048828125,-19.31399917602539 31.538000106811523,-22.299999237060547 C24.214000701904297,-15.720000267028809 17.861000061035156,3.4159998893737793 17.861000061035156,3.4159998893737793 C14.36299991607666,16.2450008392334 -5.97599983215332,18.847999572753906 -5.97599983215332,18.847999572753906z"></path></g><g opacity="1" transform="matrix(1,0,0,1,237.6929931640625,154.14100646972656)"><path fill="rgb(121,162,143)" fill-opacity="1" d=" M9.437999725341797,1.1729999780654907 C21.104999542236328,7.26200008392334 28.51300048828125,10.291000366210938 33.112998962402344,11.791999816894531 C33.19300079345703,12.656000137329102 33.22700119018555,13.553999900817871 33.19900131225586,14.493000030517578 C33.19900131225586,14.493000030517578 32.930999755859375,14.652999877929688 32.930999755859375,14.652999877929688 C32.930999755859375,14.652999877929688 8.23799991607666,21.052000045776367 0.29499998688697815,8.720999717712402 C0.29499998688697815,8.720999717712402 -2.7760000228881836,-1.1629999876022339 -9.631999969482422,-2.953000068664551 C-9.631999969482422,-2.953000068664551 -16.14299964904785,-1.1779999732971191 -21.05299949645996,-9.109000205993652 C-21.05299949645996,-9.109000205993652 -33.03099822998047,-19.482999801635742 -33.03099822998047,-19.482999801635742 C-33.03099822998047,-19.482999801635742 -33.22700119018555,-20.36199951171875 -32.808998107910156,-21.052000045776367 C-14.388999938964844,-13.98799991607666 9.437999725341797,1.1729999780654907 9.437999725341797,1.1729999780654907z"></path></g><g opacity="1" transform="matrix(1,0,0,1,237.843994140625,148.58399963378906)"><path fill="rgb(207,214,187)" fill-opacity="1" d=" M32.96099853515625,17.349000930786133 C28.361000061035156,15.847999572753906 20.952999114990234,12.819000244140625 9.28600025177002,6.730000019073486 C9.28600025177002,6.730000019073486 -14.541000366210938,-8.430999755859375 -32.96099853515625,-15.494999885559082 C-32.5,-16.2549991607666 -31.290000915527344,-16.784000396728516 -28.207000732421875,-15.640000343322754 C-28.207000732421875,-15.640000343322754 -9.4399995803833,-17.349000930786133 -0.75,-10.64900016784668 C-0.75,-10.64900016784668 8.217000007629395,-0.7559999823570251 16.849000930786133,-1.0889999866485596 C16.849000930786133,-1.0889999866485596 31.66200065612793,3.2200000286102295 32.96099853515625,17.349000930786133z"></path></g><g opacity="1" transform="matrix(1,0,0,1,136.6179962158203,153.91299438476562)"><path fill="rgb(74,99,96)" fill-opacity="1" d=" M5.185999870300293,2.4130001068115234 C-6.5929999351501465,-0.6179999709129333 -17.445999145507812,2.184000015258789 -26.238000869750977,6.370999813079834 C-26.284000396728516,6.289000034332275 -26.32200050354004,6.197000026702881 -26.34600067138672,6.09499979019165 C-26.34600067138672,6.09499979019165 -26.386999130249023,3.7060000896453857 -20.4950008392334,2.2079999446868896 C-20.4950008392334,2.2079999446868896 -9.027999877929688,-6.370999813079834 4.434999942779541,-4.730000019073486 C4.434999942779541,-4.730000019073486 12.336000442504883,-1.5759999752044678 16.347000122070312,-2.4179999828338623 C16.347000122070312,-2.4179999828338623 21.43899917602539,-3.075000047683716 26.386999130249023,-0.7509999871253967 C14.371000289916992,1.49399995803833 5.185999870300293,2.4130001068115234 5.185999870300293,2.4130001068115234z"></path></g><g opacity="1" transform="matrix(1,0,0,1,138.6199951171875,160.88699340820312)"><path fill="rgb(129,148,139)" fill-opacity="1" d=" M13.16100025177002,0.47999998927116394 C13.16100025177002,0.47999998927116394 12.895000457763672,7.724999904632568 3.7860000133514404,4.922999858856201 C3.7860000133514404,4.922999858856201 -5.664000034332275,6.815999984741211 -15.326000213623047,0.6790000200271606 C-15.326000213623047,0.6790000200271606 -19.91200065612793,-3.009999990463257 -24.05699920654297,-0.3840000033378601 C-24.05699920654297,-0.3840000033378601 -27.500999450683594,0.7149999737739563 -28.239999771118164,-0.6029999852180481 C-19.447999954223633,-4.790999889373779 -8.595000267028809,-7.5920000076293945 3.184000015258789,-4.560999870300293 C3.184000015258789,-4.560999870300293 12.368000030517578,-5.480000019073486 24.385000228881836,-7.724999904632568 C25.714000701904297,-7.1020002365112305 27.034000396728516,-6.275000095367432 28.239999771118164,-5.1479997634887695 C28.239999771118164,-5.1479997634887695 18.261999130249023,-6.645999908447266 13.16100025177002,0.47999998927116394z"></path></g><g opacity="1" transform="matrix(1,0,0,1,135.7310028076172,137.83799743652344)"><path fill="rgb(74,99,96)" fill-opacity="1" d=" M7.880000114440918,0.722000002861023 C-1.8270000219345093,-6.447999954223633 -14.199999809265137,-7.639999866485596 -23.450000762939453,-7.248000144958496 C-23.4950008392334,-7.578999996185303 -23.18600082397461,-7.97599983215332 -22.03499984741211,-8.397000312805176 C-22.03499984741211,-8.397000312805176 -10.887999534606934,-12.081999778747559 -1.7710000276565552,-7.75600004196167 C-1.7710000276565552,-7.75600004196167 19.9950008392334,-6.00600004196167 23.4950008392334,12.081999778747559 C15.652999877929688,5.123000144958496 7.880000114440918,0.722000002861023 7.880000114440918,0.722000002861023z"></path></g><g opacity="1" transform="matrix(1,0,0,1,135.76400756835938,140.20399475097656)"><path fill="rgb(129,148,139)" fill-opacity="1" d=" M-11.597999572753906,-3.6670000553131104 C-11.597999572753906,-3.6670000553131104 -15.506999969482422,-9.623000144958496 -22.516000747680664,-8.942999839782715 C-22.516000747680664,-8.942999839782715 -23.469999313354492,-9.295999526977539 -23.54199981689453,-9.8149995803833 C-14.291999816894531,-10.208000183105469 -1.9190000295639038,-9.015999794006348 7.788000106811523,-1.8459999561309814 C7.788000106811523,-1.8459999561309814 15.560999870300293,2.555999994277954 23.402000427246094,9.515000343322754 C23.44700050354004,9.746999740600586 23.503999710083008,9.970000267028809 23.54199981689453,10.208000183105469 C23.54199981689453,10.208000183105469 8.791999816894531,5.224999904632568 8.791999816894531,5.224999904632568 C8.791999816894531,5.224999904632568 -7.002999782562256,2.740999937057495 -11.597999572753906,-3.6670000553131104z"></path></g></g></g></svg>