<svg xmlns="http://www.w3.org/2000/svg" viewBox="0 0 232 420" width="232" height="420" preserveAspectRatio="xMidYMid meet" style="width: 100%; height: 100%; transform: translate3d(0px, 0px, 0px);"><defs><clipPath id="__lottie_element_214"><rect width="232" height="420" x="0" y="0"></rect></clipPath></defs><g clip-path="url(#__lottie_element_214)"><g transform="matrix(1,0,0,1,-33,-61)" opacity="1" style="display: block;"><g opacity="1" transform="matrix(1,0,0,1,56.268001556396484,346.4989929199219)"><path fill="rgb(83,67,81)" fill-opacity="1" d=" M-56.14400100708008,-37.47800064086914 C-56.14400100708008,-37.47800064086914 -30.832000732421875,-3.634000062942505 38.933998107910156,0.8339999914169312 C38.933998107910156,0.8339999914169312 3.0390000343322754,4.198999881744385 -15.168999671936035,-7.8470001220703125 C-15.168999671936035,-7.8470001220703125 56.14400100708008,37.47800064086914 56.14400100708008,37.47800064086914 C56.14400100708008,37.47800064086914 3.7100000381469727,7.690000057220459 3.7100000381469727,7.690000057220459 C3.7100000381469727,7.690000057220459 -56.14400100708008,-37.47800064086914 -56.14400100708008,-37.47800064086914z"></path></g><g opacity="1" transform="matrix(1,0,0,1,108.39800262451172,352.3240051269531)"><path fill="rgb(129,148,139)" fill-opacity="1" d=" M7.439000129699707,-10.67199993133545 C30.172000885009766,-18.920000076293945 49.36399841308594,-16.503000259399414 63.98099899291992,-10.961000442504883 C66.16699981689453,-9.687999725341797 67.3550033569336,-8.864999771118164 67.3550033569336,-8.864999771118164 C44.59700012207031,-11.538999557495117 30.357999801635742,-1.5779999494552612 30.357999801635742,-1.5779999494552612 C-15.770000457763672,18.920000076293945 -67.3550033569336,-14.571999549865723 -67.3550033569336,-14.571999549865723 C-66.11799621582031,-14.52299976348877 -64.58999633789062,-14.560999870300293 -62.85200119018555,-14.666999816894531 C-32.16899871826172,-1.1929999589920044 7.439000129699707,-10.67199993133545 7.439000129699707,-10.67199993133545z"></path></g><g opacity="1" transform="matrix(1,0,0,1,108.96299743652344,336.89300537109375)"><path fill="rgb(74,99,96)" fill-opacity="1" d=" M63.41699981689453,4.46999979019165 C48.79999923706055,-1.0720000267028809 29.607999801635742,-3.489000082015991 6.875,4.758999824523926 C6.875,4.758999824523926 -32.73400115966797,14.23799991607666 -63.41699981689453,0.7639999985694885 C-45.63199996948242,-0.31700000166893005 -4.744999885559082,-8.765000343322754 -4.744999885559082,-8.765000343322754 C27.316999435424805,-14.23799991607666 54.242000579833984,-0.875 63.41699981689453,4.46999979019165z"></path></g><g opacity="1" transform="matrix(1,0,0,1,129.40199279785156,377.6600036621094)"><path fill="rgb(129,148,139)" fill-opacity="1" d=" M62.571998596191406,8.717000007629395 C62.75600051879883,8.833000183105469 62.867000579833984,8.904000282287598 62.867000579833984,8.904000282287598 C41.50299835205078,16.371000289916992 -4.868000030517578,18.422000885009766 -4.868000030517578,18.422000885009766 C-36.10300064086914,21.020999908447266 -62.867000579833984,-21.02199935913086 -62.867000579833984,-21.02199935913086 C-62.867000579833984,-21.02199935913086 -62.4900016784668,-20.979999542236328 -62.4900016784668,-20.979999542236328 C-2.8540000915527344,12.928000450134277 38.02000045776367,14.241000175476074 62.571998596191406,8.717000007629395z"></path></g><g opacity="1" transform="matrix(1,0,0,1,129.4429931640625,374.2919921875)"><path fill="rgb(74,99,96)" fill-opacity="1" d=" M-62.53099822998047,-17.611000061035156 C-62.53099822998047,-17.611000061035156 -1.3680000305175781,-10.91100025177002 -1.3680000305175781,-10.91100025177002 C29.459999084472656,-8.258000373840332 59.3489990234375,10.085000038146973 62.53099822998047,12.086000442504883 C37.979000091552734,17.611000061035156 -2.8949999809265137,16.297000885009766 -62.53099822998047,-17.611000061035156z"></path></g><g opacity="1" transform="matrix(1,0,0,1,62.814998626708984,375.1289978027344)"><path fill="rgb(74,99,96)" fill-opacity="1" d=" M-28.083999633789062,-40.255001068115234 C-28.15399932861328,-41.17900085449219 -28.18199920654297,-41.70199966430664 -28.18199920654297,-41.70199966430664 C14.564000129699707,-11.927000045776367 19.67300033569336,14.927000045776367 19.67300033569336,14.927000045776367 C21.4060001373291,28.17099952697754 25.882999420166016,37.57400131225586 28.18199920654297,41.70199966430664 C18.000999450683594,33.45600128173828 -0.8059999942779541,12.53600025177002 -28.083999633789062,-40.255001068115234z"></path></g><g opacity="1" transform="matrix(1,0,0,1,63.56999969482422,377.0299987792969)"><path fill="rgb(129,148,139)" fill-opacity="1" d=" M-28.839000701904297,-42.15599822998047 C-1.5609999895095825,10.635000228881836 17.246000289916992,31.55500030517578 27.427000045776367,39.80099868774414 C28.277999877929688,41.32899856567383 28.839000701904297,42.15700149536133 28.839000701904297,42.15700149536133 C19.45199966430664,37.89500045776367 -2.562000036239624,20.695999145507812 -2.562000036239624,20.695999145507812 C-23.937999725341797,9.199999809265137 -28.202999114990234,-33.755001068115234 -28.839000701904297,-42.15599822998047z"></path></g></g><g transform="matrix(1,0,0,1,-16,9)" opacity="1" style="display: block;"><g opacity="1" transform="matrix(1,0,0,1,45.492000579833984,173.2740020751953)"><path fill="rgb(80,115,108)" fill-opacity="1" d=" M9.519000053405762,-16.893999099731445 C9.519000053405762,-16.893999099731445 -13.949000358581543,21.56599998474121 -13.949000358581543,21.56599998474121 C-13.949000358581543,21.56599998474121 -9.63700008392334,18.450000762939453 -9.63700008392334,18.450000762939453 C-9.63700008392334,18.450000762939453 13.949999809265137,-21.56599998474121 13.949999809265137,-21.56599998474121 C13.949999809265137,-21.56599998474121 9.519000053405762,-16.893999099731445 9.519000053405762,-16.893999099731445z"></path></g><g opacity="1" transform="matrix(1,0,0,1,95.9000015258789,27.33300018310547)"><path fill="rgb(198,215,207)" fill-opacity="1" d=" M-9.666999816894531,23.33300018310547 C-9.666999816894531,23.33300018310547 -21.584999084472656,-16.996999740600586 7.631999969482422,-23.33300018310547 C7.631999969482422,-23.33300018310547 21.586000442504883,-2.11299991607666 5.864999771118164,6.706999778747559 C5.864999771118164,6.706999778747559 -2.9639999866485596,9.890000343322754 -9.666999816894531,23.33300018310547z"></path></g><g opacity="1" transform="matrix(1,0,0,1,108.83699798583984,51.07500076293945)"><path fill="rgb(198,215,207)" fill-opacity="1" d=" M-17.263999938964844,7.117000102996826 C-17.263999938964844,7.117000102996826 -16.440000534057617,-16.80699920654297 8.321000099182129,-13.66100025177002 C8.321000099182129,-13.66100025177002 17.26300048828125,-12.15999984741211 9.982000350952148,-3.2339999675750732 C9.982000350952148,-3.2339999675750732 8.281999588012695,16.805999755859375 -17.263999938964844,7.117000102996826z"></path></g><g opacity="1" transform="matrix(1,0,0,1,88.03500366210938,52.31700134277344)"><path fill="rgb(80,115,108)" fill-opacity="1" d=" M-9.668999671936035,20.089000701904297 C-9.668999671936035,20.089000701904297 4.193999767303467,-20.089000701904297 4.193999767303467,-20.089000701904297 C4.193999767303467,-20.089000701904297 -2.7230000495910645,10.232999801635742 -2.7230000495910645,10.232999801635742 C-2.7230000495910645,10.232999801635742 11.39900016784668,-0.10999999940395355 11.39900016784668,-0.10999999940395355 C11.39900016784668,-0.10999999940395355 -11.39799976348877,19.66200065612793 -9.668999671936035,20.089000701904297z"></path></g><g opacity="1" transform="matrix(1,0,0,1,70.9800033569336,86.39399719238281)"><path fill="rgb(216,213,179)" fill-opacity="1" d=" M-8.26200008392334,34.70899963378906 C-8.26200008392334,34.70899963378906 -29.534000396728516,-11.173999786376953 6.60699987411499,-34.70899963378906 C6.60699987411499,-34.70899963378906 7.195000171661377,-17.069000244140625 14.430000305175781,-8.652999877929688 C14.430000305175781,-8.652999877929688 29.533000946044922,8.477999687194824 -8.26200008392334,34.70899963378906z"></path></g><g opacity="1" transform="matrix(1,0,0,1,46.75299835205078,110.06999969482422)"><path fill="rgb(216,213,179)" fill-opacity="1" d=" M1.6629999876022339,21.966999053955078 C1.6629999876022339,21.966999053955078 -12.281999588012695,13.869999885559082 -9.371999740600586,-1.3559999465942383 C-9.371999740600586,-1.3559999465942383 -16.2810001373291,-21.966999053955078 -4.6579999923706055,-13.031999588012695 C-4.6579999923706055,-13.031999588012695 16.280000686645508,-0.10599999874830246 1.6629999876022339,21.966999053955078z"></path></g><g opacity="1" transform="matrix(1,0,0,1,44.071998596191406,231.25399780273438)"><path fill="rgb(80,115,108)" fill-opacity="1" d=" M-24.124000549316406,51.518001556396484 C-24.124000549316406,51.518001556396484 -19.579999923706055,24.922000885009766 -19.579999923706055,24.922000885009766 C-19.579999923706055,24.922000885009766 -17.79199981689453,-8.619999885559082 -17.79199981689453,-8.619999885559082 C-17.79199981689453,-8.619999885559082 -16.70800018310547,14.020999908447266 -16.70800018310547,14.020999908447266 C-16.70800018310547,14.020999908447266 -6.413000106811523,-9.9399995803833 -6.413000106811523,-9.9399995803833 C-6.413000106811523,-9.9399995803833 -2.5820000171661377,-17.009000778198242 -2.5820000171661377,-17.009000778198242 C-2.5820000171661377,-17.009000778198242 3.5260000228881836,-23.1200008392334 3.5260000228881836,-23.1200008392334 C3.5260000228881836,-23.1200008392334 12.267999649047852,-32.94599914550781 12.267999649047852,-32.94599914550781 C12.267999649047852,-32.94599914550781 23.402999877929688,-51.518001556396484 23.402999877929688,-51.518001556396484 C23.402999877929688,-51.518001556396484 24.124000549316406,-44.569000244140625 24.124000549316406,-44.569000244140625 C24.124000549316406,-44.569000244140625 13.586999893188477,-27.674999237060547 13.586999893188477,-27.674999237060547 C13.586999893188477,-27.674999237060547 3.5280001163482666,-17.01099967956543 3.5280001163482666,-17.01099967956543 C3.5280001163482666,-17.01099967956543 -4.375,-5.868000030517578 -4.375,-5.868000030517578 C-4.375,-5.868000030517578 -17.183000564575195,28.395999908447266 -17.183000564575195,28.395999908447266 C-17.183000564575195,28.395999908447266 -24.124000549316406,51.518001556396484 -24.124000549316406,51.518001556396484z"></path></g><g opacity="1" transform="matrix(1,0,0,1,55.38999938964844,150.3509979248047)"><path fill="rgb(80,115,108)" fill-opacity="1" d=" M-6.300000190734863,38.14799880981445 C-6.300000190734863,38.14799880981445 -0.8539999723434448,5.205999851226807 -0.8539999723434448,5.205999851226807 C-0.8539999723434448,5.205999851226807 -0.28200000524520874,-3.4010000228881836 -0.28200000524520874,-3.4010000228881836 C-0.28200000524520874,-3.4010000228881836 -2.1630001068115234,-10.072999954223633 -2.1630001068115234,-10.072999954223633 C-2.1630001068115234,-10.072999954223633 -8.71399974822998,-22.413000106811523 -8.71399974822998,-22.413000106811523 C-8.71399974822998,-22.413000106811523 -6.283999919891357,-31.68899917602539 -6.283999919891357,-31.68899917602539 C-6.283999919891357,-31.68899917602539 -5.2170000076293945,-19.99799919128418 -5.2170000076293945,-19.99799919128418 C-5.2170000076293945,-19.99799919128418 0.996999979019165,-8.588000297546387 0.996999979019165,-8.588000297546387 C0.996999979019165,-8.588000297546387 8.71399974822998,-38.14799880981445 8.71399974822998,-38.14799880981445 C8.71399974822998,-38.14799880981445 4.25,-9.76099967956543 4.25,-9.76099967956543 C4.25,-9.76099967956543 1.340000033378601,5.465000152587891 1.340000033378601,5.465000152587891 C1.340000033378601,5.465000152587891 -6.300000190734863,38.14799880981445 -6.300000190734863,38.14799880981445z"></path></g><g opacity="1" transform="matrix(1,0,0,1,55.858001708984375,197.07200622558594)"><path fill="rgb(121,162,143)" fill-opacity="1" d=" M-16.290000915527344,28.367000579833984 C-16.85300064086914,28.812000274658203 -17.375,29.27199935913086 -17.836999893188477,29.750999450683594 C-17.836999893188477,29.750999450683594 -26.118999481201172,-23.67300033569336 11.37600040435791,-26.43899917602539 C11.37600040435791,-26.43899917602539 20.652000427246094,-29.75200080871582 26.1200008392334,-27.415000915527344 C2.2820000648498535,-6.201000213623047 -10.029000282287598,13.102999687194824 -16.290000915527344,28.367000579833984z"></path></g><g opacity="1" transform="matrix(1,0,0,1,64.90599822998047,197.5489959716797)"><path fill="rgb(198,215,207)" fill-opacity="1" d=" M-2.930999994277954,19.204999923706055 C-2.930999994277954,19.204999923706055 -18.006999969482422,22.10300064086914 -25.33799934387207,27.891000747680664 C-19.07699966430664,12.626999855041504 -6.767000198364258,-6.677999973297119 17.070999145507812,-27.891000747680664 C20.367000579833984,-26.48200035095215 22.280000686645508,-23.020999908447266 19.93899917602539,-15.541999816894531 C19.93899917602539,-15.541999816894531 25.33799934387207,12.128999710083008 -2.930999994277954,19.204999923706055z"></path></g><g opacity="1" transform="matrix(1,0,0,1,39.196998596191406,205.88800048828125)"><path fill="rgb(188,196,151)" fill-opacity="1" d=" M-12.013999938964844,29.663999557495117 C-10.696999549865723,13.85099983215332 -10.402000427246094,-8.734999656677246 -15.87600040435791,-29.663999557495117 C-14.354000091552734,-29.47599983215332 -12.446999549865723,-28.625 -10.055000305175781,-26.73900032043457 C0.5009999871253967,-18.416000366210938 15.87600040435791,5.2870001792907715 -12.013999938964844,29.663999557495117z"></path></g><g opacity="1" transform="matrix(1,0,0,1,14.39799976348877,206.3470001220703)"><path fill="rgb(216,213,179)" fill-opacity="1" d=" M-5.254000186920166,-1.3170000314712524 C-5.254000186920166,-1.3170000314712524 3.005000114440918,-23.240999221801758 3.005000114440918,-23.240999221801758 C3.005000114440918,-23.240999221801758 3.5850000381469727,-30.781999588012695 8.923999786376953,-30.12299919128418 C14.39799976348877,-9.194000244140625 14.10099983215332,13.392000198364258 12.78499984741211,29.204999923706055 C12.182999610900879,29.729999542236328 11.569999694824219,30.256999969482422 10.928000450134277,30.781999588012695 C10.928000450134277,30.781999588012695 -18.18600082397461,16.177000045776367 -5.254000186920166,-1.3170000314712524z"></path></g><g opacity="1" transform="matrix(1,0,0,1,70.91400146484375,153.68899536132812)"><path fill="rgb(188,196,151)" fill-opacity="1" d=" M-27.007999420166016,25.100000381469727 C-27.29599952697754,25.40399932861328 -27.586000442504883,25.722000122070312 -27.87700080871582,26.054000854492188 C-27.87700080871582,26.054000854492188 -31.2450008392334,-26.054000854492188 13.916999816894531,-24.6299991607666 C13.916999816894531,-24.6299991607666 27.700000762939453,-23.729999542236328 31.2450008392334,-20.089000701904297 C-4.72599983215332,-9.371999740600586 -20.83799934387207,13.324999809265137 -27.007999420166016,25.100000381469727z"></path></g><g opacity="1" transform="matrix(1,0,0,1,73.76000213623047,156.19500732421875)"><path fill="rgb(216,213,179)" fill-opacity="1" d=" M25.92799949645996,-16.597999572753906 C25.92799949645996,-16.597999572753906 18.631999969482422,21.378000259399414 -13.593000411987305,16.71500015258789 C-13.593000411987305,16.71500015258789 -21.117000579833984,13.350000381469727 -29.854000091552734,22.5939998626709 C-23.68400001525879,10.819000244140625 -7.571000099182129,-11.87600040435791 28.399999618530273,-22.5939998626709 C29.854999542236328,-21.099000930786133 29.58799934387207,-19.143999099731445 25.92799949645996,-16.597999572753906z"></path></g><g opacity="1" transform="matrix(1,0,0,1,14.857999801635742,183.9550018310547)"><path fill="rgb(198,215,207)" fill-opacity="1" d=" M2.5820000171661377,12.5649995803833 C2.5820000171661377,12.5649995803833 -13.927000045776367,13.46399974822998 -11.979000091552734,-2.9820001125335693 C-11.979000091552734,-2.9820001125335693 -15.364999771118164,-13.46399974822998 -8.854000091552734,-10.583000183105469 C-8.854000091552734,-10.583000183105469 14.857999801635742,-2.7239999771118164 2.5820000171661377,12.5649995803833z"></path></g><g opacity="1" transform="matrix(1,0,0,1,32.417999267578125,168.32899475097656)"><path fill="rgb(188,196,151)" fill-opacity="1" d=" M-2.7339999675750732,16.899999618530273 C-2.7339999675750732,16.899999618530273 -6.23799991607666,1.8140000104904175 -6.23799991607666,1.8140000104904175 C-6.23799991607666,1.8140000104904175 -11.809000015258789,-4.005000114440918 -5.230000019073486,-14.270000457763672 C-5.230000019073486,-14.270000457763672 2.2239999771118164,-16.899999618530273 5.486000061035156,-0.7229999899864197 C5.486000061035156,-0.7229999899864197 11.807999610900879,13.27400016784668 -2.7339999675750732,16.899999618530273z"></path></g><g opacity="1" transform="matrix(1,0,0,1,61.92599868774414,153.30999755859375)"><path fill="rgb(121,162,143)" fill-opacity="1" d=" M8.145999908447266,13.73799991607666 C8.145999908447266,13.73799991607666 3.0299999713897705,9.73799991607666 -3.5139999389648438,10.854999542236328 C-3.5139999389648438,10.854999542236328 -13.145999908447266,10.425000190734863 -6.625,-4.716000080108643 C-6.625,-4.716000080108643 1.6799999475479126,-13.73799991607666 10.243000030517578,3.0480000972747803 C10.243000030517578,3.0480000972747803 13.145999908447266,10.5600004196167 8.145999908447266,13.73799991607666z"></path></g><g opacity="1" transform="matrix(1,0,0,1,84.88999938964844,132.2220001220703)"><path fill="rgb(199,195,143)" fill-opacity="1" d=" M-6.204999923706055,16.718000411987305 C-6.204999923706055,16.718000411987305 -17.459999084472656,-4.672999858856201 0.3869999945163727,-16.718000411987305 C0.3869999945163727,-16.718000411987305 17.459999084472656,1.6770000457763672 -6.204999923706055,16.718000411987305z"></path></g><g opacity="1" transform="matrix(1,0,0,1,106.93599700927734,112.2750015258789)"><path fill="rgb(198,215,207)" fill-opacity="1" d=" M-2.066999912261963,14.175000190734863 C-2.066999912261963,14.175000190734863 -15.114999771118164,2.11299991607666 -0.8999999761581421,-14.175000190734863 C-0.8999999761581421,-14.175000190734863 15.114999771118164,2.552999973297119 -2.066999912261963,14.175000190734863z"></path></g><g opacity="1" transform="matrix(1,0,0,1,123.91899871826172,98.91400146484375)"><path fill="rgb(199,195,143)" fill-opacity="1" d=" M-3.4749999046325684,16.701000213623047 C-3.4749999046325684,16.701000213623047 -13.944000244140625,-3.0840001106262207 6.934000015258789,-15.885000228881836 C6.934000015258789,-15.885000228881836 9.690999984741211,-16.701000213623047 9.505999565124512,-13.309000015258789 C9.505999565124512,-13.309000015258789 13.944999694824219,11.71399974822998 -3.4749999046325684,16.701000213623047z"></path></g><g opacity="1" transform="matrix(1,0,0,1,134.76300048828125,128.02699279785156)"><path fill="rgb(121,162,143)" fill-opacity="1" d=" M-10.57699966430664,9.307999610900879 C-10.57699966430664,9.307999610900879 -8.777999877929688,-10.319000244140625 10.576000213623047,-8.581000328063965 C10.576000213623047,-8.581000328063965 8.081000328063965,10.319000244140625 -10.57699966430664,9.307999610900879z"></path></g><g opacity="1" transform="matrix(1,0,0,1,124.61100006103516,167.7899932861328)"><path fill="rgb(121,162,143)" fill-opacity="1" d=" M-15.831999778747559,5.309000015258789 C-15.831999778747559,5.309000015258789 -6.370999813079834,-14.041000366210938 10.986000061035156,-13.607000350952148 C10.986000061035156,-13.607000350952148 15.831999778747559,-12.241000175476074 10.708999633789062,-5.942999839782715 C10.708999633789062,-5.942999839782715 -2.328000068664551,14.039999961853027 -15.831999778747559,5.309000015258789z"></path></g><g opacity="1" transform="matrix(1,0,0,1,111.6780014038086,188.2310028076172)"><path fill="rgb(198,215,207)" fill-opacity="1" d=" M-10.055999755859375,-0.9909999966621399 C-10.055999755859375,-0.9909999966621399 1.9739999771118164,-10.039999961853027 10.055000305175781,1.2020000219345093 C10.055000305175781,1.2020000219345093 -1.6419999599456787,10.039999961853027 -10.055999755859375,-0.9909999966621399z"></path></g><g opacity="1" transform="matrix(1,0,0,1,100.1520004272461,215.93099975585938)"><path fill="rgb(198,215,207)" fill-opacity="1" d=" M-16.486000061035156,13.371999740600586 C-16.486000061035156,13.371999740600586 -12.62600040435791,-10.373000144958496 6.244999885559082,-11.604000091552734 C6.244999885559082,-11.604000091552734 16.48699951171875,-16.475000381469727 10.815999984741211,-5.14900016784668 C10.815999984741211,-5.14900016784668 5.138999938964844,16.475000381469727 -16.486000061035156,13.371999740600586z"></path></g><g opacity="1" transform="matrix(1,0,0,1,92.41100311279297,243.906005859375)"><path fill="rgb(207,214,187)" fill-opacity="1" d=" M-14.871000289916992,-2.5209999084472656 C-14.871000289916992,-2.5209999084472656 -0.5059999823570251,-15.628000259399414 14.871000289916992,2.6760001182556152 C14.871000289916992,2.6760001182556152 -4.038000106811523,15.628999710083008 -14.871000289916992,-2.5209999084472656z"></path></g><g opacity="1" transform="matrix(1,0,0,1,36.94599914550781,278.64898681640625)"><path fill="rgb(198,215,207)" fill-opacity="1" d=" M0.3709999918937683,10.994000434875488 C0.3709999918937683,10.994000434875488 -13.642999649047852,-7.00600004196167 4.413000106811523,-10.994000434875488 C4.413000106811523,-10.994000434875488 13.642999649047852,2.7939999103546143 0.3709999918937683,10.994000434875488z"></path></g><g opacity="1" transform="matrix(1,0,0,1,58.61899948120117,274.43499755859375)"><path fill="rgb(198,215,207)" fill-opacity="1" d=" M-8.729999542236328,14.003999710083008 C-8.729999542236328,14.003999710083008 -12.807000160217285,-7.504000186920166 8.097000122070312,-14.003999710083008 C8.097000122070312,-14.003999710083008 12.807999610900879,11.07800006866455 -8.729999542236328,14.003999710083008z"></path></g><g opacity="1" transform="matrix(1,0,0,1,79.83599853515625,283.1929931640625)"><path fill="rgb(121,162,143)" fill-opacity="1" d=" M-17.166000366210938,6.951000213623047 C-17.166000366210938,6.951000213623047 -12.12399959564209,-10.031000137329102 -3.7330000400543213,-9.95300006866455 C-3.1740000247955322,-9.946999549865723 -2.5999999046325684,-9.866999626159668 -2.010999917984009,-9.701000213623047 C-2.010999917984009,-9.701000213623047 2.864000082015991,-7.184000015258789 9.409000396728516,-10.875 C9.409000396728516,-10.875 17.166000366210938,-14.868000030517578 11.496000289916992,-6.117000102996826 C11.496000289916992,-6.117000102996826 4.244999885559082,14.869000434875488 -17.166000366210938,6.951000213623047z"></path></g><g opacity="1" transform="matrix(1,0,0,1,69.87100219726562,214.45199584960938)"><path fill="rgb(128,155,150)" fill-opacity="1" d=" M-59.7400016784668,103.46700286865234 C-59.7400016784668,103.46700286865234 -34.125999450683594,19.336000442504883 -45.28799819946289,-6.326000213623047 C-45.28799819946289,-6.326000213623047 -53.39899826049805,-18.719999313354492 -53.39899826049805,-18.719999313354492 C-53.39899826049805,-18.719999313354492 -51.63999938964844,-21.475000381469727 -51.63999938964844,-21.475000381469727 C-51.63999938964844,-21.475000381469727 -44.770999908447266,-9.930000305175781 -44.770999908447266,-9.930000305175781 C-44.770999908447266,-9.930000305175781 -38.28099822998047,-23.648000717163086 -38.00299835205078,-33.88600158691406 C-38.00299835205078,-33.88600158691406 -35.185001373291016,-34.9739990234375 -35.185001373291016,-34.9739990234375 C-35.185001373291016,-34.9739990234375 -36.16400146484375,-17.739999771118164 -41.10499954223633,-12.26099967956543 C-41.10499954223633,-12.26099967956543 -44.40999984741211,-6.415999889373779 -41.444000244140625,-1.75 C-41.444000244140625,-1.75 -39.12900161743164,27.663000106811523 -44.652000427246094,44.74300003051758 C-44.652000427246094,44.74300003051758 -35.97800064086914,26.363000869750977 -27.492000579833984,19.097999572753906 C-27.492000579833984,19.097999572753906 2.180999994277954,-15.20300006866455 2.180999994277954,-15.20300006866455 C2.180999994277954,-15.20300006866455 12.645000457763672,-37.76300048828125 -1.7369999885559082,-48.979000091552734 C-1.7369999885559082,-48.979000091552734 0.052000001072883606,-50.58399963378906 0.052000001072883606,-50.58399963378906 C0.052000001072883606,-50.58399963378906 6.709000110626221,-39.37200164794922 6.709000110626221,-39.37200164794922 C6.709000110626221,-39.37200164794922 9.151000022888184,-70.87300109863281 9.151000022888184,-70.87300109863281 C9.151000022888184,-70.87300109863281 11.72700023651123,-73.44599914550781 11.72700023651123,-73.44599914550781 C11.72700023651123,-73.44599914550781 8.404000282287598,-36.70600128173828 8.404000282287598,-36.70600128173828 C8.404000282287598,-36.70600128173828 5.03000020980835,-17.715999603271484 5.03000020980835,-17.715999603271484 C5.03000020980835,-17.715999603271484 6.968999862670898,-18.71500015258789 6.968999862670898,-18.71500015258789 C6.968999862670898,-18.71500015258789 31.86199951171875,-59.80400085449219 31.86199951171875,-59.80400085449219 C31.86199951171875,-59.80400085449219 33.92399978637695,-63.922000885009766 33.92399978637695,-63.922000885009766 C33.92399978637695,-63.922000885009766 35.090999603271484,-92.27300262451172 35.090999603271484,-92.27300262451172 C35.090999603271484,-92.27300262451172 36.72700119018555,-91.90799713134766 36.72700119018555,-91.90799713134766 C36.72700119018555,-91.90799713134766 35.86600112915039,-70.06999969482422 35.86600112915039,-70.06999969482422 C35.86600112915039,-70.06999969482422 42.263999938964844,-82.09100341796875 42.263999938964844,-82.09100341796875 C42.263999938964844,-82.09100341796875 48.99300003051758,-89.17500305175781 50.847999572753906,-103.92500305175781 C50.847999572753906,-103.92500305175781 54,-105.22599792480469 54,-105.22599792480469 C54,-105.22599792480469 51.32400131225586,-88.08300018310547 44.20100021362305,-80.51499938964844 C44.20100021362305,-80.51499938964844 37.43899917602539,-66.85800170898438 37.43899917602539,-66.85800170898438 C37.43899917602539,-66.85800170898438 57.46900177001953,-80.99099731445312 57.46900177001953,-80.99099731445312 C57.46900177001953,-80.99099731445312 59.7400016784668,-79.62699890136719 59.7400016784668,-79.62699890136719 C59.7400016784668,-79.62699890136719 35.04399871826172,-62.52799987792969 35.04399871826172,-62.52799987792969 C35.04399871826172,-62.52799987792969 13.63700008392334,-25.525999069213867 13.63700008392334,-25.525999069213867 C13.63700008392334,-25.525999069213867 44.452999114990234,-44.409000396728516 44.452999114990234,-44.409000396728516 C44.452999114990234,-44.409000396728516 44.02799987792969,-42.500999450683594 44.02799987792969,-42.500999450683594 C44.02799987792969,-42.500999450683594 23.695999145507812,-29.57900047302246 23.695999145507812,-29.57900047302246 C23.695999145507812,-29.57900047302246 39.71699905395508,-25.722000122070312 39.71699905395508,-25.722000122070312 C39.71699905395508,-25.722000122070312 39.14099884033203,-24.42099952697754 39.14099884033203,-24.42099952697754 C39.14099884033203,-24.42099952697754 19.9689998626709,-26.97599983215332 19.9689998626709,-26.97599983215332 C19.9689998626709,-26.97599983215332 2.937000036239624,-12.173999786376953 2.937000036239624,-12.173999786376953 C2.937000036239624,-12.173999786376953 -27.038999557495117,20.915000915527344 -27.038999557495117,20.915000915527344 C-27.038999557495117,20.915000915527344 -36.52799987792969,33.96500015258789 -39.22700119018555,39.65700149536133 C-39.22700119018555,39.65700149536133 -19.711999893188477,26.554000854492188 -8.199999809265137,23.683000564575195 C-8.199999809265137,23.683000564575195 15.458999633789062,18.94099998474121 20.674999237060547,8.373000144958496 C20.674999237060547,8.373000144958496 21.945999145507812,10.371999740600586 21.945999145507812,10.371999740600586 C21.945999145507812,10.371999740600586 8.520000457763672,23.117000579833984 -2.8389999866485596,24.018999099731445 C-2.8389999866485596,24.018999099731445 17.118999481201172,28.180999755859375 17.118999481201172,28.180999755859375 C17.118999481201172,28.180999755859375 16.239999771118164,30.84600067138672 16.239999771118164,30.84600067138672 C16.239999771118164,30.84600067138672 -1.656999945640564,22.56599998474121 -10.352999687194824,26.92300033569336 C-10.352999687194824,26.92300033569336 -31.952999114990234,32.69599914550781 -38.98699951171875,43.71699905395508 C-38.98699951171875,43.71699905395508 -46.35200119018555,52.375 -46.35200119018555,52.375 C-46.35200119018555,52.375 -56.98500061035156,105.22599792480469 -56.98500061035156,105.22599792480469 C-56.98500061035156,105.22599792480469 -59.7400016784668,103.46700286865234 -59.7400016784668,103.46700286865234z"></path></g><g opacity="1" transform="matrix(1,0,0,1,41.30400085449219,297.46099853515625)"><path fill="rgb(128,155,150)" fill-opacity="1" d=" M-30.400999069213867,20.6299991607666 C-30.400999069213867,20.6299991607666 -30.108999252319336,3.9100000858306885 -16.173999786376953,1.2929999828338623 C-16.173999786376953,1.2929999828338623 -6.921999931335449,1.184999942779541 -4.741000175476074,-3.7890000343322754 C-4.741000175476074,-3.7890000343322754 -4.8520002365112305,-22.125 -4.8520002365112305,-22.125 C-4.8520002365112305,-22.125 -3.134000062942505,-2.9769999980926514 -3.134000062942505,-2.9769999980926514 C-3.134000062942505,-2.9769999980926514 17.722999572753906,-19.00200080871582 17.722999572753906,-19.00200080871582 C17.722999572753906,-19.00200080871582 17.472000122070312,-17.768999099731445 17.472000122070312,-17.768999099731445 C17.472000122070312,-17.768999099731445 -2.453000068664551,-2.181999921798706 -2.453000068664551,-2.181999921798706 C-2.453000068664551,-2.181999921798706 19.20800018310547,-3.4110000133514404 30.400999069213867,-14.267999649047852 C30.400999069213867,-14.267999649047852 19.93199920654297,0.18400000035762787 -2.7249999046325684,0.8569999933242798 C-25.381999969482422,1.5299999713897705 -28.33300018310547,6.2129998207092285 -28.82699966430664,22.125 C-28.82699966430664,22.125 -30.400999069213867,20.6299991607666 -30.400999069213867,20.6299991607666z"></path></g></g><g transform="matrix(1,0,0,1,-25,-58)" opacity="1" style="display: block;"><g opacity="1" transform="matrix(1,0,0,1,88.51499938964844,258.864013671875)"><path fill="rgb(122,144,128)" fill-opacity="1" d=" M87.96900177001953,-68.53199768066406 C87.96900177001953,-68.53199768066406 78.0770034790039,-53.888999938964844 78.0770034790039,-53.888999938964844 C78.0770034790039,-53.888999938964844 70.322998046875,-38.71699905395508 70.322998046875,-38.71699905395508 C70.322998046875,-38.71699905395508 52.57400131225586,-8.043000221252441 52.57400131225586,-8.043000221252441 C52.57400131225586,-8.043000221252441 32.40700149536133,14.734000205993652 32.40700149536133,14.734000205993652 C32.40700149536133,14.734000205993652 43.5989990234375,11.571999549865723 43.5989990234375,11.571999549865723 C43.5989990234375,11.571999549865723 56.58300018310547,11.038999557495117 56.58300018310547,11.038999557495117 C56.58300018310547,11.038999557495117 65.0790023803711,16.03700065612793 65.0790023803711,16.03700065612793 C65.0790023803711,16.03700065612793 51.50199890136719,13.640999794006348 51.50199890136719,13.640999794006348 C51.50199890136719,13.640999794006348 42.33300018310547,14.765999794006348 42.33300018310547,14.765999794006348 C42.33300018310547,14.765999794006348 28.155000686645508,18.923999786376953 28.155000686645508,18.923999786376953 C28.155000686645508,18.923999786376953 7.625999927520752,35.38199996948242 7.625999927520752,35.38199996948242 C7.625999927520752,35.38199996948242 -22.929000854492188,48.880001068115234 -22.929000854492188,48.880001068115234 C-22.929000854492188,48.880001068115234 -45.319000244140625,54.303001403808594 -45.319000244140625,54.303001403808594 C-45.319000244140625,54.303001403808594 -37.91899871826172,62.904998779296875 -37.91899871826172,62.904998779296875 C-37.91899871826172,62.904998779296875 -28.917999267578125,68.53199768066406 -28.917999267578125,68.53199768066406 C-28.917999267578125,68.53199768066406 -37.066001892089844,65.6719970703125 -37.066001892089844,65.6719970703125 C-37.066001892089844,65.6719970703125 -49.983001708984375,53.50699996948242 -49.983001708984375,53.50699996948242 C-49.983001708984375,53.50699996948242 -77.0530014038086,55.53200149536133 -77.0530014038086,55.53200149536133 C-77.0530014038086,55.53200149536133 -82.68399810791016,55.75699996948242 -82.68399810791016,55.75699996948242 C-82.68399810791016,55.75699996948242 -87.96900177001953,56.150001525878906 -87.96900177001953,56.150001525878906 C-87.96900177001953,56.150001525878906 -87.25599670410156,53.24300003051758 -87.25599670410156,53.24300003051758 C-87.25599670410156,53.24300003051758 -58.4109992980957,52.641998291015625 -58.4109992980957,52.641998291015625 C-58.4109992980957,52.641998291015625 -50.6349983215332,50.87699890136719 -50.6349983215332,50.87699890136719 C-50.6349983215332,50.87699890136719 -22.906999588012695,36.82899856567383 -12.604999542236328,16.204999923706055 C-12.604999542236328,16.204999923706055 -9.911999702453613,19.166000366210938 -9.911999702453613,19.166000366210938 C-9.911999702453613,19.166000366210938 -32.340999603271484,45.01499938964844 -47.01900100708008,51.305999755859375 C-47.01900100708008,51.305999755859375 -25.288000106811523,46.2140007019043 -25.288000106811523,46.2140007019043 C-25.288000106811523,46.2140007019043 5.442999839782715,34.50899887084961 5.442999839782715,34.50899887084961 C5.442999839782715,34.50899887084961 23.576000213623047,19.86199951171875 23.576000213623047,19.86199951171875 C23.576000213623047,19.86199951171875 47.194000244140625,-6.0320000648498535 47.194000244140625,-6.0320000648498535 C47.194000244140625,-6.0320000648498535 51.117000579833984,-28.709999084472656 51.117000579833984,-28.709999084472656 C51.117000579833984,-28.709999084472656 50.178001403808594,-39.89899826049805 50.178001403808594,-39.89899826049805 C50.178001403808594,-39.89899826049805 55.12300109863281,-39.70199966430664 55.12300109863281,-39.70199966430664 C55.12300109863281,-39.70199966430664 50.551998138427734,-9.753999710083008 50.551998138427734,-9.753999710083008 C50.551998138427734,-9.753999710083008 71.56099700927734,-49.26100158691406 71.56099700927734,-49.26100158691406 C71.56099700927734,-49.26100158691406 85.0260009765625,-67.01699829101562 85.0260009765625,-67.01699829101562 C85.0260009765625,-67.01699829101562 87.96900177001953,-68.53199768066406 87.96900177001953,-68.53199768066406z"></path></g><g opacity="1" transform="matrix(1,0,0,1,196.2530059814453,156.6929931640625)"><path fill="rgb(200,218,185)" fill-opacity="1" d=" M12.571000099182129,-55.66600036621094 C17.430999755859375,-47.22800064086914 25.729000091552734,-29.20800018310547 20.551000595092773,-11.381999969482422 C20.551000595092773,-11.381999969482422 33.90800094604492,5.625999927520752 13.23799991607666,16.18000030517578 C13.23799991607666,16.18000030517578 -2.5769999027252197,48.29399871826172 -33.90800094604492,55.66600036621094 C-33.90800094604492,55.66600036621094 -33.82600021362305,55.26300048828125 -33.70000076293945,54.54800033569336 C-7.0980000495910645,20.121999740600586 6.665999889373779,-28.999000549316406 12.571000099182129,-55.66600036621094z"></path></g><g opacity="1" transform="matrix(1,0,0,1,175.93600463867188,151.76199340820312)"><path fill="rgb(155,174,127)" fill-opacity="1" d=" M-13.383000373840332,59.47999954223633 C-12.458999633789062,54.22700119018555 -9.045000076293945,31.670000076293945 -16.479000091552734,21.048999786376953 C-16.479000091552734,21.048999786376953 -32.88800048828125,-12.675999641418457 2.9779999256134033,-29.687000274658203 C2.9779999256134033,-29.687000274658203 17.663000106811523,-59.47999954223633 29.759000778198242,-55.67599868774414 C29.759000778198242,-55.67599868774414 31.090999603271484,-53.85499954223633 32.88800048828125,-50.73400115966797 C26.982999801635742,-24.066999435424805 13.220000267028809,25.05299949645996 -13.383000373840332,59.47999954223633z"></path></g><g opacity="1" transform="matrix(1,0,0,1,184.94900512695312,259.27301025390625)"><path fill="rgb(155,174,127)" fill-opacity="1" d=" M-46.729000091552734,12.541999816894531 C-45.777000427246094,10.673999786376953 -44.2760009765625,8.779000282287598 -42.111000061035156,6.89300012588501 C-42.111000061035156,6.89300012588501 -19.566999435424805,-31.410999298095703 8.418999671936035,-1.1970000267028809 C8.418999671936035,-1.1970000267028809 16.172000885009766,5.480000019073486 26.07900047302246,4.318999767303467 C26.07900047302246,4.318999767303467 41.27000045776367,9.449999809265137 46.72999954223633,30.86199951171875 C46.72999954223633,30.86199951171875 46.40999984741211,31.06599998474121 45.84600067138672,31.40999984741211 C25.586000442504883,18.48900032043457 -11.704999923706055,0.24300000071525574 -46.729000091552734,12.541999816894531z"></path></g><g opacity="1" transform="matrix(1,0,0,1,181.17599487304688,287.0270080566406)"><path fill="rgb(200,218,185)" fill-opacity="1" d=" M-42.95600128173828,-15.211999893188477 C-7.932000160217285,-27.51099967956543 29.358999252319336,-9.265000343322754 49.61899948120117,3.6559998989105225 C43.672000885009766,7.281000137329102 8.614999771118164,27.51099967956543 -8.894000053405762,11.89799976348877 C-8.894000053405762,11.89799976348877 -12.545000076293945,8.508999824523926 -21.53700065612793,9.133000373840332 C-29.40399932861328,9.678999900817871 -49.61899948120117,-2.1429998874664307 -42.95600128173828,-15.211999893188477z"></path></g><g opacity="1" transform="matrix(1,0,0,1,105.22100067138672,241.4720001220703)"><path fill="rgb(200,218,185)" fill-opacity="1" d=" M-13.494999885559082,-12.512999534606934 C-12.932999610900879,-32.374000549316406 -4.906000137329102,-41.58700180053711 2.1500000953674316,-45.862998962402344 C8.821000099182129,-30.993999481201172 35.624000549316406,37.492000579833984 -32.50299835205078,45.86199951171875 C-32.50299835205078,45.86199951171875 -33.90800094604492,45.50299835205078 -35.624000549316406,44.513999938964844 C-15.638999938964844,23.017000198364258 -13.494999885559082,-12.512999534606934 -13.494999885559082,-12.512999534606934z"></path></g><g opacity="1" transform="matrix(1,0,0,1,78.52799987792969,235.44500732421875)"><path fill="rgb(155,174,127)" fill-opacity="1" d=" M-6.947000026702881,-20.125 C-6.947000026702881,-20.125 8.651000022888184,-50.54199981689453 27.507999420166016,-42.676998138427734 C27.507999420166016,-42.676998138427734 28.02400016784668,-41.65999984741211 28.843000411987305,-39.834999084472656 C21.78700065612793,-35.560001373291016 13.76099967956543,-26.347000122070312 13.197999954223633,-6.485000133514404 C13.197999954223633,-6.485000133514404 11.053999900817871,29.045000076293945 -8.930999755859375,50.54199981689453 C-11.550999641418457,49.03200149536133 -14.901000022888184,46.04100036621094 -15.128000259399414,40.512001037597656 C-15.128000259399414,40.512001037597656 -28.843000411987305,6.679999828338623 -6.947000026702881,-20.125z"></path></g><g opacity="1" transform="matrix(1,0,0,1,85.1520004272461,300.510009765625)"><path fill="rgb(155,174,127)" fill-opacity="1" d=" M9.383999824523926,15.777999877929688 C9.383999824523926,15.777999877929688 -1.8680000305175781,17.427000045776367 -12.399999618530273,13.135000228881836 C-12.399999618530273,13.135000228881836 -22.18400001525879,13.741999626159668 -31.891000747680664,15.920000076293945 C-27.25,13.12399959564209 -20.408000946044922,7.946000099182129 -14.387999534606934,-0.8379999995231628 C-14.387999534606934,-0.8379999995231628 -5.71999979019165,-17.42799949645996 19.040000915527344,-3.257999897003174 C19.040000915527344,-3.257999897003174 22.729999542236328,3.061000108718872 31.8799991607666,0.18700000643730164 C31.8799991607666,0.18700000643730164 31.891000747680664,0.7509999871253967 31.864999771118164,1.7109999656677246 C26.281999588012695,7.289999961853027 18.03700065612793,14.015000343322754 9.383999824523926,15.777999877929688z"></path></g><g opacity="1" transform="matrix(1,0,0,1,82.41400146484375,324.6990051269531)"><path fill="rgb(200,218,185)" fill-opacity="1" d=" M-9.661999702453613,-11.052000045776367 C0.8700000047683716,-6.760000228881836 12.121999740600586,-8.409000396728516 12.121999740600586,-8.409000396728516 C20.774999618530273,-10.17199993133545 29.020999908447266,-16.89900016784668 34.604000091552734,-22.47800064086914 C34.39699935913086,-14.789999961853027 31.687000274658203,19.865999221801758 -0.39100000262260437,20.711999893188477 C-0.39100000262260437,20.711999893188477 -25.361000061035156,22.476999282836914 -34.604000091552734,-5.505000114440918 C-34.604000091552734,-5.505000114440918 -32.41899871826172,-6.301000118255615 -29.152999877929688,-8.267999649047852 C-19.445999145507812,-10.446000099182129 -9.661999702453613,-11.052000045776367 -9.661999702453613,-11.052000045776367z"></path></g><g opacity="1" transform="matrix(1,0,0,1,123.95999908447266,190.1490020751953)"><path fill="rgb(155,174,127)" fill-opacity="1" d=" M-5.781000137329102,-32.944000244140625 C-4.002999782562256,-16.0049991607666 4.109000205993652,-5.823999881744385 4.109000205993652,-5.823999881744385 C16.16900062561035,6.421999931335449 17.114999771118164,23.469999313354492 16.527000427246094,32.94300079345703 C5.789000034332275,31.160999298095703 5.823999881744385,17.944000244140625 5.823999881744385,17.944000244140625 C-17.114999771118164,8.449000358581543 -8.562000274658203,-9.961999893188477 -8.562000274658203,-9.961999893188477 C-13.90999984741211,-21.624000549316406 -9.541999816894531,-29.106000900268555 -5.781000137329102,-32.944000244140625z"></path></g><g opacity="1" transform="matrix(1,0,0,1,143.98199462890625,188.6840057373047)"><path fill="rgb(200,218,185)" fill-opacity="1" d=" M-21.8700008392334,-34.590999603271484 C-19.97800064086914,-23.02899932861328 -6.01200008392334,-17.715999603271484 -6.01200008392334,-17.715999603271484 C25.80299949645996,5.053999900817871 -1.909999966621399,34.59199905395508 -1.909999966621399,34.59199905395508 C-2.4660000801086426,34.560001373291016 -2.98799991607666,34.49300003051758 -3.494999885559082,34.409000396728516 C-2.9059998989105225,24.934999465942383 -3.8529999256134033,7.888000011444092 -15.913999557495117,-4.357999801635742 C-15.913999557495117,-4.357999801635742 -24.024999618530273,-14.538999557495117 -25.804000854492188,-31.47800064086914 C-23.746000289916992,-33.577999114990234 -21.8700008392334,-34.590999603271484 -21.8700008392334,-34.590999603271484z"></path></g></g></g></svg>