<svg xmlns="http://www.w3.org/2000/svg" viewBox="0 0 296 473" width="296" height="473" preserveAspectRatio="xMidYMid meet" style="width: 100%; height: 100%; transform: translate3d(0px, 0px, 0px);"><defs><clipPath id="__lottie_element_194"><rect width="296" height="473" x="0" y="0"></rect></clipPath></defs><g clip-path="url(#__lottie_element_194)"><g transform="matrix(1,0,0,1,-4,-33)" opacity="1" style="display: block;"><g opacity="1" transform="matrix(1,0,0,1,210.23500061035156,168.14500427246094)"><path fill="rgb(198,215,207)" fill-opacity="1" d=" M-12.32699966430664,-2.9570000171661377 C-12.32699966430664,-2.9570000171661377 -3.3610000610351562,-12.583999633789062 4.599999904632568,-2.0820000171661377 C4.599999904632568,-2.0820000171661377 12.32699966430664,2.058000087738037 7.005000114440918,4 C7.005000114440918,4 -10.923999786376953,12.583000183105469 -12.32699966430664,-2.9570000171661377z"></path></g><g opacity="1" transform="matrix(1,0,0,1,203.2740020751953,189.4739990234375)"><path fill="rgb(199,195,143)" fill-opacity="1" d=" M-6.151000022888184,-11.055000305175781 C-6.151000022888184,-11.055000305175781 4.184999942779541,-4.3429999351501465 4.184999942779541,-4.3429999351501465 C4.184999942779541,-4.3429999351501465 10.58899974822998,-4.080999851226807 12.484000205993652,5.433000087738037 C12.484000205993652,5.433000087738037 9.664999961853027,11.055000305175781 -1.1330000162124634,3.5829999446868896 C-1.1330000162124634,3.5829999446868896 -12.484000205993652,-0.949999988079071 -6.151000022888184,-11.055000305175781z"></path></g><g opacity="1" transform="matrix(1,0,0,1,192.88900756835938,212.29600524902344)"><path fill="rgb(207,214,187)" fill-opacity="1" d=" M-8.880999565124512,-1.1640000343322754 C-8.880999565124512,-1.1640000343322754 -3.739000082015991,-1.6950000524520874 -0.6060000061988831,-5.947000026702881 C-0.6060000061988831,-5.947000026702881 5.1529998779296875,-11.017000198364258 9.772000312805176,1.2610000371932983 C9.772000312805176,1.2610000371932983 9.991999626159668,11.017000198364258 -4.181000232696533,6.120999813079834 C-4.181000232696533,6.120999813079834 -9.991999626159668,3.4170000553131104 -8.880999565124512,-1.1640000343322754z"></path></g><g opacity="1" transform="matrix(1,0,0,1,195.56500244140625,237.66799926757812)"><path fill="rgb(199,195,143)" fill-opacity="1" d=" M-6.498000144958496,-11.402000427246094 C-6.498000144958496,-11.402000427246094 11.76099967956543,-5.353000164031982 8.180000305175781,11.402000427246094 C8.180000305175781,11.402000427246094 -11.76099967956543,10.281999588012695 -6.498000144958496,-11.402000427246094z"></path></g><g opacity="1" transform="matrix(1,0,0,1,192.24600219726562,261.91400146484375)"><path fill="rgb(198,215,207)" fill-opacity="1" d=" M-5.771999835968018,-8.303999900817871 C-5.771999835968018,-8.303999900817871 8.364999771118164,-8.592000007629395 9.206000328063965,8.590999603271484 C9.206000328063965,8.590999603271484 -9.206000328063965,7.841000080108643 -5.771999835968018,-8.303999900817871z"></path></g><g opacity="1" transform="matrix(1,0,0,1,188.3719940185547,281.6239929199219)"><path fill="rgb(199,195,143)" fill-opacity="1" d=" M-4.84499979019165,-13.206000328063965 C-4.84499979019165,-13.206000328063965 12.07699966430664,-7.644000053405762 7.176000118255615,11.217000007629395 C7.176000118255615,11.217000007629395 6.046999931335449,13.206000328063965 4.2789998054504395,11.15999984741211 C4.2789998054504395,11.15999984741211 -12.076000213623047,-0.7319999933242798 -4.84499979019165,-13.206000328063965z"></path></g><g opacity="1" transform="matrix(1,0,0,1,168.66700744628906,268.9989929199219)"><path fill="rgb(121,162,143)" fill-opacity="1" d=" M0.7250000238418579,-10.96500015258789 C0.7250000238418579,-10.96500015258789 10.527999877929688,1.277999997138977 -1.524999976158142,10.96500015258789 C-1.524999976158142,10.96500015258789 -10.527000427246094,-1.2450000047683716 0.7250000238418579,-10.96500015258789z"></path></g><g opacity="1" transform="matrix(1,0,0,1,154.83099365234375,242.79800415039062)"><path fill="rgb(121,162,143)" fill-opacity="1" d=" M3.6519999504089355,-13.767999649047852 C3.6519999504089355,-13.767999649047852 8.909000396728516,2.5450000762939453 -1.2790000438690186,11.876999855041504 C-1.2790000438690186,11.876999855041504 -4.809999942779541,13.767999649047852 -5.349999904632568,7.331999778747559 C-5.349999904632568,7.331999778747559 -8.909000396728516,-11.319000244140625 3.6519999504089355,-13.767999649047852z"></path></g><g opacity="1" transform="matrix(1,0,0,1,148.41000366210938,222.0489959716797)"><path fill="rgb(198,215,207)" fill-opacity="1" d=" M6.36899995803833,-5.074999809265137 C6.36899995803833,-5.074999809265137 4.468999862670898,6.752999782562256 -6.36899995803833,4.769000053405762 C-6.36899995803833,4.769000053405762 -4.541999816894531,-6.752999782562256 6.36899995803833,-5.074999809265137z"></path></g><g opacity="1" transform="matrix(1,0,0,1,140.2469940185547,200.60699462890625)"><path fill="rgb(198,215,207)" fill-opacity="1" d=" M1.6069999933242798,-17.65399932861328 C1.6069999933242798,-17.65399932861328 12.5,-1.9129999876022339 2.36299991607666,9.208999633789062 C2.36299991607666,9.208999633789062 -0.8180000185966492,17.65399932861328 -3.818000078201294,8.032999992370605 C-3.818000078201294,8.032999992370605 -12.5,-7.494999885559082 1.6069999933242798,-17.65399932861328z"></path></g><g opacity="1" transform="matrix(1,0,0,1,128.73800659179688,178.15499877929688)"><path fill="rgb(207,214,187)" fill-opacity="1" d=" M9.958000183105469,-5.508999824523926 C9.958000183105469,-5.508999824523926 8.958999633789062,9.932999610900879 -9.958000183105469,7.928999900817871 C-9.958000183105469,7.928999900817871 -6.269999980926514,-9.932999610900879 9.958000183105469,-5.508999824523926z"></path></g><g opacity="1" transform="matrix(1,0,0,1,142.5570068359375,130.1999969482422)"><path fill="rgb(198,215,207)" fill-opacity="1" d=" M-7.442999839782715,-7.416999816894531 C-7.442999839782715,-7.416999816894531 10.524999618530273,-4.835000038146973 2.378000020980835,7.416999816894531 C2.378000020980835,7.416999816894531 -10.52400016784668,4.609000205993652 -7.442999839782715,-7.416999816894531z"></path></g><g opacity="1" transform="matrix(1,0,0,1,130.31199645996094,143.08299255371094)"><path fill="rgb(198,215,207)" fill-opacity="1" d=" M-1.7400000095367432,-12.670999526977539 C-1.7400000095367432,-12.670999526977539 12.468999862670898,-2.5929999351501465 4.074999809265137,12.670999526977539 C4.074999809265137,12.670999526977539 -12.470000267028809,0.8939999938011169 -1.7400000095367432,-12.670999526977539z"></path></g><g opacity="1" transform="matrix(1,0,0,1,115.22599792480469,152.218994140625)"><path fill="rgb(121,162,143)" fill-opacity="1" d=" M5.079999923706055,-15.729000091552734 C5.079999923706055,-15.729000091552734 11.564000129699707,-3.2109999656677246 6.710999965667725,1.3760000467300415 C6.388000011444092,1.680999994277954 6.013999938964844,1.9520000219345093 5.584000110626221,2.180999994277954 C5.584000110626221,2.180999994277954 1.399999976158142,3.428999900817871 -0.3140000104904175,9.157999992370605 C-0.3140000104904175,9.157999992370605 -2.553999900817871,15.729000091552734 -4.135000228881836,7.584000110626221 C-4.135000228881836,7.584000110626221 -11.562999725341797,-8.449999809265137 5.079999923706055,-15.729000091552734z"></path></g><g opacity="1" transform="matrix(1,0,0,1,165.51800537109375,182.77000427246094)"><path fill="rgb(128,155,150)" fill-opacity="1" d=" M-30.42799949645996,-91.20099639892578 C-30.42799949645996,-91.20099639892578 1.3289999961853027,-28.84000015258789 21.891000747680664,-20.29199981689453 C21.891000747680664,-20.29199981689453 33.38199996948242,-17.665000915527344 33.38199996948242,-17.665000915527344 C33.38199996948242,-17.665000915527344 33.893001556396484,-15.116000175476074 33.893001556396484,-15.116000175476074 C33.893001556396484,-15.116000175476074 23.584999084472656,-17.94099998474121 23.584999084472656,-17.94099998474121 C23.584999084472656,-17.94099998474121 27.434999465942383,-6.495999813079834 32.92599868774414,-0.4740000069141388 C32.92599868774414,-0.4740000069141388 31.913000106811523,1.7059999704360962 31.913000106811523,1.7059999704360962 C31.913000106811523,1.7059999704360962 22.961000442504883,-8.71399974822998 22.76799964904785,-14.581000328063965 C22.76799964904785,-14.581000328063965 21.437000274658203,-19.756000518798828 17.160999298095703,-20.792999267578125 C17.160999298095703,-20.792999267578125 -0.4020000100135803,-36.374000549316406 -6.663000106811523,-49.2130012512207 C-6.663000106811523,-49.2130012512207 -1.4889999628067017,-33.888999938964844 -2.3420000076293945,-25.04199981689453 C-2.3420000076293945,-25.04199981689453 -0.4180000126361847,10.99899959564209 -0.4180000126361847,10.99899959564209 C-0.4180000126361847,10.99899959564209 6.0370001792907715,29.704999923706055 20.469999313354492,28.19499969482422 C20.469999313354492,28.19499969482422 20.33300018310547,30.101999282836914 20.33300018310547,30.101999282836914 C20.33300018310547,30.101999282836914 10.32699966430664,27.35099983215332 10.32699966430664,27.35099983215332 C10.32699966430664,27.35099983215332 26.315000534057617,46.75400161743164 26.315000534057617,46.75400161743164 C26.315000534057617,46.75400161743164 26.259000778198242,49.6510009765625 26.259000778198242,49.6510009765625 C26.259000778198242,49.6510009765625 7.883999824523926,26.757999420166016 7.883999824523926,26.757999420166016 C7.883999824523926,26.757999420166016 -0.6629999876022339,14.01099967956543 -0.6629999876022339,14.01099967956543 C-0.6629999876022339,14.01099967956543 -1.225000023841858,15.652999877929688 -1.225000023841858,15.652999877929688 C-1.225000023841858,15.652999877929688 7.188000202178955,52.94499969482422 7.188000202178955,52.94499969482422 C7.188000202178955,52.94499969482422 8.279000282287598,56.444000244140625 8.279000282287598,56.444000244140625 C8.279000282287598,56.444000244140625 23.259000778198242,73.33899688720703 23.259000778198242,73.33899688720703 C23.259000778198242,73.33899688720703 22.1200008392334,74.03299713134766 22.1200008392334,74.03299713134766 C22.1200008392334,74.03299713134766 10.559000015258789,61.040000915527344 10.559000015258789,61.040000915527344 C10.559000015258789,61.040000915527344 13.527000427246094,71.46299743652344 13.527000427246094,71.46299743652344 C13.527000427246094,71.46299743652344 13.581999778747559,79.23699951171875 20.65999984741211,88.71499633789062 C20.65999984741211,88.71499633789062 19.56999969482422,91.20099639892578 19.56999969482422,91.20099639892578 C19.56999969482422,91.20099639892578 11.642000198364258,79.89800262451172 11.54800033569336,71.62899780273438 C11.54800033569336,71.62899780273438 7.883999824523926,60.06700134277344 7.883999824523926,60.06700134277344 C7.883999824523926,60.06700134277344 4.204999923706055,79.2239990234375 4.204999923706055,79.2239990234375 C4.204999923706055,79.2239990234375 2.1500000953674316,79.69599914550781 2.1500000953674316,79.69599914550781 C2.1500000953674316,79.69599914550781 6.868000030517578,56.26300048828125 6.868000030517578,56.26300048828125 C6.868000030517578,56.26300048828125 -1.2860000133514404,23.238000869750977 -1.2860000133514404,23.238000869750977 C-1.2860000133514404,23.238000869750977 -8.527999877929688,51.07099914550781 -8.527999877929688,51.07099914550781 C-8.527999877929688,51.07099914550781 -9.336999893188477,49.74300003051758 -9.336999893188477,49.74300003051758 C-9.336999893188477,49.74300003051758 -4.815999984741211,31.113000869750977 -4.815999984741211,31.113000869750977 C-4.815999984741211,31.113000869750977 -16.12700080871582,37.74700164794922 -16.12700080871582,37.74700164794922 C-16.12700080871582,37.74700164794922 -16.514999389648438,36.68199920654297 -16.514999389648438,36.68199920654297 C-16.514999389648438,36.68199920654297 -4.116000175476074,27.565000534057617 -4.116000175476074,27.565000534057617 C-4.116000175476074,27.565000534057617 -2.5230000019073486,9.678999900817871 -2.5230000019073486,9.678999900817871 C-2.5230000019073486,9.678999900817871 -3.6070001125335693,-25.83300018310547 -3.6070001125335693,-25.83300018310547 C-3.6070001125335693,-25.83300018310547 -5.36899995803833,-38.55099868774414 -6.965000152587891,-43.30400085449219 C-6.965000152587891,-43.30400085449219 -10.918000221252441,-25.020999908447266 -15.932000160217285,-17.020999908447266 C-15.932000160217285,-17.020999908447266 -26.875999450683594,-1.24399995803833 -24.031999588012695,7.692999839782715 C-24.031999588012695,7.692999839782715 -25.864999771118164,7.248000144958496 -25.864999771118164,7.248000144958496 C-25.864999771118164,7.248000144958496 -25.202999114990234,-7.4679999351501465 -19.19099998474121,-14.255000114440918 C-19.19099998474121,-14.255000114440918 -32.928001403808594,-5.623000144958496 -32.928001403808594,-5.623000144958496 C-32.928001403808594,-5.623000144958496 -33.89400100708008,-7.63700008392334 -33.89400100708008,-7.63700008392334 C-33.89400100708008,-7.63700008392334 -19.06599998474121,-12.769000053405762 -16.48699951171875,-20.06599998474121 C-16.48699951171875,-20.06599998474121 -7.291999816894531,-35.29800033569336 -9.343999862670898,-45.49800109863281 C-9.343999862670898,-45.49800109863281 -9.902000427246094,-54.527000427246094 -9.902000427246094,-54.527000427246094 C-9.902000427246094,-54.527000427246094 -32.979000091552734,-90.68800354003906 -32.979000091552734,-90.68800354003906 C-32.979000091552734,-90.68800354003906 -30.42799949645996,-91.20099639892578 -30.42799949645996,-91.20099639892578z"></path></g><g opacity="1" transform="matrix(1,0,0,1,130.3000030517578,118.68000030517578)"><path fill="rgb(128,155,150)" fill-opacity="1" d=" M4.250999927520752,-26.783000946044922 C4.250999927520752,-26.783000946044922 13.312999725341797,-17.03700065612793 6.769999980926514,-7.84499979019165 C6.769999980926514,-7.84499979019165 1.5269999504089355,-2.677000045776367 3.0220000743865967,1.378000020980835 C3.0220000743865967,1.378000020980835 13.206000328063965,11.82699966430664 13.206000328063965,11.82699966430664 C13.206000328063965,11.82699966430664 1.652999997138977,1.8009999990463257 1.652999997138977,1.8009999990463257 C1.652999997138977,1.8009999990463257 -1.4570000171661377,22.496999740600586 -1.4570000171661377,22.496999740600586 C-1.4570000171661377,22.496999740600586 -1.9930000305175781,21.652999877929688 -1.9930000305175781,21.652999877929688 C-1.9930000305175781,21.652999877929688 0.8230000138282776,1.7200000286102295 0.8230000138282776,1.7200000286102295 C0.8230000138282776,1.7200000286102295 -10.913999557495117,14.380999565124512 -11.336000442504883,26.783000946044922 C-11.336000442504883,26.783000946044922 -13.312999725341797,12.720999717712402 -0.6980000138282776,-0.1720000058412552 C11.916999816894531,-13.064000129699707 11.02299976348877,-17.37700080871582 2.5230000019073486,-26.770000457763672 C2.5230000019073486,-26.770000457763672 4.250999927520752,-26.783000946044922 4.250999927520752,-26.783000946044922z"></path></g><g opacity="1" transform="matrix(1,0,0,1,93.697998046875,215.5)"><path fill="rgb(198,215,207)" fill-opacity="1" d=" M7.959000110626221,-4.751999855041504 C7.959000110626221,-4.751999855041504 -4.063000202178955,-10.093999862670898 -7.270999908447266,2.687999963760376 C-7.270999908447266,2.687999963760376 -12.758999824523926,9.52400016784668 -7.1020002365112305,9.225000381469727 C-7.1020002365112305,9.225000381469727 12.758999824523926,10.093999862670898 7.959000110626221,-4.751999855041504z"></path></g><g opacity="1" transform="matrix(1,0,0,1,106.1240005493164,235.88299560546875)"><path fill="rgb(199,195,143)" fill-opacity="1" d=" M1.440999984741211,-13.270999908447266 C1.440999984741211,-13.270999908447266 -5.438000202178955,-3.0439999103546143 -5.438000202178955,-3.0439999103546143 C-5.438000202178955,-3.0439999103546143 -11.227999687194824,-0.2939999997615814 -9.241999626159668,9.20199966430664 C-9.241999626159668,9.20199966430664 -4.443999767303467,13.270999908447266 2.562000036239624,2.1630001068115234 C2.562000036239624,2.1630001068115234 11.227999687194824,-6.456999778747559 1.440999984741211,-13.270999908447266z"></path></g><g opacity="1" transform="matrix(1,0,0,1,125.4739990234375,255.08900451660156)"><path fill="rgb(207,214,187)" fill-opacity="1" d=" M6.9770002365112305,-7.519999980926514 C6.9770002365112305,-7.519999980926514 2.0390000343322754,-5.993000030517578 -2.510999917984009,-8.675999641418457 C-2.510999917984009,-8.675999641418457 -9.795000076293945,-11.083000183105469 -9.232999801635742,2.0230000019073486 C-9.232999801635742,2.0230000019073486 -5.611999988555908,11.083999633789062 5.508999824523926,1.024999976158142 C5.508999824523926,1.024999976158142 9.795000076293945,-3.742000102996826 6.9770002365112305,-7.519999980926514z"></path></g><g opacity="1" transform="matrix(1,0,0,1,133.18499755859375,276.8399963378906)"><path fill="rgb(199,195,143)" fill-opacity="1" d=" M0.5440000295639038,-13.366000175476074 C0.5440000295639038,-13.366000175476074 -13.883999824523926,-0.6449999809265137 -4.020999908447266,13.366000175476074 C-4.020999908447266,13.366000175476074 13.883999824523926,4.520999908447266 0.5440000295639038,-13.366000175476074z"></path></g><g opacity="1" transform="matrix(1,0,0,1,145.01600646972656,298.3210144042969)"><path fill="rgb(198,215,207)" fill-opacity="1" d=" M1.815999984741211,-10.706999778747559 C1.815999984741211,-10.706999778747559 -11.303000450134277,-5.431000232696533 -5.3429999351501465,10.706999778747559 C-5.3429999351501465,10.706999778747559 11.303000450134277,2.8010001182556152 1.815999984741211,-10.706999778747559z"></path></g><g opacity="1" transform="matrix(1,0,0,1,154.4239959716797,314.3659973144531)"><path fill="rgb(199,195,143)" fill-opacity="1" d=" M0.9229999780654907,-14.284000396728516 C0.9229999780654907,-14.284000396728516 -12.46500015258789,-2.5350000858306885 -0.5640000104904175,12.897000312805176 C-0.5640000104904175,12.897000312805176 1.2549999952316284,14.284000396728516 2.0789999961853027,11.708999633789062 C2.0789999961853027,11.708999633789062 12.46500015258789,-5.642000198364258 0.9229999780654907,-14.284000396728516z"></path></g><g opacity="1" transform="matrix(1,0,0,1,169.2519989013672,294.635009765625)"><path fill="rgb(121,162,143)" fill-opacity="1" d=" M-4.9710001945495605,-9.647000312805176 C-4.9710001945495605,-9.647000312805176 -9.190999984741211,5.459000110626221 5.693999767303467,9.647000312805176 C5.693999767303467,9.647000312805176 9.190999984741211,-5.114999771118164 -4.9710001945495605,-9.647000312805176z"></path></g><g opacity="1" transform="matrix(1,0,0,1,172.23800659179688,263.7030029296875)"><path fill="rgb(121,162,143)" fill-opacity="1" d=" M-9.288000106811523,-9.673999786376953 C-9.288000106811523,-9.673999786376953 -7.73199987411499,7.394999980926514 5.297999858856201,11.986000061035156 C5.297999858856201,11.986000061035156 9.288000106811523,12.343000411987305 7.26200008392334,6.209000110626221 C7.26200008392334,6.209000110626221 3.2269999980926514,-12.343999862670898 -9.288000106811523,-9.673999786376953z"></path></g><g opacity="1" transform="matrix(1,0,0,1,169.4199981689453,243.64599609375)"><path fill="rgb(198,215,207)" fill-opacity="1" d=" M-7.788000106811523,-2.1589999198913574 C-7.788000106811523,-2.1589999198913574 -1.4049999713897705,7.979000091552734 7.788000106811523,1.906000018119812 C7.788000106811523,1.906000018119812 1.593000054359436,-7.979000091552734 -7.788000106811523,-2.1589999198913574z"></path></g><g opacity="1" transform="matrix(1,0,0,1,166.74200439453125,220.88800048828125)"><path fill="rgb(198,215,207)" fill-opacity="1" d=" M-6.553999900817871,-15.767000198364258 C-6.553999900817871,-15.767000198364258 -10.406999588012695,2.984999895095825 3.2790000438690186,9.244000434875488 C3.2790000438690186,9.244000434875488 9.515999794006348,15.765999794006348 8.505999565124512,5.73799991607666 C8.505999565124512,5.73799991607666 10.406999588012695,-11.951000213623047 -6.553999900817871,-15.767000198364258z"></path></g><g opacity="1" transform="matrix(1,0,0,1,170.8489990234375,196.09500122070312)"><path fill="rgb(207,214,187)" fill-opacity="1" d=" M-11.795000076293945,-1.6929999589920044 C-11.795000076293945,-1.6929999589920044 -4.822999954223633,12.123000144958496 11.795000076293945,2.865000009536743 C11.795000076293945,2.865000009536743 1.399999976158142,-12.123000144958496 -11.795000076293945,-1.6929999589920044z"></path></g><g opacity="1" transform="matrix(1,0,0,1,138.8209991455078,155.8719940185547)"><path fill="rgb(198,215,207)" fill-opacity="1" d=" M3.9860000610351562,-8.748000144958496 C3.9860000610351562,-8.748000144958496 -11.532999992370605,0.6700000166893005 0.7649999856948853,8.748000144958496 C0.7649999856948853,8.748000144958496 11.532999992370605,1.1089999675750732 3.9860000610351562,-8.748000144958496z"></path></g><g opacity="1" transform="matrix(1,0,0,1,154.8470001220703,164.37600708007812)"><path fill="rgb(198,215,207)" fill-opacity="1" d=" M-3.0329999923706055,-12.79699993133545 C-3.0329999923706055,-12.79699993133545 -12.154999732971191,2.0439999103546143 1.5499999523162842,12.79699993133545 C1.5499999523162842,12.79699993133545 12.154999732971191,-4.5229997634887695 -3.0329999923706055,-12.79699993133545z"></path></g><g opacity="1" transform="matrix(1,0,0,1,170.94900512695312,166.90499877929688)"><path fill="rgb(121,162,143)" fill-opacity="1" d=" M-9.145999908447266,-12.973999977111816 C-9.145999908447266,-12.973999977111816 -10.206999778747559,1.0829999446868896 -3.944999933242798,3.4010000228881836 C-3.5269999504089355,3.555000066757202 -3.078000068664551,3.6570000648498535 -2.5920000076293945,3.700000047683716 C-2.5920000076293945,3.700000047683716 1.746000051498413,3.2090001106262207 5.567999839782715,7.807000160217285 C5.567999839782715,7.807000160217285 10.206000328063965,12.973999977111816 8.467000007629395,4.861000061035156 C8.467000007629395,4.861000061035156 9.017999649047852,-12.800000190734863 -9.145999908447266,-12.973999977111816z"></path></g><g opacity="1" transform="matrix(1,0,0,1,134.343994140625,211.83799743652344)"><path fill="rgb(128,155,150)" fill-opacity="1" d=" M-3.749000072479248,-93.43900299072266 C-3.749000072479248,-93.43900299072266 -8.52299976348877,-23.621000289916992 -24.090999603271484,-7.697000026702881 C-24.090999603271484,-7.697000026702881 -33.63199996948242,-0.7770000100135803 -33.63199996948242,-0.7770000100135803 C-33.63199996948242,-0.7770000100135803 -33.104000091552734,1.7699999809265137 -33.104000091552734,1.7699999809265137 C-33.104000091552734,1.7699999809265137 -24.726999282836914,-4.870999813079834 -24.726999282836914,-4.870999813079834 C-24.726999282836914,-4.870999813079834 -23.78499984741211,7.168000221252441 -26.476999282836914,14.861000061035156 C-26.476999282836914,14.861000061035156 -24.68899917602539,16.4689998626709 -24.68899917602539,16.4689998626709 C-24.68899917602539,16.4689998626709 -20.538000106811523,3.374000072479248 -22.65999984741211,-2.0989999771118164 C-22.65999984741211,-2.0989999771118164 -23.46299934387207,-7.38100004196167 -19.93600082397461,-10.01200008392334 C-19.93600082397461,-10.01200008392334 -9.88599967956543,-31.229999542236328 -9.156999588012695,-45.49599838256836 C-9.156999588012695,-45.49599838256836 -7.910999774932861,-29.3700008392334 -3.6579999923706055,-21.565000534057617 C-3.6579999923706055,-21.565000534057617 8.696999549865723,12.345999717712402 8.696999549865723,12.345999717712402 C8.696999549865723,12.345999717712402 10.09000015258789,32.08599853515625 -3.7809998989105225,36.354000091552734 C-3.7809998989105225,36.354000091552734 -2.9049999713897705,38.05500030517578 -2.9049999713897705,38.05500030517578 C-2.9049999713897705,38.05500030517578 5.21999979019165,31.601999282836914 5.21999979019165,31.601999282836914 C5.21999979019165,31.601999282836914 -1.8839999437332153,55.71900177001953 -1.8839999437332153,55.71900177001953 C-1.8839999437332153,55.71900177001953 -0.6970000267028809,58.36199951171875 -0.6970000267028809,58.36199951171875 C-0.6970000267028809,58.36199951171875 7.235000133514404,30.099000930786133 7.235000133514404,30.099000930786133 C7.235000133514404,30.099000930786133 10.104999542236328,15.020999908447266 10.104999542236328,15.020999908447266 C10.104999542236328,15.020999908447266 11.263999938964844,16.312999725341797 11.263999938964844,16.312999725341797 C11.263999938964844,16.312999725341797 18.139999389648438,53.917999267578125 18.139999389648438,53.917999267578125 C18.139999389648438,53.917999267578125 18.507999420166016,57.56399917602539 18.507999420166016,57.56399917602539 C18.507999420166016,57.56399917602539 11.347999572753906,78.97799682617188 11.347999572753906,78.97799682617188 C11.347999572753906,78.97799682617188 12.666999816894531,79.1709976196289 12.666999816894531,79.1709976196289 C12.666999816894531,79.1709976196289 18.211000442504883,62.68600082397461 18.211000442504883,62.68600082397461 C18.211000442504883,62.68600082397461 19.565000534057617,73.43800354003906 19.565000534057617,73.43800354003906 C19.565000534057617,73.43800354003906 22.562999725341797,80.61100006103516 19.767000198364258,92.10600280761719 C19.767000198364258,92.10600280761719 21.742000579833984,93.96600341796875 21.742000579833984,93.96600341796875 C21.742000579833984,93.96600341796875 24.606000900268555,80.45999908447266 21.45199966430664,72.81400299072266 C21.45199966430664,72.81400299072266 20.290000915527344,60.74300003051758 20.290000915527344,60.74300003051758 C20.290000915527344,60.74300003051758 31.18400001525879,76.9260025024414 31.18400001525879,76.9260025024414 C31.18400001525879,76.9260025024414 33.25899887084961,76.55500030517578 33.25899887084961,76.55500030517578 C33.25899887084961,76.55500030517578 19.735000610351562,56.845001220703125 19.735000610351562,56.845001220703125 C19.735000610351562,56.845001220703125 14.293000221252441,23.267000198364258 14.293000221252441,23.267000198364258 C14.293000221252441,23.267000198364258 31.863000869750977,46.03499984741211 31.863000869750977,46.03499984741211 C31.863000869750977,46.03499984741211 32.08700180053711,44.49599838256836 32.08700180053711,44.49599838256836 C32.08700180053711,44.49599838256836 20.625999450683594,29.128999710083008 20.625999450683594,29.128999710083008 C20.625999450683594,29.128999710083008 33.63199996948242,30.79800033569336 33.63199996948242,30.79800033569336 C33.63199996948242,30.79800033569336 33.571998596191406,29.666000366210938 33.571998596191406,29.666000366210938 C33.571998596191406,29.666000366210938 18.590999603271484,26.13800048828125 18.590999603271484,26.13800048828125 C18.590999603271484,26.13800048828125 10.116000175476074,10.307999610900879 10.116000175476074,10.307999610900879 C10.116000175476074,10.307999610900879 -2.805999994277954,-22.788000106811523 -2.805999994277954,-22.788000106811523 C-2.805999994277954,-22.788000106811523 -6.166999816894531,-35.18000030517578 -6.561999797821045,-40.178001403808594 C-6.561999797821045,-40.178001403808594 4.238999843597412,-24.906999588012695 11.987000465393066,-19.511999130249023 C11.987000465393066,-19.511999130249023 28.23900032043457,-9.28600025177002 29.125999450683594,0.05000000074505806 C29.125999450683594,0.05000000074505806 30.63800048828125,-1.0770000219345093 30.63800048828125,-1.0770000219345093 C30.63800048828125,-1.0770000219345093 24.261999130249023,-14.355999946594238 16.069000244140625,-18.243999481201172 C16.069000244140625,-18.243999481201172 32.090999603271484,-15.687000274658203 32.090999603271484,-15.687000274658203 C32.090999603271484,-15.687000274658203 32.189998626708984,-17.917999267578125 32.189998626708984,-17.917999267578125 C32.189998626708984,-17.917999267578125 16.53700065612793,-16.82900047302246 11.303999900817871,-22.5310001373291 C11.303999900817871,-22.5310001373291 -3.124000072479248,-32.939998626708984 -5.234000205993652,-43.12799835205078 C-5.234000205993652,-43.12799835205078 -8.260000228881836,-51.65299987792969 -8.260000228881836,-51.65299987792969 C-8.260000228881836,-51.65299987792969 -1.2020000219345093,-93.96600341796875 -1.2020000219345093,-93.96600341796875 C-1.2020000219345093,-93.96600341796875 -3.749000072479248,-93.43900299072266 -3.749000072479248,-93.43900299072266z"></path></g><g opacity="1" transform="matrix(1,0,0,1,146.6280059814453,139.74099731445312)"><path fill="rgb(128,155,150)" fill-opacity="1" d=" M-15.409000396728516,-21.25200080871582 C-15.409000396728516,-21.25200080871582 -19.926000595092773,-8.734999656677246 -10.303999900817871,-2.8429999351501465 C-10.303999900817871,-2.8429999351501465 -3.4549999237060547,-0.14300000667572021 -3.242000102996826,4.172999858856201 C-3.242000102996826,4.172999858856201 -8.515000343322754,17.777999877929688 -8.515000343322754,17.777999877929688 C-8.515000343322754,17.777999877929688 -1.815999984741211,4.025000095367432 -1.815999984741211,4.025000095367432 C-1.815999984741211,4.025000095367432 9.156000137329102,21.847999572753906 9.156000137329102,21.847999572753906 C9.156000137329102,21.847999572753906 9.319999694824219,20.861000061035156 9.319999694824219,20.861000061035156 C9.319999694824219,20.861000061035156 -1.0850000381469727,3.625999927520752 -1.0850000381469727,3.625999927520752 C-1.0850000381469727,3.625999927520752 14.675999641418457,10.673999786376953 19.926000595092773,21.917999267578125 C19.926000595092773,21.917999267578125 16.232999801635742,8.206000328063965 -0.4269999861717224,1.2899999618530273 C-17.084999084472656,-5.626999855041504 -17.952999114990234,-9.944999694824219 -13.8149995803833,-21.917999267578125 C-13.8149995803833,-21.917999267578125 -15.409000396728516,-21.25200080871582 -15.409000396728516,-21.25200080871582z"></path></g></g><g transform="matrix(1,0,0,1,0,0)" opacity="1" style="display: block;"><g opacity="1" transform="matrix(1,0,0,1,203.13499450683594,114.55999755859375)"><path fill="rgb(82,67,81)" fill-opacity="1" d=" M20.674999237060547,27.913000106811523 C20.674999237060547,27.913000106811523 11.562000274658203,15.682000160217285 11.562000274658203,15.682000160217285 C11.562000274658203,15.682000160217285 0.020999999716877937,-8.758000373840332 0.020999999716877937,-8.758000373840332 C0.020999999716877937,-8.758000373840332 -6.866000175476074,-15.111000061035156 -6.866000175476074,-15.111000061035156 C-6.866000175476074,-15.111000061035156 -5.176000118255615,-2.130000114440918 -5.176000118255615,-2.130000114440918 C-5.176000118255615,-2.130000114440918 -4.78000020980835,5.067999839782715 -4.78000020980835,5.067999839782715 C-4.78000020980835,5.067999839782715 -4.802999973297119,11.753000259399414 -4.802999973297119,11.753000259399414 C-4.802999973297119,11.753000259399414 -6.822000026702881,14.937000274658203 -6.822000026702881,14.937000274658203 C-6.822000026702881,14.937000274658203 -6.081999778747559,-6.177999973297119 -8.345999717712402,-16.29800033569336 C-8.345999717712402,-16.29800033569336 -21.57200050354004,-27.913000106811523 -21.57200050354004,-27.913000106811523 C-21.57200050354004,-27.913000106811523 -7.619999885559082,-25.266000747680664 -7.619999885559082,-25.266000747680664 C-7.619999885559082,-25.266000747680664 -16.458999633789062,-25.413999557495117 -16.458999633789062,-25.413999557495117 C-16.458999633789062,-25.413999557495117 3.1710000038146973,-8.24899959564209 3.1710000038146973,-8.24899959564209 C3.1710000038146973,-8.24899959564209 8.0600004196167,-5.395999908447266 8.0600004196167,-5.395999908447266 C8.0600004196167,-5.395999908447266 19.888999938964844,-4.09499979019165 19.888999938964844,-4.09499979019165 C19.888999938964844,-4.09499979019165 19.858999252319336,-2.874000072479248 19.858999252319336,-2.874000072479248 C19.858999252319336,-2.874000072479248 11.598999977111816,-3.1510000228881836 11.598999977111816,-3.1510000228881836 C11.598999977111816,-3.1510000228881836 4.10699987411499,-5.421999931335449 4.10699987411499,-5.421999931335449 C4.10699987411499,-5.421999931335449 10.008999824523926,8.741999626159668 10.008999824523926,8.741999626159668 C10.008999824523926,8.741999626159668 21.57200050354004,26.496999740600586 21.57200050354004,26.496999740600586 C21.57200050354004,26.496999740600586 20.674999237060547,27.913000106811523 20.674999237060547,27.913000106811523z"></path></g><g opacity="1" transform="matrix(1,0,0,1,237.13499450683594,160.80999755859375)"><path fill="rgb(129,148,139)" fill-opacity="1" d=" M2.890000104904175,8.574999809265137 C2.890000104904175,8.574999809265137 10.3149995803833,19.58799934387207 16.05299949645996,36.327999114990234 C17.808000564575195,28.788000106811523 23.549999237060547,-1.3489999771118164 6.7729997634887695,-14.295999526977539 C6.7729997634887695,-14.295999526977539 -23.464000701904297,-36.327999114990234 -23.464000701904297,-36.327999114990234 C-23.464000701904297,-36.327999114990234 -23.489999771118164,-35.571998596191406 -23.548999786376953,-34.3120002746582 C-15.024999618530273,-27.451000213623047 -2.9519999027252197,-14.217000007629395 2.890000104904175,8.574999809265137z"></path></g><g opacity="1" transform="matrix(1,0,0,1,231.01400756835938,162.68899536132812)"><path fill="rgb(74,99,96)" fill-opacity="1" d=" M22.173999786376953,34.44900131225586 C16.43600082397461,17.70800018310547 9.010000228881836,6.697000026702881 9.010000228881836,6.697000026702881 C3.1679999828338623,-16.094999313354492 -8.904999732971191,-29.329999923706055 -17.43000030517578,-36.191001892089844 C-17.68000030517578,-30.864999771118164 -18.524999618530273,-16.479000091552734 -20.506000518798828,-11.550999641418457 C-20.506000518798828,-11.550999641418457 -22.174999237060547,7.553999900817871 -3.888000011444092,15.314000129699707 C-3.888000011444092,15.314000129699707 17.33099937438965,23.246000289916992 21.740999221801758,36.191001892089844 C21.740999221801758,36.191001892089844 21.915000915527344,35.5620002746582 22.173999786376953,34.44900131225586z"></path></g><g opacity="1" transform="matrix(1,0,0,1,246.5189971923828,98.91899871826172)"><path fill="rgb(74,99,96)" fill-opacity="1" d=" M33.39899826049805,7.408999919891357 C29.049999237060547,6.800000190734863 25.329999923706055,1.340000033378601 25.329999923706055,1.340000033378601 C20.77400016784668,-5.385000228881836 2.6549999713897705,-8.128999710083008 2.6549999713897705,-8.128999710083008 C-9.520000457763672,-14.027999877929688 -15.368000030517578,-1.965999960899353 -15.368000030517578,-1.965999960899353 C-21.51300048828125,10.727999687194824 -33.39899826049805,8.791999816894531 -32.095001220703125,10.637999534606934 C-28.285999298095703,10.946000099182129 12.388999938964844,14.027000427246094 33.39899826049805,7.408999919891357z"></path></g><g opacity="1" transform="matrix(1,0,0,1,248.50100708007812,115.69200134277344)"><path fill="rgb(129,148,139)" fill-opacity="1" d=" M34.073001861572266,-10.395999908447266 C32.86199951171875,-9.76200008392334 31.641000747680664,-9.666999816894531 30.474000930786133,-9.906000137329102 C11.996999740600586,-3.430999994277954 -24.118000030517578,-5.36899995803833 -34.073001861572266,-6.056000232696533 C-16.351999282836914,10.397000312805176 0.16599999368190765,8.175999641418457 0.16599999368190765,8.175999641418457 C28.451000213623047,6.755000114440918 34.073001861572266,-10.395999908447266 34.073001861572266,-10.395999908447266z"></path></g><g opacity="1" transform="matrix(1,0,0,1,202.2259979248047,140.156005859375)"><path fill="rgb(74,99,96)" fill-opacity="1" d=" M-5.544000148773193,-32.75400161743164 C-5.544000148773193,-32.75400161743164 -5.644000053405762,-31.79199981689453 -6.052000045776367,-30.250999450683594 C-4.1570000648498535,-22.68600082397461 -5.375999927520752,-11.494000434875488 -14.003999710083008,4.993000030517578 C-14.003999710083008,4.993000030517578 -15.866000175476074,17.514999389648438 -15.071999549865723,32.75400161743164 C-15.071999549865723,32.75400161743164 -7.951000213623047,17.809999465942383 -7.951000213623047,17.809999465942383 C-7.951000213623047,17.809999465942383 15.864999771118164,3.9000000953674316 -5.544000148773193,-32.75400161743164z"></path></g><g opacity="1" transform="matrix(1,0,0,1,180.3939971923828,141.81900024414062)"><path fill="rgb(129,148,139)" fill-opacity="1" d=" M15.781000137329102,-31.915000915527344 C14.586000442504883,-27.39299964904785 10.729999542236328,-17.858999252319336 -1.1080000400543213,-12.803000450134277 C-1.1080000400543213,-12.803000450134277 -17.674999237060547,1.8300000429153442 -2.740000009536743,18.320999145507812 C-2.740000009536743,18.320999145507812 -0.5699999928474426,31.915000915527344 6.388999938964844,31.868999481201172 C6.388999938964844,31.868999481201172 6.760000228881836,31.09000015258789 6.760000228881836,31.09000015258789 C5.9670000076293945,15.85099983215332 7.828999996185303,3.3289999961853027 7.828999996185303,3.3289999961853027 C16.457000732421875,-13.157999992370605 17.676000595092773,-24.350000381469727 15.781000137329102,-31.915000915527344z"></path></g><g opacity="1" transform="matrix(1,0,0,1,154.37399291992188,40.54499816894531)"><path fill="rgb(122,144,128)" fill-opacity="1" d=" M70.38200378417969,19.670000076293945 C70.38200378417969,19.670000076293945 57.93600082397461,19.351999282836914 57.93600082397461,19.351999282836914 C57.93600082397461,19.351999282836914 45.986000061035156,20.5049991607666 45.986000061035156,20.5049991607666 C45.986000061035156,20.5049991607666 21.04400062561035,21.604000091552734 21.04400062561035,21.604000091552734 C21.04400062561035,21.604000091552734 -0.12999999523162842,18.270999908447266 -0.12999999523162842,18.270999908447266 C-0.12999999523162842,18.270999908447266 5.993000030517578,23.71500015258789 5.993000030517578,23.71500015258789 C5.993000030517578,23.71500015258789 11.234999656677246,31.222000122070312 11.234999656677246,31.222000122070312 C11.234999656677246,31.222000122070312 11.491999626159668,38.1619987487793 11.491999626159668,38.1619987487793 C11.491999626159668,38.1619987487793 7.763000011444092,29.191999435424805 7.763000011444092,29.191999435424805 C7.763000011444092,29.191999435424805 3.617000102996826,24.176000595092773 3.617000102996826,24.176000595092773 C3.617000102996826,24.176000595092773 -4.230000019073486,17.334999084472656 -4.230000019073486,17.334999084472656 C-4.230000019073486,17.334999084472656 -21.788000106811523,11.390999794006348 -21.788000106811523,11.390999794006348 C-21.788000106811523,11.390999794006348 -41.393001556396484,-1.6269999742507935 -41.393001556396484,-1.6269999742507935 C-41.393001556396484,-1.6269999742507935 -53.106998443603516,-12.86299991607666 -53.106998443603516,-12.86299991607666 C-53.106998443603516,-12.86299991607666 -55.40599822998047,-5.205999851226807 -55.40599822998047,-5.205999851226807 C-55.40599822998047,-5.205999851226807 -55.33100128173828,2.2709999084472656 -55.33100128173828,2.2709999084472656 C-55.33100128173828,2.2709999084472656 -56.724998474121094,-3.6500000953674316 -56.724998474121094,-3.6500000953674316 C-56.724998474121094,-3.6500000953674316 -54.402000427246094,-15.932999610900879 -54.402000427246094,-15.932999610900879 C-54.402000427246094,-15.932999610900879 -65.8740005493164,-31.238000869750977 -65.8740005493164,-31.238000869750977 C-65.8740005493164,-31.238000869750977 -68.14299774169922,-34.494998931884766 -68.14299774169922,-34.494998931884766 C-68.14299774169922,-34.494998931884766 -70.38200378417969,-37.48400115966797 -70.38200378417969,-37.48400115966797 C-70.38200378417969,-37.48400115966797 -68.38500213623047,-38.1619987487793 -68.38500213623047,-38.1619987487793 C-68.38500213623047,-38.1619987487793 -57.08700180053711,-21.266000747680664 -57.08700180053711,-21.266000747680664 C-57.08700180053711,-21.266000747680664 -53.0890007019043,-17.31800079345703 -53.0890007019043,-17.31800079345703 C-53.0890007019043,-17.31800079345703 -34.22999954223633,-6.186999797821045 -18.07699966430664,-7.894000053405762 C-18.07699966430664,-7.894000053405762 -18.81399917602539,-5.172999858856201 -18.81399917602539,-5.172999858856201 C-18.81399917602539,-5.172999858856201 -42.66999816894531,-8.682000160217285 -51.972999572753906,-15.010000228881836 C-51.972999572753906,-15.010000228881836 -40.70399856567383,-4.039999961853027 -40.70399856567383,-4.039999961853027 C-40.70399856567383,-4.039999961853027 -22.097999572753906,9.765000343322754 -22.097999572753906,9.765000343322754 C-22.097999572753906,9.765000343322754 -6.5229997634887695,14.972999572753906 -6.5229997634887695,14.972999572753906 C-6.5229997634887695,14.972999572753906 17.808000564575195,19.17099952697754 17.808000564575195,19.17099952697754 C17.808000564575195,19.17099952697754 32.76100158691406,12.89900016784668 32.76100158691406,12.89900016784668 C32.76100158691406,12.89900016784668 39.04600143432617,8.097000122070312 39.04600143432617,8.097000122070312 C39.04600143432617,8.097000122070312 40.805999755859375,11.107000350952148 40.805999755859375,11.107000350952148 C40.805999755859375,11.107000350952148 21.291000366210938,19.753000259399414 21.291000366210938,19.753000259399414 C21.291000366210938,19.753000259399414 52.715999603271484,17.23900032043457 52.715999603271484,17.23900032043457 C52.715999603271484,17.23900032043457 68.36499786376953,18.49799919128418 68.36499786376953,18.49799919128418 C68.36499786376953,18.49799919128418 70.38200378417969,19.670000076293945 70.38200378417969,19.670000076293945z"></path></g><g opacity="1" transform="matrix(1,0,0,1,248.1790008544922,63.49700164794922)"><path fill="rgb(200,218,185)" fill-opacity="1" d=" M41.86399841308594,-17.958999633789062 C38.69900131225586,-11.871999740600586 31.148000717163086,-0.10999999940395355 18.60099983215332,3.578000068664551 C18.60099983215332,3.578000068664551 13.571000099182129,17.958999633789062 -0.5360000133514404,9.692000389099121 C-0.5360000133514404,9.692000389099121 -25.601999282836914,12.484000205993652 -41.86399841308594,-3.319000005722046 C-41.86399841308594,-3.319000005722046 -41.59299850463867,-3.4240000247955322 -41.12099838256836,-3.619999885559082 C-10.590999603271484,-0.8870000243186951 23.792999267578125,-11.348999977111816 41.86399841308594,-17.958999633789062z"></path></g><g opacity="1" transform="matrix(1,0,0,1,249.42300415039062,41.768001556396484)"><path fill="rgb(155,174,127)" fill-opacity="1" d=" M-42.36600112915039,18.108999252319336 C-38.895999908447266,16.665000915527344 -24.209999084472656,10.13599967956543 -20.724000930786133,1.694000005722046 C-20.724000930786133,1.694000005722046 -6.927000045776367,-20.843000411987305 16.77899932861328,-6.002999782562256 C16.77899932861328,-6.002999782562256 40.0359992980957,-8.586000442504883 42.36600112915039,0.03799999877810478 C42.36600112915039,0.03799999877810478 41.79100036621094,1.5199999809265137 40.61899948120117,3.7709999084472656 C22.54800033569336,10.380999565124512 -11.836000442504883,20.841999053955078 -42.36600112915039,18.108999252319336z"></path></g><g opacity="1" transform="matrix(1,0,0,1,180.06500244140625,99.35299682617188)"><path fill="rgb(155,174,127)" fill-opacity="1" d=" M-18.198999404907227,-30.944000244140625 C-16.72800064086914,-31.08799934387207 -15.03499984741211,-30.915000915527344 -13.093999862670898,-30.344999313354492 C-13.093999862670898,-30.344999313354492 18.198999404907227,-31.490999221801758 10.878000259399414,-3.4140000343322754 C10.878000259399414,-3.4140000343322754 9.854000091552734,3.7219998836517334 14.302000045776367,9.161999702453613 C14.302000045776367,9.161999702453613 17.018999099731445,20.12700080871582 6.377999782562256,31.490999221801758 C6.377999782562256,31.490999221801758 6.135000228881836,31.378999710083008 5.7170000076293945,31.173999786376953 C5.702000141143799,14.244999885559082 2.3889999389648438,-14.815999984741211 -18.198999404907227,-30.944000244140625z"></path></g><g opacity="1" transform="matrix(1,0,0,1,168.67999267578125,99.46800231933594)"><path fill="rgb(200,218,185)" fill-opacity="1" d=" M-6.814000129699707,-31.05900001525879 C13.77400016784668,-14.930999755859375 17.086999893188477,14.130000114440918 17.101999282836914,31.05900001525879 C12.694000244140625,28.90399932861328 -12.616000175476074,15.765000343322754 -9.989999771118164,-0.5519999861717224 C-9.989999771118164,-0.5519999861717224 -9.362000465393066,-4.00600004196167 -13.142999649047852,-9.107000350952148 C-16.452999114990234,-13.571000099182129 -17.10099983215332,-30.05699920654297 -6.814000129699707,-31.05900001525879z"></path></g><g opacity="1" transform="matrix(1,0,0,1,161.41299438476562,45.01499938964844)"><path fill="rgb(200,218,185)" fill-opacity="1" d=" M8.258000373840332,-20.46500015258789 C20.26300048828125,-27.666000366210938 28.777999877929688,-26.395000457763672 33.992000579833984,-23.827999114990234 C27.69499969482422,-14.22700023651123 -2.7960000038146973,27.666000366210938 -33.60900115966797,-9.604999542236328 C-33.60900115966797,-9.604999542236328 -33.92900085449219,-10.576000213623047 -33.992000579833984,-11.968999862670898 C-13.64799976348877,-8.258999824523926 8.258000373840332,-20.46500015258789 8.258000373840332,-20.46500015258789z"></path></g><g opacity="1" transform="matrix(1,0,0,1,161.95399475097656,20.66900062561035)"><path fill="rgb(155,174,127)" fill-opacity="1" d=" M8.17199993133545,-13.253999710083008 C8.17199993133545,-13.253999710083008 32.14799880981445,-15.531999588012695 34.63199996948242,-1.3539999723434448 C34.63199996948242,-1.3539999723434448 34.2239990234375,-0.6610000133514404 33.45100021362305,0.5180000066757202 C28.236000061035156,-2.0490000247955322 19.722000122070312,-3.321000099182129 7.7170000076293945,3.880000114440918 C7.7170000076293945,3.880000114440918 -14.1899995803833,16.086000442504883 -34.53499984741211,12.37600040435791 C-34.63199996948242,10.248000144958496 -34.125999450683594,7.124000072479248 -30.93000030517578,4.890999794006348 C-30.93000030517578,4.890999794006348 -16.04800033569336,-16.086000442504883 8.17199993133545,-13.253999710083008z"></path></g><g opacity="1" transform="matrix(1,0,0,1,114.36900329589844,57.582000732421875)"><path fill="rgb(155,174,127)" fill-opacity="1" d=" M-8.279000282287598,7.327000141143799 C-8.279000282287598,7.327000141143799 -10.710000038146973,-0.30799999833106995 -8.925999641418457,-8.119999885559082 C-8.925999641418457,-8.119999885559082 -10.46399974822998,-14.852999687194824 -13.085000038146973,-21.35300064086914 C-10.612000465393066,-18.44499969482422 -6.23199987411499,-14.277999877929688 0.5609999895095825,-11.095000267028809 C0.5609999895095825,-11.095000267028809 13.085000038146973,-6.960000038146973 6.057000160217285,11.869999885559082 C6.057000160217285,11.869999885559082 2.0840001106262207,15.156000137329102 5.125999927520752,21.190000534057617 C5.125999927520752,21.190000534057617 4.734000205993652,21.261999130249023 4.064000129699707,21.35300064086914 C-0.45100000500679016,18.107999801635742 -6.066999912261963,13.142000198364258 -8.279000282287598,7.327000141143799z"></path></g><g opacity="1" transform="matrix(1,0,0,1,99.38700103759766,57.244998931884766)"><path fill="rgb(200,218,185)" fill-opacity="1" d=" M6.056000232696533,-7.7829999923706055 C4.2729997634887695,0.028999999165534973 6.702000141143799,7.664999961853027 6.702000141143799,7.664999961853027 C8.914999961853027,13.479999542236328 14.531000137329102,18.444000244140625 19.047000885009766,21.68899917602539 C13.678000450134277,22.422000885009766 -10.725000381469727,24.490999221801758 -14.970999717712402,2.2860000133514404 C-14.970999717712402,2.2860000133514404 -19.047000885009766,-14.873000144958496 -0.6460000276565552,-24.489999771118164 C-0.6460000276565552,-24.489999771118164 0.15800000727176666,-23.062000274658203 1.8980000019073486,-21.014999389648438 C4.51800012588501,-14.515000343322754 6.056000232696533,-7.7829999923706055 6.056000232696533,-7.7829999923706055z"></path></g><g opacity="1" transform="matrix(1,0,0,1,205.47000122070312,31.766000747680664)"><path fill="rgb(155,174,127)" fill-opacity="1" d=" M16.833999633789062,-18.73200035095215 C7.452000141143799,-11.25100040435791 4.485000133514404,-2.572000026702881 4.485000133514404,-2.572000026702881 C1.7899999618530273,9.234000205993652 -7.9720001220703125,16.26300048828125 -13.819000244140625,19.506999969482422 C-16.833999633789062,12.456000328063965 -8.973999977111816,7.461999893188477 -8.973999977111816,7.461999893188477 C-12.038999557495117,-9.758000373840332 2.135999917984009,-11.664999961853027 2.135999917984009,-11.664999961853027 C7.03000020980835,-19.263999938964844 13.128999710083008,-19.507999420166016 16.833999633789062,-18.73200035095215z"></path></g><g opacity="1" transform="matrix(1,0,0,1,208.6479949951172,35.28200149536133)"><path fill="rgb(200,218,185)" fill-opacity="1" d=" M16.996999740600586,-21.093000411987305 C10.85099983215332,-15.583999633789062 12.994000434875488,-5.2769999504089355 12.994000434875488,-5.2769999504089355 C11.545000076293945,22.24799919128418 -16.503999710083008,17.000999450683594 -16.503999710083008,17.000999450683594 C-16.695999145507812,16.659000396728516 -16.854999542236328,16.323999404907227 -16.996999740600586,15.991000175476074 C-11.14900016784668,12.746999740600586 -1.3880000114440918,5.7179999351501465 1.3079999685287476,-6.089000225067139 C1.3079999685287476,-6.089000225067139 4.27400016784668,-14.765999794006348 13.656000137329102,-22.24799919128418 C15.6850004196167,-21.822999954223633 16.996999740600586,-21.093000411987305 16.996999740600586,-21.093000411987305z"></path></g></g><g transform="matrix(1,0,0,1,16,-5)" opacity="1" style="display: block;"><g opacity="1" transform="matrix(1,0,0,1,138.42999267578125,104.08899688720703)"><path fill="rgb(83,67,81)" fill-opacity="1" d=" M-17.986000061035156,-40.534000396728516 C-17.986000061035156,-40.534000396728516 1.093999981880188,-20.364999771118164 -3.812000036239624,25.297000885009766 C-3.812000036239624,25.297000885009766 2.378000020980835,2.437000036239624 -3.384000062942505,-10.696999549865723 C-3.384000062942505,-10.696999549865723 17.986000061035156,40.534000396728516 17.986000061035156,40.534000396728516 C17.986000061035156,40.534000396728516 4.563000202178955,3.259999990463257 4.563000202178955,3.259999990463257 C4.563000202178955,3.259999990463257 -17.986000061035156,-40.534000396728516 -17.986000061035156,-40.534000396728516z"></path></g><g opacity="1" transform="matrix(1,0,0,1,135.27999877929688,137.177001953125)"><path fill="rgb(129,148,139)" fill-opacity="1" d=" M-6.644999980926514,4.933000087738037 C-14.524999618530273,18.726999282836914 -15.105999946594238,31.42099952697754 -13.152000427246094,41.50299835205078 C-12.572999954223633,43.060001373291016 -12.17300033569336,43.92100143432617 -12.17300033569336,43.92100143432617 C-11.359999656677246,28.889999389648438 -3.319999933242798,20.785999298095703 -3.319999933242798,20.785999298095703 C15.105999946594238,-6.784999847412109 -0.8109999895095825,-43.92100143432617 -0.8109999895095825,-43.92100143432617 C-0.9160000085830688,-43.11399841308594 -1.1130000352859497,-42.130001068115234 -1.3760000467300415,-41.01599884033203 C3.9170000553131104,-19.648000717163086 -6.644999980926514,4.933000087738037 -6.644999980926514,4.933000087738037z"></path></g><g opacity="1" transform="matrix(1,0,0,1,126.625,137.4199981689453)"><path fill="rgb(74,99,96)" fill-opacity="1" d=" M-4.497000217437744,41.2599983215332 C-6.451000213623047,31.177000045776367 -5.869999885559082,18.483999252319336 2.009999990463257,4.690000057220459 C2.009999990463257,4.690000057220459 12.571999549865723,-19.891000747680664 7.2789998054504395,-41.2599983215332 C4.5920000076293945,-29.868000030517578 -5.447000026702881,-4.343999862670898 -5.447000026702881,-4.343999862670898 C-12.572999954223633,15.800000190734863 -6.932000160217285,34.722999572753906 -4.497000217437744,41.2599983215332z"></path></g><g opacity="1" transform="matrix(1,0,0,1,155.9510040283203,154.23800659179688)"><path fill="rgb(129,148,139)" fill-opacity="1" d=" M-6.873000144958496,42.15700149536133 C-6.817999839782715,42.28900146484375 -6.783999919891357,42.36899948120117 -6.783999919891357,42.36899948120117 C0.43799999356269836,29.37299919128418 6.947000026702881,-0.41499999165534973 6.947000026702881,-0.41499999165534973 C12.119999885559082,-20.344999313354492 -12.104000091552734,-42.36899948120117 -12.104000091552734,-42.36899948120117 C-12.104000091552734,-42.36899948120117 -12.119999885559082,-42.119998931884766 -12.119999885559082,-42.119998931884766 C3.1649999618530273,0.2759999930858612 -0.5529999732971191,26.881000518798828 -6.873000144958496,42.15700149536133z"></path></g><g opacity="1" transform="matrix(1,0,0,1,149.36000061035156,154.25599670410156)"><path fill="rgb(74,99,96)" fill-opacity="1" d=" M-5.5289998054504395,-42.138999938964844 C-5.5289998054504395,-42.138999938964844 -8.027000427246094,-1.7970000505447388 -8.027000427246094,-1.7970000505447388 C-9.755999565124512,18.45599937438965 -1.2209999561309814,39.85599899291992 -0.28200000524520874,42.138999938964844 C6.038000106811523,26.863000869750977 9.755999565124512,0.25699999928474426 -5.5289998054504395,-42.138999938964844z"></path></g><g opacity="1" transform="matrix(1,0,0,1,156.23199462890625,111.5270004272461)"><path fill="rgb(74,99,96)" fill-opacity="1" d=" M-22.920000076293945,-22.679000854492188 C-23.510000228881836,-22.82699966430664 -23.84600067138672,-22.90399932861328 -23.84600067138672,-22.90399932861328 C-9.348999977111816,8.095999717712402 7.464000225067139,14.404000282287598 7.464000225067139,14.404000282287598 C15.845000267028809,17.006000518798828 21.430999755859375,20.954999923706055 23.847000122070312,22.90399932861328 C19.645999908447266,15.392999649047852 8.206000328063965,0.8799999952316284 -22.920000076293945,-22.679000854492188z"></path></g><g opacity="1" transform="matrix(1,0,0,1,157.3780059814453,112.22799682617188)"><path fill="rgb(129,148,139)" fill-opacity="1" d=" M-24.066999435424805,-23.381000518798828 C7.059000015258789,0.17800000309944153 18.499000549316406,14.690999984741211 22.700000762939453,22.20199966430664 C23.5939998626709,22.923999786376953 24.066999435424805,23.381000518798828 24.066999435424805,23.381000518798828 C22.35700035095215,16.827999114990234 13.682999610900879,0.6539999842643738 13.682999610900879,0.6539999842643738 C8.630999565124512,-14.468000411987305 -18.698999404907227,-22.030000686645508 -24.066999435424805,-23.381000518798828z"></path></g><g opacity="1" transform="matrix(1,0,0,1,141.81399536132812,291.9649963378906)"><path fill="rgb(83,67,81)" fill-opacity="1" d=" M-29.996000289916992,-32.65999984741211 C-29.996000289916992,-32.65999984741211 -19.111000061035156,-7.11899995803833 24.718000411987305,6.59499979019165 C24.718000411987305,6.59499979019165 1.2860000133514404,3.1530001163482666 -8.458999633789062,-7.369999885559082 C-8.458999633789062,-7.369999885559082 29.996000289916992,32.65999984741211 29.996000289916992,32.65999984741211 C29.996000289916992,32.65999984741211 1.1710000038146973,5.486000061035156 1.1710000038146973,5.486000061035156 C1.1710000038146973,5.486000061035156 -29.996000289916992,-32.65999984741211 -29.996000289916992,-32.65999984741211z"></path></g><g opacity="1" transform="matrix(1,0,0,1,176.0019989013672,298.71600341796875)"><path fill="rgb(129,148,139)" fill-opacity="1" d=" M4.585000038146973,-0.5690000057220459 C20.378000259399414,-2.2939999103546143 32.24800109863281,2.236999988555908 40.71500015258789,8.050000190734863 C41.9109992980957,9.20199966430664 42.54199981689453,9.911999702453613 42.54199981689453,9.911999702453613 C28.43400001525879,4.6620001792907715 17.79599952697754,8.803000450134277 17.79599952697754,8.803000450134277 C-14.836000442504883,14.70300006866455 -42.54199981689453,-14.704000473022461 -42.54199981689453,-14.704000473022461 C-41.7599983215332,-14.479000091552734 -40.779998779296875,-14.265000343322754 -39.65399932861328,-14.062000274658203 C-22.170000076293945,-0.6859999895095825 4.585000038146973,-0.5690000057220459 4.585000038146973,-0.5690000057220459z"></path></g><g opacity="1" transform="matrix(1,0,0,1,176.5330047607422,295.7099914550781)"><path fill="rgb(74,99,96)" fill-opacity="1" d=" M40.185001373291016,11.055999755859375 C31.718000411987305,5.243000030517578 19.84600067138672,0.7120000123977661 4.052999973297119,2.437000036239624 C4.052999973297119,2.437000036239624 -22.700000762939453,2.319999933242798 -40.183998107910156,-11.055999755859375 C-28.666000366210938,-8.977999687194824 -1.2569999694824219,-8.003999710083008 -1.2569999694824219,-8.003999710083008 C20.058000564575195,-6.505000114440918 35.1619987487793,6.216000080108643 40.185001373291016,11.055999755859375z"></path></g><g opacity="1" transform="matrix(1,0,0,1,184.5800018310547,320.0920104980469)"><path fill="rgb(129,148,139)" fill-opacity="1" d=" M37.63399887084961,18.45400047302246 C37.73400115966797,18.55699920654297 37.792999267578125,18.618999481201172 37.792999267578125,18.618999481201172 C22.996000289916992,20.058000564575195 -6.916999816894531,14.147000312805176 -6.916999816894531,14.147000312805176 C-27.256999969482422,10.942000389099121 -37.79199981689453,-20.05699920654297 -37.79199981689453,-20.05699920654297 C-37.79199981689453,-20.05699920654297 -37.55699920654297,-19.97100067138672 -37.55699920654297,-19.97100067138672 C-4.776000022888184,10.954999923706055 21.106000900268555,18.156999588012695 37.63399887084961,18.45400047302246z"></path></g><g opacity="1" transform="matrix(1,0,0,1,184.6179962158203,319.3330078125)"><path fill="rgb(74,99,96)" fill-opacity="1" d=" M-37.59600067138672,-19.211999893188477 C-37.59600067138672,-19.211999893188477 0.39500001072883606,-5.413000106811523 0.39500001072883606,-5.413000106811523 C19.656999588012695,1.0800000429153442 35.87799835205078,17.440000534057617 37.595001220703125,19.21299934387207 C21.066999435424805,18.916000366210938 -4.815000057220459,11.71399974822998 -37.59600067138672,-19.211999893188477z"></path></g><g opacity="1" transform="matrix(1,0,0,1,141.45399475097656,311.2569885253906)"><path fill="rgb(74,99,96)" fill-opacity="1" d=" M-11.574000358581543,-30.06399917602539 C-11.475000381469727,-30.665000915527344 -11.41100025177002,-31.00200080871582 -11.41100025177002,-31.00200080871582 C11.234999656677246,-5.343999862670898 10.314000129699707,12.58899974822998 10.314000129699707,12.58899974822998 C9.357000350952148,21.312000274658203 10.75,28.009000778198242 11.574000358581543,31.00200080871582 C6.361999988555908,24.155000686645508 -2.384000062942505,7.875 -11.574000358581543,-30.06399917602539z"></path></g><g opacity="1" transform="matrix(1,0,0,1,139.28799438476562,312.5880126953125)"><path fill="rgb(129,148,139)" fill-opacity="1" d=" M-9.407999992370605,-31.395000457763672 C-0.21799999475479126,6.544000148773193 8.527999877929688,22.823999404907227 13.739999771118164,29.67099952697754 C14.045999526977539,30.77899932861328 14.276000022888184,31.395000457763672 14.276000022888184,31.395000457763672 C8.946999549865723,27.211999893188477 -2.4240000247955322,12.809000015258789 -2.4240000247955322,12.809000015258789 C-14.276000022888184,2.1440000534057617 -10.3100004196167,-25.93400001525879 -9.407999992370605,-31.395000457763672z"></path></g><g opacity="1" transform="matrix(1,0,0,1,107.63800048828125,305.5169982910156)"><path fill="rgb(80,115,108)" fill-opacity="1" d=" M9.991999626159668,16.618000030517578 C9.991999626159668,16.618000030517578 -14.553000450134277,-21.163999557495117 -14.553000450134277,-21.163999557495117 C-14.553000450134277,-21.163999557495117 -10.154000282287598,-18.172000885009766 -10.154000282287598,-18.172000885009766 C-10.154000282287598,-18.172000885009766 14.553000450134277,21.163999557495117 14.553000450134277,21.163999557495117 C14.553000450134277,21.163999557495117 9.991999626159668,16.618000030517578 9.991999626159668,16.618000030517578z"></path></g><g opacity="1" transform="matrix(1,0,0,1,160.0780029296875,448.0899963378906)"><path fill="rgb(198,215,207)" fill-opacity="1" d=" M-13.819999694824219,-22.025999069213867 C-13.819999694824219,-22.025999069213867 -20.447999954223633,19.50200080871582 9.342000007629395,22.025999069213867 C9.342000007629395,22.025999069213867 20.447999954223633,-0.8140000104904175 3.7219998836517334,-7.538000106811523 C3.7219998836517334,-7.538000106811523 -5.441999912261963,-9.557000160217285 -13.819999694824219,-22.025999069213867z"></path></g><g opacity="1" transform="matrix(1,0,0,1,168.9459991455078,423.27398681640625)"><path fill="rgb(198,215,207)" fill-opacity="1" d=" M-18.361000061035156,-5.361000061035156 C-18.361000061035156,-5.361000061035156 -14.46500015258789,18.256999969482422 9.685999870300293,11.951000213623047 C9.685999870300293,11.951000213623047 18.361000061035156,9.310999870300293 9.989999771118164,1.3960000276565552 C9.989999771118164,1.3960000276565552 5.72599983215332,-18.257999420166016 -18.361000061035156,-5.361000061035156z"></path></g><g opacity="1" transform="matrix(1,0,0,1,146.57400512695312,424.5480041503906)"><path fill="rgb(80,115,108)" fill-opacity="1" d=" M-10.916999816894531,-19.030000686645508 C-10.916999816894531,-19.030000686645508 8.003000259399414,19.030000686645508 8.003000259399414,19.030000686645508 C8.003000259399414,19.030000686645508 -2.759000062942505,-10.149999618530273 -2.759000062942505,-10.149999618530273 C-2.759000062942505,-10.149999618530273 12.576000213623047,-1.7109999656677246 12.576000213623047,-1.7109999656677246 C12.576000213623047,-1.7109999656677246 -12.57699966430664,-18.384000778198242 -10.916999816894531,-19.030000686645508z"></path></g><g opacity="1" transform="matrix(1,0,0,1,126.70600128173828,392.7030029296875)"><path fill="rgb(216,213,179)" fill-opacity="1" d=" M-12.833999633789062,-33.4640007019043 C-12.833999633789062,-33.4640007019043 -28.023000717163086,14.777000427246094 10.847000122070312,33.4640007019043 C10.847000122070312,33.4640007019043 9.157999992370605,15.895000457763672 15.25,6.617000102996826 C15.25,6.617000102996826 28.023000717163086,-12.315999984741211 -12.833999633789062,-33.4640007019043z"></path></g><g opacity="1" transform="matrix(1,0,0,1,100.55500030517578,373.177001953125)"><path fill="rgb(216,213,179)" fill-opacity="1" d=" M-2.2739999294281006,-22.93899917602539 C-2.2739999294281006,-22.93899917602539 -15.062000274658203,-13.11400032043457 -10.215999603271484,1.6109999418258667 C-10.215999603271484,1.6109999418258667 -14.413999557495117,22.93899917602539 -4.0370001792907715,12.583000183105469 C-4.0370001792907715,12.583000183105469 15.062000274658203,-2.930999994277954 -2.2739999294281006,-22.93899917602539z"></path></g><g opacity="1" transform="matrix(1,0,0,1,104.48300170898438,247.61099243164062)"><path fill="rgb(80,115,108)" fill-opacity="1" d=" M-25.47100067138672,-50.82600021362305 C-25.47100067138672,-50.82600021362305 -20.17799949645996,-24.3700008392334 -20.17799949645996,-24.3700008392334 C-20.17799949645996,-24.3700008392334 -17.44300079345703,9.109000205993652 -17.44300079345703,9.109000205993652 C-17.44300079345703,9.109000205993652 -16.999000549316406,-13.553999900817871 -16.999000549316406,-13.553999900817871 C-16.999000549316406,-13.553999900817871 -6.0320000648498535,10.107999801635742 -6.0320000648498535,10.107999801635742 C-6.0320000648498535,10.107999801635742 -2.003000020980835,17.06599998474121 -2.003000020980835,17.06599998474121 C-2.003000020980835,17.06599998474121 4.275000095367432,23.00200080871582 4.275000095367432,23.00200080871582 C4.275000095367432,23.00200080871582 13.291999816894531,32.57600021362305 13.291999816894531,32.57600021362305 C13.291999816894531,32.57600021362305 24.94700050354004,50.82600021362305 24.94700050354004,50.82600021362305 C24.94700050354004,50.82600021362305 25.47100067138672,43.861000061035156 25.47100067138672,43.861000061035156 C25.47100067138672,43.861000061035156 14.461999893188477,27.270999908447266 14.461999893188477,27.270999908447266 C14.461999893188477,27.270999908447266 4.105000019073486,16.895000457763672 4.105000019073486,16.895000457763672 C4.105000019073486,16.895000457763672 -4.109000205993652,5.980000019073486 -4.109000205993652,5.980000019073486 C-4.109000205993652,5.980000019073486 -17.8799991607666,-27.90999984741211 -17.8799991607666,-27.90999984741211 C-17.8799991607666,-27.90999984741211 -25.47100067138672,-50.82600021362305 -25.47100067138672,-50.82600021362305z"></path></g><g opacity="1" transform="matrix(1,0,0,1,104.03600311279297,331.02301025390625)"><path fill="rgb(80,115,108)" fill-opacity="1" d=" M-12.354999542236328,-36.8650016784668 C-12.354999542236328,-36.8650016784668 -2.7130000591278076,-4.8979997634887695 -2.7130000591278076,-4.8979997634887695 C-2.7130000591278076,-4.8979997634887695 -1.0390000343322754,3.563999891281128 -1.0390000343322754,3.563999891281128 C-1.0390000343322754,3.563999891281128 -2.0450000762939453,10.42300033569336 -2.0450000762939453,10.42300033569336 C-2.0450000762939453,10.42300033569336 -6.953000068664551,23.503000259399414 -6.953000068664551,23.503000259399414 C-6.953000068664551,23.503000259399414 -3.3489999771118164,32.38999938964844 -3.3489999771118164,32.38999938964844 C-3.3489999771118164,32.38999938964844 -3.7960000038146973,20.656999588012695 -3.7960000038146973,20.656999588012695 C-3.7960000038146973,20.656999588012695 0.8980000019073486,8.543000221252441 0.8980000019073486,8.543000221252441 C0.8980000019073486,8.543000221252441 12.354999542236328,36.86399841308594 12.354999542236328,36.86399841308594 C12.354999542236328,36.86399841308594 4.27400016784668,9.286999702453613 4.27400016784668,9.286999702453613 C4.27400016784668,9.286999702453613 -0.5709999799728394,-5.436999797821045 -0.5709999799728394,-5.436999797821045 C-0.5709999799728394,-5.436999797821045 -12.354999542236328,-36.8650016784668 -12.354999542236328,-36.8650016784668z"></path></g><g opacity="1" transform="matrix(1,0,0,1,118.04900360107422,281.39599609375)"><path fill="rgb(121,162,143)" fill-opacity="1" d=" M-17.80500030517578,-27.85700035095215 C-18.381000518798828,-28.285999298095703 -18.91699981689453,-28.731000900268555 -19.392000198364258,-29.19700050354004 C-19.392000198364258,-29.19700050354004 -26.16200065612793,24.44099998474121 11.395000457763672,26.14699935913086 C11.395000457763672,26.14699935913086 20.76099967956543,29.19700050354004 26.160999298095703,26.707000732421875 C1.7339999675750732,6.173999786376953 -11.114999771118164,-12.776000022888184 -17.80500030517578,-27.85700035095215z"></path></g><g opacity="1" transform="matrix(1,0,0,1,125.79399871826172,280.8210144042969)"><path fill="rgb(198,215,207)" fill-opacity="1" d=" M-2.9059998989105225,-19.23200035095215 C-2.9059998989105225,-19.23200035095215 -18.05900001525879,-21.70400047302246 -25.551000595092773,-27.2810001373291 C-18.861000061035156,-12.199999809265137 -6.010000228881836,6.748000144958496 18.41699981689453,27.2810001373291 C21.67300033569336,25.77899932861328 23.48699951171875,22.266000747680664 20.93600082397461,14.854999542236328 C20.93600082397461,14.854999542236328 25.551000595092773,-12.956999778747559 -2.9059998989105225,-19.23200035095215z"></path></g><g opacity="1" transform="matrix(1,0,0,1,100.76799774169922,273.4880065917969)"><path fill="rgb(188,196,151)" fill-opacity="1" d=" M-13.190999984741211,-29.70599937438965 C-11.428000450134277,-13.937000274658203 -10.494999885559082,8.631999969482422 -15.37600040435791,29.707000732421875 C-13.859999656677246,29.47599983215332 -11.977999687194824,28.56999969482422 -9.640999794006348,26.617000579833984 C0.6759999990463257,18 15.375,-6.125999927520752 -13.190999984741211,-29.70599937438965z"></path></g><g opacity="1" transform="matrix(1,0,0,1,73.62999725341797,273.1310119628906)"><path fill="rgb(216,213,179)" fill-opacity="1" d=" M-3.2230000495910645,1.6699999570846558 C-3.2230000495910645,1.6699999570846558 5.6529998779296875,23.35300064086914 5.6529998779296875,23.35300064086914 C5.6529998779296875,23.35300064086914 6.443999767303467,30.874000549316406 11.76200008392334,30.065000534057617 C16.64299964904785,8.98900032043457 15.711000442504883,-13.579999923706055 13.947999954223633,-29.349000930786133 C13.331999778747559,-29.85700035095215 12.70300006866455,-30.365999221801758 12.04699993133545,-30.87299919128418 C12.04699993133545,-30.87299919128418 -16.643999099731445,-15.451000213623047 -3.2230000495910645,1.6699999570846558z"></path></g><g opacity="1" transform="matrix(1,0,0,1,134.25399780273438,325.21099853515625)"><path fill="rgb(188,196,151)" fill-opacity="1" d=" M-28.357999801635742,-25.16200065612793 C-28.65399932861328,-25.45800018310547 -28.95199966430664,-25.766000747680664 -29.25200080871582,-26.090999603271484 C-29.25200080871582,-26.090999603271484 -31.14900016784668,26.091999053955078 13.954999923706055,23.39299964904785 C13.954999923706055,23.39299964904785 27.708999633789062,22.104000091552734 31.14900016784668,18.36400032043457 C-5.110000133514404,8.666999816894531 -21.857999801635742,-13.5649995803833 -28.357999801635742,-25.16200065612793z"></path></g><g opacity="1" transform="matrix(1,0,0,1,136.35499572753906,321.7359924316406)"><path fill="rgb(216,213,179)" fill-opacity="1" d=" M26.406999588012695,15.914999961853027 C26.406999588012695,15.914999961853027 18.04199981689453,-21.84000015258789 -14.038999557495117,-16.270000457763672 C-14.038999557495117,-16.270000457763672 -21.46500015258789,-12.692999839782715 -30.459999084472656,-21.687999725341797 C-23.959999084472656,-10.090999603271484 -7.211999893188477,12.142999649047852 29.04800033569336,21.84000015258789 C30.459999084472656,20.30500030517578 30.136999130249023,18.356000900268555 26.406999588012695,15.914999961853027z"></path></g><g opacity="1" transform="matrix(1,0,0,1,75.98400115966797,32.42100143432617)"><path fill="rgb(74,99,96)" fill-opacity="1" d=" M11.194000244140625,-11.961999893188477 C11.741999626159668,-11.75 12.064000129699707,-11.595999717712402 12.064000129699707,-11.595999717712402 C11.109000205993652,11.961999893188477 -9.32699966430664,6.336999893188477 -12.062999725341797,5.4770002365112305 C-2.4240000247955322,2.263000011444092 6.579999923706055,-6.741000175476074 11.194000244140625,-11.961999893188477z"></path></g><g opacity="1" transform="matrix(1,0,0,1,75.39700317382812,26.83099937438965)"><path fill="rgb(129,148,139)" fill-opacity="1" d=" M-5.561999797821045,1.7769999504089355 C-2.9010000228881836,-11.067000389099121 8.534000396728516,-7.63100004196167 11.781000137329102,-6.370999813079834 C7.166999816894531,-1.149999976158142 -1.8380000591278076,7.853000164031982 -11.47700023651123,11.067000389099121 C-11.67300033569336,11.005000114440918 -11.781000137329102,10.967000007629395 -11.781000137329102,10.967000007629395 C-4.449999809265137,7.710000038146973 -5.561999797821045,1.7769999504089355 -5.561999797821045,1.7769999504089355z"></path></g><g opacity="1" transform="matrix(1,0,0,1,106.44300079345703,98.37699890136719)"><path fill="rgb(188,196,151)" fill-opacity="1" d=" M-19.78499984741211,-34.39500045776367 C-19.78499984741211,-34.39500045776367 -28.823999404907227,-0.7329999804496765 -0.8299999833106995,9.322999954223633 C-0.45399999618530273,9.458000183105469 -0.07199999690055847,9.588000297546387 0.3179999887943268,9.71500015258789 C0.3179999887943268,9.71500015258789 7.355000019073486,26.60099983215332 28.823999404907227,34.39500045776367 C28.823999404907227,34.39500045776367 25.033000946044922,6.493000030517578 25.033000946044922,6.493000030517578 C25.033000946044922,6.493000030517578 22.211000442504883,-15.437999725341797 8.373000144958496,-19.201000213623047 C8.373000144958496,-19.201000213623047 -13.100000381469727,-26.30699920654297 -19.78499984741211,-34.39500045776367z"></path></g><g opacity="1" transform="matrix(1,0,0,1,111.12100219726562,162.61300659179688)"><path fill="rgb(199,195,143)" fill-opacity="1" d=" M-12.89799976348877,-35.33300018310547 C-12.89799976348877,-35.33300018310547 22.961999893188477,-19.708999633789062 12.383000373840332,6.921000003814697 C12.383000373840332,6.921000003814697 13.506999969482422,19.204999923706055 4.645999908447266,34.20100021362305 C4.645999908447266,34.20100021362305 -0.2639999985694885,35.33300018310547 0.5979999899864197,23.781999588012695 C0.5979999899864197,23.781999588012695 -0.4749999940395355,10.6899995803833 -6.807000160217285,7.827000141143799 C-6.807000160217285,7.827000141143799 -22.96299934387207,-1.2699999809265137 -18.961000442504883,-17.777999877929688 C-18.961000442504883,-17.777999877929688 -16.81800079345703,-29.452999114990234 -12.89799976348877,-35.33300018310547z"></path></g><g opacity="1" transform="matrix(1,0,0,1,84.61000061035156,211.26199340820312)"><path fill="rgb(199,195,143)" fill-opacity="1" d=" M0.777999997138977,-38.04399871826172 C0.777999997138977,-38.04399871826172 9.83899974822998,-27.917999267578125 6.922999858856201,-19.604000091552734 C6.922999858856201,-19.604000091552734 5.48799991607666,-12.663999557495117 12.5600004196167,-2.9609999656677246 C12.5600004196167,-2.9609999656677246 16.27400016784668,7.175000190734863 2.9779999256134033,24.98699951171875 C2.9779999256134033,24.98699951171875 -2.118000030517578,38.04499816894531 -3.321000099182129,31.808000564575195 C-3.321000099182129,31.808000564575195 -13.404999732971191,14.51200008392334 -12.208999633789062,1.687000036239624 C-12.208999633789062,1.687000036239624 -16.27400016784668,-20.273000717163086 0.777999997138977,-38.04399871826172z"></path></g><g opacity="1" transform="matrix(1,0,0,1,61.51300048828125,175.60400390625)"><path fill="rgb(207,214,187)" fill-opacity="1" d=" M21.573999404907227,-36.04100036621094 C21.573999404907227,-36.04100036621094 11.409000396728516,-5.176000118255615 11.409000396728516,-5.176000118255615 C11.409000396728516,-5.176000118255615 8.616000175476074,4.216000080108643 -6.695000171661377,16.054000854492188 C-6.695000171661377,16.054000854492188 -14.581000328063965,26.31100082397461 -14.581000328063965,26.31100082397461 C-14.581000328063965,26.31100082397461 -21.573999404907227,36.040000915527344 -19.107999801635742,22.413000106811523 C-19.107999801635742,22.413000106811523 -21.04599952697754,-24.410999298095703 21.573999404907227,-36.04100036621094z"></path></g><g opacity="1" transform="matrix(1,0,0,1,40.86800003051758,217.13699340820312)"><path fill="rgb(74,99,96)" fill-opacity="1" d=" M17.857999801635742,-17.238000869750977 C17.857999801635742,-17.238000869750977 13.923999786376953,-3.871000051498413 -3.0299999713897705,5.329999923706055 C-3.0299999713897705,5.329999923706055 -12.75,14.472000122070312 -12.75,14.472000122070312 C-12.75,14.472000122070312 -17.857999801635742,17.238000869750977 -14.861000061035156,12.696999549865723 C-14.861000061035156,12.696999549865723 -14.447999954223633,2.4140000343322754 -10.227999687194824,-1.0499999523162842 C-10.227999687194824,-1.0499999523162842 -4.370999813079834,-6.704999923706055 5.525000095367432,-8.177000045776367 C5.525000095367432,-8.177000045776367 14.02299976348877,-12.397000312805176 17.857999801635742,-17.238000869750977z"></path></g><g opacity="1" transform="matrix(1,0,0,1,78.24800109863281,112.34500122070312)"><path fill="rgb(129,145,143)" fill-opacity="1" d=" M-25.475000381469727,-108.33599853515625 C-25.475000381469727,-108.33599853515625 -12.918999671936035,-84.6989974975586 -12.918999671936035,-84.6989974975586 C-12.918999671936035,-84.6989974975586 -4.946000099182129,-64.66799926757812 -4.946000099182129,-64.66799926757812 C-4.946000099182129,-64.66799926757812 7.577000141143799,-51.6150016784668 7.577000141143799,-51.6150016784668 C7.577000141143799,-51.6150016784668 12.027000427246094,-44.439998626708984 12.027000427246094,-44.439998626708984 C12.027000427246094,-44.439998626708984 16.524999618530273,-34.689998626708984 16.524999618530273,-34.689998626708984 C16.524999618530273,-34.689998626708984 19.573999404907227,-28.28499984741211 19.573999404907227,-28.28499984741211 C19.573999404907227,-28.28499984741211 13.848999977111816,-35.792999267578125 13.848999977111816,-35.792999267578125 C13.848999977111816,-35.792999267578125 9.833000183105469,-43.09199905395508 9.833000183105469,-43.09199905395508 C9.833000183105469,-43.09199905395508 4.061999797821045,-53.17599868774414 4.061999797821045,-53.17599868774414 C4.061999797821045,-53.17599868774414 -2.6110000610351562,-58.28799819946289 -2.6110000610351562,-58.28799819946289 C-2.6110000610351562,-58.28799819946289 6.119999885559082,-20.35300064086914 6.119999885559082,-20.35300064086914 C6.119999885559082,-20.35300064086914 8.468999862670898,-6.679999828338623 8.468999862670898,-6.679999828338623 C8.468999862670898,-6.679999828338623 17.614999771118164,12.538999557495117 17.614999771118164,12.538999557495117 C17.614999771118164,12.538999557495117 19.309999465942383,20.753000259399414 19.309999465942383,20.753000259399414 C19.309999465942383,20.753000259399414 20.41699981689453,29.375 20.41699981689453,29.375 C20.41699981689453,29.375 21.19700050354004,35.266998291015625 21.19700050354004,35.266998291015625 C21.19700050354004,35.266998291015625 28.288000106811523,48.257999420166016 28.288000106811523,48.257999420166016 C28.288000106811523,48.257999420166016 29.6299991607666,54.457000732421875 29.6299991607666,54.457000732421875 C29.6299991607666,54.457000732421875 20.52899932861328,37.814998626708984 20.52899932861328,37.814998626708984 C20.52899932861328,37.814998626708984 18.347999572753906,31.155000686645508 18.347999572753906,31.155000686645508 C18.347999572753906,31.155000686645508 17.746999740600586,24.270000457763672 17.746999740600586,24.270000457763672 C17.746999740600586,24.270000457763672 17.246999740600586,18.530000686645508 17.246999740600586,18.530000686645508 C17.246999740600586,18.530000686645508 14.305000305175781,9.269000053405762 14.305000305175781,9.269000053405762 C14.305000305175781,9.269000053405762 7.775000095367432,-3.4170000553131104 7.775000095367432,-3.4170000553131104 C7.775000095367432,-3.4170000553131104 8.767000198364258,12.0649995803833 8.767000198364258,12.0649995803833 C8.767000198364258,12.0649995803833 6.369999885559082,26.41699981689453 6.369999885559082,26.41699981689453 C6.369999885559082,26.41699981689453 5.160999774932861,47.25 5.160999774932861,47.25 C5.160999774932861,47.25 5.284999847412109,78.28399658203125 5.284999847412109,78.28399658203125 C5.284999847412109,78.28399658203125 2.5510001182556152,52.01300048828125 2.5510001182556152,52.01300048828125 C2.5510001182556152,52.01300048828125 -12.39799976348877,84.62899780273438 -12.39799976348877,84.62899780273438 C-12.39799976348877,84.62899780273438 -19.69300079345703,99.94100189208984 -19.69300079345703,99.94100189208984 C-19.69300079345703,99.94100189208984 -24.371999740600586,106.48699951171875 -24.371999740600586,106.48699951171875 C-24.371999740600586,106.48699951171875 -29.6299991607666,109.43599700927734 -29.6299991607666,109.43599700927734 C-29.6299991607666,109.43599700927734 -21.16699981689453,97.31199645996094 -21.16699981689453,97.31199645996094 C-21.16699981689453,97.31199645996094 -16.020999908447266,85.9219970703125 -16.020999908447266,85.9219970703125 C-16.020999908447266,85.9219970703125 -23.964000701904297,91.7750015258789 -23.964000701904297,91.7750015258789 C-23.964000701904297,91.7750015258789 -14.767999649047852,82.96600341796875 -14.767999649047852,82.96600341796875 C-14.767999649047852,82.96600341796875 -0.35899999737739563,53.334999084472656 -0.35899999737739563,53.334999084472656 C-0.35899999737739563,53.334999084472656 3.3399999141693115,38.60200119018555 3.3399999141693115,38.60200119018555 C3.3399999141693115,38.60200119018555 4.047999858856201,27.332000732421875 4.047999858856201,27.332000732421875 C4.047999858856201,27.332000732421875 -0.6039999723434448,33.16299819946289 -0.6039999723434448,33.16299819946289 C-0.6039999723434448,33.16299819946289 6.13100004196167,17.542999267578125 6.13100004196167,17.542999267578125 C6.13100004196167,17.542999267578125 6.158999919891357,1.5269999504089355 6.158999919891357,1.5269999504089355 C6.158999919891357,1.5269999504089355 0.4490000009536743,-29.288000106811523 0.4490000009536743,-29.288000106811523 C0.4490000009536743,-29.288000106811523 -3.3420000076293945,-19.70599937438965 -3.3420000076293945,-19.70599937438965 C-3.3420000076293945,-19.70599937438965 -6.326000213623047,-4.945000171661377 -6.326000213623047,-4.945000171661377 C-6.326000213623047,-4.945000171661377 -23.483999252319336,21.724000930786133 -23.483999252319336,21.724000930786133 C-23.483999252319336,21.724000930786133 -8.413000106811523,-6.453999996185303 -8.413000106811523,-6.453999996185303 C-8.413000106811523,-6.453999996185303 -5.863999843597412,-21.086999893188477 -5.863999843597412,-21.086999893188477 C-5.863999843597412,-21.086999893188477 -1.4859999418258667,-31.07699966430664 -1.4859999418258667,-31.07699966430664 C-1.4859999418258667,-31.07699966430664 -1.1119999885559082,-41.071998596191406 -1.1119999885559082,-41.071998596191406 C-1.1119999885559082,-41.071998596191406 -8.489999771118164,-65.51399993896484 -8.489999771118164,-65.51399993896484 C-8.489999771118164,-65.51399993896484 -16.027000427246094,-85.6729965209961 -16.027000427246094,-85.6729965209961 C-16.027000427246094,-85.6729965209961 -20.138999938964844,-67.5250015258789 -20.138999938964844,-67.5250015258789 C-20.138999938964844,-67.5250015258789 -24.67799949645996,-53.250999450683594 -24.67799949645996,-53.250999450683594 C-24.67799949645996,-53.250999450683594 -21.18000030517578,-70.27999877929688 -21.18000030517578,-70.27999877929688 C-21.18000030517578,-70.27999877929688 -17.121999740600586,-87.00299835205078 -17.121999740600586,-87.00299835205078 C-17.121999740600586,-87.00299835205078 -28.149999618530273,-109.43599700927734 -28.149999618530273,-109.43599700927734 C-28.149999618530273,-109.43599700927734 -25.475000381469727,-108.33599853515625 -25.475000381469727,-108.33599853515625z"></path></g><g opacity="1" transform="matrix(1,0,0,1,53.895999908447266,30.3799991607666)"><path fill="rgb(129,145,143)" fill-opacity="1" d=" M-11.635000228881836,6.125 C-11.635000228881836,6.125 4.447999954223633,-3.2820000648498535 11.635000228881836,-0.4390000104904175 C11.635000228881836,-0.4390000104904175 -2.739000082015991,-6.125 -11.635000228881836,6.125z"></path></g><g opacity="1" transform="matrix(1,0,0,1,23.641000747680664,53.91999816894531)"><path fill="rgb(188,196,151)" fill-opacity="1" d=" M-8.942999839782715,28.475000381469727 C-9.217000007629395,29.451000213623047 -9.468000411987305,30.43899917602539 -9.666999816894531,31.45800018310547 C-9.666999816894531,31.45800018310547 -28.156999588012695,-0.7400000095367432 0.35499998927116394,-20.41699981689453 C0.35499998927116394,-20.41699981689453 20.708999633789062,-31.45800018310547 23.641000747680664,-20.240999221801758 C-7.775000095367432,-9.793000221252441 -9.583000183105469,17.43199920654297 -8.942999839782715,28.475000381469727z"></path></g><g opacity="1" transform="matrix(1,0,0,1,30.898000717163086,58.0369987487793)"><path fill="rgb(216,213,179)" fill-opacity="1" d=" M-16.198999404907227,24.357999801635742 C-16.839000701904297,13.3149995803833 -15.031000137329102,-13.90999984741211 16.385000228881836,-24.357999801635742 C16.718000411987305,-23.083999633789062 16.839000701904297,-21.53700065612793 16.666000366210938,-19.638999938964844 C15.746000289916992,-9.51099967956543 -9.869999885559082,1.8179999589920044 -16.198999404907227,24.357999801635742z"></path></g><g opacity="1" transform="matrix(1,0,0,1,48.801998138427734,75.54900360107422)"><path fill="rgb(199,195,143)" fill-opacity="1" d=" M8.71500015258789,-37.40800094604492 C8.779000282287598,-37.45000076293945 8.83899974822998,-37.49300003051758 8.904000282287598,-37.53499984741211 C8.904000282287598,-37.53499984741211 29.357999801635742,16.139999389648438 -29.35700035095215,37.53499984741211 C-29.35700035095215,37.53499984741211 -28.9060001373291,37.0369987487793 -28.20800018310547,36.13999938964844 C-13.494999885559082,22.47100067138672 9.317999839782715,-4.1519999504089355 8.71500015258789,-37.40800094604492z"></path></g><g opacity="1" transform="matrix(1,0,0,1,39.356998443603516,74.91600036621094)"><path fill="rgb(207,214,187)" fill-opacity="1" d=" M18.160999298095703,-36.77399826049805 C18.763999938964844,-3.5179998874664307 -4.051000118255615,23.104999542236328 -18.763999938964844,36.77399826049805 C-15.72599983215332,32.867000579833984 -7.999000072479248,21.356000900268555 -12.347999572753906,10.07800006866455 C-12.347999572753906,10.07800006866455 -13.241999626159668,-16.239999771118164 18.160999298095703,-36.77399826049805z"></path></g><g opacity="1" transform="matrix(1,0,0,1,111.14600372314453,98.44200134277344)"><path fill="rgb(207,214,187)" fill-opacity="1" d=" M20.329999923706055,6.427999973297119 C20.329999923706055,6.427999973297119 24.075000762939453,33.99300003051758 24.075000762939453,33.99300003051758 C14.586999893188477,26.82200050354004 4.876999855041504,17.30500030517578 3.1519999504089355,7.468999862670898 C3.1519999504089355,7.468999862670898 3.2730000019073486,-3.3949999809265137 -5.693999767303467,-8.307000160217285 C-5.693999767303467,-8.307000160217285 -20.8439998626709,-20.2189998626709 -24.075000762939453,-33.99300003051758 C-16.972999572753906,-26.10099983215332 3.6689999103546143,-19.264999389648438 3.6689999103546143,-19.264999389648438 C17.506999969482422,-15.503000259399414 20.329999923706055,6.427999973297119 20.329999923706055,6.427999973297119z"></path></g><g opacity="1" transform="matrix(1,0,0,1,58.448001861572266,131.53399658203125)"><path fill="rgb(121,162,143)" fill-opacity="1" d=" M1.246999979019165,-10.182999610900879 C7.803999900817871,-22.768999099731445 11.0649995803833,-30.76099967956543 12.680000305175781,-35.722999572753906 C13.612000465393066,-35.808998107910156 14.579000473022461,-35.84600067138672 15.592000007629395,-35.816001892089844 C15.592000007629395,-35.816001892089844 15.765999794006348,-35.527000427246094 15.765999794006348,-35.527000427246094 C15.765999794006348,-35.527000427246094 22.68600082397461,-8.904999732971191 9.394000053405762,-0.32899999618530273 C9.394000053405762,-0.32899999618530273 -1.2630000114440918,2.990000009536743 -3.187999963760376,10.38599967956543 C-3.187999963760376,10.38599967956543 -1.2669999599456787,17.4060001373291 -9.815999984741211,22.70800018310547 C-9.815999984741211,22.70800018310547 -20.9950008392334,35.63199996948242 -20.9950008392334,35.63199996948242 C-20.9950008392334,35.63199996948242 -21.941999435424805,35.84600067138672 -22.68600082397461,35.395999908447266 C-15.083999633789062,15.524999618530273 1.246999979019165,-10.182999610900879 1.246999979019165,-10.182999610900879z"></path></g><g opacity="1" transform="matrix(1,0,0,1,52.43600082397461,131.37100219726562)"><path fill="rgb(207,214,187)" fill-opacity="1" d=" M18.69099998474121,-35.558998107910156 C17.076000213623047,-30.597999572753906 13.815999984741211,-22.606000900268555 7.257999897003174,-10.019000053405762 C7.257999897003174,-10.019000053405762 -9.071000099182129,15.689000129699707 -16.673999786376953,35.558998107910156 C-17.493999481201172,35.0629997253418 -18.065000534057617,33.757999420166016 -16.834999084472656,30.43199920654297 C-16.834999084472656,30.43199920654297 -18.691999435424805,10.196000099182129 -11.475000381469727,0.8180000185966492 C-11.475000381469727,0.8180000185966492 -0.8130000233650208,-8.859999656677246 -1.1799999475479126,-18.167999267578125 C-1.1799999475479126,-18.167999267578125 3.4549999237060547,-34.145999908447266 18.69099998474121,-35.558998107910156z"></path></g><g opacity="1" transform="matrix(1,0,0,1,58.290000915527344,240.5290069580078)"><path fill="rgb(74,99,96)" fill-opacity="1" d=" M2.5829999446868896,-5.593999862670898 C-0.6759999990463257,7.111000061035156 2.3540000915527344,18.812999725341797 6.877999782562256,28.290000915527344 C6.789000034332275,28.34000015258789 6.690000057220459,28.381000518798828 6.579999923706055,28.4060001373291 C6.579999923706055,28.4060001373291 4.004000186920166,28.452999114990234 2.382999897003174,22.10099983215332 C2.382999897003174,22.10099983215332 -6.877999782562256,9.741000175476074 -5.118000030517578,-4.7779998779296875 C-5.118000030517578,-4.7779998779296875 -1.725000023841858,-13.302000045776367 -2.634999990463257,-17.625999450683594 C-2.634999990463257,-17.625999450683594 -3.3480000495910645,-23.117000579833984 -0.8460000157356262,-28.45400047302246 C1.5850000381469727,-15.498000144958496 2.5829999446868896,-5.593999862670898 2.5829999446868896,-5.593999862670898z"></path></g><g opacity="1" transform="matrix(1,0,0,1,65.77899932861328,238.36900329589844)"><path fill="rgb(129,148,139)" fill-opacity="1" d=" M0.5230000019073486,-14.196000099182129 C0.5230000019073486,-14.196000099182129 8.336000442504883,-13.914999961853027 5.322999954223633,-4.090000152587891 C5.322999954223633,-4.090000152587891 7.370999813079834,6.098999977111816 0.7609999775886536,16.524999618530273 C0.7609999775886536,16.524999618530273 -3.2139999866485596,21.472999572753906 -0.3779999911785126,25.94099998474121 C-0.3779999911785126,25.94099998474121 0.8100000023841858,29.652000427246094 -0.6110000014305115,30.451000213623047 C-5.133999824523926,20.972999572753906 -8.164999961853027,9.270999908447266 -4.906000137329102,-3.433000087738037 C-4.906000137329102,-3.433000087738037 -5.9039998054504395,-13.338000297546387 -8.335000038146973,-26.29400062561035 C-7.664000034332275,-27.726999282836914 -6.77400016784668,-29.14900016784668 -5.559000015258789,-30.451000213623047 C-5.559000015258789,-30.451000213623047 -7.165999889373779,-19.69099998474121 0.5230000019073486,-14.196000099182129z"></path></g><g opacity="1" transform="matrix(1,0,0,1,39.797000885009766,243.24400329589844)"><path fill="rgb(74,99,96)" fill-opacity="1" d=" M0.7770000100135803,-8.496999740600586 C-6.947000026702881,1.9759999513626099 -8.222999572753906,15.321000099182129 -7.790999889373779,25.295000076293945 C-8.14799976348877,25.344999313354492 -8.57800006866455,25.011999130249023 -9.032999992370605,23.770999908447266 C-9.032999992370605,23.770999908447266 -13.015000343322754,11.753000259399414 -8.357000350952148,1.9179999828338623 C-8.357000350952148,1.9179999828338623 -6.48799991607666,-21.555999755859375 13.015000343322754,-25.344999313354492 C5.517000198364258,-16.882999420166016 0.7770000100135803,-8.496999740600586 0.7770000100135803,-8.496999740600586z"></path></g><g opacity="1" transform="matrix(1,0,0,1,42.05099868774414,243.05999755859375)"><path fill="rgb(129,148,139)" fill-opacity="1" d=" M-3.940999984741211,12.51200008392334 C-3.940999984741211,12.51200008392334 -10.361000061035156,16.731000900268555 -9.623000144958496,24.288000106811523 C-9.623000144958496,24.288000106811523 -10.001999855041504,25.31800079345703 -10.562000274658203,25.395999908447266 C-10.993000030517578,15.420999526977539 -9.717000007629395,2.0759999752044678 -1.9930000305175781,-8.397000312805176 C-1.9930000305175781,-8.397000312805176 2.746999979019165,-16.783000946044922 10.244999885559082,-25.2450008392334 C10.496000289916992,-25.292999267578125 10.736000061035156,-25.35300064086914 10.993000030517578,-25.395000457763672 C10.993000030517578,-25.395000457763672 5.63100004196167,-9.484000205993652 5.63100004196167,-9.484000205993652 C5.63100004196167,-9.484000205993652 2.9660000801086426,7.551000118255615 -3.940999984741211,12.51200008392334z"></path></g><g opacity="1" transform="matrix(1,0,0,1,91.5979995727539,36.301998138427734)"><path fill="rgb(83,67,81)" fill-opacity="1" d=" M-3.7769999504089355,-34.5260009765625 C-3.7769999504089355,-34.5260009765625 -9.831999778747559,-13.73900032043457 9.831000328063965,16.19300079345703 C9.831000328063965,16.19300079345703 -2.6040000915527344,2.5369999408721924 -3.2829999923706055,-8.62600040435791 C-3.2829999923706055,-8.62600040435791 0.13500000536441803,34.5260009765625 0.13500000536441803,34.5260009765625 C0.13500000536441803,34.5260009765625 -3.8259999752044678,3.88700008392334 -3.8259999752044678,3.88700008392334 C-3.8259999752044678,3.88700008392334 -3.7769999504089355,-34.5260009765625 -3.7769999504089355,-34.5260009765625z"></path></g><g opacity="1" transform="matrix(1,0,0,1,108.2490005493164,55.82500076293945)"><path fill="rgb(129,148,139)" fill-opacity="1" d=" M1.8630000352859497,3.367000102996826 C12.241999626159668,10.130999565124512 17.165000915527344,18.731000900268555 19.399999618530273,26.42099952697754 C19.552000045776367,27.70800018310547 19.58099937438965,28.448999404907227 19.58099937438965,28.448999404907227 C13.664999961853027,18.309999465942383 5.202000141143799,15.548999786376953 5.202000141143799,15.548999786376953 C-17.39900016784668,2.9830000400543213 -19.58099937438965,-28.448999404907227 -19.58099937438965,-28.448999404907227 C-19.219999313354492,-27.927000045776367 -18.735000610351562,-27.31399917602539 -18.1560001373291,-26.635000228881836 C-14.218999862670898,-9.925000190734863 1.8630000352859497,3.367000102996826 1.8630000352859497,3.367000102996826z"></path></g><g opacity="1" transform="matrix(1,0,0,1,108.87100219726562,55.71799850463867)"><path fill="rgb(74,99,96)" fill-opacity="1" d=" M18.777999877929688,26.527999877929688 C16.542999267578125,18.83799934387207 11.621000289916992,10.237000465393066 1.2410000562667847,3.4739999771118164 C1.2410000562667847,3.4739999771118164 -14.840999603271484,-9.819000244140625 -18.777999877929688,-26.527999877929688 C-12.855999946594238,-19.582000732421875 3.197000026702881,-5.448999881744385 3.197000026702881,-5.448999881744385 C15.3149995803833,5.98799991607666 18.138999938964844,21.125999450683594 18.777999877929688,26.527999877929688z"></path></g><g opacity="1" transform="matrix(1,0,0,1,97.5510025024414,73.97000122070312)"><path fill="rgb(129,148,139)" fill-opacity="1" d=" M17.709999084472656,30.163999557495117 C17.7189998626709,30.274999618530273 17.725000381469727,30.341999053955078 17.725000381469727,30.341999053955078 C8.086000442504883,23.898000717163086 -7.039000034332275,5.550000190734863 -7.039000034332275,5.550000190734863 C-17.725000381469727,-6.434999942779541 -8.76099967956543,-30.341999053955078 -8.76099967956543,-30.341999053955078 C-8.76099967956543,-30.341999053955078 -8.661999702453613,-30.173999786376953 -8.661999702453613,-30.173999786376953 C-4.169000148773193,4.682000160217285 7.886000156402588,21.816999435424805 17.709999084472656,30.163999557495117z"></path></g><g opacity="1" transform="matrix(1,0,0,1,102.0739974975586,73.96499633789062)"><path fill="rgb(74,99,96)" fill-opacity="1" d=" M-13.185999870300293,-30.16900062561035 C-13.185999870300293,-30.16900062561035 2.9149999618530273,-3.069999933242798 2.9149999618530273,-3.069999933242798 C11.326000213623047,10.364999771118164 13.024999618530273,28.250999450683594 13.185999870300293,30.16900062561035 C3.361999988555908,21.82200050354004 -8.692999839782715,4.686999797821045 -13.185999870300293,-30.16900062561035z"></path></g><g opacity="1" transform="matrix(1,0,0,1,80.56600189208984,47.80099868774414)"><path fill="rgb(74,99,96)" fill-opacity="1" d=" M7.335000038146973,-23.895999908447266 C7.690999984741211,-24.208999633789062 7.896999835968018,-24.381999969482422 7.896999835968018,-24.381999969482422 C8.878000259399414,2.2880001068115234 -0.5400000214576721,12.651000022888184 -0.5400000214576721,12.651000022888184 C-5.427000045776367,17.44099998474121 -7.895999908447266,22.170000076293945 -8.878000259399414,24.381999969482422 C-8.638999938964844,17.674999237060547 -5.869999885559082,3.5329999923706055 7.335000038146973,-23.895999908447266z"></path></g><g opacity="1" transform="matrix(1,0,0,1,78.14600372314453,48.696998596191406)"><path fill="rgb(129,148,139)" fill-opacity="1" d=" M9.755999565124512,-24.79199981689453 C-3.4489998817443848,2.63700008392334 -6.218999862670898,16.780000686645508 -6.458000183105469,23.48699951171875 C-6.822000026702881,24.30699920654297 -6.986999988555908,24.79199981689453 -6.986999988555908,24.79199981689453 C-8.135000228881836,19.63599967956543 -7.875999927520752,5.327000141143799 -7.875999927520752,5.327000141143799 C-9.755999565124512,-6.964000225067139 6.513000011444092,-21.94300079345703 9.755999565124512,-24.79199981689453z"></path></g></g></g></svg>